<svg height="100" viewBox="0 0 100 100" width="100" xmlns="http://www.w3.org/2000/svg"><path d="M50 0C22.386 0 0 22.386 0 50s22.386 50 50 50 50-22.386 50-50S77.614 0 50 0z" fill="#EFEFEF"/><path d="M50 18.001c-15.464 0-28 12.535-28 27.999v10h3v-9.666C25 32.343 36.193 21 50 21c13.808 0 25 11.343 25 25.334V56h3V46c0-15.464-12.536-27.999-28-27.999z" fill="#324D5B"/><path d="M29 52c-6.075 0-11 4.925-11 11s4.925 11 11 11c3.657 0 3-11 3-11s.698-11-3-11zm42.604 0c-3.375 0-2.836 11-2.836 11s-.672 11 2.836 11C77.346 74 82 69.075 82 63s-4.654-11-10.396-11z" fill="#E2574C"/><path d="M34 48a6 6 0 0 0-6 6v18a6 6 0 0 0 12 0V54a6 6 0 0 0-6-6zm32 0a6 6 0 0 0-6 6v18a6 6 0 0 0 12 0V54a6 6 0 0 0-6-6z" fill="#BFC3C5"/><path d="M40 72V54a6 6 0 0 0-6-6v30a6 6 0 0 0 6-6zm20-18v18a6 6 0 0 0 6 6V48a6 6 0 0 0-6 6z" fill="#CFD2D4"/><path d="M72 73.979a9.862 9.862 0 0 0 4-1.021V53.043a9.846 9.846 0 0 0-4-1.021v21.957zm-48-1.19a10.903 10.903 0 0 0 4 1.16V52.051c-1.431.129-2.78.535-4 1.16v19.578z" fill="#C04A41"/></svg>