<svg height="100" viewBox="0 0 100 100" width="100" xmlns="http://www.w3.org/2000/svg"><path d="M50 0c27.614 0 50 22.386 50 50s-22.386 50-50 50S0 77.614 0 50 22.386 0 50 0z" fill="#E2574C"/><path d="M26 28a3 3 0 0 0-3 3v61.073A49.748 49.748 0 0 0 50 100c27.614 0 50-22.386 50-50 0-7.896-1.837-15.36-5.096-22H26z" fill="#E6E6E6"/><path d="M27 42v52.392A49.76 49.76 0 0 0 50 100c27.614 0 50-22.386 50-50 0-3.426-.346-6.77-1.002-10.001H29c-1.104 0-2 .897-2 2.001z" fill="#2B414D"/><path d="M64 47H35a1 1 0 0 0-1 1v1a1 1 0 0 0 1 1h29a1 1 0 0 0 1-1v-1a1 1 0 0 0-1-1zm-6 42H35a1 1 0 0 0-1 1.001V91a1 1 0 0 0 1 1h23a1 1 0 0 0 1-1v-.999A1 1 0 0 0 58 89z" fill="#E4E7E7"/><path d="M47 54H35a1 1 0 0 0-1 1v1a1 1 0 0 0 1 1h12a1 1 0 0 0 1-1v-1a1 1 0 0 0-1-1zm-3 13.999h-9a1 1 0 0 0-1 1V70a1 1 0 0 0 1 1h9a1 1 0 0 0 1-1v-1.001a1 1 0 0 0-1-1zm36 0H68a1 1 0 0 0-1 1V70a1 1 0 0 0 1 1h12a1 1 0 0 0 1-1v-1.001a1 1 0 0 0-1-1zM44 82h-9c-.553 0-1 .447-1 .999v1A1 1 0 0 0 35 85h9a1 1 0 0 0 1-1.001v-1A.999.999 0 0 0 44 82z" fill="#E35E53"/><path d="M84 54H53a1 1 0 0 0-1 1v1a1 1 0 0 0 1 1h31a1 1 0 0 0 1-1v-1a1 1 0 0 0-1-1zM69 74.999H35A1 1 0 0 0 34 76v1a1 1 0 0 0 1 1h34a1 1 0 0 0 1-1v-1a1 1 0 0 0-1-1.001z" fill="#26A6D1"/><path d="M74 60.999H35A1 1 0 0 0 34 62v1c0 .553.447.999 1 .999h39c.553 0 1-.446 1-.999v-1a1 1 0 0 0-1-1.001zM50 71h12a1 1 0 0 0 1-1v-1.001a1 1 0 0 0-1-1H50a1 1 0 0 0-1 1V70a1 1 0 0 0 1 1zm14 11H50c-.553 0-1 .447-1 .999v1A1 1 0 0 0 50 85h14a1 1 0 0 0 1-1.001v-1A.999.999 0 0 0 64 82z" fill="#49B8A4"/><path d="M29 32a2 2 0 1 0 .001 4.001A2 2 0 0 0 29 32zm6 0a2 2 0 1 0 .001 4.001A2 2 0 0 0 35 32zm6 0a2 2 0 1 0 .001 4.001A2 2 0 0 0 41 32z" fill="#737373"/></svg>