<svg width="626" height="177" viewBox="0 0 626 177" xmlns="http://www.w3.org/2000/svg"><title>CraftX</title><g fill="none" fill-rule="evenodd"><path fill="#00966C" d="M88 106l-64 47V25l64 47 64-47v33.28L110 89l42 31v33z"/><path fill="#FFF" d="M46 72l22 17-22 17z"/><path fill-opacity=".25" fill="#000" opacity=".25" d="M88 106l22-17 9 7-27 13z"/><path d="M570.5 106.477L582 126h20l-21.5-36.5L602 53h-20l-11.5 19.523L559 53h-20l21.5 36.5L539 126h20l11.5-19.523zM509 126V68h26l-8-15h-18V38h-21v15h-20v15h20v58h21zM443 25c-19.61 0-30 7.838-30 22v6h-20l8 15h12v58h21V68h24V53h-24v-9c0-7.081 3.944-6 24-6V25h-15zm-53 100.994s-31.012.006-40 .006c-14.98 0-24-7.655-24-21 0-15.66 11.667-24 34-24h10v-3c0-7.626-5.604-10-15-10h-22V53h25c21.516 0 32 7.387 32 24v48.994zM356 113h14V93h-6c-11.983 0-17 3.919-17 11 0 5.583 2.872 9 9 9zm-65 13s.092-41.516-.054-51c.122-5.858 21.215-6.844 28.054-7 1.334-.03 4 0 4 0V53.033h-5.707C304 54 297.22 53.12 290.946 61v-7.903L269 53v73h22zm-61-58c-9.805 0-16 4.66-16 21 0 16.07 7.74 24 17 24h26v13h-28c-23.422 0-37-14.395-37-37s14.714-36 38-36h27v15h-27z" fill="#626780"/></g></svg>