<svg width="768" height="256" viewBox="0 0 768 256" xmlns="http://www.w3.org/2000/svg"><title>Craft X Logo Light</title><g fill="none" fill-rule="evenodd"><path d="M660.55 153.699c0 1.207-.425 2.237-1.278 3.089-.852.852-1.882 1.278-3.089 1.278s-2.237-.426-3.09-1.278c-.852-.852-1.278-1.882-1.278-3.09 0-1.207.426-2.237 1.279-3.089.852-.852 1.882-1.278 3.09-1.278 1.206 0 2.236.426 3.088 1.278.853.852 1.279 1.882 1.279 3.09zm10.867 0c0 1.207-.426 2.237-1.278 3.089-.853.852-1.882 1.278-3.09 1.278-1.207 0-2.237-.426-3.09-1.278-.851-.852-1.278-1.882-1.278-3.09 0-1.207.427-2.237 1.279-3.089.852-.852 1.882-1.278 3.09-1.278 1.207 0 2.236.426 3.089 1.278.852.852 1.278 1.882 1.278 3.09zm0-10.867c0 1.208-.426 2.238-1.278 3.09-.853.852-1.882 1.278-3.09 1.278-1.207 0-2.237-.426-3.09-1.278-.851-.852-1.278-1.882-1.278-3.09 0-1.207.427-2.237 1.279-3.089.852-.852 1.882-1.278 3.09-1.278 1.207 0 2.236.426 3.089 1.278.852.852 1.278 1.882 1.278 3.09zm10.866 0c0 1.208-.426 2.238-1.278 3.09-.852.852-1.882 1.278-3.09 1.278-1.207 0-2.237-.426-3.089-1.278-.852-.852-1.278-1.882-1.278-3.09 0-1.207.426-2.237 1.278-3.089.852-.852 1.882-1.278 3.09-1.278 1.207 0 2.237.426 3.089 1.278.852.852 1.278 1.882 1.278 3.09zM671.417 121.1c0 1.207-.426 2.237-1.278 3.09-.853.852-1.882 1.278-3.09 1.278-1.207 0-2.237-.426-3.09-1.279-.851-.852-1.278-1.882-1.278-3.089s.427-2.237 1.279-3.09c.852-.852 1.882-1.278 3.09-1.278 1.207 0 2.236.426 3.089 1.279.852.852 1.278 1.882 1.278 3.09zm10.866 10.866c0 1.208-.426 2.237-1.278 3.09-.852.852-1.882 1.278-3.09 1.278-1.207 0-2.237-.426-3.089-1.278-.852-.853-1.278-1.882-1.278-3.09 0-1.207.426-2.237 1.278-3.09.852-.851 1.882-1.278 3.09-1.278 1.207 0 2.237.427 3.089 1.279.852.852 1.278 1.882 1.278 3.09zm-21.733-21.732c0 1.207-.425 2.237-1.278 3.09-.852.852-1.882 1.278-3.089 1.278s-2.237-.426-3.09-1.279c-.852-.852-1.278-1.882-1.278-3.09 0-1.206.426-2.236 1.279-3.088.852-.853 1.882-1.279 3.09-1.279 1.206 0 2.236.426 3.088 1.279.853.852 1.279 1.882 1.279 3.089zm54.332 43.465c0 1.207-.426 2.237-1.279 3.089-.852.852-1.882 1.278-3.09 1.278-1.207 0-2.236-.426-3.089-1.278-.852-.852-1.278-1.882-1.278-3.09 0-1.207.426-2.237 1.278-3.089.853-.852 1.882-1.278 3.09-1.278 1.207 0 2.237.426 3.09 1.278.852.852 1.278 1.882 1.278 3.09zm-43.465-43.465c0 1.207-.426 2.237-1.278 3.09-.853.852-1.882 1.278-3.09 1.278-1.207 0-2.237-.426-3.09-1.279-.851-.852-1.278-1.882-1.278-3.09 0-1.206.427-2.236 1.279-3.088.852-.853 1.882-1.279 3.09-1.279 1.207 0 2.236.426 3.089 1.279.852.852 1.278 1.882 1.278 3.089zm32.598 32.598c0 1.208-.426 2.238-1.278 3.09-.852.852-1.882 1.278-3.09 1.278-1.207 0-2.236-.426-3.089-1.278-.852-.852-1.278-1.882-1.278-3.09 0-1.207.426-2.237 1.278-3.089.853-.852 1.882-1.278 3.09-1.278 1.207 0 2.237.426 3.09 1.278.851.852 1.277 1.882 1.277 3.09zm-10.865-10.866c0 1.208-.427 2.237-1.28 3.09-.851.852-1.881 1.278-3.088 1.278-1.208 0-2.238-.426-3.09-1.278-.852-.853-1.278-1.882-1.278-3.09 0-1.207.426-2.237 1.278-3.09.852-.851 1.882-1.278 3.09-1.278 1.207 0 2.237.427 3.089 1.279.852.852 1.278 1.882 1.278 3.09zM682.283 121.1c0 1.207-.426 2.237-1.278 3.09-.852.852-1.882 1.278-3.09 1.278-1.207 0-2.237-.426-3.089-1.279-.852-.852-1.278-1.882-1.278-3.089s.426-2.237 1.278-3.09c.852-.852 1.882-1.278 3.09-1.278 1.207 0 2.237.426 3.089 1.279.852.852 1.278 1.882 1.278 3.09zm32.599 21.732c0 1.208-.426 2.238-1.279 3.09-.852.852-1.882 1.278-3.09 1.278-1.207 0-2.236-.426-3.089-1.278-.852-.852-1.278-1.882-1.278-3.09 0-1.207.426-2.237 1.278-3.089.853-.852 1.882-1.278 3.09-1.278 1.207 0 2.237.426 3.09 1.278.852.852 1.278 1.882 1.278 3.09zm10.866 10.867c0 1.207-.426 2.237-1.279 3.089-.852.852-1.882 1.278-3.089 1.278s-2.237-.426-3.09-1.278c-.852-.852-1.278-1.882-1.278-3.09 0-1.207.426-2.237 1.279-3.089.852-.852 1.882-1.278 3.089-1.278s2.237.426 3.09 1.278c.852.852 1.278 1.882 1.278 3.09zm-21.733-21.733c0 1.208-.426 2.237-1.278 3.09-.852.852-1.882 1.278-3.09 1.278-1.207 0-2.236-.426-3.089-1.278-.852-.853-1.278-1.882-1.278-3.09 0-1.207.426-2.237 1.278-3.09.853-.851 1.882-1.278 3.09-1.278 1.207 0 2.237.427 3.09 1.279.851.852 1.277 1.882 1.277 3.09zm0-10.866c0 1.207-.426 2.237-1.278 3.09-.852.852-1.882 1.278-3.09 1.278-1.207 0-2.236-.426-3.089-1.279-.852-.852-1.278-1.882-1.278-3.089s.426-2.237 1.278-3.09c.853-.852 1.882-1.278 3.09-1.278 1.207 0 2.237.426 3.09 1.279.851.852 1.277 1.882 1.277 3.09zm10.867 0c0 1.207-.426 2.237-1.279 3.09-.852.852-1.882 1.278-3.09 1.278-1.207 0-2.236-.426-3.089-1.279-.852-.852-1.278-1.882-1.278-3.089s.426-2.237 1.278-3.09c.853-.852 1.882-1.278 3.09-1.278 1.207 0 2.237.426 3.09 1.279.852.852 1.278 1.882 1.278 3.09zm0-10.866c0 1.207-.426 2.237-1.279 3.09-.852.852-1.882 1.278-3.09 1.278-1.207 0-2.236-.426-3.089-1.279-.852-.852-1.278-1.882-1.278-3.09 0-1.206.426-2.236 1.278-3.088.853-.853 1.882-1.279 3.09-1.279 1.207 0 2.237.426 3.09 1.279.852.852 1.278 1.882 1.278 3.089zm10.866 0c0 1.207-.426 2.237-1.279 3.09-.852.852-1.882 1.278-3.089 1.278s-2.237-.426-3.09-1.279c-.852-.852-1.278-1.882-1.278-3.09 0-1.206.426-2.236 1.279-3.088.852-.853 1.882-1.279 3.089-1.279s2.237.426 3.09 1.279c.852.852 1.278 1.882 1.278 3.089zm-108.196 43.465c0 1.207-.426 2.237-1.278 3.089-.852.852-1.882 1.278-3.09 1.278-1.207 0-2.237-.426-3.089-1.278-.852-.852-1.278-1.882-1.278-3.09 0-1.207.426-2.237 1.278-3.089.852-.852 1.882-1.278 3.09-1.278 1.207 0 2.237.426 3.089 1.278.852.852 1.278 1.882 1.278 3.09zm-10.866-10.867c0 1.208-.426 2.238-1.278 3.09-.852.852-1.882 1.278-3.09 1.278-1.207 0-2.237-.426-3.089-1.278-.852-.852-1.278-1.882-1.278-3.09 0-1.207.426-2.237 1.278-3.089.852-.852 1.882-1.278 3.09-1.278 1.207 0 2.237.426 3.089 1.278.852.852 1.278 1.882 1.278 3.09zm21.732 10.867c0 1.207-.426 2.237-1.278 3.089-.852.852-1.882 1.278-3.09 1.278-1.207 0-2.236-.426-3.089-1.278-.852-.852-1.278-1.882-1.278-3.09 0-1.207.426-2.237 1.278-3.089.853-.852 1.882-1.278 3.09-1.278 1.207 0 2.237.426 3.09 1.278.851.852 1.277 1.882 1.277 3.09zm-10.866-10.867c0 1.208-.426 2.238-1.278 3.09-.852.852-1.882 1.278-3.09 1.278-1.207 0-2.237-.426-3.089-1.278-.852-.852-1.278-1.882-1.278-3.09 0-1.207.426-2.237 1.278-3.089.852-.852 1.882-1.278 3.09-1.278 1.207 0 2.237.426 3.089 1.278.852.852 1.278 1.882 1.278 3.09zm-10.866-10.866c0 1.208-.426 2.237-1.278 3.09-.852.852-1.882 1.278-3.09 1.278-1.207 0-2.237-.426-3.089-1.278-.852-.853-1.278-1.882-1.278-3.09 0-1.207.426-2.237 1.278-3.09.852-.851 1.882-1.278 3.09-1.278 1.207 0 2.237.427 3.089 1.279.852.852 1.278 1.882 1.278 3.09zm32.599 21.733c0 1.207-.427 2.237-1.279 3.089-.852.852-1.882 1.278-3.09 1.278-1.207 0-2.236-.426-3.089-1.278-.852-.852-1.278-1.882-1.278-3.09 0-1.207.426-2.237 1.278-3.089.853-.852 1.882-1.278 3.09-1.278 1.207 0 2.237.426 3.09 1.278.851.852 1.278 1.882 1.278 3.09zm-43.465-43.465c0 1.207-.426 2.237-1.278 3.09-.853.852-1.882 1.278-3.09 1.278-1.207 0-2.237-.426-3.09-1.279-.851-.852-1.278-1.882-1.278-3.09 0-1.206.427-2.236 1.279-3.088.852-.853 1.882-1.279 3.09-1.279 1.207 0 2.236.426 3.089 1.279.852.852 1.278 1.882 1.278 3.089zm21.732 21.732c0 1.208-.426 2.237-1.278 3.09-.852.852-1.882 1.278-3.09 1.278-1.207 0-2.237-.426-3.089-1.278-.852-.853-1.278-1.882-1.278-3.09 0-1.207.426-2.237 1.278-3.09.852-.851 1.882-1.278 3.09-1.278 1.207 0 2.237.427 3.089 1.279.852.852 1.278 1.882 1.278 3.09zM606.686 121.1c0 1.207-.426 2.237-1.278 3.09-.852.852-1.882 1.278-3.09 1.278-1.207 0-2.237-.426-3.089-1.279-.852-.852-1.278-1.882-1.278-3.089s.426-2.237 1.278-3.09c.852-.852 1.882-1.278 3.09-1.278 1.207 0 2.237.426 3.089 1.279.852.852 1.278 1.882 1.278 3.09zm10.866 0c0 1.207-.426 2.237-1.278 3.09-.852.852-1.882 1.278-3.09 1.278-1.207 0-2.237-.426-3.089-1.279-.852-.852-1.278-1.882-1.278-3.089s.426-2.237 1.278-3.09c.852-.852 1.882-1.278 3.09-1.278 1.207 0 2.237.426 3.089 1.279.852.852 1.278 1.882 1.278 3.09zm-10.866-10.866c0 1.207-.426 2.237-1.278 3.09-.852.852-1.882 1.278-3.09 1.278-1.207 0-2.237-.426-3.089-1.279-.852-.852-1.278-1.882-1.278-3.09 0-1.206.426-2.236 1.278-3.088.852-.853 1.882-1.279 3.09-1.279 1.207 0 2.237.426 3.089 1.279.852.852 1.278 1.882 1.278 3.089zm0-10.866c0 1.207-.426 2.237-1.278 3.09-.852.851-1.882 1.278-3.09 1.278-1.207 0-2.237-.427-3.089-1.279-.852-.852-1.278-1.882-1.278-3.09 0-1.207.426-2.236 1.278-3.089.852-.852 1.882-1.278 3.09-1.278 1.207 0 2.237.426 3.089 1.278.852.853 1.278 1.882 1.278 3.09zm10.866 10.866c0 1.207-.426 2.237-1.278 3.09-.852.852-1.882 1.278-3.09 1.278-1.207 0-2.237-.426-3.089-1.279-.852-.852-1.278-1.882-1.278-3.09 0-1.206.426-2.236 1.278-3.088.852-.853 1.882-1.279 3.09-1.279 1.207 0 2.237.426 3.089 1.279.852.852 1.278 1.882 1.278 3.089zm0-10.866c0 1.207-.426 2.237-1.278 3.09-.852.851-1.882 1.278-3.09 1.278-1.207 0-2.237-.427-3.089-1.279-.852-.852-1.278-1.882-1.278-3.09 0-1.207.426-2.236 1.278-3.089.852-.852 1.882-1.278 3.09-1.278 1.207 0 2.237.426 3.089 1.278.852.853 1.278 1.882 1.278 3.09zm10.866 10.866c0 1.207-.426 2.237-1.278 3.09-.852.852-1.882 1.278-3.09 1.278-1.207 0-2.236-.426-3.089-1.279-.852-.852-1.278-1.882-1.278-3.09 0-1.206.426-2.236 1.278-3.088.853-.853 1.882-1.279 3.09-1.279 1.207 0 2.237.426 3.09 1.279.851.852 1.277 1.882 1.277 3.089zm10.867 0c0 1.207-.427 2.237-1.279 3.09-.852.852-1.882 1.278-3.09 1.278-1.207 0-2.236-.426-3.089-1.279-.852-.852-1.278-1.882-1.278-3.09 0-1.206.426-2.236 1.278-3.088.853-.853 1.882-1.279 3.09-1.279 1.207 0 2.237.426 3.09 1.279.851.852 1.278 1.882 1.278 3.089zm-103.202 43.465c0 1.207-.426 2.237-1.279 3.089-.852.852-1.882 1.278-3.089 1.278s-2.237-.426-3.09-1.278c-.852-.852-1.278-1.882-1.278-3.09 0-1.207.426-2.237 1.279-3.089.852-.852 1.882-1.278 3.089-1.278s2.237.426 3.09 1.278c.852.852 1.278 1.882 1.278 3.09zm0-10.867c0 1.208-.426 2.238-1.279 3.09-.852.852-1.882 1.278-3.089 1.278s-2.237-.426-3.09-1.278c-.852-.852-1.278-1.882-1.278-3.09 0-1.207.426-2.237 1.279-3.089.852-.852 1.882-1.278 3.089-1.278s2.237.426 3.09 1.278c.852.852 1.278 1.882 1.278 3.09zm10.866 10.867c0 1.207-.426 2.237-1.278 3.089-.853.852-1.883 1.278-3.09 1.278-1.207 0-2.237-.426-3.09-1.278-.852-.852-1.278-1.882-1.278-3.09 0-1.207.426-2.237 1.279-3.089.852-.852 1.882-1.278 3.09-1.278 1.206 0 2.236.426 3.089 1.278.852.852 1.278 1.882 1.278 3.09zm-10.866-21.733c0 1.208-.426 2.237-1.279 3.09-.852.852-1.882 1.278-3.089 1.278s-2.237-.426-3.09-1.278c-.852-.853-1.278-1.882-1.278-3.09 0-1.207.426-2.237 1.279-3.09.852-.851 1.882-1.278 3.089-1.278s2.237.427 3.09 1.279c.852.852 1.278 1.882 1.278 3.09zm10.866 10.866c0 1.208-.426 2.238-1.278 3.09-.853.852-1.883 1.278-3.09 1.278-1.207 0-2.237-.426-3.09-1.278-.852-.852-1.278-1.882-1.278-3.09 0-1.207.426-2.237 1.279-3.089.852-.852 1.882-1.278 3.09-1.278 1.206 0 2.236.426 3.089 1.278.852.852 1.278 1.882 1.278 3.09zM525.217 121.1c0 1.207-.427 2.237-1.279 3.09-.852.852-1.882 1.278-3.09 1.278-1.207 0-2.236-.426-3.089-1.279-.852-.852-1.278-1.882-1.278-3.089s.426-2.237 1.278-3.09c.853-.852 1.882-1.278 3.09-1.278 1.207 0 2.237.426 3.09 1.279.851.852 1.278 1.882 1.278 3.09zm10.866 0c0 1.207-.426 2.237-1.279 3.09-.852.852-1.882 1.278-3.089 1.278s-2.237-.426-3.09-1.279c-.852-.852-1.278-1.882-1.278-3.089s.426-2.237 1.279-3.09c.852-.852 1.882-1.278 3.089-1.278s2.237.426 3.09 1.279c.852.852 1.278 1.882 1.278 3.09zm10.866 10.866c0 1.208-.426 2.237-1.278 3.09-.853.852-1.883 1.278-3.09 1.278-1.207 0-2.237-.426-3.09-1.278-.852-.853-1.278-1.882-1.278-3.09 0-1.207.426-2.237 1.279-3.09.852-.851 1.882-1.278 3.09-1.278 1.206 0 2.236.427 3.089 1.279.852.852 1.278 1.882 1.278 3.09zm-10.866-21.732c0 1.207-.426 2.237-1.279 3.09-.852.852-1.882 1.278-3.089 1.278s-2.237-.426-3.09-1.279c-.852-.852-1.278-1.882-1.278-3.09 0-1.206.426-2.236 1.279-3.088.852-.853 1.882-1.279 3.089-1.279s2.237.426 3.09 1.279c.852.852 1.278 1.882 1.278 3.089zm10.866 10.866c0 1.207-.426 2.237-1.278 3.09-.853.852-1.883 1.278-3.09 1.278-1.207 0-2.237-.426-3.09-1.279-.852-.852-1.278-1.882-1.278-3.089s.426-2.237 1.279-3.09c.852-.852 1.882-1.278 3.09-1.278 1.206 0 2.236.426 3.089 1.279.852.852 1.278 1.882 1.278 3.09zm10.866 0c0 1.207-.426 2.237-1.278 3.09-.853.852-1.882 1.278-3.09 1.278-1.207 0-2.237-.426-3.09-1.279-.851-.852-1.277-1.882-1.277-3.089s.426-2.237 1.278-3.09c.852-.852 1.882-1.278 3.09-1.278 1.207 0 2.236.426 3.089 1.279.852.852 1.278 1.882 1.278 3.09zm-10.866-10.866c0 1.207-.426 2.237-1.278 3.09-.853.852-1.883 1.278-3.09 1.278-1.207 0-2.237-.426-3.09-1.279-.852-.852-1.278-1.882-1.278-3.09 0-1.206.426-2.236 1.279-3.088.852-.853 1.882-1.279 3.09-1.279 1.206 0 2.236.426 3.089 1.279.852.852 1.278 1.882 1.278 3.089zm0-10.866c0 1.207-.426 2.237-1.278 3.09-.853.851-1.883 1.278-3.09 1.278-1.207 0-2.237-.427-3.09-1.279-.852-.852-1.278-1.882-1.278-3.09 0-1.207.426-2.236 1.279-3.089.852-.852 1.882-1.278 3.09-1.278 1.206 0 2.236.426 3.089 1.278.852.853 1.278 1.882 1.278 3.09zm21.732 21.732c0 1.207-.426 2.237-1.278 3.09-.852.852-1.882 1.278-3.09 1.278-1.207 0-2.237-.426-3.089-1.279-.852-.852-1.278-1.882-1.278-3.089s.426-2.237 1.278-3.09c.852-.852 1.882-1.278 3.09-1.278 1.207 0 2.237.426 3.089 1.279.852.852 1.278 1.882 1.278 3.09zm-10.866-21.732c0 1.207-.426 2.237-1.278 3.09-.853.851-1.882 1.278-3.09 1.278-1.207 0-2.237-.427-3.09-1.279-.851-.852-1.277-1.882-1.277-3.09 0-1.207.426-2.236 1.278-3.089.852-.852 1.882-1.278 3.09-1.278 1.207 0 2.236.426 3.089 1.278.852.853 1.278 1.882 1.278 3.09zm10.866 0c0 1.207-.426 2.237-1.278 3.09-.852.851-1.882 1.278-3.09 1.278-1.207 0-2.237-.427-3.089-1.279-.852-.852-1.278-1.882-1.278-3.09 0-1.207.426-2.236 1.278-3.089.852-.852 1.882-1.278 3.09-1.278 1.207 0 2.237.426 3.089 1.278.852.853 1.278 1.882 1.278 3.09zm10.866 0c0 1.207-.426 2.237-1.278 3.09-.852.851-1.882 1.278-3.09 1.278-1.207 0-2.237-.427-3.089-1.279-.852-.852-1.278-1.882-1.278-3.09 0-1.207.426-2.236 1.278-3.089.852-.852 1.882-1.278 3.09-1.278 1.207 0 2.237.426 3.089 1.278.852.853 1.278 1.882 1.278 3.09zm-126.598 54.331c0 1.207-.426 2.237-1.279 3.089-.852.852-1.882 1.278-3.09 1.278-1.206 0-2.236-.426-3.089-1.278-.852-.852-1.278-1.882-1.278-3.09 0-1.207.426-2.237 1.278-3.089.853-.852 1.883-1.278 3.09-1.278 1.207 0 2.237.426 3.09 1.278.852.852 1.278 1.882 1.278 3.09zm-10.866-10.867c0 1.208-.427 2.238-1.279 3.09-.852.852-1.882 1.278-3.09 1.278-1.207 0-2.236-.426-3.089-1.278-.852-.852-1.278-1.882-1.278-3.09 0-1.207.426-2.237 1.278-3.089.853-.852 1.882-1.278 3.09-1.278 1.207 0 2.237.426 3.09 1.278.851.852 1.278 1.882 1.278 3.09zm10.866 0c0 1.208-.426 2.238-1.279 3.09-.852.852-1.882 1.278-3.09 1.278-1.206 0-2.236-.426-3.089-1.278-.852-.852-1.278-1.882-1.278-3.09 0-1.207.426-2.237 1.278-3.089.853-.852 1.883-1.278 3.09-1.278 1.207 0 2.237.426 3.09 1.278.852.852 1.278 1.882 1.278 3.09zm10.866 10.867c0 1.207-.426 2.237-1.279 3.089-.852.852-1.882 1.278-3.089 1.278s-2.237-.426-3.09-1.278c-.852-.852-1.278-1.882-1.278-3.09 0-1.207.426-2.237 1.279-3.089.852-.852 1.882-1.278 3.09-1.278 1.206 0 2.236.426 3.088 1.278.853.852 1.279 1.882 1.279 3.09zm-10.866-21.733c0 1.208-.426 2.237-1.279 3.09-.852.852-1.882 1.278-3.09 1.278-1.206 0-2.236-.426-3.089-1.278-.852-.853-1.278-1.882-1.278-3.09 0-1.207.426-2.237 1.278-3.09.853-.851 1.883-1.278 3.09-1.278 1.207 0 2.237.427 3.09 1.279.852.852 1.278 1.882 1.278 3.09zm21.732 21.733c0 1.207-.426 2.237-1.278 3.089-.853.852-1.882 1.278-3.09 1.278-1.207 0-2.237-.426-3.09-1.278-.851-.852-1.278-1.882-1.278-3.09 0-1.207.427-2.237 1.279-3.089.852-.852 1.882-1.278 3.09-1.278 1.207 0 2.236.426 3.089 1.278.852.852 1.278 1.882 1.278 3.09zm10.866 0c0 1.207-.426 2.237-1.278 3.089-.852.852-1.882 1.278-3.09 1.278-1.207 0-2.237-.426-3.089-1.278-.852-.852-1.278-1.882-1.278-3.09 0-1.207.426-2.237 1.278-3.089.852-.852 1.882-1.278 3.09-1.278 1.207 0 2.237.426 3.089 1.278.852.852 1.278 1.882 1.278 3.09zm-21.732-21.733c0 1.208-.426 2.237-1.279 3.09-.852.852-1.882 1.278-3.089 1.278s-2.237-.426-3.09-1.278c-.852-.853-1.278-1.882-1.278-3.09 0-1.207.426-2.237 1.279-3.09.852-.851 1.882-1.278 3.09-1.278 1.206 0 2.236.427 3.088 1.279.853.852 1.279 1.882 1.279 3.09zm32.598 21.733c0 1.207-.426 2.237-1.278 3.089-.852.852-1.882 1.278-3.09 1.278-1.207 0-2.237-.426-3.089-1.278-.852-.852-1.278-1.882-1.278-3.09 0-1.207.426-2.237 1.278-3.089.852-.852 1.882-1.278 3.09-1.278 1.207 0 2.237.426 3.089 1.278.852.852 1.278 1.882 1.278 3.09zm-43.464-43.465c0 1.207-.426 2.237-1.279 3.09-.852.852-1.882 1.278-3.09 1.278-1.206 0-2.236-.426-3.089-1.279-.852-.852-1.278-1.882-1.278-3.09 0-1.206.426-2.236 1.278-3.088.853-.853 1.883-1.279 3.09-1.279 1.207 0 2.237.426 3.09 1.279.852.852 1.278 1.882 1.278 3.089zm21.732 21.732c0 1.208-.426 2.237-1.278 3.09-.853.852-1.882 1.278-3.09 1.278-1.207 0-2.237-.426-3.09-1.278-.851-.853-1.278-1.882-1.278-3.09 0-1.207.427-2.237 1.279-3.09.852-.851 1.882-1.278 3.09-1.278 1.207 0 2.236.427 3.089 1.279.852.852 1.278 1.882 1.278 3.09zm21.732 10.866c0 1.208-.426 2.238-1.278 3.09-.852.852-1.882 1.278-3.09 1.278-1.207 0-2.237-.426-3.089-1.278-.852-.852-1.278-1.882-1.278-3.09 0-1.207.426-2.237 1.278-3.089.852-.852 1.882-1.278 3.09-1.278 1.207 0 2.237.426 3.089 1.278.852.852 1.278 1.882 1.278 3.09zm-10.866-10.866c0 1.208-.426 2.237-1.278 3.09-.852.852-1.882 1.278-3.09 1.278-1.207 0-2.237-.426-3.089-1.278-.852-.853-1.278-1.882-1.278-3.09 0-1.207.426-2.237 1.278-3.09.852-.851 1.882-1.278 3.09-1.278 1.207 0 2.237.427 3.089 1.279.852.852 1.278 1.882 1.278 3.09zm-21.732-21.732c0 1.207-.426 2.237-1.279 3.09-.852.852-1.882 1.278-3.089 1.278s-2.237-.426-3.09-1.279c-.852-.852-1.278-1.882-1.278-3.09 0-1.206.426-2.236 1.279-3.088.852-.853 1.882-1.279 3.09-1.279 1.206 0 2.236.426 3.088 1.279.853.852 1.279 1.882 1.279 3.089zm32.598 21.732c0 1.208-.426 2.237-1.278 3.09-.852.852-1.882 1.278-3.09 1.278-1.207 0-2.237-.426-3.089-1.278-.852-.853-1.278-1.882-1.278-3.09 0-1.207.426-2.237 1.278-3.09.852-.851 1.882-1.278 3.09-1.278 1.207 0 2.237.427 3.089 1.279.852.852 1.278 1.882 1.278 3.09zm10.867 10.866c0 1.208-.427 2.238-1.279 3.09-.852.852-1.882 1.278-3.09 1.278-1.207 0-2.236-.426-3.089-1.278-.852-.852-1.278-1.882-1.278-3.09 0-1.207.426-2.237 1.278-3.089.853-.852 1.882-1.278 3.09-1.278 1.207 0 2.237.426 3.09 1.278.851.852 1.277 1.882 1.277 3.09zm-32.599-32.598c0 1.207-.426 2.237-1.278 3.09-.853.852-1.882 1.278-3.09 1.278-1.207 0-2.237-.426-3.09-1.279-.851-.852-1.278-1.882-1.278-3.09 0-1.206.427-2.236 1.279-3.088.852-.853 1.882-1.279 3.09-1.279 1.207 0 2.236.426 3.089 1.279.852.852 1.278 1.882 1.278 3.089zm21.732 10.866c0 1.207-.426 2.237-1.278 3.09-.852.852-1.882 1.278-3.09 1.278-1.207 0-2.237-.426-3.089-1.279-.852-.852-1.278-1.882-1.278-3.089s.426-2.237 1.278-3.09c.852-.852 1.882-1.278 3.09-1.278 1.207 0 2.237.426 3.089 1.279.852.852 1.278 1.882 1.278 3.09zm10.867 10.866c0 1.208-.427 2.237-1.279 3.09-.852.852-1.882 1.278-3.09 1.278-1.207 0-2.236-.426-3.089-1.278-.852-.853-1.278-1.882-1.278-3.09 0-1.207.426-2.237 1.278-3.09.853-.851 1.882-1.278 3.09-1.278 1.207 0 2.237.427 3.09 1.279.851.852 1.277 1.882 1.277 3.09zm-21.733-21.732c0 1.207-.426 2.237-1.278 3.09-.852.852-1.882 1.278-3.09 1.278-1.207 0-2.237-.426-3.089-1.279-.852-.852-1.278-1.882-1.278-3.09 0-1.206.426-2.236 1.278-3.088.852-.853 1.882-1.279 3.09-1.279 1.207 0 2.237.426 3.089 1.279.852.852 1.278 1.882 1.278 3.089zm10.866 0c0 1.207-.426 2.237-1.278 3.09-.852.852-1.882 1.278-3.09 1.278-1.207 0-2.237-.426-3.089-1.279-.852-.852-1.278-1.882-1.278-3.09 0-1.206.426-2.236 1.278-3.088.852-.853 1.882-1.279 3.09-1.279 1.207 0 2.237.426 3.089 1.279.852.852 1.278 1.882 1.278 3.089zM507.28 121.1c0 1.207-.427 2.237-1.279 3.09-.852.852-1.882 1.278-3.09 1.278-1.207 0-2.236-.426-3.089-1.279-.852-.852-1.278-1.882-1.278-3.089s.426-2.237 1.278-3.09c.853-.852 1.882-1.278 3.09-1.278 1.207 0 2.237.426 3.09 1.279.851.852 1.277 1.882 1.277 3.09zm-116.612 32.599c0 1.207-.426 2.237-1.278 3.089-.853.852-1.882 1.278-3.09 1.278-1.207 0-2.237-.426-3.09-1.278-.851-.852-1.278-1.882-1.278-3.09 0-1.207.427-2.237 1.279-3.089.852-.852 1.882-1.278 3.09-1.278 1.207 0 2.236.426 3.089 1.278.852.852 1.278 1.882 1.278 3.09zm0-10.867c0 1.208-.426 2.238-1.278 3.09-.853.852-1.882 1.278-3.09 1.278-1.207 0-2.237-.426-3.09-1.278-.851-.852-1.278-1.882-1.278-3.09 0-1.207.427-2.237 1.279-3.089.852-.852 1.882-1.278 3.09-1.278 1.207 0 2.236.426 3.089 1.278.852.852 1.278 1.882 1.278 3.09zm10.866 10.867c0 1.207-.426 2.237-1.278 3.089-.852.852-1.882 1.278-3.09 1.278-1.207 0-2.237-.426-3.089-1.278-.852-.852-1.278-1.882-1.278-3.09 0-1.207.426-2.237 1.278-3.089.852-.852 1.882-1.278 3.09-1.278 1.207 0 2.237.426 3.089 1.278.852.852 1.278 1.882 1.278 3.09zm-10.866-21.733c0 1.208-.426 2.237-1.278 3.09-.853.852-1.882 1.278-3.09 1.278-1.207 0-2.237-.426-3.09-1.278-.851-.853-1.278-1.882-1.278-3.09 0-1.207.427-2.237 1.279-3.09.852-.851 1.882-1.278 3.09-1.278 1.207 0 2.236.427 3.089 1.279.852.852 1.278 1.882 1.278 3.09zm10.866 10.866c0 1.208-.426 2.238-1.278 3.09-.852.852-1.882 1.278-3.09 1.278-1.207 0-2.237-.426-3.089-1.278-.852-.852-1.278-1.882-1.278-3.09 0-1.207.426-2.237 1.278-3.089.852-.852 1.882-1.278 3.09-1.278 1.207 0 2.237.426 3.089 1.278.852.852 1.278 1.882 1.278 3.09zM390.668 121.1c0 1.207-.426 2.237-1.278 3.09-.853.852-1.882 1.278-3.09 1.278-1.207 0-2.237-.426-3.09-1.279-.851-.852-1.278-1.882-1.278-3.089s.427-2.237 1.279-3.09c.852-.852 1.882-1.278 3.09-1.278 1.207 0 2.236.426 3.089 1.279.852.852 1.278 1.882 1.278 3.09zm10.866 10.866c0 1.208-.426 2.237-1.278 3.09-.852.852-1.882 1.278-3.09 1.278-1.207 0-2.237-.426-3.089-1.278-.852-.853-1.278-1.882-1.278-3.09 0-1.207.426-2.237 1.278-3.09.852-.851 1.882-1.278 3.09-1.278 1.207 0 2.237.427 3.089 1.279.852.852 1.278 1.882 1.278 3.09zm0-10.866c0 1.207-.426 2.237-1.278 3.09-.852.852-1.882 1.278-3.09 1.278-1.207 0-2.237-.426-3.089-1.279-.852-.852-1.278-1.882-1.278-3.089s.426-2.237 1.278-3.09c.852-.852 1.882-1.278 3.09-1.278 1.207 0 2.237.426 3.089 1.279.852.852 1.278 1.882 1.278 3.09zm0-10.866c0 1.207-.426 2.237-1.278 3.09-.852.852-1.882 1.278-3.09 1.278-1.207 0-2.237-.426-3.089-1.279-.852-.852-1.278-1.882-1.278-3.09 0-1.206.426-2.236 1.278-3.088.852-.853 1.882-1.279 3.09-1.279 1.207 0 2.237.426 3.089 1.279.852.852 1.278 1.882 1.278 3.089zm10.866 0c0 1.207-.426 2.237-1.278 3.09-.852.852-1.882 1.278-3.09 1.278-1.207 0-2.237-.426-3.089-1.279-.852-.852-1.278-1.882-1.278-3.09 0-1.206.426-2.236 1.278-3.088.852-.853 1.882-1.279 3.09-1.279 1.207 0 2.237.426 3.089 1.279.852.852 1.278 1.882 1.278 3.089zm10.866 0c0 1.207-.426 2.237-1.278 3.09-.852.852-1.882 1.278-3.09 1.278-1.207 0-2.236-.426-3.089-1.279-.852-.852-1.278-1.882-1.278-3.09 0-1.206.426-2.236 1.278-3.088.853-.853 1.882-1.279 3.09-1.279 1.207 0 2.237.426 3.09 1.279.851.852 1.277 1.882 1.277 3.089zm10.867 0c0 1.207-.426 2.237-1.279 3.09-.852.852-1.882 1.278-3.09 1.278-1.206 0-2.236-.426-3.089-1.279-.852-.852-1.278-1.882-1.278-3.09 0-1.206.426-2.236 1.278-3.088.853-.853 1.883-1.279 3.09-1.279 1.207 0 2.237.426 3.09 1.279.852.852 1.278 1.882 1.278 3.089zm-106.531 43.465c0 1.207-.426 2.237-1.279 3.089-.852.852-1.882 1.278-3.09 1.278-1.206 0-2.236-.426-3.088-1.278-.853-.852-1.279-1.882-1.279-3.09 0-1.207.426-2.237 1.279-3.089.852-.852 1.882-1.278 3.089-1.278s2.237.426 3.09 1.278c.852.852 1.278 1.882 1.278 3.09zm-10.866-10.867c0 1.208-.427 2.238-1.279 3.09-.852.852-1.882 1.278-3.09 1.278-1.207 0-2.236-.426-3.089-1.278-.852-.852-1.278-1.882-1.278-3.09 0-1.207.426-2.237 1.278-3.089.853-.852 1.882-1.278 3.09-1.278 1.207 0 2.237.426 3.09 1.278.851.852 1.278 1.882 1.278 3.09zm10.866 0c0 1.208-.426 2.238-1.279 3.09-.852.852-1.882 1.278-3.09 1.278-1.206 0-2.236-.426-3.088-1.278-.853-.852-1.279-1.882-1.279-3.09 0-1.207.426-2.237 1.279-3.089.852-.852 1.882-1.278 3.089-1.278s2.237.426 3.09 1.278c.852.852 1.278 1.882 1.278 3.09zm10.866 10.867c0 1.207-.426 2.237-1.279 3.089-.852.852-1.882 1.278-3.089 1.278s-2.237-.426-3.09-1.278c-.852-.852-1.278-1.882-1.278-3.09 0-1.207.426-2.237 1.279-3.089.852-.852 1.882-1.278 3.09-1.278 1.206 0 2.236.426 3.088 1.278.853.852 1.279 1.882 1.279 3.09zm-21.732-21.733c0 1.208-.427 2.237-1.279 3.09-.852.852-1.882 1.278-3.09 1.278-1.207 0-2.236-.426-3.089-1.278-.852-.853-1.278-1.882-1.278-3.09 0-1.207.426-2.237 1.278-3.09.853-.851 1.882-1.278 3.09-1.278 1.207 0 2.237.427 3.09 1.279.851.852 1.278 1.882 1.278 3.09zm10.866 0c0 1.208-.426 2.237-1.279 3.09-.852.852-1.882 1.278-3.09 1.278-1.206 0-2.236-.426-3.088-1.278-.853-.853-1.279-1.882-1.279-3.09 0-1.207.426-2.237 1.279-3.09.852-.851 1.882-1.278 3.089-1.278s2.237.427 3.09 1.279c.852.852 1.278 1.882 1.278 3.09zm21.732 21.733c0 1.207-.426 2.237-1.278 3.089-.853.852-1.882 1.278-3.09 1.278-1.207 0-2.237-.426-3.09-1.278-.851-.852-1.278-1.882-1.278-3.09 0-1.207.427-2.237 1.279-3.089.852-.852 1.882-1.278 3.09-1.278 1.207 0 2.236.426 3.089 1.278.852.852 1.278 1.882 1.278 3.09zM316.736 121.1c0 1.207-.427 2.237-1.279 3.09-.852.852-1.882 1.278-3.09 1.278-1.207 0-2.236-.426-3.089-1.279-.852-.852-1.278-1.882-1.278-3.089s.426-2.237 1.278-3.09c.853-.852 1.882-1.278 3.09-1.278 1.207 0 2.237.426 3.09 1.279.851.852 1.278 1.882 1.278 3.09zm10.866 0c0 1.207-.426 2.237-1.279 3.09-.852.852-1.882 1.278-3.09 1.278-1.206 0-2.236-.426-3.088-1.279-.853-.852-1.279-1.882-1.279-3.089s.426-2.237 1.279-3.09c.852-.852 1.882-1.278 3.089-1.278s2.237.426 3.09 1.279c.852.852 1.278 1.882 1.278 3.09zm32.598 32.599c0 1.207-.426 2.237-1.278 3.089-.852.852-1.882 1.278-3.09 1.278-1.207 0-2.237-.426-3.089-1.278-.852-.852-1.278-1.882-1.278-3.09 0-1.207.426-2.237 1.278-3.089.852-.852 1.882-1.278 3.09-1.278 1.207 0 2.237.426 3.089 1.278.852.852 1.278 1.882 1.278 3.09zm10.866-.001c0 1.207-.426 2.237-1.278 3.09-.852.851-1.882 1.278-3.09 1.278-1.207 0-2.237-.427-3.089-1.279-.852-.852-1.278-1.882-1.278-3.09 0-1.207.426-2.236 1.278-3.089.852-.852 1.882-1.278 3.09-1.278 1.207 0 2.237.426 3.089 1.278.852.853 1.278 1.882 1.278 3.09zm-43.464-43.464c0 1.207-.426 2.237-1.279 3.09-.852.852-1.882 1.278-3.09 1.278-1.206 0-2.236-.426-3.088-1.279-.853-.852-1.279-1.882-1.279-3.09 0-1.206.426-2.236 1.279-3.088.852-.853 1.882-1.279 3.089-1.279s2.237.426 3.09 1.279c.852.852 1.278 1.882 1.278 3.089zm10.866 0c0 1.207-.426 2.237-1.279 3.09-.852.852-1.882 1.278-3.089 1.278s-2.237-.426-3.09-1.279c-.852-.852-1.278-1.882-1.278-3.09 0-1.206.426-2.236 1.279-3.088.852-.853 1.882-1.279 3.09-1.279 1.206 0 2.236.426 3.088 1.279.853.852 1.279 1.882 1.279 3.089zm10.866 0c0 1.207-.426 2.237-1.278 3.09-.853.852-1.882 1.278-3.09 1.278-1.207 0-2.237-.426-3.09-1.279-.851-.852-1.278-1.882-1.278-3.09 0-1.206.427-2.236 1.279-3.088.852-.853 1.882-1.279 3.09-1.279 1.207 0 2.236.426 3.089 1.279.852.852 1.278 1.882 1.278 3.089zm10.866 0c0 1.207-.426 2.237-1.278 3.09-.852.852-1.882 1.278-3.09 1.278-1.207 0-2.237-.426-3.089-1.279-.852-.852-1.278-1.882-1.278-3.09 0-1.206.426-2.236 1.278-3.088.852-.853 1.882-1.279 3.09-1.279 1.207 0 2.237.426 3.089 1.279.852.852 1.278 1.882 1.278 3.089zm10.866.004c0 1.207-.426 2.237-1.278 3.09-.852.851-1.882 1.278-3.09 1.278-1.207 0-2.237-.427-3.089-1.279-.852-.852-1.278-1.882-1.278-3.09 0-1.207.426-2.236 1.278-3.089.852-.852 1.882-1.278 3.09-1.278 1.207 0 2.237.426 3.089 1.278.852.853 1.278 1.882 1.278 3.09z" fill="#666768"/><path d="M147.81 158.994L40 236V20l108 77.143L256 20v61.714L191.2 128l64.8 46.286V236l-108.19-77.006zM75 99v59l41-30-41-29z" fill="#00966C"/></g></svg>