<svg width="1080" height="285" viewBox="0 0 1080 285" xmlns="http://www.w3.org/2000/svg" style="background:#fff"><title>Craft X</title><g fill="none" fill-rule="evenodd"><path d="M970.932 187.19c0 1.99-.703 3.687-2.107 5.092-1.405 1.405-3.103 2.107-5.093 2.107-1.99 0-3.687-.702-5.092-2.107-1.405-1.405-2.107-3.102-2.107-5.092 0-1.99.702-3.688 2.107-5.093 1.405-1.405 3.102-2.107 5.092-2.107 1.99 0 3.688.702 5.093 2.107 1.404 1.405 2.107 3.102 2.107 5.093zm18.461 0c0 1.99-.702 3.687-2.107 5.092-1.405 1.405-3.102 2.107-5.092 2.107-1.99 0-3.688-.702-5.093-2.107-1.404-1.405-2.107-3.102-2.107-5.092 0-1.99.703-3.688 2.107-5.093 1.405-1.405 3.103-2.107 5.093-2.107 1.99 0 3.687.702 5.092 2.107 1.405 1.405 2.107 3.102 2.107 5.093zm0-17.143c0 1.99-.702 3.687-2.107 5.092-1.405 1.405-3.102 2.107-5.092 2.107-1.99 0-3.688-.702-5.093-2.107-1.404-1.405-2.107-3.102-2.107-5.092 0-1.99.703-3.688 2.107-5.093 1.405-1.404 3.103-2.107 5.093-2.107 1.99 0 3.687.703 5.092 2.107 1.405 1.405 2.107 3.103 2.107 5.093zm18.462 0c0 1.99-.702 3.687-2.107 5.092-1.405 1.405-3.103 2.107-5.093 2.107-1.99 0-3.687-.702-5.092-2.107-1.405-1.405-2.107-3.102-2.107-5.092 0-1.99.702-3.688 2.107-5.093 1.405-1.404 3.102-2.107 5.092-2.107 1.99 0 3.688.703 5.093 2.107 1.405 1.405 2.107 3.103 2.107 5.093zm-18.462-35.605c0 1.99-.702 3.688-2.107 5.093-1.405 1.405-3.102 2.107-5.092 2.107-1.99 0-3.688-.702-5.093-2.107-1.404-1.405-2.107-3.102-2.107-5.093 0-1.99.703-3.687 2.107-5.092 1.405-1.405 3.103-2.107 5.093-2.107 1.99 0 3.687.702 5.092 2.107 1.405 1.405 2.107 3.102 2.107 5.092zm18.462 17.143c0 1.99-.702 3.688-2.107 5.093-1.405 1.404-3.103 2.107-5.093 2.107-1.99 0-3.687-.703-5.092-2.107-1.405-1.405-2.107-3.103-2.107-5.093 0-1.99.702-3.687 2.107-5.092 1.405-1.405 3.102-2.107 5.092-2.107 1.99 0 3.688.702 5.093 2.107 1.405 1.405 2.107 3.102 2.107 5.092zm-36.923-35.605c0 1.991-.703 3.688-2.107 5.093-1.405 1.405-3.103 2.107-5.093 2.107-1.99 0-3.687-.702-5.092-2.107-1.405-1.405-2.107-3.102-2.107-5.092 0-1.99.702-3.688 2.107-5.093 1.405-1.404 3.102-2.107 5.092-2.107 1.99 0 3.688.703 5.093 2.107 1.404 1.405 2.107 3.103 2.107 5.093zm89.67 71.21c0 1.99-.702 3.687-2.107 5.092-1.405 1.405-3.102 2.107-5.092 2.107-1.99 0-3.688-.702-5.093-2.107-1.405-1.405-2.107-3.102-2.107-5.092 0-1.99.702-3.688 2.107-5.093 1.405-1.405 3.102-2.107 5.093-2.107 1.99 0 3.687.702 5.092 2.107 1.405 1.405 2.107 3.102 2.107 5.093zm-71.209-71.21c0 1.991-.702 3.688-2.107 5.093-1.405 1.405-3.102 2.107-5.092 2.107-1.99 0-3.688-.702-5.093-2.107-1.404-1.405-2.107-3.102-2.107-5.092 0-1.99.703-3.688 2.107-5.093 1.405-1.404 3.103-2.107 5.093-2.107 1.99 0 3.687.703 5.092 2.107 1.405 1.405 2.107 3.103 2.107 5.093zm54.067 54.067c0 1.99-.703 3.687-2.108 5.092-1.405 1.405-3.102 2.107-5.092 2.107-1.99 0-3.688-.702-5.093-2.107-1.404-1.405-2.107-3.102-2.107-5.092 0-1.99.703-3.688 2.107-5.093 1.405-1.404 3.103-2.107 5.093-2.107 1.99 0 3.687.703 5.092 2.107 1.405 1.405 2.107 3.103 2.107 5.093zm-18.462-18.462c0 1.99-.703 3.688-2.107 5.093-1.405 1.404-3.103 2.107-5.093 2.107-1.99 0-3.687-.703-5.092-2.107-1.405-1.405-2.107-3.103-2.107-5.093 0-1.99.702-3.687 2.107-5.092 1.405-1.405 3.102-2.107 5.092-2.107 1.99 0 3.688.702 5.093 2.107 1.404 1.405 2.107 3.102 2.107 5.092zm-17.143-17.143c0 1.99-.702 3.688-2.107 5.093-1.405 1.405-3.103 2.107-5.093 2.107-1.99 0-3.687-.702-5.092-2.107-1.405-1.405-2.107-3.102-2.107-5.093 0-1.99.702-3.687 2.107-5.092 1.405-1.405 3.102-2.107 5.092-2.107 1.99 0 3.688.702 5.093 2.107 1.405 1.405 2.107 3.102 2.107 5.092zm52.747 35.605c0 1.99-.702 3.687-2.107 5.092-1.405 1.405-3.102 2.107-5.092 2.107-1.99 0-3.688-.702-5.093-2.107-1.405-1.405-2.107-3.102-2.107-5.092 0-1.99.702-3.688 2.107-5.093 1.405-1.404 3.102-2.107 5.093-2.107 1.99 0 3.687.703 5.092 2.107 1.405 1.405 2.107 3.103 2.107 5.093zm18.462 17.143c0 1.99-.703 3.687-2.107 5.092-1.405 1.405-3.103 2.107-5.093 2.107-1.99 0-3.687-.702-5.092-2.107-1.405-1.405-2.107-3.102-2.107-5.092 0-1.99.702-3.688 2.107-5.093 1.405-1.405 3.102-2.107 5.092-2.107 1.99 0 3.688.702 5.093 2.107 1.404 1.405 2.107 3.102 2.107 5.093zm-35.604-35.605c0 1.99-.703 3.688-2.108 5.093-1.405 1.404-3.102 2.107-5.092 2.107-1.99 0-3.688-.703-5.093-2.107-1.404-1.405-2.107-3.103-2.107-5.093 0-1.99.703-3.687 2.107-5.092 1.405-1.405 3.103-2.107 5.093-2.107 1.99 0 3.687.702 5.092 2.107 1.405 1.405 2.107 3.102 2.107 5.092zm0-17.143c0 1.99-.703 3.688-2.108 5.093-1.405 1.405-3.102 2.107-5.092 2.107-1.99 0-3.688-.702-5.093-2.107-1.404-1.405-2.107-3.102-2.107-5.093 0-1.99.703-3.687 2.107-5.092 1.405-1.405 3.103-2.107 5.093-2.107 1.99 0 3.687.702 5.092 2.107 1.405 1.405 2.107 3.102 2.107 5.092zm17.142 0c0 1.99-.702 3.688-2.107 5.093-1.405 1.405-3.102 2.107-5.092 2.107-1.99 0-3.688-.702-5.093-2.107-1.405-1.405-2.107-3.102-2.107-5.093 0-1.99.702-3.687 2.107-5.092 1.405-1.405 3.102-2.107 5.093-2.107 1.99 0 3.687.702 5.092 2.107 1.405 1.405 2.107 3.102 2.107 5.092zm0-18.462c0 1.991-.702 3.688-2.107 5.093-1.405 1.405-3.102 2.107-5.092 2.107-1.99 0-3.688-.702-5.093-2.107-1.405-1.405-2.107-3.102-2.107-5.092 0-1.99.702-3.688 2.107-5.093 1.405-1.404 3.102-2.107 5.093-2.107 1.99 0 3.687.703 5.092 2.107 1.405 1.405 2.107 3.103 2.107 5.093zm18.462 0c0 1.991-.703 3.688-2.107 5.093-1.405 1.405-3.103 2.107-5.093 2.107-1.99 0-3.687-.702-5.092-2.107-1.405-1.405-2.107-3.102-2.107-5.092 0-1.99.702-3.688 2.107-5.093 1.405-1.404 3.102-2.107 5.092-2.107 1.99 0 3.688.703 5.093 2.107 1.404 1.405 2.107 3.103 2.107 5.093zm-177.886 71.89c0 1.99-.702 3.688-2.107 5.092-1.405 1.405-3.102 2.108-5.093 2.108-1.99 0-3.687-.703-5.092-2.108-1.405-1.404-2.107-3.102-2.107-5.092 0-1.99.702-3.688 2.107-5.092 1.405-1.405 3.102-2.108 5.092-2.108 1.99 0 3.688.703 5.093 2.108 1.405 1.404 2.107 3.102 2.107 5.092zm-18.461-18.462c0 1.99-.703 3.688-2.108 5.093-1.404 1.405-3.102 2.107-5.092 2.107-1.99 0-3.688-.702-5.092-2.107-1.405-1.405-2.108-3.102-2.108-5.093 0-1.99.703-3.687 2.108-5.092 1.404-1.405 3.102-2.107 5.092-2.107 1.99 0 3.688.702 5.092 2.107 1.405 1.405 2.108 3.102 2.108 5.092zm35.604 18.462c0 1.99-.702 3.688-2.107 5.092-1.405 1.405-3.103 2.108-5.093 2.108-1.99 0-3.687-.703-5.092-2.108-1.405-1.404-2.107-3.102-2.107-5.092 0-1.99.702-3.688 2.107-5.092 1.405-1.405 3.102-2.108 5.092-2.108 1.99 0 3.688.703 5.093 2.108 1.405 1.404 2.107 3.102 2.107 5.092zm-17.143-18.462c0 1.99-.702 3.688-2.107 5.093-1.405 1.405-3.102 2.107-5.093 2.107-1.99 0-3.687-.702-5.092-2.107-1.405-1.405-2.107-3.102-2.107-5.093 0-1.99.702-3.687 2.107-5.092 1.405-1.405 3.102-2.107 5.092-2.107 1.99 0 3.688.702 5.093 2.107 1.405 1.405 2.107 3.102 2.107 5.092zm-18.461-17.142c0 1.99-.703 3.687-2.108 5.092-1.404 1.405-3.102 2.107-5.092 2.107-1.99 0-3.688-.702-5.092-2.107-1.405-1.405-2.108-3.102-2.108-5.092 0-1.99.703-3.688 2.108-5.093 1.404-1.405 3.102-2.107 5.092-2.107 1.99 0 3.688.702 5.092 2.107 1.405 1.405 2.108 3.102 2.108 5.093zm54.066 35.604c0 1.99-.703 3.688-2.108 5.092-1.405 1.405-3.102 2.108-5.092 2.108-1.99 0-3.688-.703-5.093-2.108-1.404-1.404-2.107-3.102-2.107-5.092 0-1.99.703-3.688 2.107-5.092 1.405-1.405 3.103-2.108 5.093-2.108 1.99 0 3.687.703 5.092 2.108 1.405 1.404 2.108 3.102 2.108 5.092zm-72.528-71.209c0 1.99-.702 3.688-2.107 5.093-1.405 1.404-3.102 2.107-5.093 2.107-1.99 0-3.687-.703-5.092-2.107-1.405-1.405-2.107-3.103-2.107-5.093 0-1.99.702-3.687 2.107-5.092 1.405-1.405 3.102-2.107 5.092-2.107 1.99 0 3.688.702 5.093 2.107 1.405 1.405 2.107 3.102 2.107 5.092zm36.923 35.605c0 1.99-.702 3.687-2.107 5.092-1.405 1.405-3.102 2.107-5.093 2.107-1.99 0-3.687-.702-5.092-2.107-1.405-1.405-2.107-3.102-2.107-5.092 0-1.99.702-3.688 2.107-5.093 1.405-1.405 3.102-2.107 5.092-2.107 1.99 0 3.688.702 5.093 2.107 1.405 1.405 2.107 3.102 2.107 5.093zm-18.461-18.462c0 1.99-.703 3.688-2.108 5.092-1.404 1.405-3.102 2.108-5.092 2.108-1.99 0-3.688-.703-5.092-2.108-1.405-1.404-2.108-3.102-2.108-5.092 0-1.99.703-3.688 2.108-5.092 1.404-1.405 3.102-2.108 5.092-2.108 1.99 0 3.688.703 5.092 2.108 1.405 1.404 2.108 3.102 2.108 5.092zm18.461 0c0 1.99-.702 3.688-2.107 5.092-1.405 1.405-3.102 2.108-5.093 2.108-1.99 0-3.687-.703-5.092-2.108-1.405-1.404-2.107-3.102-2.107-5.092 0-1.99.702-3.688 2.107-5.092 1.405-1.405 3.102-2.108 5.092-2.108 1.99 0 3.688.703 5.093 2.108 1.405 1.404 2.107 3.102 2.107 5.092zm-18.461-17.143c0 1.99-.703 3.688-2.108 5.093-1.404 1.404-3.102 2.107-5.092 2.107-1.99 0-3.688-.703-5.092-2.107-1.405-1.405-2.108-3.103-2.108-5.093 0-1.99.703-3.687 2.108-5.092 1.404-1.405 3.102-2.107 5.092-2.107 1.99 0 3.688.702 5.092 2.107 1.405 1.405 2.108 3.102 2.108 5.092zm0-18.461c0 1.99-.703 3.687-2.108 5.092-1.404 1.405-3.102 2.107-5.092 2.107-1.99 0-3.688-.702-5.092-2.107-1.405-1.405-2.108-3.102-2.108-5.092 0-1.99.703-3.688 2.108-5.093 1.404-1.405 3.102-2.107 5.092-2.107 1.99 0 3.688.702 5.092 2.107 1.405 1.405 2.108 3.102 2.108 5.093zm18.461 18.461c0 1.99-.702 3.688-2.107 5.093-1.405 1.404-3.102 2.107-5.093 2.107-1.99 0-3.687-.703-5.092-2.107-1.405-1.405-2.107-3.103-2.107-5.093 0-1.99.702-3.687 2.107-5.092 1.405-1.405 3.102-2.107 5.092-2.107 1.99 0 3.688.702 5.093 2.107 1.405 1.405 2.107 3.102 2.107 5.092zm0-18.461c0 1.99-.702 3.687-2.107 5.092-1.405 1.405-3.102 2.107-5.093 2.107-1.99 0-3.687-.702-5.092-2.107-1.405-1.405-2.107-3.102-2.107-5.092 0-1.99.702-3.688 2.107-5.093 1.405-1.405 3.102-2.107 5.092-2.107 1.99 0 3.688.702 5.093 2.107 1.405 1.405 2.107 3.102 2.107 5.093zm17.143 18.461c0 1.99-.702 3.688-2.107 5.093-1.405 1.404-3.103 2.107-5.093 2.107-1.99 0-3.687-.703-5.092-2.107-1.405-1.405-2.107-3.103-2.107-5.093 0-1.99.702-3.687 2.107-5.092 1.405-1.405 3.102-2.107 5.092-2.107 1.99 0 3.688.702 5.093 2.107 1.405 1.405 2.107 3.102 2.107 5.092zm18.462 0c0 1.99-.703 3.688-2.108 5.093-1.405 1.404-3.102 2.107-5.092 2.107-1.99 0-3.688-.703-5.093-2.107-1.404-1.405-2.107-3.103-2.107-5.093 0-1.99.703-3.687 2.107-5.092 1.405-1.405 3.103-2.107 5.093-2.107 1.99 0 3.687.702 5.092 2.107 1.405 1.405 2.108 3.102 2.108 5.092zM765.83 187.87c0 1.99-.702 3.688-2.107 5.092-1.405 1.405-3.102 2.108-5.092 2.108-1.99 0-3.688-.703-5.093-2.108-1.404-1.404-2.107-3.102-2.107-5.092 0-1.99.703-3.688 2.107-5.092 1.405-1.405 3.103-2.108 5.093-2.108 1.99 0 3.687.703 5.092 2.108 1.405 1.404 2.107 3.102 2.107 5.092zm0-18.462c0 1.99-.702 3.688-2.107 5.093-1.405 1.405-3.102 2.107-5.092 2.107-1.99 0-3.688-.702-5.093-2.107-1.404-1.405-2.107-3.102-2.107-5.093 0-1.99.703-3.687 2.107-5.092 1.405-1.405 3.103-2.107 5.093-2.107 1.99 0 3.687.702 5.092 2.107 1.405 1.405 2.107 3.102 2.107 5.092zm18.462 18.462c0 1.99-.702 3.688-2.107 5.092-1.405 1.405-3.103 2.108-5.093 2.108-1.99 0-3.687-.703-5.092-2.108-1.405-1.404-2.107-3.102-2.107-5.092 0-1.99.702-3.688 2.107-5.092 1.405-1.405 3.102-2.108 5.092-2.108 1.99 0 3.688.703 5.093 2.108 1.405 1.404 2.107 3.102 2.107 5.092zm-18.462-35.604c0 1.99-.702 3.687-2.107 5.092-1.405 1.405-3.102 2.107-5.092 2.107-1.99 0-3.688-.702-5.093-2.107-1.404-1.405-2.107-3.102-2.107-5.092 0-1.99.703-3.688 2.107-5.093 1.405-1.405 3.103-2.107 5.093-2.107 1.99 0 3.687.702 5.092 2.107 1.405 1.405 2.107 3.102 2.107 5.093zm18.462 17.142c0 1.99-.702 3.688-2.107 5.093-1.405 1.405-3.103 2.107-5.093 2.107-1.99 0-3.687-.702-5.092-2.107-1.405-1.405-2.107-3.102-2.107-5.093 0-1.99.702-3.687 2.107-5.092 1.405-1.405 3.102-2.107 5.092-2.107 1.99 0 3.688.702 5.093 2.107 1.405 1.405 2.107 3.102 2.107 5.092zm-35.604-35.604c0 1.99-.703 3.688-2.108 5.092-1.404 1.405-3.102 2.108-5.092 2.108-1.99 0-3.688-.703-5.092-2.108-1.405-1.404-2.108-3.102-2.108-5.092 0-1.99.703-3.688 2.108-5.092 1.404-1.405 3.102-2.108 5.092-2.108 1.99 0 3.688.703 5.092 2.108 1.405 1.404 2.108 3.102 2.108 5.092zm17.142 0c0 1.99-.702 3.688-2.107 5.092-1.405 1.405-3.102 2.108-5.092 2.108-1.99 0-3.688-.703-5.093-2.108-1.404-1.404-2.107-3.102-2.107-5.092 0-1.99.703-3.688 2.107-5.092 1.405-1.405 3.103-2.108 5.093-2.108 1.99 0 3.687.703 5.092 2.108 1.405 1.404 2.107 3.102 2.107 5.092zm18.462 18.462c0 1.99-.702 3.687-2.107 5.092-1.405 1.405-3.103 2.107-5.093 2.107-1.99 0-3.687-.702-5.092-2.107-1.405-1.405-2.107-3.102-2.107-5.092 0-1.99.702-3.688 2.107-5.093 1.405-1.405 3.102-2.107 5.092-2.107 1.99 0 3.688.702 5.093 2.107 1.405 1.405 2.107 3.102 2.107 5.093zm-18.462-35.605c0 1.99-.702 3.688-2.107 5.093-1.405 1.404-3.102 2.107-5.092 2.107-1.99 0-3.688-.703-5.093-2.107-1.404-1.405-2.107-3.103-2.107-5.093 0-1.99.703-3.687 2.107-5.092 1.405-1.405 3.103-2.107 5.093-2.107 1.99 0 3.687.702 5.092 2.107 1.405 1.405 2.107 3.102 2.107 5.092zm18.462 17.143c0 1.99-.702 3.688-2.107 5.092-1.405 1.405-3.103 2.108-5.093 2.108-1.99 0-3.687-.703-5.092-2.108-1.405-1.404-2.107-3.102-2.107-5.092 0-1.99.702-3.688 2.107-5.092 1.405-1.405 3.102-2.108 5.092-2.108 1.99 0 3.688.703 5.093 2.108 1.405 1.404 2.107 3.102 2.107 5.092zm18.461 0c0 1.99-.702 3.688-2.107 5.092-1.405 1.405-3.102 2.108-5.092 2.108-1.99 0-3.688-.703-5.093-2.108-1.404-1.404-2.107-3.102-2.107-5.092 0-1.99.703-3.688 2.107-5.092 1.405-1.405 3.103-2.108 5.093-2.108 1.99 0 3.687.703 5.092 2.108 1.405 1.404 2.107 3.102 2.107 5.092zm-18.461-17.143c0 1.99-.702 3.688-2.107 5.093-1.405 1.404-3.103 2.107-5.093 2.107-1.99 0-3.687-.703-5.092-2.107-1.405-1.405-2.107-3.103-2.107-5.093 0-1.99.702-3.687 2.107-5.092 1.405-1.405 3.102-2.107 5.092-2.107 1.99 0 3.688.702 5.093 2.107 1.405 1.405 2.107 3.102 2.107 5.092zm0-18.461c0 1.99-.702 3.687-2.107 5.092-1.405 1.405-3.103 2.107-5.093 2.107-1.99 0-3.687-.702-5.092-2.107-1.405-1.405-2.107-3.102-2.107-5.092 0-1.99.702-3.688 2.107-5.093 1.405-1.405 3.102-2.107 5.092-2.107 1.99 0 3.688.702 5.093 2.107 1.405 1.405 2.107 3.102 2.107 5.093zm35.604 35.604c0 1.99-.702 3.688-2.107 5.092-1.405 1.405-3.102 2.108-5.092 2.108-1.99 0-3.688-.703-5.093-2.108-1.404-1.404-2.107-3.102-2.107-5.092 0-1.99.703-3.688 2.107-5.092 1.405-1.405 3.103-2.108 5.093-2.108 1.99 0 3.687.703 5.092 2.108 1.405 1.404 2.107 3.102 2.107 5.092zM802.753 98.2c0 1.99-.702 3.687-2.107 5.092-1.405 1.405-3.102 2.107-5.092 2.107-1.99 0-3.688-.702-5.093-2.107-1.404-1.405-2.107-3.102-2.107-5.092 0-1.99.703-3.688 2.107-5.093 1.405-1.405 3.103-2.107 5.093-2.107 1.99 0 3.687.702 5.092 2.107 1.405 1.405 2.107 3.102 2.107 5.093zm17.143 0c0 1.99-.702 3.687-2.107 5.092-1.405 1.405-3.102 2.107-5.092 2.107-1.99 0-3.688-.702-5.093-2.107-1.404-1.405-2.107-3.102-2.107-5.092 0-1.99.703-3.688 2.107-5.093 1.405-1.405 3.103-2.107 5.093-2.107 1.99 0 3.687.702 5.092 2.107 1.405 1.405 2.107 3.102 2.107 5.093zm18.462 0c0 1.99-.703 3.687-2.107 5.092-1.405 1.405-3.103 2.107-5.093 2.107-1.99 0-3.687-.702-5.092-2.107-1.405-1.405-2.107-3.102-2.107-5.092 0-1.99.702-3.688 2.107-5.093 1.405-1.405 3.102-2.107 5.092-2.107 1.99 0 3.688.702 5.093 2.107 1.404 1.405 2.107 3.102 2.107 5.093zm-209.715 88.99c0 1.99-.703 3.687-2.108 5.092-1.404 1.405-3.102 2.107-5.092 2.107-1.99 0-3.688-.702-5.092-2.107-1.405-1.405-2.108-3.102-2.108-5.092 0-1.99.703-3.688 2.108-5.093 1.404-1.405 3.102-2.107 5.092-2.107 1.99 0 3.688.702 5.092 2.107 1.405 1.405 2.108 3.102 2.108 5.093zM611.5 170.047c0 1.99-.703 3.687-2.107 5.092-1.405 1.405-3.103 2.107-5.093 2.107-1.99 0-3.688-.702-5.092-2.107-1.405-1.405-2.108-3.102-2.108-5.092 0-1.99.703-3.688 2.108-5.093 1.404-1.404 3.102-2.107 5.092-2.107 1.99 0 3.688.703 5.093 2.107 1.404 1.405 2.107 3.103 2.107 5.093zm17.143 0c0 1.99-.703 3.687-2.108 5.092-1.404 1.405-3.102 2.107-5.092 2.107-1.99 0-3.688-.702-5.092-2.107-1.405-1.405-2.108-3.102-2.108-5.092 0-1.99.703-3.688 2.108-5.093 1.404-1.404 3.102-2.107 5.092-2.107 1.99 0 3.688.703 5.092 2.107 1.405 1.405 2.108 3.103 2.108 5.093zm18.461 17.143c0 1.99-.702 3.687-2.107 5.092-1.405 1.405-3.102 2.107-5.093 2.107-1.99 0-3.687-.702-5.092-2.107-1.405-1.405-2.107-3.102-2.107-5.092 0-1.99.702-3.688 2.107-5.093 1.405-1.405 3.102-2.107 5.092-2.107 1.99 0 3.688.702 5.093 2.107 1.405 1.405 2.107 3.102 2.107 5.093zm-18.461-35.605c0 1.99-.703 3.688-2.108 5.093-1.404 1.404-3.102 2.107-5.092 2.107-1.99 0-3.688-.703-5.092-2.107-1.405-1.405-2.108-3.103-2.108-5.093 0-1.99.703-3.687 2.108-5.092 1.404-1.405 3.102-2.107 5.092-2.107 1.99 0 3.688.702 5.092 2.107 1.405 1.405 2.108 3.102 2.108 5.092zm36.923 35.605c0 1.99-.703 3.687-2.108 5.092-1.404 1.405-3.102 2.107-5.092 2.107-1.99 0-3.688-.702-5.092-2.107-1.405-1.405-2.108-3.102-2.108-5.092 0-1.99.703-3.688 2.108-5.093 1.404-1.405 3.102-2.107 5.092-2.107 1.99 0 3.688.702 5.092 2.107 1.405 1.405 2.108 3.102 2.108 5.093zm17.142 0c0 1.99-.702 3.687-2.107 5.092-1.405 1.405-3.102 2.107-5.092 2.107-1.99 0-3.688-.702-5.093-2.107-1.404-1.405-2.107-3.102-2.107-5.092 0-1.99.703-3.688 2.107-5.093 1.405-1.405 3.103-2.107 5.093-2.107 1.99 0 3.687.702 5.092 2.107 1.405 1.405 2.107 3.102 2.107 5.093zm-35.604-35.605c0 1.99-.702 3.688-2.107 5.093-1.405 1.404-3.102 2.107-5.093 2.107-1.99 0-3.687-.703-5.092-2.107-1.405-1.405-2.107-3.103-2.107-5.093 0-1.99.702-3.687 2.107-5.092 1.405-1.405 3.102-2.107 5.092-2.107 1.99 0 3.688.702 5.093 2.107 1.405 1.405 2.107 3.102 2.107 5.092zm54.066 35.605c0 1.99-.702 3.687-2.107 5.092-1.405 1.405-3.102 2.107-5.093 2.107-1.99 0-3.687-.702-5.092-2.107-1.405-1.405-2.107-3.102-2.107-5.092 0-1.99.702-3.688 2.107-5.093 1.405-1.405 3.102-2.107 5.092-2.107 1.99 0 3.688.702 5.093 2.107 1.405 1.405 2.107 3.102 2.107 5.093zm-72.527-71.21c0 1.991-.703 3.688-2.108 5.093-1.404 1.405-3.102 2.107-5.092 2.107-1.99 0-3.688-.702-5.092-2.107-1.405-1.405-2.108-3.102-2.108-5.092 0-1.99.703-3.688 2.108-5.093 1.404-1.404 3.102-2.107 5.092-2.107 1.99 0 3.688.703 5.092 2.107 1.405 1.405 2.108 3.103 2.108 5.093zm36.923 35.605c0 1.99-.703 3.688-2.108 5.093-1.404 1.404-3.102 2.107-5.092 2.107-1.99 0-3.688-.703-5.092-2.107-1.405-1.405-2.108-3.103-2.108-5.093 0-1.99.703-3.687 2.108-5.092 1.404-1.405 3.102-2.107 5.092-2.107 1.99 0 3.688.702 5.092 2.107 1.405 1.405 2.108 3.102 2.108 5.092zm35.604 18.462c0 1.99-.702 3.687-2.107 5.092-1.405 1.405-3.102 2.107-5.093 2.107-1.99 0-3.687-.702-5.092-2.107-1.405-1.405-2.107-3.102-2.107-5.092 0-1.99.702-3.688 2.107-5.093 1.405-1.404 3.102-2.107 5.092-2.107 1.99 0 3.688.703 5.093 2.107 1.405 1.405 2.107 3.103 2.107 5.093zm-18.462-18.462c0 1.99-.702 3.688-2.107 5.093-1.405 1.404-3.102 2.107-5.092 2.107-1.99 0-3.688-.703-5.093-2.107-1.404-1.405-2.107-3.103-2.107-5.093 0-1.99.703-3.687 2.107-5.092 1.405-1.405 3.103-2.107 5.093-2.107 1.99 0 3.687.702 5.092 2.107 1.405 1.405 2.107 3.102 2.107 5.092zm-35.604-35.605c0 1.991-.702 3.688-2.107 5.093-1.405 1.405-3.102 2.107-5.093 2.107-1.99 0-3.687-.702-5.092-2.107-1.405-1.405-2.107-3.102-2.107-5.092 0-1.99.702-3.688 2.107-5.093 1.405-1.404 3.102-2.107 5.092-2.107 1.99 0 3.688.703 5.093 2.107 1.405 1.405 2.107 3.103 2.107 5.093zm54.066 35.605c0 1.99-.702 3.688-2.107 5.093-1.405 1.404-3.102 2.107-5.093 2.107-1.99 0-3.687-.703-5.092-2.107-1.405-1.405-2.107-3.103-2.107-5.093 0-1.99.702-3.687 2.107-5.092 1.405-1.405 3.102-2.107 5.092-2.107 1.99 0 3.688.702 5.093 2.107 1.405 1.405 2.107 3.102 2.107 5.092zm17.143 18.462c0 1.99-.703 3.687-2.107 5.092-1.405 1.405-3.103 2.107-5.093 2.107-1.99 0-3.687-.702-5.092-2.107-1.405-1.405-2.107-3.102-2.107-5.092 0-1.99.702-3.688 2.107-5.093 1.405-1.404 3.102-2.107 5.092-2.107 1.99 0 3.688.703 5.093 2.107 1.404 1.405 2.107 3.103 2.107 5.093zm-52.747-54.067c0 1.991-.703 3.688-2.108 5.093-1.404 1.405-3.102 2.107-5.092 2.107-1.99 0-3.688-.702-5.092-2.107-1.405-1.405-2.108-3.102-2.108-5.092 0-1.99.703-3.688 2.108-5.093 1.404-1.404 3.102-2.107 5.092-2.107 1.99 0 3.688.703 5.092 2.107 1.405 1.405 2.108 3.103 2.108 5.093zm35.604 18.462c0 1.99-.702 3.688-2.107 5.093-1.405 1.405-3.102 2.107-5.093 2.107-1.99 0-3.687-.702-5.092-2.107-1.405-1.405-2.107-3.102-2.107-5.093 0-1.99.702-3.687 2.107-5.092 1.405-1.405 3.102-2.107 5.092-2.107 1.99 0 3.688.702 5.093 2.107 1.405 1.405 2.107 3.102 2.107 5.092zm17.143 17.143c0 1.99-.703 3.688-2.107 5.093-1.405 1.404-3.103 2.107-5.093 2.107-1.99 0-3.687-.703-5.092-2.107-1.405-1.405-2.107-3.103-2.107-5.093 0-1.99.702-3.687 2.107-5.092 1.405-1.405 3.102-2.107 5.092-2.107 1.99 0 3.688.702 5.093 2.107 1.404 1.405 2.107 3.102 2.107 5.092zm-35.605-35.605c0 1.991-.702 3.688-2.107 5.093-1.405 1.405-3.102 2.107-5.092 2.107-1.99 0-3.688-.702-5.093-2.107-1.404-1.405-2.107-3.102-2.107-5.092 0-1.99.703-3.688 2.107-5.093 1.405-1.404 3.103-2.107 5.093-2.107 1.99 0 3.687.703 5.092 2.107 1.405 1.405 2.107 3.103 2.107 5.093zm18.462 0c0 1.991-.702 3.688-2.107 5.093-1.405 1.405-3.102 2.107-5.093 2.107-1.99 0-3.687-.702-5.092-2.107-1.405-1.405-2.107-3.102-2.107-5.092 0-1.99.702-3.688 2.107-5.093 1.405-1.404 3.102-2.107 5.092-2.107 1.99 0 3.688.703 5.093 2.107 1.405 1.405 2.107 3.103 2.107 5.093zm17.143 18.462c0 1.99-.703 3.688-2.107 5.093-1.405 1.405-3.103 2.107-5.093 2.107-1.99 0-3.687-.702-5.092-2.107-1.405-1.405-2.107-3.102-2.107-5.093 0-1.99.702-3.687 2.107-5.092 1.405-1.405 3.102-2.107 5.092-2.107 1.99 0 3.688.702 5.093 2.107 1.404 1.405 2.107 3.102 2.107 5.092zm-191.87 52.748c0 1.99-.702 3.687-2.107 5.092-1.405 1.405-3.102 2.107-5.092 2.107-1.99 0-3.688-.702-5.093-2.107-1.405-1.405-2.107-3.102-2.107-5.092 0-1.99.702-3.688 2.107-5.093 1.405-1.405 3.102-2.107 5.093-2.107 1.99 0 3.687.702 5.092 2.107 1.405 1.405 2.107 3.102 2.107 5.093zm0-17.143c0 1.99-.702 3.687-2.107 5.092-1.405 1.405-3.102 2.107-5.092 2.107-1.99 0-3.688-.702-5.093-2.107-1.405-1.405-2.107-3.102-2.107-5.092 0-1.99.702-3.688 2.107-5.093 1.405-1.404 3.102-2.107 5.093-2.107 1.99 0 3.687.703 5.092 2.107 1.405 1.405 2.107 3.103 2.107 5.093zm18.462 17.143c0 1.99-.703 3.687-2.107 5.092-1.405 1.405-3.103 2.107-5.093 2.107-1.99 0-3.687-.702-5.092-2.107-1.405-1.405-2.107-3.102-2.107-5.092 0-1.99.702-3.688 2.107-5.093 1.405-1.405 3.102-2.107 5.092-2.107 1.99 0 3.688.702 5.093 2.107 1.404 1.405 2.107 3.102 2.107 5.093zm-18.462-35.605c0 1.99-.702 3.688-2.107 5.093-1.405 1.404-3.102 2.107-5.092 2.107-1.99 0-3.688-.703-5.093-2.107-1.405-1.405-2.107-3.103-2.107-5.093 0-1.99.702-3.687 2.107-5.092 1.405-1.405 3.102-2.107 5.093-2.107 1.99 0 3.687.702 5.092 2.107 1.405 1.405 2.107 3.102 2.107 5.092zm18.462 18.462c0 1.99-.703 3.687-2.107 5.092-1.405 1.405-3.103 2.107-5.093 2.107-1.99 0-3.687-.702-5.092-2.107-1.405-1.405-2.107-3.102-2.107-5.092 0-1.99.702-3.688 2.107-5.093 1.405-1.404 3.102-2.107 5.092-2.107 1.99 0 3.688.703 5.093 2.107 1.404 1.405 2.107 3.103 2.107 5.093zm-18.462-35.605c0 1.99-.702 3.688-2.107 5.093-1.405 1.405-3.102 2.107-5.092 2.107-1.99 0-3.688-.702-5.093-2.107-1.405-1.405-2.107-3.102-2.107-5.093 0-1.99.702-3.687 2.107-5.092 1.405-1.405 3.102-2.107 5.093-2.107 1.99 0 3.687.702 5.092 2.107 1.405 1.405 2.107 3.102 2.107 5.092zm18.462 17.143c0 1.99-.703 3.688-2.107 5.093-1.405 1.404-3.103 2.107-5.093 2.107-1.99 0-3.687-.703-5.092-2.107-1.405-1.405-2.107-3.103-2.107-5.093 0-1.99.702-3.687 2.107-5.092 1.405-1.405 3.102-2.107 5.092-2.107 1.99 0 3.688.702 5.093 2.107 1.404 1.405 2.107 3.102 2.107 5.092zm0-17.143c0 1.99-.703 3.688-2.107 5.093-1.405 1.405-3.103 2.107-5.093 2.107-1.99 0-3.687-.702-5.092-2.107-1.405-1.405-2.107-3.102-2.107-5.093 0-1.99.702-3.687 2.107-5.092 1.405-1.405 3.102-2.107 5.092-2.107 1.99 0 3.688.702 5.093 2.107 1.404 1.405 2.107 3.102 2.107 5.092zm0-18.462c0 1.991-.703 3.688-2.107 5.093-1.405 1.405-3.103 2.107-5.093 2.107-1.99 0-3.687-.702-5.092-2.107-1.405-1.405-2.107-3.102-2.107-5.092 0-1.99.702-3.688 2.107-5.093 1.405-1.404 3.102-2.107 5.092-2.107 1.99 0 3.688.703 5.093 2.107 1.404 1.405 2.107 3.103 2.107 5.093zm17.143 0c0 1.991-.703 3.688-2.108 5.093-1.404 1.405-3.102 2.107-5.092 2.107-1.99 0-3.688-.702-5.092-2.107-1.405-1.405-2.108-3.102-2.108-5.092 0-1.99.703-3.688 2.108-5.093 1.404-1.404 3.102-2.107 5.092-2.107 1.99 0 3.688.703 5.092 2.107 1.405 1.405 2.108 3.103 2.108 5.093zm18.462 0c0 1.991-.703 3.688-2.108 5.093-1.405 1.405-3.102 2.107-5.092 2.107-1.99 0-3.688-.702-5.093-2.107-1.405-1.405-2.107-3.102-2.107-5.092 0-1.99.702-3.688 2.107-5.093 1.405-1.404 3.102-2.107 5.093-2.107 1.99 0 3.687.703 5.092 2.107 1.405 1.405 2.107 3.103 2.107 5.093zm17.142 0c0 1.991-.702 3.688-2.107 5.093-1.405 1.405-3.102 2.107-5.093 2.107-1.99 0-3.687-.702-5.092-2.107-1.405-1.405-2.107-3.102-2.107-5.092 0-1.99.702-3.688 2.107-5.093 1.405-1.404 3.102-2.107 5.092-2.107 1.99 0 3.688.703 5.093 2.107 1.405 1.405 2.107 3.103 2.107 5.093zM422.86 187.19c0 1.99-.702 3.687-2.106 5.092-1.405 1.405-3.103 2.107-5.093 2.107-1.99 0-3.687-.702-5.092-2.107-1.405-1.405-2.107-3.102-2.107-5.092 0-1.99.702-3.688 2.107-5.093 1.405-1.405 3.102-2.107 5.092-2.107 1.99 0 3.688.702 5.093 2.107 1.404 1.405 2.107 3.102 2.107 5.093zm-18.46-17.143c0 1.99-.703 3.687-2.108 5.092-1.405 1.405-3.102 2.107-5.092 2.107-1.99 0-3.688-.702-5.093-2.107-1.405-1.405-2.107-3.102-2.107-5.092 0-1.99.702-3.688 2.107-5.093 1.405-1.404 3.102-2.107 5.093-2.107 1.99 0 3.687.703 5.092 2.107 1.405 1.405 2.107 3.103 2.107 5.093zm18.46 0c0 1.99-.702 3.687-2.106 5.092-1.405 1.405-3.103 2.107-5.093 2.107-1.99 0-3.687-.702-5.092-2.107-1.405-1.405-2.107-3.102-2.107-5.092 0-1.99.702-3.688 2.107-5.093 1.405-1.404 3.102-2.107 5.092-2.107 1.99 0 3.688.703 5.093 2.107 1.404 1.405 2.107 3.103 2.107 5.093zm17.144 17.143c0 1.99-.703 3.687-2.108 5.092-1.404 1.405-3.102 2.107-5.092 2.107-1.99 0-3.688-.702-5.092-2.107-1.405-1.405-2.108-3.102-2.108-5.092 0-1.99.703-3.688 2.108-5.093 1.404-1.405 3.102-2.107 5.092-2.107 1.99 0 3.688.702 5.092 2.107 1.405 1.405 2.108 3.102 2.108 5.093zM404.4 151.585c0 1.99-.703 3.688-2.108 5.093-1.405 1.404-3.102 2.107-5.092 2.107-1.99 0-3.688-.703-5.093-2.107-1.405-1.405-2.107-3.103-2.107-5.093 0-1.99.702-3.687 2.107-5.092 1.405-1.405 3.102-2.107 5.093-2.107 1.99 0 3.687.702 5.092 2.107 1.405 1.405 2.107 3.102 2.107 5.092zm18.46 0c0 1.99-.702 3.688-2.106 5.093-1.405 1.404-3.103 2.107-5.093 2.107-1.99 0-3.687-.703-5.092-2.107-1.405-1.405-2.107-3.103-2.107-5.093 0-1.99.702-3.687 2.107-5.092 1.405-1.405 3.102-2.107 5.092-2.107 1.99 0 3.688.702 5.093 2.107 1.404 1.405 2.107 3.102 2.107 5.092zm35.605 35.605c0 1.99-.702 3.687-2.107 5.092-1.405 1.405-3.102 2.107-5.092 2.107-1.99 0-3.688-.702-5.093-2.107-1.405-1.405-2.107-3.102-2.107-5.092 0-1.99.702-3.688 2.107-5.093 1.405-1.405 3.102-2.107 5.093-2.107 1.99 0 3.687.702 5.092 2.107 1.405 1.405 2.107 3.102 2.107 5.093zM404.4 134.442c0 1.99-.703 3.688-2.108 5.093-1.405 1.405-3.102 2.107-5.092 2.107-1.99 0-3.688-.702-5.093-2.107-1.405-1.405-2.107-3.102-2.107-5.093 0-1.99.702-3.687 2.107-5.092 1.405-1.405 3.102-2.107 5.093-2.107 1.99 0 3.687.702 5.092 2.107 1.405 1.405 2.107 3.102 2.107 5.092zm18.46 0c0 1.99-.702 3.688-2.106 5.093-1.405 1.405-3.103 2.107-5.093 2.107-1.99 0-3.687-.702-5.092-2.107-1.405-1.405-2.107-3.102-2.107-5.093 0-1.99.702-3.687 2.107-5.092 1.405-1.405 3.102-2.107 5.092-2.107 1.99 0 3.688.702 5.093 2.107 1.404 1.405 2.107 3.102 2.107 5.092zm54.067 52.748c0 1.99-.703 3.687-2.107 5.092-1.405 1.405-3.103 2.107-5.093 2.107-1.99 0-3.688-.702-5.092-2.107-1.405-1.405-2.108-3.102-2.108-5.092 0-1.99.703-3.688 2.108-5.093 1.404-1.405 3.102-2.107 5.092-2.107 1.99 0 3.688.702 5.093 2.107 1.404 1.405 2.107 3.102 2.107 5.093zm17.143 0c0 1.99-.703 3.687-2.108 5.092-1.404 1.405-3.102 2.107-5.092 2.107-1.99 0-3.688-.702-5.092-2.107-1.405-1.405-2.108-3.102-2.108-5.092 0-1.99.703-3.688 2.108-5.093 1.404-1.405 3.102-2.107 5.092-2.107 1.99 0 3.688.702 5.092 2.107 1.405 1.405 2.108 3.102 2.108 5.093zm-71.21-71.21c0 1.991-.702 3.688-2.106 5.093-1.405 1.405-3.103 2.107-5.093 2.107-1.99 0-3.687-.702-5.092-2.107-1.405-1.405-2.107-3.102-2.107-5.092 0-1.99.702-3.688 2.107-5.093 1.405-1.404 3.102-2.107 5.092-2.107 1.99 0 3.688.703 5.093 2.107 1.404 1.405 2.107 3.103 2.107 5.093zm17.144 0c0 1.991-.703 3.688-2.108 5.093-1.404 1.405-3.102 2.107-5.092 2.107-1.99 0-3.688-.702-5.092-2.107-1.405-1.405-2.108-3.102-2.108-5.092 0-1.99.703-3.688 2.108-5.093 1.404-1.404 3.102-2.107 5.092-2.107 1.99 0 3.688.703 5.092 2.107 1.405 1.405 2.108 3.103 2.108 5.093zm18.461 0c0 1.991-.702 3.688-2.107 5.093-1.405 1.405-3.102 2.107-5.092 2.107-1.99 0-3.688-.702-5.093-2.107-1.405-1.405-2.107-3.102-2.107-5.092 0-1.99.702-3.688 2.107-5.093 1.405-1.404 3.102-2.107 5.093-2.107 1.99 0 3.687.703 5.092 2.107 1.405 1.405 2.107 3.103 2.107 5.093zm18.462 0c0 1.991-.703 3.688-2.107 5.093-1.405 1.405-3.103 2.107-5.093 2.107-1.99 0-3.688-.702-5.092-2.107-1.405-1.405-2.108-3.102-2.108-5.092 0-1.99.703-3.688 2.108-5.093 1.404-1.404 3.102-2.107 5.092-2.107 1.99 0 3.688.703 5.093 2.107 1.404 1.405 2.107 3.103 2.107 5.093zm17.143 0c0 1.991-.703 3.688-2.108 5.093-1.404 1.405-3.102 2.107-5.092 2.107-1.99 0-3.688-.702-5.092-2.107-1.405-1.405-2.108-3.102-2.108-5.092 0-1.99.703-3.688 2.108-5.093 1.404-1.404 3.102-2.107 5.092-2.107 1.99 0 3.688.703 5.092 2.107 1.405 1.405 2.108 3.103 2.108 5.093z" fill="#565758"/><path d="M142.166 183.288L0 284.835V0l142.418 101.727L284.835 0v81.381l-85.45 61.037 85.45 61.036v81.381l-142.67-101.547zm-96.012-79.112v77.802l54.066-39.56-54.066-38.242z" fill="#00966C"/></g></svg>