<svg width="910" height="256" viewBox="0 0 910 256" xmlns="http://www.w3.org/2000/svg"><title>Craft X Logo Light</title><g fill="none" fill-rule="evenodd"><path d="M776.54 161.944c0 1.509-.533 2.796-1.598 3.862-1.065 1.065-2.352 1.598-3.862 1.598-1.509 0-2.796-.533-3.861-1.598-1.066-1.066-1.598-2.353-1.598-3.862 0-1.51.532-2.797 1.598-3.862 1.065-1.065 2.352-1.598 3.861-1.598 1.51 0 2.797.533 3.862 1.598s1.598 2.353 1.598 3.862zm14 0c0 1.509-.533 2.796-1.598 3.862-1.065 1.065-2.352 1.598-3.862 1.598-1.509 0-2.796-.533-3.861-1.598-1.066-1.066-1.598-2.353-1.598-3.862 0-1.51.532-2.797 1.598-3.862 1.065-1.065 2.352-1.598 3.861-1.598 1.51 0 2.797.533 3.862 1.598s1.598 2.353 1.598 3.862zm0-13c0 1.509-.533 2.796-1.598 3.862-1.065 1.065-2.352 1.598-3.862 1.598-1.509 0-2.796-.533-3.861-1.598-1.066-1.066-1.598-2.353-1.598-3.862 0-1.51.532-2.797 1.598-3.862 1.065-1.065 2.352-1.598 3.861-1.598 1.51 0 2.797.533 3.862 1.598s1.598 2.353 1.598 3.862zm14 0c0 1.509-.533 2.796-1.598 3.862-1.065 1.065-2.352 1.598-3.862 1.598-1.509 0-2.796-.533-3.861-1.598-1.066-1.066-1.598-2.353-1.598-3.862 0-1.51.532-2.797 1.598-3.862 1.065-1.065 2.352-1.598 3.861-1.598 1.51 0 2.797.533 3.862 1.598s1.598 2.353 1.598 3.862zm-14-27c0 1.509-.533 2.796-1.598 3.862-1.065 1.065-2.352 1.598-3.862 1.598-1.509 0-2.796-.533-3.861-1.598-1.066-1.066-1.598-2.353-1.598-3.862 0-1.51.532-2.797 1.598-3.862 1.065-1.065 2.352-1.598 3.861-1.598 1.51 0 2.797.533 3.862 1.598s1.598 2.353 1.598 3.862zm14 13c0 1.509-.533 2.796-1.598 3.862-1.065 1.065-2.352 1.598-3.862 1.598-1.509 0-2.796-.533-3.861-1.598-1.066-1.066-1.598-2.353-1.598-3.862 0-1.51.532-2.797 1.598-3.862 1.065-1.065 2.352-1.598 3.861-1.598 1.51 0 2.797.533 3.862 1.598s1.598 2.353 1.598 3.862zm-28-27c0 1.509-.533 2.796-1.598 3.862-1.065 1.065-2.352 1.598-3.862 1.598-1.509 0-2.796-.533-3.861-1.598-1.066-1.066-1.598-2.353-1.598-3.862 0-1.51.532-2.797 1.598-3.862 1.065-1.065 2.352-1.598 3.861-1.598 1.51 0 2.797.533 3.862 1.598s1.598 2.353 1.598 3.862zm68 54c0 1.509-.533 2.796-1.598 3.862-1.065 1.065-2.352 1.598-3.862 1.598-1.509 0-2.796-.533-3.861-1.598-1.066-1.066-1.598-2.353-1.598-3.862 0-1.51.532-2.797 1.598-3.862 1.065-1.065 2.352-1.598 3.861-1.598 1.51 0 2.797.533 3.862 1.598s1.598 2.353 1.598 3.862zm-54-54c0 1.509-.533 2.796-1.598 3.862-1.065 1.065-2.352 1.598-3.862 1.598-1.509 0-2.796-.533-3.861-1.598-1.066-1.066-1.598-2.353-1.598-3.862 0-1.51.532-2.797 1.598-3.862 1.065-1.065 2.352-1.598 3.861-1.598 1.51 0 2.797.533 3.862 1.598s1.598 2.353 1.598 3.862zm41 41c0 1.509-.533 2.796-1.598 3.862-1.065 1.065-2.352 1.598-3.862 1.598-1.509 0-2.796-.533-3.861-1.598-1.066-1.066-1.598-2.353-1.598-3.862 0-1.51.532-2.797 1.598-3.862 1.065-1.065 2.352-1.598 3.861-1.598 1.51 0 2.797.533 3.862 1.598s1.598 2.353 1.598 3.862zm-14-14c0 1.509-.533 2.796-1.598 3.862-1.065 1.065-2.352 1.598-3.862 1.598-1.509 0-2.796-.533-3.861-1.598-1.066-1.066-1.598-2.353-1.598-3.862 0-1.51.532-2.797 1.598-3.862 1.065-1.065 2.352-1.598 3.861-1.598 1.51 0 2.797.533 3.862 1.598s1.598 2.353 1.598 3.862zm-13-13c0 1.509-.533 2.796-1.598 3.862-1.065 1.065-2.352 1.598-3.862 1.598-1.509 0-2.796-.533-3.861-1.598-1.066-1.066-1.598-2.353-1.598-3.862 0-1.51.532-2.797 1.598-3.862 1.065-1.065 2.352-1.598 3.861-1.598 1.51 0 2.797.533 3.862 1.598s1.598 2.353 1.598 3.862zm40 27c0 1.509-.533 2.796-1.598 3.862-1.065 1.065-2.352 1.598-3.862 1.598-1.509 0-2.796-.533-3.861-1.598-1.066-1.066-1.598-2.353-1.598-3.862 0-1.51.532-2.797 1.598-3.862 1.065-1.065 2.352-1.598 3.861-1.598 1.51 0 2.797.533 3.862 1.598s1.598 2.353 1.598 3.862zm14 13c0 1.509-.533 2.796-1.598 3.862-1.065 1.065-2.352 1.598-3.862 1.598-1.509 0-2.796-.533-3.861-1.598-1.066-1.066-1.598-2.353-1.598-3.862 0-1.51.532-2.797 1.598-3.862 1.065-1.065 2.352-1.598 3.861-1.598 1.51 0 2.797.533 3.862 1.598s1.598 2.353 1.598 3.862zm-27-27c0 1.509-.533 2.796-1.598 3.862-1.065 1.065-2.352 1.598-3.862 1.598-1.509 0-2.796-.533-3.861-1.598-1.066-1.066-1.598-2.353-1.598-3.862 0-1.51.532-2.797 1.598-3.862 1.065-1.065 2.352-1.598 3.861-1.598 1.51 0 2.797.533 3.862 1.598s1.598 2.353 1.598 3.862zm0-13c0 1.509-.533 2.796-1.598 3.862-1.065 1.065-2.352 1.598-3.862 1.598-1.509 0-2.796-.533-3.861-1.598-1.066-1.066-1.598-2.353-1.598-3.862 0-1.51.532-2.797 1.598-3.862 1.065-1.065 2.352-1.598 3.861-1.598 1.51 0 2.797.533 3.862 1.598s1.598 2.353 1.598 3.862zm13 0c0 1.509-.533 2.796-1.598 3.862-1.065 1.065-2.352 1.598-3.862 1.598-1.509 0-2.796-.533-3.861-1.598-1.066-1.066-1.598-2.353-1.598-3.862 0-1.51.532-2.797 1.598-3.862 1.065-1.065 2.352-1.598 3.861-1.598 1.51 0 2.797.533 3.862 1.598s1.598 2.353 1.598 3.862zm0-14c0 1.509-.533 2.796-1.598 3.862-1.065 1.065-2.352 1.598-3.862 1.598-1.509 0-2.796-.533-3.861-1.598-1.066-1.066-1.598-2.353-1.598-3.862 0-1.51.532-2.797 1.598-3.862 1.065-1.065 2.352-1.598 3.861-1.598 1.51 0 2.797.533 3.862 1.598s1.598 2.353 1.598 3.862zm14 0c0 1.509-.533 2.796-1.598 3.862-1.065 1.065-2.352 1.598-3.862 1.598-1.509 0-2.796-.533-3.861-1.598-1.066-1.066-1.598-2.353-1.598-3.862 0-1.51.532-2.797 1.598-3.862 1.065-1.065 2.352-1.598 3.861-1.598 1.51 0 2.797.533 3.862 1.598s1.598 2.353 1.598 3.862zM723.643 162.46c0 1.509-.532 2.796-1.598 3.861-1.065 1.066-2.352 1.598-3.861 1.598-1.51 0-2.797-.532-3.862-1.598-1.065-1.065-1.598-2.352-1.598-3.861 0-1.51.533-2.797 1.598-3.862s2.352-1.598 3.862-1.598c1.509 0 2.796.533 3.861 1.598 1.066 1.065 1.598 2.353 1.598 3.862zm-14-14c0 1.509-.532 2.796-1.598 3.861-1.065 1.066-2.352 1.598-3.861 1.598-1.51 0-2.797-.532-3.862-1.598-1.065-1.065-1.598-2.352-1.598-3.861 0-1.51.533-2.797 1.598-3.862s2.352-1.598 3.862-1.598c1.509 0 2.796.533 3.861 1.598 1.066 1.065 1.598 2.353 1.598 3.862zm27 14c0 1.509-.532 2.796-1.598 3.861-1.065 1.066-2.352 1.598-3.861 1.598-1.51 0-2.797-.532-3.862-1.598-1.065-1.065-1.598-2.352-1.598-3.861 0-1.51.533-2.797 1.598-3.862s2.352-1.598 3.862-1.598c1.509 0 2.796.533 3.861 1.598 1.066 1.065 1.598 2.353 1.598 3.862zm-13-14c0 1.509-.532 2.796-1.598 3.861-1.065 1.066-2.352 1.598-3.861 1.598-1.51 0-2.797-.532-3.862-1.598-1.065-1.065-1.598-2.352-1.598-3.861 0-1.51.533-2.797 1.598-3.862s2.352-1.598 3.862-1.598c1.509 0 2.796.533 3.861 1.598 1.066 1.065 1.598 2.353 1.598 3.862zm-14-13c0 1.509-.532 2.796-1.598 3.861-1.065 1.066-2.352 1.598-3.861 1.598-1.51 0-2.797-.532-3.862-1.598-1.065-1.065-1.598-2.352-1.598-3.861 0-1.51.533-2.797 1.598-3.862s2.352-1.598 3.862-1.598c1.509 0 2.796.533 3.861 1.598 1.066 1.065 1.598 2.353 1.598 3.862zm41 27c0 1.509-.532 2.796-1.598 3.861-1.065 1.066-2.352 1.598-3.861 1.598-1.51 0-2.797-.532-3.862-1.598-1.065-1.065-1.598-2.352-1.598-3.861 0-1.51.533-2.797 1.598-3.862s2.352-1.598 3.862-1.598c1.509 0 2.796.533 3.861 1.598 1.066 1.065 1.598 2.353 1.598 3.862zm-55-54c0 1.509-.532 2.796-1.598 3.861-1.065 1.066-2.352 1.598-3.861 1.598-1.51 0-2.797-.532-3.862-1.598-1.065-1.065-1.598-2.352-1.598-3.861 0-1.51.533-2.797 1.598-3.862s2.352-1.598 3.862-1.598c1.509 0 2.796.533 3.861 1.598 1.066 1.065 1.598 2.353 1.598 3.862zm28 27c0 1.509-.532 2.796-1.598 3.861-1.065 1.066-2.352 1.598-3.861 1.598-1.51 0-2.797-.532-3.862-1.598-1.065-1.065-1.598-2.352-1.598-3.861 0-1.51.533-2.797 1.598-3.862s2.352-1.598 3.862-1.598c1.509 0 2.796.533 3.861 1.598 1.066 1.065 1.598 2.353 1.598 3.862zm-14-14c0 1.509-.532 2.796-1.598 3.861-1.065 1.066-2.352 1.598-3.861 1.598-1.51 0-2.797-.532-3.862-1.598-1.065-1.065-1.598-2.352-1.598-3.861 0-1.51.533-2.797 1.598-3.862s2.352-1.598 3.862-1.598c1.509 0 2.796.533 3.861 1.598 1.066 1.065 1.598 2.353 1.598 3.862zm14 0c0 1.509-.532 2.796-1.598 3.861-1.065 1.066-2.352 1.598-3.861 1.598-1.51 0-2.797-.532-3.862-1.598-1.065-1.065-1.598-2.352-1.598-3.861 0-1.51.533-2.797 1.598-3.862s2.352-1.598 3.862-1.598c1.509 0 2.796.533 3.861 1.598 1.066 1.065 1.598 2.353 1.598 3.862zm-14-13c0 1.509-.532 2.796-1.598 3.861-1.065 1.066-2.352 1.598-3.861 1.598-1.51 0-2.797-.532-3.862-1.598-1.065-1.065-1.598-2.352-1.598-3.861 0-1.51.533-2.797 1.598-3.862s2.352-1.598 3.862-1.598c1.509 0 2.796.533 3.861 1.598 1.066 1.065 1.598 2.353 1.598 3.862zm0-14c0 1.509-.532 2.796-1.598 3.861-1.065 1.066-2.352 1.598-3.861 1.598-1.51 0-2.797-.532-3.862-1.598-1.065-1.065-1.598-2.352-1.598-3.861 0-1.51.533-2.797 1.598-3.862S702.674 89 704.184 89c1.509 0 2.796.533 3.861 1.598 1.066 1.065 1.598 2.353 1.598 3.862zm14 14c0 1.509-.532 2.796-1.598 3.861-1.065 1.066-2.352 1.598-3.861 1.598-1.51 0-2.797-.532-3.862-1.598-1.065-1.065-1.598-2.352-1.598-3.861 0-1.51.533-2.797 1.598-3.862s2.352-1.598 3.862-1.598c1.509 0 2.796.533 3.861 1.598 1.066 1.065 1.598 2.353 1.598 3.862zm0-14c0 1.509-.532 2.796-1.598 3.861-1.065 1.066-2.352 1.598-3.861 1.598-1.51 0-2.797-.532-3.862-1.598-1.065-1.065-1.598-2.352-1.598-3.861 0-1.51.533-2.797 1.598-3.862S716.674 89 718.184 89c1.509 0 2.796.533 3.861 1.598 1.066 1.065 1.598 2.353 1.598 3.862zm13 14c0 1.509-.532 2.796-1.598 3.861-1.065 1.066-2.352 1.598-3.861 1.598-1.51 0-2.797-.532-3.862-1.598-1.065-1.065-1.598-2.352-1.598-3.861 0-1.51.533-2.797 1.598-3.862s2.352-1.598 3.862-1.598c1.509 0 2.796.533 3.861 1.598 1.066 1.065 1.598 2.353 1.598 3.862zm14 0c0 1.509-.532 2.796-1.598 3.861-1.065 1.066-2.352 1.598-3.861 1.598-1.51 0-2.797-.532-3.862-1.598-1.065-1.065-1.598-2.352-1.598-3.861 0-1.51.533-2.797 1.598-3.862s2.352-1.598 3.862-1.598c1.509 0 2.796.533 3.861 1.598 1.066 1.065 1.598 2.353 1.598 3.862zm-129.638 54c0 1.509-.533 2.796-1.598 3.861-1.066 1.066-2.353 1.598-3.862 1.598-1.51 0-2.796-.532-3.862-1.598-1.065-1.065-1.598-2.352-1.598-3.861 0-1.51.533-2.797 1.598-3.862 1.066-1.065 2.353-1.598 3.862-1.598 1.51 0 2.796.533 3.862 1.598 1.065 1.065 1.598 2.353 1.598 3.862zm0-14c0 1.509-.533 2.796-1.598 3.861-1.066 1.066-2.353 1.598-3.862 1.598-1.51 0-2.796-.532-3.862-1.598-1.065-1.065-1.598-2.352-1.598-3.861 0-1.51.533-2.797 1.598-3.862 1.066-1.065 2.353-1.598 3.862-1.598 1.51 0 2.796.533 3.862 1.598 1.065 1.065 1.598 2.353 1.598 3.862zm14 14c0 1.509-.533 2.796-1.598 3.861-1.066 1.066-2.353 1.598-3.862 1.598-1.51 0-2.796-.532-3.862-1.598-1.065-1.065-1.598-2.352-1.598-3.861 0-1.51.533-2.797 1.598-3.862 1.066-1.065 2.353-1.598 3.862-1.598 1.51 0 2.796.533 3.862 1.598 1.065 1.065 1.598 2.353 1.598 3.862zm-14-27c0 1.509-.533 2.796-1.598 3.861-1.066 1.066-2.353 1.598-3.862 1.598-1.51 0-2.796-.532-3.862-1.598-1.065-1.065-1.598-2.352-1.598-3.861 0-1.51.533-2.797 1.598-3.862 1.066-1.065 2.353-1.598 3.862-1.598 1.51 0 2.796.533 3.862 1.598 1.065 1.065 1.598 2.353 1.598 3.862zm14 13c0 1.509-.533 2.796-1.598 3.861-1.066 1.066-2.353 1.598-3.862 1.598-1.51 0-2.796-.532-3.862-1.598-1.065-1.065-1.598-2.352-1.598-3.861 0-1.51.533-2.797 1.598-3.862 1.066-1.065 2.353-1.598 3.862-1.598 1.51 0 2.796.533 3.862 1.598 1.065 1.065 1.598 2.353 1.598 3.862zm-27-27c0 1.509-.533 2.796-1.598 3.861-1.066 1.066-2.353 1.598-3.862 1.598-1.51 0-2.796-.532-3.862-1.598-1.065-1.065-1.598-2.352-1.598-3.861 0-1.51.533-2.797 1.598-3.862 1.066-1.065 2.353-1.598 3.862-1.598 1.51 0 2.796.533 3.862 1.598 1.065 1.065 1.598 2.353 1.598 3.862zm13 0c0 1.509-.533 2.796-1.598 3.861-1.066 1.066-2.353 1.598-3.862 1.598-1.51 0-2.796-.532-3.862-1.598-1.065-1.065-1.598-2.352-1.598-3.861 0-1.51.533-2.797 1.598-3.862 1.066-1.065 2.353-1.598 3.862-1.598 1.51 0 2.796.533 3.862 1.598 1.065 1.065 1.598 2.353 1.598 3.862zm14 14c0 1.509-.533 2.796-1.598 3.861-1.066 1.066-2.353 1.598-3.862 1.598-1.51 0-2.796-.532-3.862-1.598-1.065-1.065-1.598-2.352-1.598-3.861 0-1.51.533-2.797 1.598-3.862 1.066-1.065 2.353-1.598 3.862-1.598 1.51 0 2.796.533 3.862 1.598 1.065 1.065 1.598 2.353 1.598 3.862zm-14-27c0 1.509-.533 2.796-1.598 3.861-1.066 1.066-2.353 1.598-3.862 1.598-1.51 0-2.796-.532-3.862-1.598-1.065-1.065-1.598-2.352-1.598-3.861 0-1.51.533-2.797 1.598-3.862 1.066-1.065 2.353-1.598 3.862-1.598 1.51 0 2.796.533 3.862 1.598 1.065 1.065 1.598 2.353 1.598 3.862zm14 13c0 1.509-.533 2.796-1.598 3.861-1.066 1.066-2.353 1.598-3.862 1.598-1.51 0-2.796-.532-3.862-1.598-1.065-1.065-1.598-2.352-1.598-3.861 0-1.51.533-2.797 1.598-3.862 1.066-1.065 2.353-1.598 3.862-1.598 1.51 0 2.796.533 3.862 1.598 1.065 1.065 1.598 2.353 1.598 3.862zm14 0c0 1.509-.533 2.796-1.598 3.861-1.066 1.066-2.353 1.598-3.862 1.598-1.51 0-2.796-.532-3.862-1.598-1.065-1.065-1.598-2.352-1.598-3.861 0-1.51.533-2.797 1.598-3.862 1.066-1.065 2.353-1.598 3.862-1.598 1.51 0 2.796.533 3.862 1.598 1.065 1.065 1.598 2.353 1.598 3.862zm-14-13c0 1.509-.533 2.796-1.598 3.861-1.066 1.066-2.353 1.598-3.862 1.598-1.51 0-2.796-.532-3.862-1.598-1.065-1.065-1.598-2.352-1.598-3.861 0-1.51.533-2.797 1.598-3.862 1.066-1.065 2.353-1.598 3.862-1.598 1.51 0 2.796.533 3.862 1.598 1.065 1.065 1.598 2.353 1.598 3.862zm0-14c0 1.509-.533 2.796-1.598 3.861-1.066 1.066-2.353 1.598-3.862 1.598-1.51 0-2.796-.532-3.862-1.598-1.065-1.065-1.598-2.352-1.598-3.861 0-1.51.533-2.797 1.598-3.862 1.066-1.065 2.353-1.598 3.862-1.598 1.51 0 2.796.533 3.862 1.598 1.065 1.065 1.598 2.353 1.598 3.862zm27 27c0 1.509-.533 2.796-1.598 3.861-1.066 1.066-2.353 1.598-3.862 1.598-1.51 0-2.796-.532-3.862-1.598-1.065-1.065-1.598-2.352-1.598-3.861 0-1.51.533-2.797 1.598-3.862 1.066-1.065 2.353-1.598 3.862-1.598 1.51 0 2.796.533 3.862 1.598 1.065 1.065 1.598 2.353 1.598 3.862zm-13-27c0 1.509-.533 2.796-1.598 3.861-1.066 1.066-2.353 1.598-3.862 1.598-1.51 0-2.796-.532-3.862-1.598-1.065-1.065-1.598-2.352-1.598-3.861 0-1.51.533-2.797 1.598-3.862 1.066-1.065 2.353-1.598 3.862-1.598 1.51 0 2.796.533 3.862 1.598 1.065 1.065 1.598 2.353 1.598 3.862zm13 0c0 1.509-.533 2.796-1.598 3.861-1.066 1.066-2.353 1.598-3.862 1.598-1.51 0-2.796-.532-3.862-1.598-1.065-1.065-1.598-2.352-1.598-3.861 0-1.51.533-2.797 1.598-3.862 1.066-1.065 2.353-1.598 3.862-1.598 1.51 0 2.796.533 3.862 1.598 1.065 1.065 1.598 2.353 1.598 3.862zm14 0c0 1.509-.533 2.796-1.598 3.861-1.066 1.066-2.353 1.598-3.862 1.598-1.51 0-2.796-.532-3.862-1.598-1.065-1.065-1.598-2.352-1.598-3.861 0-1.51.533-2.797 1.598-3.862 1.066-1.065 2.353-1.598 3.862-1.598 1.51 0 2.796.533 3.862 1.598 1.065 1.065 1.598 2.353 1.598 3.862zM516.97 161.944c0 1.509-.532 2.796-1.597 3.862-1.066 1.065-2.353 1.598-3.862 1.598-1.51 0-2.797-.533-3.862-1.598-1.065-1.066-1.598-2.353-1.598-3.862 0-1.51.533-2.797 1.598-3.862s2.353-1.598 3.862-1.598c1.51 0 2.796.533 3.862 1.598 1.065 1.065 1.598 2.353 1.598 3.862zm-13-13c0 1.509-.532 2.796-1.597 3.862-1.066 1.065-2.353 1.598-3.862 1.598-1.51 0-2.797-.533-3.862-1.598-1.065-1.066-1.598-2.353-1.598-3.862 0-1.51.533-2.797 1.598-3.862s2.353-1.598 3.862-1.598c1.51 0 2.796.533 3.862 1.598 1.065 1.065 1.598 2.353 1.598 3.862zm13 0c0 1.509-.532 2.796-1.597 3.862-1.066 1.065-2.353 1.598-3.862 1.598-1.51 0-2.797-.533-3.862-1.598-1.065-1.066-1.598-2.353-1.598-3.862 0-1.51.533-2.797 1.598-3.862s2.353-1.598 3.862-1.598c1.51 0 2.796.533 3.862 1.598 1.065 1.065 1.598 2.353 1.598 3.862zm14 13c0 1.509-.532 2.796-1.597 3.862-1.066 1.065-2.353 1.598-3.862 1.598-1.51 0-2.797-.533-3.862-1.598-1.065-1.066-1.598-2.353-1.598-3.862 0-1.51.533-2.797 1.598-3.862s2.353-1.598 3.862-1.598c1.51 0 2.796.533 3.862 1.598 1.065 1.065 1.598 2.353 1.598 3.862zm-14-27c0 1.509-.532 2.796-1.597 3.862-1.066 1.065-2.353 1.598-3.862 1.598-1.51 0-2.797-.533-3.862-1.598-1.065-1.066-1.598-2.353-1.598-3.862 0-1.51.533-2.797 1.598-3.862s2.353-1.598 3.862-1.598c1.51 0 2.796.533 3.862 1.598 1.065 1.065 1.598 2.353 1.598 3.862zm28 27c0 1.509-.532 2.796-1.597 3.862-1.066 1.065-2.353 1.598-3.862 1.598-1.51 0-2.797-.533-3.862-1.598-1.065-1.066-1.598-2.353-1.598-3.862 0-1.51.533-2.797 1.598-3.862s2.353-1.598 3.862-1.598c1.51 0 2.796.533 3.862 1.598 1.065 1.065 1.598 2.353 1.598 3.862zm13 0c0 1.509-.532 2.796-1.597 3.862-1.066 1.065-2.353 1.598-3.862 1.598-1.51 0-2.797-.533-3.862-1.598-1.065-1.066-1.598-2.353-1.598-3.862 0-1.51.533-2.797 1.598-3.862s2.353-1.598 3.862-1.598c1.51 0 2.796.533 3.862 1.598 1.065 1.065 1.598 2.353 1.598 3.862zm-27-27c0 1.509-.532 2.796-1.597 3.862-1.066 1.065-2.353 1.598-3.862 1.598-1.51 0-2.797-.533-3.862-1.598-1.065-1.066-1.598-2.353-1.598-3.862 0-1.51.533-2.797 1.598-3.862s2.353-1.598 3.862-1.598c1.51 0 2.796.533 3.862 1.598 1.065 1.065 1.598 2.353 1.598 3.862zm41 27c0 1.509-.532 2.796-1.597 3.862-1.066 1.065-2.353 1.598-3.862 1.598-1.51 0-2.797-.533-3.862-1.598-1.065-1.066-1.598-2.353-1.598-3.862 0-1.51.533-2.797 1.598-3.862s2.353-1.598 3.862-1.598c1.51 0 2.796.533 3.862 1.598 1.065 1.065 1.598 2.353 1.598 3.862zm-55-54c0 1.509-.532 2.796-1.597 3.862-1.066 1.065-2.353 1.598-3.862 1.598-1.51 0-2.797-.533-3.862-1.598-1.065-1.066-1.598-2.353-1.598-3.862 0-1.51.533-2.797 1.598-3.862s2.353-1.598 3.862-1.598c1.51 0 2.796.533 3.862 1.598 1.065 1.065 1.598 2.353 1.598 3.862zm28 27c0 1.509-.532 2.796-1.597 3.862-1.066 1.065-2.353 1.598-3.862 1.598-1.51 0-2.797-.533-3.862-1.598-1.065-1.066-1.598-2.353-1.598-3.862 0-1.51.533-2.797 1.598-3.862s2.353-1.598 3.862-1.598c1.51 0 2.796.533 3.862 1.598 1.065 1.065 1.598 2.353 1.598 3.862zm27 14c0 1.509-.532 2.796-1.597 3.862-1.066 1.065-2.353 1.598-3.862 1.598-1.51 0-2.797-.533-3.862-1.598-1.065-1.066-1.598-2.353-1.598-3.862 0-1.51.533-2.797 1.598-3.862s2.353-1.598 3.862-1.598c1.51 0 2.796.533 3.862 1.598 1.065 1.065 1.598 2.353 1.598 3.862zm-14-14c0 1.509-.532 2.796-1.597 3.862-1.066 1.065-2.353 1.598-3.862 1.598-1.51 0-2.797-.533-3.862-1.598-1.065-1.066-1.598-2.353-1.598-3.862 0-1.51.533-2.797 1.598-3.862s2.353-1.598 3.862-1.598c1.51 0 2.796.533 3.862 1.598 1.065 1.065 1.598 2.353 1.598 3.862zm-27-27c0 1.509-.532 2.796-1.597 3.862-1.066 1.065-2.353 1.598-3.862 1.598-1.51 0-2.797-.533-3.862-1.598-1.065-1.066-1.598-2.353-1.598-3.862 0-1.51.533-2.797 1.598-3.862s2.353-1.598 3.862-1.598c1.51 0 2.796.533 3.862 1.598 1.065 1.065 1.598 2.353 1.598 3.862zm41 27c0 1.509-.532 2.796-1.597 3.862-1.066 1.065-2.353 1.598-3.862 1.598-1.51 0-2.797-.533-3.862-1.598-1.065-1.066-1.598-2.353-1.598-3.862 0-1.51.533-2.797 1.598-3.862s2.353-1.598 3.862-1.598c1.51 0 2.796.533 3.862 1.598 1.065 1.065 1.598 2.353 1.598 3.862zm13 14c0 1.509-.532 2.796-1.597 3.862-1.066 1.065-2.353 1.598-3.862 1.598-1.51 0-2.797-.533-3.862-1.598-1.065-1.066-1.598-2.353-1.598-3.862 0-1.51.533-2.797 1.598-3.862s2.353-1.598 3.862-1.598c1.51 0 2.796.533 3.862 1.598 1.065 1.065 1.598 2.353 1.598 3.862zm-40-41c0 1.509-.532 2.796-1.597 3.862-1.066 1.065-2.353 1.598-3.862 1.598-1.51 0-2.797-.533-3.862-1.598-1.065-1.066-1.598-2.353-1.598-3.862 0-1.51.533-2.797 1.598-3.862s2.353-1.598 3.862-1.598c1.51 0 2.796.533 3.862 1.598 1.065 1.065 1.598 2.353 1.598 3.862zm27 14c0 1.509-.532 2.796-1.597 3.862-1.066 1.065-2.353 1.598-3.862 1.598-1.51 0-2.797-.533-3.862-1.598-1.065-1.066-1.598-2.353-1.598-3.862 0-1.51.533-2.797 1.598-3.862s2.353-1.598 3.862-1.598c1.51 0 2.796.533 3.862 1.598 1.065 1.065 1.598 2.353 1.598 3.862zm13 13c0 1.509-.532 2.796-1.597 3.862-1.066 1.065-2.353 1.598-3.862 1.598-1.51 0-2.797-.533-3.862-1.598-1.065-1.066-1.598-2.353-1.598-3.862 0-1.51.533-2.797 1.598-3.862s2.353-1.598 3.862-1.598c1.51 0 2.796.533 3.862 1.598 1.065 1.065 1.598 2.353 1.598 3.862zm-27-27c0 1.509-.532 2.796-1.597 3.862-1.066 1.065-2.353 1.598-3.862 1.598-1.51 0-2.797-.533-3.862-1.598-1.065-1.066-1.598-2.353-1.598-3.862 0-1.51.533-2.797 1.598-3.862s2.353-1.598 3.862-1.598c1.51 0 2.796.533 3.862 1.598 1.065 1.065 1.598 2.353 1.598 3.862zm14 0c0 1.509-.532 2.796-1.597 3.862-1.066 1.065-2.353 1.598-3.862 1.598-1.51 0-2.797-.533-3.862-1.598-1.065-1.066-1.598-2.353-1.598-3.862 0-1.51.533-2.797 1.598-3.862s2.353-1.598 3.862-1.598c1.51 0 2.796.533 3.862 1.598 1.065 1.065 1.598 2.353 1.598 3.862zm13 14c0 1.509-.532 2.796-1.597 3.862-1.066 1.065-2.353 1.598-3.862 1.598-1.51 0-2.797-.533-3.862-1.598-1.065-1.066-1.598-2.353-1.598-3.862 0-1.51.533-2.797 1.598-3.862s2.353-1.598 3.862-1.598c1.51 0 2.796.533 3.862 1.598 1.065 1.065 1.598 2.353 1.598 3.862zm-145.5 40c0 1.509-.533 2.796-1.599 3.862-1.065 1.065-2.352 1.598-3.861 1.598-1.51 0-2.797-.533-3.862-1.598-1.065-1.066-1.598-2.353-1.598-3.862 0-1.51.533-2.797 1.598-3.862s2.353-1.598 3.862-1.598 2.796.533 3.861 1.598c1.066 1.065 1.598 2.353 1.598 3.862zm0-13c0 1.509-.533 2.796-1.599 3.862-1.065 1.065-2.352 1.598-3.861 1.598-1.51 0-2.797-.533-3.862-1.598-1.065-1.066-1.598-2.353-1.598-3.862 0-1.51.533-2.797 1.598-3.862s2.353-1.598 3.862-1.598 2.796.533 3.861 1.598c1.066 1.065 1.598 2.353 1.598 3.862zm14 13c0 1.509-.533 2.796-1.599 3.862-1.065 1.065-2.352 1.598-3.861 1.598-1.51 0-2.797-.533-3.862-1.598-1.065-1.066-1.598-2.353-1.598-3.862 0-1.51.533-2.797 1.598-3.862s2.353-1.598 3.862-1.598 2.796.533 3.861 1.598c1.066 1.065 1.598 2.353 1.598 3.862zm-14-27c0 1.509-.533 2.796-1.599 3.862-1.065 1.065-2.352 1.598-3.861 1.598-1.51 0-2.797-.533-3.862-1.598-1.065-1.066-1.598-2.353-1.598-3.862 0-1.51.533-2.797 1.598-3.862s2.353-1.598 3.862-1.598 2.796.533 3.861 1.598c1.066 1.065 1.598 2.353 1.598 3.862zm14 14c0 1.509-.533 2.796-1.599 3.862-1.065 1.065-2.352 1.598-3.861 1.598-1.51 0-2.797-.533-3.862-1.598-1.065-1.066-1.598-2.353-1.598-3.862 0-1.51.533-2.797 1.598-3.862s2.353-1.598 3.862-1.598 2.796.533 3.861 1.598c1.066 1.065 1.598 2.353 1.598 3.862zm-14-27c0 1.509-.533 2.796-1.599 3.862-1.065 1.065-2.352 1.598-3.861 1.598-1.51 0-2.797-.533-3.862-1.598-1.065-1.066-1.598-2.353-1.598-3.862 0-1.51.533-2.797 1.598-3.862s2.353-1.598 3.862-1.598 2.796.533 3.861 1.598c1.066 1.065 1.598 2.353 1.598 3.862zm14 13c0 1.509-.533 2.796-1.599 3.862-1.065 1.065-2.352 1.598-3.861 1.598-1.51 0-2.797-.533-3.862-1.598-1.065-1.066-1.598-2.353-1.598-3.862 0-1.51.533-2.797 1.598-3.862s2.353-1.598 3.862-1.598 2.796.533 3.861 1.598c1.066 1.065 1.598 2.353 1.598 3.862zm0-13c0 1.509-.533 2.796-1.599 3.862-1.065 1.065-2.352 1.598-3.861 1.598-1.51 0-2.797-.533-3.862-1.598-1.065-1.066-1.598-2.353-1.598-3.862 0-1.51.533-2.797 1.598-3.862s2.353-1.598 3.862-1.598 2.796.533 3.861 1.598c1.066 1.065 1.598 2.353 1.598 3.862zm0-14c0 1.509-.533 2.796-1.599 3.862-1.065 1.065-2.352 1.598-3.861 1.598-1.51 0-2.797-.533-3.862-1.598-1.065-1.066-1.598-2.353-1.598-3.862 0-1.51.533-2.797 1.598-3.862s2.353-1.598 3.862-1.598 2.796.533 3.861 1.598c1.066 1.065 1.598 2.353 1.598 3.862zm13 0c0 1.509-.533 2.796-1.599 3.862-1.065 1.065-2.352 1.598-3.861 1.598-1.51 0-2.797-.533-3.862-1.598-1.065-1.066-1.598-2.353-1.598-3.862 0-1.51.533-2.797 1.598-3.862s2.353-1.598 3.862-1.598 2.796.533 3.861 1.598c1.066 1.065 1.598 2.353 1.598 3.862zm14 0c0 1.509-.533 2.796-1.599 3.862-1.065 1.065-2.352 1.598-3.861 1.598-1.51 0-2.797-.533-3.862-1.598-1.065-1.066-1.598-2.353-1.598-3.862 0-1.51.533-2.797 1.598-3.862s2.353-1.598 3.862-1.598 2.796.533 3.861 1.598c1.066 1.065 1.598 2.353 1.598 3.862zm13 0c0 1.509-.533 2.796-1.599 3.862-1.065 1.065-2.352 1.598-3.861 1.598-1.51 0-2.797-.533-3.862-1.598-1.065-1.066-1.598-2.353-1.598-3.862 0-1.51.533-2.797 1.598-3.862s2.353-1.598 3.862-1.598 2.796.533 3.861 1.598c1.066 1.065 1.598 2.353 1.598 3.862zm-132.55 54c0 1.509-.533 2.796-1.599 3.862-1.065 1.065-2.352 1.598-3.861 1.598-1.51 0-2.797-.533-3.862-1.598-1.065-1.066-1.598-2.353-1.598-3.862 0-1.51.533-2.797 1.598-3.862s2.353-1.598 3.862-1.598 2.796.533 3.861 1.598c1.066 1.065 1.598 2.353 1.598 3.862zm-14-13c0 1.509-.533 2.796-1.599 3.862-1.065 1.065-2.352 1.598-3.861 1.598-1.51 0-2.797-.533-3.862-1.598-1.065-1.066-1.598-2.353-1.598-3.862 0-1.51.533-2.797 1.598-3.862s2.353-1.598 3.862-1.598 2.796.533 3.861 1.598c1.066 1.065 1.598 2.353 1.598 3.862zm14 0c0 1.509-.533 2.796-1.599 3.862-1.065 1.065-2.352 1.598-3.861 1.598-1.51 0-2.797-.533-3.862-1.598-1.065-1.066-1.598-2.353-1.598-3.862 0-1.51.533-2.797 1.598-3.862s2.353-1.598 3.862-1.598 2.796.533 3.861 1.598c1.066 1.065 1.598 2.353 1.598 3.862zm13 13c0 1.509-.533 2.796-1.599 3.862-1.065 1.065-2.352 1.598-3.861 1.598-1.51 0-2.797-.533-3.862-1.598-1.065-1.066-1.598-2.353-1.598-3.862 0-1.51.533-2.797 1.598-3.862s2.353-1.598 3.862-1.598 2.796.533 3.861 1.598c1.066 1.065 1.598 2.353 1.598 3.862zm-27-27c0 1.509-.533 2.796-1.599 3.862-1.065 1.065-2.352 1.598-3.861 1.598-1.51 0-2.797-.533-3.862-1.598-1.065-1.066-1.598-2.353-1.598-3.862 0-1.51.533-2.797 1.598-3.862s2.353-1.598 3.862-1.598 2.796.533 3.861 1.598c1.066 1.065 1.598 2.353 1.598 3.862zm14 0c0 1.509-.533 2.796-1.599 3.862-1.065 1.065-2.352 1.598-3.861 1.598-1.51 0-2.797-.533-3.862-1.598-1.065-1.066-1.598-2.353-1.598-3.862 0-1.51.533-2.797 1.598-3.862s2.353-1.598 3.862-1.598 2.796.533 3.861 1.598c1.066 1.065 1.598 2.353 1.598 3.862zm27 27c0 1.509-.533 2.796-1.599 3.862-1.065 1.065-2.352 1.598-3.861 1.598-1.51 0-2.797-.533-3.862-1.598-1.065-1.066-1.598-2.353-1.598-3.862 0-1.51.533-2.797 1.598-3.862s2.353-1.598 3.862-1.598 2.796.533 3.861 1.598c1.066 1.065 1.598 2.353 1.598 3.862zm-41-40c0 1.509-.533 2.796-1.599 3.862-1.065 1.065-2.352 1.598-3.861 1.598-1.51 0-2.797-.533-3.862-1.598-1.065-1.066-1.598-2.353-1.598-3.862 0-1.51.533-2.797 1.598-3.862s2.353-1.598 3.862-1.598 2.796.533 3.861 1.598c1.066 1.065 1.598 2.353 1.598 3.862zm14 0c0 1.509-.533 2.796-1.599 3.862-1.065 1.065-2.352 1.598-3.861 1.598-1.51 0-2.797-.533-3.862-1.598-1.065-1.066-1.598-2.353-1.598-3.862 0-1.51.533-2.797 1.598-3.862s2.353-1.598 3.862-1.598 2.796.533 3.861 1.598c1.066 1.065 1.598 2.353 1.598 3.862zm41 40c0 1.509-.533 2.796-1.599 3.862-1.065 1.065-2.352 1.598-3.861 1.598-1.51 0-2.797-.533-3.862-1.598-1.065-1.066-1.598-2.353-1.598-3.862 0-1.51.533-2.797 1.598-3.862s2.353-1.598 3.862-1.598 2.796.533 3.861 1.598c1.066 1.065 1.598 2.353 1.598 3.862zm13 0c0 1.509-.533 2.796-1.599 3.862-1.065 1.065-2.352 1.598-3.861 1.598-1.51 0-2.797-.533-3.862-1.598-1.065-1.066-1.598-2.353-1.598-3.862 0-1.51.533-2.797 1.598-3.862s2.353-1.598 3.862-1.598 2.796.533 3.861 1.598c1.066 1.065 1.598 2.353 1.598 3.862zm-54-54c0 1.509-.533 2.796-1.599 3.862-1.065 1.065-2.352 1.598-3.861 1.598-1.51 0-2.797-.533-3.862-1.598-1.065-1.066-1.598-2.353-1.598-3.862 0-1.51.533-2.797 1.598-3.862s2.353-1.598 3.862-1.598 2.796.533 3.861 1.598c1.066 1.065 1.598 2.353 1.598 3.862zm13 0c0 1.509-.533 2.796-1.599 3.862-1.065 1.065-2.352 1.598-3.861 1.598-1.51 0-2.797-.533-3.862-1.598-1.065-1.066-1.598-2.353-1.598-3.862 0-1.51.533-2.797 1.598-3.862s2.353-1.598 3.862-1.598 2.796.533 3.861 1.598c1.066 1.065 1.598 2.353 1.598 3.862zm14 0c0 1.509-.533 2.796-1.599 3.862-1.065 1.065-2.352 1.598-3.861 1.598-1.51 0-2.797-.533-3.862-1.598-1.065-1.066-1.598-2.353-1.598-3.862 0-1.51.533-2.797 1.598-3.862s2.353-1.598 3.862-1.598 2.796.533 3.861 1.598c1.066 1.065 1.598 2.353 1.598 3.862zm14 0c0 1.509-.533 2.796-1.599 3.862-1.065 1.065-2.352 1.598-3.861 1.598-1.51 0-2.797-.533-3.862-1.598-1.065-1.066-1.598-2.353-1.598-3.862 0-1.51.533-2.797 1.598-3.862s2.353-1.598 3.862-1.598 2.796.533 3.861 1.598c1.066 1.065 1.598 2.353 1.598 3.862zm13 0c0 1.509-.533 2.796-1.599 3.862-1.065 1.065-2.352 1.598-3.861 1.598-1.51 0-2.797-.533-3.862-1.598-1.065-1.066-1.598-2.353-1.598-3.862 0-1.51.533-2.797 1.598-3.862s2.353-1.598 3.862-1.598 2.796.533 3.861 1.598c1.066 1.065 1.598 2.353 1.598 3.862z" fill="#565758"/><path d="M147.81 158.994L40 236V20l108 77.143L256 20v61.714L191.2 128l64.8 46.286V236l-108.19-77.006zM75 99v59l41-30-41-29z" fill="#00966C"/></g></svg>