<svg width="586" height="137" viewBox="0 0 586 137" xmlns="http://www.w3.org/2000/svg"><title>CraftX</title><g fill="none" fill-rule="evenodd"><path fill="#00966C" d="M68 86L4 133V5l64 47 64-47v33.28L90 69l42 31v33z"/><path fill="#FFF" d="M26 52l22 17-22 17z"/><path fill-opacity=".25" fill="#000" opacity=".25" d="M68 86l22-17 9 7-27 13z"/><path d="M550.862 85.862L563 106h19l-21.5-36.5L582 33h-19l-12.138 20.138L539 33h-20l22 36.5-22 36.5h20l11.862-20.138zM489 106V48h26l-8-15h-18V18h-21v15h-20v15h20v58h21zM423 5c-19.61 0-30 7.838-30 22v6h-20l8 15h12v58h21V48h24V33h-24v-9c0-7.081 3.944-6 24-6V5h-15zm-53 100.994s-31.012.006-40 .006c-14.98 0-24-7.655-24-21 0-15.66 11.667-24 34-24h10v-3c0-7.626-5.604-10-15-10h-22V33h25c21.516 0 32 7.387 32 24v48.994zM336 93h14V73h-6c-11.983 0-17 3.919-17 11 0 5.583 2.872 9 9 9zm-65 13s.092-41.516-.054-51c.122-5.858 21.215-6.844 28.054-7 1.334-.03 4 0 4 0V33.033h-5.707C284 34 277.22 33.12 270.946 41v-7.903L249 33v73h22zm-61-58c-9.805 0-16 4.66-16 21 0 16.07 7.74 24 17 24h26v13h-28c-23.422 0-37-14.395-37-37s14.714-36 38-36h27v15h-27z" fill="#626780"/></g></svg>