<svg width="512" height="512" viewBox="0 0 512 512" xmlns="http://www.w3.org/2000/svg"><title>developer-spotlight</title><g stroke="#282D41" stroke-width="10" fill="none" fill-rule="evenodd" stroke-linecap="round" stroke-linejoin="round"><g transform="translate(27 49)"><path d="M105.7 385.2L17.3 180.5m37.4-16.4l96.5 221.1M53.8 161.4L266.7 35.7 245.9.5 28.8 128.7"/><circle cx="27.3" cy="155.9" r="26.6"/></g><path d="M155.7 434.2c-39.5 0-71.5 27.7-71.5 61.8h143c0-34.2-32-61.8-71.5-61.8zm263.1-282.4c8.6 14.6 3.7 33.4-10.9 41.9-14.6 8.5-33.4 3.7-41.9-10.9m-48.3-97.3l-24.2-41.2c-2.8-4.7-1.2-10.9 3.5-13.6l22.6-13.2c4.7-2.8 10.8-1.2 13.6 3.5l24.9 41.4c46.9-14.8 100.2 4.2 126.2 48.4L298 219.9c-26.6-45.3-18.4-100.9 19.7-134.4zM339.8 33l-85.2 50m58.4-6.8l38.5-22.6"/></g></svg>