<svg width="512" height="512" viewBox="0 0 512 512" xmlns="http://www.w3.org/2000/svg"><title>open-source</title><g fill="#282D41"><path d="M255.929 16.001c-132.192 0-239.738 107.48-239.738 239.59 0 132.109 107.546 239.59 239.738 239.59 132.19 0 239.737-107.481 239.737-239.59C495.666 123.48 388.12 16 255.93 16zm0 468.756c-126.44 0-229.309-102.805-229.309-229.166 0-126.362 102.87-229.167 229.309-229.167S485.237 129.229 485.237 255.59c0 126.36-102.87 229.166-229.308 229.166z"/><path d="M367.882 144.551a8.292 8.292 0 0 0-7.207-4.232c-.167 0-.641.021-.808.042-35.147 3.408-51.844 14.701-59.395 22.597-28.66-6.838-60.427-6.838-89.087 0-7.535-7.9-24.232-19.189-59.4-22.602a13.09 13.09 0 0 0-.782-.037 8.297 8.297 0 0 0-7.243 4.258c-1.434 2.606-13.397 25.698-4.114 57.206-15.796 16.655-24.129 36.151-24.129 56.564 0 26.782 1.606 54.762 20.802 76.681 21.114 24.108 60.171 35.829 119.404 35.829 59.228 0 98.296-11.72 119.416-35.829 19.19-21.919 20.79-49.9 20.79-76.68 0-20.408-8.333-39.9-24.128-56.565 9.298-31.503-2.665-54.6-4.12-57.232zM191.095 341.303c-16.671-10.381-24.78-28.173-24.78-54.381 0-30.643 12.969-33.181 27.419-33.181 8.16 0 17.542 1.323 27.48 2.72 11.322 1.595 23.023 3.241 34.715 3.241 11.701 0 23.398-1.646 34.713-3.241 9.934-1.402 19.315-2.72 27.482-2.72 14.45 0 27.413 2.538 27.413 33.18 0 26.214-8.104 44-24.775 54.382-14.173 8.828-34.771 12.94-64.833 12.94-30.058 0-50.655-4.112-64.834-12.94zm194.615-82.956c0 24.802-1.408 50.619-18.21 69.818-10.679 12.184-26.85 20.856-48.897 26.12a71.137 71.137 0 0 0 7.681-4.138c19.972-12.44 29.682-33.119 29.682-63.225 0-38.648-20.222-43.604-37.842-43.604-8.891 0-18.627 1.37-28.937 2.824-10.955 1.543-22.282 3.138-33.258 3.138-10.967 0-22.298-1.595-33.26-3.138-10.309-1.454-20.044-2.824-28.935-2.824-17.62 0-37.848 4.956-37.848 43.604 0 30.1 9.71 50.785 29.692 63.225a70.165 70.165 0 0 0 7.681 4.137c-22.047-5.263-38.218-13.935-48.892-26.12-16.818-19.198-18.22-45.015-18.22-69.817 0-18.516 8.051-36.313 23.283-51.457a5.213 5.213 0 0 0 1.272-5.342c-8.583-25.739-.657-45.574 1.752-50.67 35.59 3.747 48.924 15.999 53.028 21.148a5.198 5.198 0 0 0 5.382 1.798c28.831-7.427 61.282-7.427 90.124 0a5.219 5.219 0 0 0 5.377-1.798c4.12-5.155 17.495-17.448 53.032-21.159 2.415 5.102 10.336 24.942 1.758 50.681a5.21 5.21 0 0 0 1.267 5.342c15.237 15.155 23.288 32.947 23.288 51.457z"/><path d="M202.046 270.26c-10.815 0-19.284 11.033-19.284 25.115 0 14.08 8.469 25.113 19.284 25.113s19.289-11.032 19.289-25.113c0-14.082-8.474-25.114-19.29-25.114zm0 39.806c-4.803 0-8.855-6.728-8.855-14.691 0-7.963 4.052-14.691 8.855-14.691 4.802 0 8.86 6.728 8.86 14.69 0 7.964-4.058 14.692-8.86 14.692zm107.765-39.806c-10.815 0-19.283 11.033-19.283 25.115 0 14.08 8.468 25.113 19.283 25.113 10.816 0 19.29-11.032 19.29-25.113 0-14.082-8.474-25.114-19.29-25.114zm0 39.806c-4.802 0-8.854-6.728-8.854-14.691 0-7.963 4.052-14.691 8.854-14.691 4.803 0 8.86 6.728 8.86 14.69 0 7.964-4.057 14.692-8.86 14.692z"/></g></svg>