<svg width="512" height="512" viewBox="0 0 512 512" xmlns="http://www.w3.org/2000/svg"><title>weekly-hangouts</title><g stroke="#282D41" stroke-width="12" fill="none" fill-rule="evenodd" stroke-linecap="round" stroke-linejoin="round"><path d="M458.116 214.497c.195-110.014-87.842-199.874-197.839-201.935C150.28 10.502 58.94 97 55.013 206.945c-3.926 109.944 81.012 202.738 190.876 208.529v84.89c125.074-33.27 212.153-146.47 212.227-275.892-.425-2.547 0-6.367 0-9.975z"/><path d="M160.998 161.441v63.667h31.834v42.445c19.236-4.956 32.462-22.59 31.834-42.445v-63.667h-63.668zm127.336 0v63.667h31.834v42.445c19.236-4.956 32.462-22.59 31.834-42.445v-63.667h-63.668z"/></g></svg>