<?xml version="1.0" standalone="no"?>
<!DOCTYPE svg PUBLIC "-//W3C//DTD SVG 20010904//EN"
 "http://www.w3.org/TR/2001/REC-SVG-20010904/DTD/svg10.dtd">
<svg version="1.0" xmlns="http://www.w3.org/2000/svg"
 width="16.000000pt" height="16.000000pt" viewBox="0 0 16.000000 16.000000"
 preserveAspectRatio="xMidYMid meet">
<metadata>
Created by potrace 1.11, written by Peter Selinger 2001-2013
</metadata>
<g transform="translate(0.000000,16.000000) scale(0.006250,-0.006250)"
fill="#000000" stroke="none">
<path d="M0 1281 l0 -1282 38 28 c20 15 51 38 67 50 38 30 36 28 125 93 41 30
80 58 85 63 15 12 86 64 255 189 85 63 227 168 315 233 88 65 211 156 272 202
62 46 117 83 123 83 9 0 339 -240 368 -267 8 -7 23 -18 34 -24 11 -6 27 -17
36 -25 9 -7 112 -83 227 -168 116 -85 215 -159 220 -164 6 -4 53 -39 105 -77
52 -39 102 -75 110 -82 8 -6 52 -39 98 -72 l82 -61 0 333 0 333 -212 156
c-117 86 -298 220 -403 298 -104 78 -197 145 -205 150 -13 8 -13 11 -1 19 13
8 248 181 389 286 37 28 149 111 250 185 l182 134 0 333 0 333 -117 -87 c-174
-128 -413 -305 -538 -398 -406 -302 -617 -455 -626 -455 -5 0 -87 58 -182 128
-95 71 -372 276 -617 457 -245 180 -453 335 -462 343 -17 14 -18 -47 -18
-1267z m664 169 c118 -91 215 -167 215 -170 0 -3 -45 -39 -100 -80 -55 -41
-108 -82 -117 -90 -21 -20 -219 -170 -224 -170 -2 0 -3 153 -3 340 0 187 3
339 7 338 3 -2 103 -77 222 -168z"/>
</g>
</svg>
