<svg width="256" height="256" viewBox="0 0 256 256" xmlns="http://www.w3.org/2000/svg"><title>cloudflare</title><g fill="none"><path fill="#FFF" d="M233.726 138.621l-31.79-18.23-5.484-2.371-130.054.89v66.026h167.328z"/><path d="M175.85 178.86c1.557-5.336.964-10.227-1.63-13.858-2.371-3.334-6.373-5.261-11.19-5.483l-91.223-1.186a1.686 1.686 0 0 1-1.408-.741c-.296-.445-.37-1.038-.222-1.63.297-.89 1.186-1.557 2.15-1.63l92.037-1.186c10.894-.52 22.75-9.338 26.9-20.157l5.262-13.71c.222-.592.296-1.185.148-1.778-5.928-26.826-29.864-46.834-58.469-46.834-26.381 0-48.76 17.044-56.764 40.683-5.187-3.853-11.783-5.928-18.897-5.261-12.672 1.26-22.824 11.412-24.084 24.084-.296 3.26-.074 6.447.667 9.411-20.675.593-37.2 17.49-37.2 38.312 0 1.853.148 3.706.37 5.558.148.89.89 1.557 1.779 1.557h168.366c.963 0 1.852-.667 2.149-1.63l1.26-4.521z" fill="#F38020"/><path d="M204.9 120.243c-.816 0-1.705 0-2.52.074-.593 0-1.112.445-1.334 1.038l-3.557 12.375c-1.556 5.336-.963 10.227 1.63 13.858 2.372 3.334 6.373 5.261 11.19 5.483l19.416 1.186c.593 0 1.111.296 1.408.741.296.445.37 1.112.222 1.63-.296.89-1.186 1.557-2.15 1.63l-20.23 1.186c-10.967.52-22.75 9.338-26.9 20.157l-1.482 3.78c-.296.74.223 1.481 1.038 1.481h69.51c.815 0 1.556-.518 1.778-1.334 1.186-4.298 1.853-8.818 1.853-13.487 0-27.418-22.38-49.798-49.872-49.798" fill="#FAAE40"/></g></svg>