<svg width="256" height="256" viewBox="0 0 256 256" xmlns="http://www.w3.org/2000/svg"><title>craftcms</title><path d="M237.97 87.402h-.07l-15.1 11.843-1.133 5.967h-15.64l4.571-24c1.077-9.053 14.865-6.313 16.92-5.8l2.202-11.564c-24.794-9.53-32.032 17.364-32.032 17.364l-4.57 24h-.08l-15.527 12.177h13.29l-14.607 76.65h12.912l14.598-76.65h15.64l-5.716 30.005c-3.634 21.845 18.245 19.452 25.229 18.05l2.183-11.442c-16.704 3.772-14.501-6.608-14.501-6.608l5.717-30.005h19.91l2.319-12.177h-19.91l3.394-17.81zM135.6 105.504l-2.333 12.913c31.55-13.75 26.235 10.206 26.235 10.206l-.645 3.602s-18.497-9.495-31.447 1.078c0 0-7.584 5.056-7.584 15.17 0 10.116 9.27 15.552 9.27 15.552s13.944 7.357 24.863-4.401l-1.205 5.471h12.211l7.674-36.402c5.76-35.92-37.039-23.19-37.039-23.19zm20.286 43.347c-13.434 13.786-22.038 4.758-22.038 4.758-5.825-5.67.612-11.494.612-11.494 8.888-8.122 22.487.803 22.487.803l-1.06 5.933zm-31.219-43.601c-9.958.105-19.007 5.66-19.007 5.66l1.158-5.45H94.866l-10.905 59.75h12.213l7.393-39.31c5.465-11.103 18.972-7.652 18.972-7.652l2.128-12.999zM78.072 79.644c.618.467 1.203.96 1.778 1.465l9.268-7.272.288-.377a42.354 42.354 0 0 0-4.595-4.037C63.545 53.37 31.404 60.09 13.031 84.438c-18.372 24.342-16.026 57.087 5.246 73.143 17.367 13.108 41.975 11.028 60.423-3.424l-.019-.038-8.823-6.92c-13.67 8.792-30.63 9.425-42.9.164-16.338-12.333-18.142-37.487-4.03-56.188 14.116-18.7 38.805-23.862 55.144-11.53z" fill="#D95947"/></svg>