<svg width="256" height="256" viewBox="0 0 256 256" xmlns="http://www.w3.org/2000/svg"><title>forge</title><path d="M91.529 105.372c4.842 0 7.077.87 8.443 2.608 1.986 2.607 3.104 7.822-.125 20.61-3.228 12.789-6.828 17.879-10.18 20.61-2.235 1.739-4.967 2.608-9.81 2.608H64.339c-4.842 0-7.201-.87-8.443-2.607-1.986-2.608-3.104-7.822.249-20.61 3.228-12.79 6.952-17.88 10.305-20.611 2.235-1.738 4.966-2.608 9.808-2.608H91.53zM68.932 140.51c.248.373.869.497 2.856.497h5.96c1.986 0 2.73-.124 3.227-.497.621-.496 1.738-1.738 4.222-11.919 2.607-10.18 2.11-11.422 1.738-11.92-.248-.372-.87-.496-2.856-.496h-5.835c-1.987 0-2.732.124-3.228.497-.621.497-1.739 1.738-4.222 11.92-2.731 10.304-2.235 11.422-1.862 11.918zm60.217-3.724c-.497-.621-.993-.87-3.973-.87h-5.836c-.62 0-1.241.497-1.365 1.118l-3.353 13.657c-.124.621-.745 1.118-1.365 1.118h-12.044c-.62 0-.993-.497-.869-1.118l11.05-44.2c.124-.62.745-1.118 1.366-1.118h28.308c4.594 0 7.077.621 8.443 2.36 1.49 2.11 1.986 4.345.372 10.801-2.11 8.691-5.338 11.175-10.926 12.292v.124c4.346 1.118 6.705 2.608 5.215 9.312-.869 3.849-1.49 7.698-1.862 10.305-.124.621-.745 1.242-1.366 1.242h-12.292c-.496 0-.993-.373-.869-.993.373-2.856.87-5.712 1.614-9.312.497-3.353.248-3.973-.248-4.718zm-.87-10.926c2.608 0 3.353-.124 3.85-.497.869-.62 1.49-1.738 2.11-4.47.621-2.731.497-3.724 0-4.345-.372-.373-.993-.497-3.6-.497h-6.456c-.621 0-1.242.497-1.366 1.118l-1.863 7.697c-.124.621.249 1.118.87 1.118h6.456v-.124zM188.994 105c4.967 0 7.574.62 9.064 2.359 1.738 2.11 2.359 5.339.993 12.54-.124.62-.745 1.117-1.366 1.117h-11.546c-.621 0-.994-.496-.87-.993.497-2.855-.124-3.228-.496-3.725-.248-.372-.745-.496-2.856-.496h-5.96c-2.11 0-2.73.124-3.227.496-.745.621-2.111 2.732-4.346 12.168s-1.862 11.67-1.49 12.292c.248.372.87.496 2.98.496h6.332c1.862 0 2.607-.124 3.104-.496.62-.497 1.862-1.739 2.607-5.09l.124-.373h-8.939c-.62 0-.993-.497-.87-1.118l1.74-7.45c.123-.62.744-1.117 1.365-1.117h21.48c.62 0 .993.497.868 1.118l-1.117 4.594c-2.607 11.298-5.711 15.271-8.94 17.879-2.358 1.986-5.71 2.731-10.056 2.731h-15.52c-4.842 0-7.201-.87-8.567-2.731-2.11-2.732-3.228-7.822-.124-20.735s6.704-18.127 10.057-20.735c2.235-1.862 4.966-2.731 9.808-2.731h15.768zm48.422 46.932h-37.123c-.621 0-.993-.497-.87-1.117l10.43-44.698c.124-.62.745-1.117 1.366-1.117h43.207c.745 0 1.117.745.62 1.49-1.862 2.98-9.063 9.312-17.133 9.312H222.89c-.621 0-1.242.496-1.366 1.117l-1.117 4.967c-.125.62.248 1.117.869 1.117h20.237c.621 0 .994.497.87 1.117l-1.739 7.822c-.124.621-.745 1.118-1.365 1.118H219.04c-.621 0-1.242.497-1.366 1.117l-1.366 5.712c-.124.62.249 1.117.87 1.117h22.72c.621 0 .994.497.87 1.117l-1.987 8.567c-.124.745-.745 1.242-1.366 1.242zM59 105.372H8.094c-.62 0-1.241.497-1.366 1.118l-1.241 4.47c-.124.496.124.869.496 1.117 1.987.62 12.665.87 11.05 6.829l-.372 1.614-4.345 16.265-.373 1.614c-1.614 5.96-7.325 6.208-9.684 6.828-.497.125-.87.621-.994 1.118l-1.241 4.47c-.124.62.248 1.117.869 1.117h20.734c.621 0 1.242-.497 1.366-1.117l3.725-14.403c.124-.62.745-1.117 1.366-1.117h13.285c.62 0 1.241-.497 1.365-1.118l1.987-7.698c.124-.62-.248-1.117-.87-1.117H30.568c-.621 0-.993-.497-.87-1.117l1.863-6.953c.124-.621.745-1.118 1.366-1.118h19.99c.62 0 1.241-.496 1.365-1.117l5.339-8.443c.248-.745 0-1.242-.62-1.242z" fill="#4A4A4A"/></svg>