<svg width="256" height="256" viewBox="0 0 256 256" xmlns="http://www.w3.org/2000/svg"><title>gulp</title><g fill="none"><path d="M159.23 248.197l2.454-40.9 6.777-11.57s-15.426 6.31-41.251 6.31c-25.826 0-41.019-6.194-41.019-6.194l7.596 12.621 2.687 39.733c0 4.26 14.048 7.713 31.378 7.713 17.329 0 31.377-3.453 31.377-7.713m-7.743-191.002l5.152-20.365L185.17 6.808 177.65.403l-30.206 31.981-5.982 24.33a400.799 400.799 0 0 0-13.512-.224c-31.813 0-57.602 3.625-57.602 8.097 0 4.471 25.79 8.097 57.602 8.097 31.812 0 57.601-3.626 57.601-8.097 0-3.293-13.986-6.127-34.065-7.392" fill="#D34A47"/><path d="M148.49 68.6s-1.116.25-4.399.264c-3.283.013-5.614-.022-6.543-.868-.25-.227-.386-.677-.385-.983.003-.581.416-.923.941-1.138l.497.78c-.216.075-.34.163-.34.257-.002.441 3.357.743 5.926.71 2.57-.03 5.674-.242 5.677-.678 0-.131-.235-.255-.643-.353l.495-.774c.665.207 1.246.606 1.245 1.297-.006 1.175-1.501 1.354-2.472 1.485" fill="#FFF"/><path d="M185.114 6.868c.717-.829-.372-2.948-2.432-4.734-2.061-1.784-4.313-2.56-5.032-1.73-.718.828.371 2.948 2.432 4.732 2.06 1.785 4.314 2.56 5.032 1.732m-27.257 141.424c-.676-6.506 14.23-15.928 10.404-16.23-8.235.471-12.334 9.652-16.477 19.267-1.519 3.523-6.714 18.55-10.122 16.7-3.406-1.85 4.417-14.206 6.61-21.544-2.53 1.856-11.81 9.065-14.2 2.313-3.845 3.266-12.06 5.034-11.133-3.542-2.046 3.622-6.636 8.68-12.146 6.579-7.236-2.76 4.193-25.81 7.035-24.646 2.842 1.162-.574 6.413-1.468 8.452-1.968 4.487-4.24 10.128-2.722 11.283 2.6 1.978 9.68-7.485 9.837-7.693 1.323-1.749 5.095-13.191 8.135-11.877s-7.582 16.422-3.61 19.42c.8.605 4.078-.373 6.071-2.53 1.29-1.396.847-4.486 5.147-14.74 4.3-10.255 8.132-23.025 11.081-22.052 2.949.973.518 7.527-.54 9.97-4.964 11.468-13.549 30.413-9.5 28.979 4.048-1.434 6.157-1.518 10.12-6.157 3.965-4.64 3.783-12.281 6.425-12.119 2.643.163 2.2 2.613 1.559 4.479 2.6-2.976 12.327-9.244 14.676-3.036 2.781 7.349-13.917 17.965-9.754 17.423 4.06-.527 10.636-4.693 13.444-8.48l7.729-69.484s-7.777 6.436-57.256 6.436-56.452-6.302-56.452-6.302l6.58 63.423c3.493-9.927 11.787-30.005 24.86-29.331 5.947.306 13.885 11.757 7.085 12.145-2.878.164-3.17-5.716-6.579-6.579-2.46-.623-5.884 1.376-8.097 3.543-4.413 4.32-13.906 21.361-12.652 29.858 1.598 10.832 14.948-3.764 17.207-8.098 1.59-3.052 2.665-12.096 6.144-11.147 3.48.948-.303 10.282-2.825 18.534-2.834 9.266-4.323 19.041-7.874 17.917-3.551-1.124 2.234-13.086 2.024-15.182-3.338 3.08-9.487 10.876-17.355 7.017l4.087 39.385s10.861 8.582 43.579 8.582 43.98-8.448 43.98-8.448l5.075-45.617c-4.152 4.042-17.29 11.221-18.132 3.13" fill="#D34A47"/></g></svg>