<svg width="256" height="256" viewBox="0 0 256 256" xmlns="http://www.w3.org/2000/svg"><title>vultr</title><g fill="none"><path d="M143.122 189.328l54.56-136.133c2.021-4.834 4.94-7.195 8.87-7.195 3.929 0 6.848 1.012 8.644 3.035 1.796 2.024 2.806 4.16 2.806 6.52 0 2.36-.224 4.047-.673 5.059L160.074 199.67c-3.255 7.082-8.083 10.679-14.37 10.679h-5.051c-6.4 0-11.114-3.485-14.37-10.68l-22.116-53.621h21.667l17.288 43.28z" fill="#2B2A29"/><path d="M88.8 53.893C86.89 49.27 82.394 46 77.112 46H48.227C42.497 46 38 50.623 38 56.261c0 5.638 4.608 10.374 10.228 10.374h22.927l11.689 28.527 12.588 31.234h22.253L88.8 53.893z" fill="#1E88E5"/></g></svg>