<svg width="256" height="256" viewBox="0 0 256 256" xmlns="http://www.w3.org/2000/svg"><title>vultr</title><g fill="none"><path d="M148.753 214.453l76.687-191.34C228.28 16.317 232.383 13 237.905 13c5.523 0 9.626 1.422 12.15 4.266C252.58 20.11 254 23.112 254 26.43c0 3.318-.316 5.688-.947 7.11L172.58 228.99c-4.576 9.954-11.361 15.01-20.197 15.01h-7.1c-8.995 0-15.622-4.898-20.198-15.01L94 153.622h30.454l24.3 60.831z" fill="#2B2A29"/><path d="M72.402 24.094C69.717 17.596 63.398 13 55.973 13H15.375C7.32 13 1 19.498 1 27.422s6.477 14.58 14.375 14.58h32.226L64.03 82.1 81.722 126H113L72.402 24.094z" fill="#1E88E5"/></g></svg>