<svg width="256" height="256" viewBox="0 0 256 256" xmlns="http://www.w3.org/2000/svg"><title>yarn</title><g fill="none"><path d="M128 30c54.108 0 98 43.892 98 98s-43.892 98-98 98-98-43.892-98-98 43.892-98 98-98z" fill="#2C8EBB"/><path d="M194.67 157.703c-.68-5.373-5.221-9.081-11.048-9.006-8.703.114-16.006 4.617-20.849 7.606-1.892 1.173-3.519 2.043-4.919 2.686.303-4.389.038-10.14-2.232-16.46-2.763-7.567-6.47-12.22-9.12-14.907 3.066-4.465 7.266-10.973 9.233-21.038 1.703-8.59 1.173-21.946-2.724-29.438-.795-1.514-2.12-2.61-3.784-3.065-.681-.19-1.968-.567-4.503.151-3.821-7.908-5.146-8.74-6.167-9.421-2.12-1.362-4.616-1.665-6.962-.795-3.14 1.135-5.827 4.162-8.363 9.535a39.407 39.407 0 0 0-1.021 2.308c-4.806.341-12.373 2.082-18.768 9.006-.794.87-2.346 1.513-3.973 2.119h.038c-3.33 1.173-4.843 3.897-6.697 8.816-2.573 6.886.075 13.66 2.686 18.049-3.556 3.178-8.286 8.248-10.783 14.189-3.103 7.34-3.444 14.53-3.33 18.427-2.649 2.8-6.735 8.06-7.19 13.962-.605 8.249 2.384 13.849 3.709 15.892.378.605.794 1.097 1.248 1.59-.151 1.02-.189 2.118.038 3.253.492 2.649 2.157 4.806 4.692 6.168 4.995 2.648 11.957 3.784 17.33 1.097 1.93 2.043 5.448 4.01 11.843 4.01h.378c1.627 0 22.287-1.096 28.303-2.572 2.687-.643 4.54-1.779 5.751-2.8 3.86-1.21 14.53-4.843 24.595-11.351 7.114-4.617 9.573-5.6 14.87-6.887 5.146-1.249 8.363-5.94 7.72-11.124zm-9.005 5.562c-6.054 1.438-9.12 2.762-16.61 7.643-11.693 7.568-24.482 11.087-24.482 11.087s-1.06 1.589-4.124 2.308c-5.298 1.286-25.238 2.383-27.054 2.421-4.881.038-7.87-1.248-8.703-3.254-2.535-6.054 3.632-8.702 3.632-8.702s-1.362-.833-2.156-1.59c-.72-.719-1.476-2.156-1.703-1.627-.946 2.308-1.438 7.946-3.973 10.481-3.481 3.52-10.065 2.346-13.962.303-4.276-2.27.302-7.605.302-7.605s-2.308 1.362-4.162-1.438c-1.665-2.573-3.216-6.962-2.8-12.373.454-6.168 7.34-12.146 7.34-12.146s-1.21-9.119 2.763-18.465c3.595-8.513 13.281-15.362 13.281-15.362s-8.135-9.005-5.108-17.103c1.968-5.297 2.762-5.26 3.405-5.486 2.27-.87 4.465-1.816 6.092-3.595 8.135-8.778 18.503-7.113 18.503-7.113s4.919-14.946 9.46-12.033c1.4.908 6.432 12.108 6.432 12.108s5.373-3.14 5.978-1.967c3.254 6.319 3.633 18.389 2.195 25.73-2.422 12.108-8.476 18.616-10.897 22.702-.568.946 6.508 3.935 10.972 16.308 4.125 11.314.455 20.811 1.098 21.87.113.19.151.265.151.265s4.73.379 14.227-5.486c5.07-3.14 11.087-6.66 17.935-6.735 6.622-.114 6.962 7.643 1.968 8.854z" fill="#FFF"/></g></svg>