<?xml version="1.0" encoding="UTF-8" standalone="no"?>
<svg width="910px" height="256px" viewBox="0 0 910 256" version="1.1" xmlns="http://www.w3.org/2000/svg" xmlns:xlink="http://www.w3.org/1999/xlink">
    <!-- Generator: Sketch 42 (36781) - http://www.bohemiancoding.com/sketch -->
    <title>Craft X Logo Light</title>
    <desc>Created with Sketch.</desc>
    <defs></defs>
    <g id="Page-1" stroke="none" stroke-width="1" fill="none" fill-rule="evenodd">
        <g id="Craft-X-Logo-Light">
            <g id="Type" transform="translate(336.000000, 89.000000)" fill="#565758">
                <g id="x" transform="translate(429.620596, 13.484095)">
                    <path d="M10.9194218,59.4597109 C10.9194218,60.9689068 10.3867724,62.2561429 9.32145762,63.3214576 C8.25614286,64.3867724 6.96890682,64.9194218 5.45971089,64.9194218 C3.95051497,64.9194218 2.66327893,64.3867724 1.59796416,63.3214576 C0.532649395,62.2561429 -5.91365536e-14,60.9689068 0,59.4597109 C-5.91365536e-14,57.950515 0.532649395,56.6632789 1.59796416,55.5979642 C2.66327893,54.5326494 3.95051497,54 5.45971089,54 C6.96890682,54 8.25614286,54.5326494 9.32145762,55.5979642 C10.3867724,56.6632789 10.9194218,57.950515 10.9194218,59.4597109 Z" id="Path"></path>
                    <path d="M24.9194218,59.4597109 C24.9194218,60.9689068 24.3867724,62.2561429 23.3214576,63.3214576 C22.2561429,64.3867724 20.9689068,64.9194218 19.4597109,64.9194218 C17.950515,64.9194218 16.6632789,64.3867724 15.5979642,63.3214576 C14.5326494,62.2561429 14,60.9689068 14,59.4597109 C14,57.950515 14.5326494,56.6632789 15.5979642,55.5979642 C16.6632789,54.5326494 17.950515,54 19.4597109,54 C20.9689068,54 22.2561429,54.5326494 23.3214576,55.5979642 C24.3867724,56.6632789 24.9194218,57.950515 24.9194218,59.4597109 Z" id="Path"></path>
                    <path d="M24.9194218,46.4597109 C24.9194218,47.9689068 24.3867724,49.2561429 23.3214576,50.3214576 C22.2561429,51.3867724 20.9689068,51.9194218 19.4597109,51.9194218 C17.950515,51.9194218 16.6632789,51.3867724 15.5979642,50.3214576 C14.5326494,49.2561429 14,47.9689068 14,46.4597109 C14,44.950515 14.5326494,43.6632789 15.5979642,42.5979642 C16.6632789,41.5326494 17.950515,41 19.4597109,41 C20.9689068,41 22.2561429,41.5326494 23.3214576,42.5979642 C24.3867724,43.6632789 24.9194218,44.950515 24.9194218,46.4597109 Z" id="Path"></path>
                    <path d="M38.9194218,46.4597109 C38.9194218,47.9689068 38.3867724,49.2561429 37.3214576,50.3214576 C36.2561429,51.3867724 34.9689068,51.9194218 33.4597109,51.9194218 C31.950515,51.9194218 30.6632789,51.3867724 29.5979642,50.3214576 C28.5326494,49.2561429 28,47.9689068 28,46.4597109 C28,44.950515 28.5326494,43.6632789 29.5979642,42.5979642 C30.6632789,41.5326494 31.950515,41 33.4597109,41 C34.9689068,41 36.2561429,41.5326494 37.3214576,42.5979642 C38.3867724,43.6632789 38.9194218,44.950515 38.9194218,46.4597109 Z" id="Path"></path>
                    <path d="M24.9194218,19.4597109 C24.9194218,20.9689068 24.3867724,22.2561429 23.3214576,23.3214576 C22.2561429,24.3867724 20.9689068,24.9194218 19.4597109,24.9194218 C17.950515,24.9194218 16.6632789,24.3867724 15.5979642,23.3214576 C14.5326494,22.2561429 14,20.9689068 14,19.4597109 C14,17.950515 14.5326494,16.6632789 15.5979642,15.5979642 C16.6632789,14.5326494 17.950515,14 19.4597109,14 C20.9689068,14 22.2561429,14.5326494 23.3214576,15.5979642 C24.3867724,16.6632789 24.9194218,17.950515 24.9194218,19.4597109 Z" id="Path"></path>
                    <path d="M38.9194218,32.4597109 C38.9194218,33.9689068 38.3867724,35.2561429 37.3214576,36.3214576 C36.2561429,37.3867724 34.9689068,37.9194218 33.4597109,37.9194218 C31.950515,37.9194218 30.6632789,37.3867724 29.5979642,36.3214576 C28.5326494,35.2561429 28,33.9689068 28,32.4597109 C28,30.950515 28.5326494,29.6632789 29.5979642,28.5979642 C30.6632789,27.5326494 31.950515,27 33.4597109,27 C34.9689068,27 36.2561429,27.5326494 37.3214576,28.5979642 C38.3867724,29.6632789 38.9194218,30.950515 38.9194218,32.4597109 Z" id="Path"></path>
                    <path d="M10.9194218,5.45971089 C10.9194218,6.96890682 10.3867724,8.25614286 9.32145762,9.32145762 C8.25614286,10.3867724 6.96890682,10.9194218 5.45971089,10.9194218 C3.95051497,10.9194218 2.66327893,10.3867724 1.59796416,9.32145762 C0.532649395,8.25614286 -5.91365536e-14,6.96890682 0,5.45971089 C-5.91365536e-14,3.95051497 0.532649395,2.66327893 1.59796416,1.59796416 C2.66327893,0.532649395 3.95051497,0 5.45971089,0 C6.96890682,0 8.25614286,0.532649395 9.32145762,1.59796416 C10.3867724,2.66327893 10.9194218,3.95051497 10.9194218,5.45971089 Z" id="Path"></path>
                    <path d="M78.9194218,59.4597109 C78.9194218,60.9689068 78.3867724,62.2561429 77.3214576,63.3214576 C76.2561429,64.3867724 74.9689068,64.9194218 73.4597109,64.9194218 C71.950515,64.9194218 70.6632789,64.3867724 69.5979642,63.3214576 C68.5326494,62.2561429 68,60.9689068 68,59.4597109 C68,57.950515 68.5326494,56.6632789 69.5979642,55.5979642 C70.6632789,54.5326494 71.950515,54 73.4597109,54 C74.9689068,54 76.2561429,54.5326494 77.3214576,55.5979642 C78.3867724,56.6632789 78.9194218,57.950515 78.9194218,59.4597109 Z" id="Path"></path>
                    <path d="M24.9194218,5.45971089 C24.9194218,6.96890682 24.3867724,8.25614286 23.3214576,9.32145762 C22.2561429,10.3867724 20.9689068,10.9194218 19.4597109,10.9194218 C17.950515,10.9194218 16.6632789,10.3867724 15.5979642,9.32145762 C14.5326494,8.25614286 14,6.96890682 14,5.45971089 C14,3.95051497 14.5326494,2.66327893 15.5979642,1.59796416 C16.6632789,0.532649395 17.950515,0 19.4597109,0 C20.9689068,0 22.2561429,0.532649395 23.3214576,1.59796416 C24.3867724,2.66327893 24.9194218,3.95051497 24.9194218,5.45971089 Z" id="Path"></path>
                    <path d="M65.9194218,46.4597109 C65.9194218,47.9689068 65.3867724,49.2561429 64.3214576,50.3214576 C63.2561429,51.3867724 61.9689068,51.9194218 60.4597109,51.9194218 C58.950515,51.9194218 57.6632789,51.3867724 56.5979642,50.3214576 C55.5326494,49.2561429 55,47.9689068 55,46.4597109 C55,44.950515 55.5326494,43.6632789 56.5979642,42.5979642 C57.6632789,41.5326494 58.950515,41 60.4597109,41 C61.9689068,41 63.2561429,41.5326494 64.3214576,42.5979642 C65.3867724,43.6632789 65.9194218,44.950515 65.9194218,46.4597109 Z" id="Path"></path>
                    <path d="M51.9194218,32.4597109 C51.9194218,33.9689068 51.3867724,35.2561429 50.3214576,36.3214576 C49.2561429,37.3867724 47.9689068,37.9194218 46.4597109,37.9194218 C44.950515,37.9194218 43.6632789,37.3867724 42.5979642,36.3214576 C41.5326494,35.2561429 41,33.9689068 41,32.4597109 C41,30.950515 41.5326494,29.6632789 42.5979642,28.5979642 C43.6632789,27.5326494 44.950515,27 46.4597109,27 C47.9689068,27 49.2561429,27.5326494 50.3214576,28.5979642 C51.3867724,29.6632789 51.9194218,30.950515 51.9194218,32.4597109 Z" id="Path"></path>
                    <path d="M38.9194218,19.4597109 C38.9194218,20.9689068 38.3867724,22.2561429 37.3214576,23.3214576 C36.2561429,24.3867724 34.9689068,24.9194218 33.4597109,24.9194218 C31.950515,24.9194218 30.6632789,24.3867724 29.5979642,23.3214576 C28.5326494,22.2561429 28,20.9689068 28,19.4597109 C28,17.950515 28.5326494,16.6632789 29.5979642,15.5979642 C30.6632789,14.5326494 31.950515,14 33.4597109,14 C34.9689068,14 36.2561429,14.5326494 37.3214576,15.5979642 C38.3867724,16.6632789 38.9194218,17.950515 38.9194218,19.4597109 Z" id="Path"></path>
                    <path d="M78.9194218,46.4597109 C78.9194218,47.9689068 78.3867724,49.2561429 77.3214576,50.3214576 C76.2561429,51.3867724 74.9689068,51.9194218 73.4597109,51.9194218 C71.950515,51.9194218 70.6632789,51.3867724 69.5979642,50.3214576 C68.5326494,49.2561429 68,47.9689068 68,46.4597109 C68,44.950515 68.5326494,43.6632789 69.5979642,42.5979642 C70.6632789,41.5326494 71.950515,41 73.4597109,41 C74.9689068,41 76.2561429,41.5326494 77.3214576,42.5979642 C78.3867724,43.6632789 78.9194218,44.950515 78.9194218,46.4597109 Z" id="Path"></path>
                    <path d="M92.9194218,59.4597109 C92.9194218,60.9689068 92.3867724,62.2561429 91.3214576,63.3214576 C90.2561429,64.3867724 88.9689068,64.9194218 87.4597109,64.9194218 C85.950515,64.9194218 84.6632789,64.3867724 83.5979642,63.3214576 C82.5326494,62.2561429 82,60.9689068 82,59.4597109 C82,57.950515 82.5326494,56.6632789 83.5979642,55.5979642 C84.6632789,54.5326494 85.950515,54 87.4597109,54 C88.9689068,54 90.2561429,54.5326494 91.3214576,55.5979642 C92.3867724,56.6632789 92.9194218,57.950515 92.9194218,59.4597109 Z" id="Path"></path>
                    <path d="M65.9194218,32.4597109 C65.9194218,33.9689068 65.3867724,35.2561429 64.3214576,36.3214576 C63.2561429,37.3867724 61.9689068,37.9194218 60.4597109,37.9194218 C58.950515,37.9194218 57.6632789,37.3867724 56.5979642,36.3214576 C55.5326494,35.2561429 55,33.9689068 55,32.4597109 C55,30.950515 55.5326494,29.6632789 56.5979642,28.5979642 C57.6632789,27.5326494 58.950515,27 60.4597109,27 C61.9689068,27 63.2561429,27.5326494 64.3214576,28.5979642 C65.3867724,29.6632789 65.9194218,30.950515 65.9194218,32.4597109 Z" id="Path"></path>
                    <path d="M65.9194218,19.4597109 C65.9194218,20.9689068 65.3867724,22.2561429 64.3214576,23.3214576 C63.2561429,24.3867724 61.9689068,24.9194218 60.4597109,24.9194218 C58.950515,24.9194218 57.6632789,24.3867724 56.5979642,23.3214576 C55.5326494,22.2561429 55,20.9689068 55,19.4597109 C55,17.950515 55.5326494,16.6632789 56.5979642,15.5979642 C57.6632789,14.5326494 58.950515,14 60.4597109,14 C61.9689068,14 63.2561429,14.5326494 64.3214576,15.5979642 C65.3867724,16.6632789 65.9194218,17.950515 65.9194218,19.4597109 Z" id="Path"></path>
                    <path d="M78.9194218,19.4597109 C78.9194218,20.9689068 78.3867724,22.2561429 77.3214576,23.3214576 C76.2561429,24.3867724 74.9689068,24.9194218 73.4597109,24.9194218 C71.950515,24.9194218 70.6632789,24.3867724 69.5979642,23.3214576 C68.5326494,22.2561429 68,20.9689068 68,19.4597109 C68,17.950515 68.5326494,16.6632789 69.5979642,15.5979642 C70.6632789,14.5326494 71.950515,14 73.4597109,14 C74.9689068,14 76.2561429,14.5326494 77.3214576,15.5979642 C78.3867724,16.6632789 78.9194218,17.950515 78.9194218,19.4597109 Z" id="Path"></path>
                    <path d="M78.9194218,5.45971089 C78.9194218,6.96890682 78.3867724,8.25614286 77.3214576,9.32145762 C76.2561429,10.3867724 74.9689068,10.9194218 73.4597109,10.9194218 C71.950515,10.9194218 70.6632789,10.3867724 69.5979642,9.32145762 C68.5326494,8.25614286 68,6.96890682 68,5.45971089 C68,3.95051497 68.5326494,2.66327893 69.5979642,1.59796416 C70.6632789,0.532649395 71.950515,0 73.4597109,0 C74.9689068,0 76.2561429,0.532649395 77.3214576,1.59796416 C78.3867724,2.66327893 78.9194218,3.95051497 78.9194218,5.45971089 Z" id="Path"></path>
                    <path d="M92.9194218,5.45971089 C92.9194218,6.96890682 92.3867724,8.25614286 91.3214576,9.32145762 C90.2561429,10.3867724 88.9689068,10.9194218 87.4597109,10.9194218 C85.950515,10.9194218 84.6632789,10.3867724 83.5979642,9.32145762 C82.5326494,8.25614286 82,6.96890682 82,5.45971089 C82,3.95051497 82.5326494,2.66327893 83.5979642,1.59796416 C84.6632789,0.532649395 85.950515,0 87.4597109,0 C88.9689068,0 90.2561429,0.532649395 91.3214576,1.59796416 C92.3867724,2.66327893 92.9194218,3.95051497 92.9194218,5.45971089 Z" id="Path"></path>
                </g>
                <g id="t" transform="translate(348.723978, 0.000000)">
                    <path d="M38.9194218,73.4597109 C38.9194218,74.9689068 38.3867724,76.2561429 37.3214576,77.3214576 C36.2561429,78.3867724 34.9689068,78.9194218 33.4597109,78.9194218 C31.950515,78.9194218 30.6632789,78.3867724 29.5979642,77.3214576 C28.5326494,76.2561429 28,74.9689068 28,73.4597109 C28,71.950515 28.5326494,70.6632789 29.5979642,69.5979642 C30.6632789,68.5326494 31.950515,68 33.4597109,68 C34.9689068,68 36.2561429,68.5326494 37.3214576,69.5979642 C38.3867724,70.6632789 38.9194218,71.950515 38.9194218,73.4597109 Z" id="Path"></path>
                    <path d="M24.9194218,59.4597109 C24.9194218,60.9689068 24.3867724,62.2561429 23.3214576,63.3214576 C22.2561429,64.3867724 20.9689068,64.9194218 19.4597109,64.9194218 C17.950515,64.9194218 16.6632789,64.3867724 15.5979642,63.3214576 C14.5326494,62.2561429 14,60.9689068 14,59.4597109 C14,57.950515 14.5326494,56.6632789 15.5979642,55.5979642 C16.6632789,54.5326494 17.950515,54 19.4597109,54 C20.9689068,54 22.2561429,54.5326494 23.3214576,55.5979642 C24.3867724,56.6632789 24.9194218,57.950515 24.9194218,59.4597109 Z" id="Path"></path>
                    <path d="M51.9194218,73.4597109 C51.9194218,74.9689068 51.3867724,76.2561429 50.3214576,77.3214576 C49.2561429,78.3867724 47.9689068,78.9194218 46.4597109,78.9194218 C44.950515,78.9194218 43.6632789,78.3867724 42.5979642,77.3214576 C41.5326494,76.2561429 41,74.9689068 41,73.4597109 C41,71.950515 41.5326494,70.6632789 42.5979642,69.5979642 C43.6632789,68.5326494 44.950515,68 46.4597109,68 C47.9689068,68 49.2561429,68.5326494 50.3214576,69.5979642 C51.3867724,70.6632789 51.9194218,71.950515 51.9194218,73.4597109 Z" id="Path"></path>
                    <path d="M38.9194218,59.4597109 C38.9194218,60.9689068 38.3867724,62.2561429 37.3214576,63.3214576 C36.2561429,64.3867724 34.9689068,64.9194218 33.4597109,64.9194218 C31.950515,64.9194218 30.6632789,64.3867724 29.5979642,63.3214576 C28.5326494,62.2561429 28,60.9689068 28,59.4597109 C28,57.950515 28.5326494,56.6632789 29.5979642,55.5979642 C30.6632789,54.5326494 31.950515,54 33.4597109,54 C34.9689068,54 36.2561429,54.5326494 37.3214576,55.5979642 C38.3867724,56.6632789 38.9194218,57.950515 38.9194218,59.4597109 Z" id="Path"></path>
                    <path d="M24.9194218,46.4597109 C24.9194218,47.9689068 24.3867724,49.2561429 23.3214576,50.3214576 C22.2561429,51.3867724 20.9689068,51.9194218 19.4597109,51.9194218 C17.950515,51.9194218 16.6632789,51.3867724 15.5979642,50.3214576 C14.5326494,49.2561429 14,47.9689068 14,46.4597109 C14,44.950515 14.5326494,43.6632789 15.5979642,42.5979642 C16.6632789,41.5326494 17.950515,41 19.4597109,41 C20.9689068,41 22.2561429,41.5326494 23.3214576,42.5979642 C24.3867724,43.6632789 24.9194218,44.950515 24.9194218,46.4597109 Z" id="Path"></path>
                    <path d="M65.9194218,73.4597109 C65.9194218,74.9689068 65.3867724,76.2561429 64.3214576,77.3214576 C63.2561429,78.3867724 61.9689068,78.9194218 60.4597109,78.9194218 C58.950515,78.9194218 57.6632789,78.3867724 56.5979642,77.3214576 C55.5326494,76.2561429 55,74.9689068 55,73.4597109 C55,71.950515 55.5326494,70.6632789 56.5979642,69.5979642 C57.6632789,68.5326494 58.950515,68 60.4597109,68 C61.9689068,68 63.2561429,68.5326494 64.3214576,69.5979642 C65.3867724,70.6632789 65.9194218,71.950515 65.9194218,73.4597109 Z" id="Path"></path>
                    <path d="M10.9194218,19.4597109 C10.9194218,20.9689068 10.3867724,22.2561429 9.32145762,23.3214576 C8.25614286,24.3867724 6.96890682,24.9194218 5.45971089,24.9194218 C3.95051497,24.9194218 2.66327893,24.3867724 1.59796416,23.3214576 C0.532649395,22.2561429 0,20.9689068 0,19.4597109 C0,17.950515 0.532649395,16.6632789 1.59796416,15.5979642 C2.66327893,14.5326494 3.95051497,14 5.45971089,14 C6.96890682,14 8.25614286,14.5326494 9.32145762,15.5979642 C10.3867724,16.6632789 10.9194218,17.950515 10.9194218,19.4597109 Z" id="Path"></path>
                    <path d="M38.9194218,46.4597109 C38.9194218,47.9689068 38.3867724,49.2561429 37.3214576,50.3214576 C36.2561429,51.3867724 34.9689068,51.9194218 33.4597109,51.9194218 C31.950515,51.9194218 30.6632789,51.3867724 29.5979642,50.3214576 C28.5326494,49.2561429 28,47.9689068 28,46.4597109 C28,44.950515 28.5326494,43.6632789 29.5979642,42.5979642 C30.6632789,41.5326494 31.950515,41 33.4597109,41 C34.9689068,41 36.2561429,41.5326494 37.3214576,42.5979642 C38.3867724,43.6632789 38.9194218,44.950515 38.9194218,46.4597109 Z" id="Path"></path>
                    <path d="M24.9194218,32.4597109 C24.9194218,33.9689068 24.3867724,35.2561429 23.3214576,36.3214576 C22.2561429,37.3867724 20.9689068,37.9194218 19.4597109,37.9194218 C17.950515,37.9194218 16.6632789,37.3867724 15.5979642,36.3214576 C14.5326494,35.2561429 14,33.9689068 14,32.4597109 C14,30.950515 14.5326494,29.6632789 15.5979642,28.5979642 C16.6632789,27.5326494 17.950515,27 19.4597109,27 C20.9689068,27 22.2561429,27.5326494 23.3214576,28.5979642 C24.3867724,29.6632789 24.9194218,30.950515 24.9194218,32.4597109 Z" id="Path"></path>
                    <path d="M38.9194218,32.4597109 C38.9194218,33.9689068 38.3867724,35.2561429 37.3214576,36.3214576 C36.2561429,37.3867724 34.9689068,37.9194218 33.4597109,37.9194218 C31.950515,37.9194218 30.6632789,37.3867724 29.5979642,36.3214576 C28.5326494,35.2561429 28,33.9689068 28,32.4597109 C28,30.950515 28.5326494,29.6632789 29.5979642,28.5979642 C30.6632789,27.5326494 31.950515,27 33.4597109,27 C34.9689068,27 36.2561429,27.5326494 37.3214576,28.5979642 C38.3867724,29.6632789 38.9194218,30.950515 38.9194218,32.4597109 Z" id="Path"></path>
                    <path d="M24.9194218,19.4597109 C24.9194218,20.9689068 24.3867724,22.2561429 23.3214576,23.3214576 C22.2561429,24.3867724 20.9689068,24.9194218 19.4597109,24.9194218 C17.950515,24.9194218 16.6632789,24.3867724 15.5979642,23.3214576 C14.5326494,22.2561429 14,20.9689068 14,19.4597109 C14,17.950515 14.5326494,16.6632789 15.5979642,15.5979642 C16.6632789,14.5326494 17.950515,14 19.4597109,14 C20.9689068,14 22.2561429,14.5326494 23.3214576,15.5979642 C24.3867724,16.6632789 24.9194218,17.950515 24.9194218,19.4597109 Z" id="Path"></path>
                    <path d="M24.9194218,5.45971089 C24.9194218,6.96890682 24.3867724,8.25614286 23.3214576,9.32145762 C22.2561429,10.3867724 20.9689068,10.9194218 19.4597109,10.9194218 C17.950515,10.9194218 16.6632789,10.3867724 15.5979642,9.32145762 C14.5326494,8.25614286 14,6.96890682 14,5.45971089 C14,3.95051497 14.5326494,2.66327893 15.5979642,1.59796416 C16.6632789,0.532649395 17.950515,2.95682768e-14 19.4597109,0 C20.9689068,2.95682768e-14 22.2561429,0.532649395 23.3214576,1.59796416 C24.3867724,2.66327893 24.9194218,3.95051497 24.9194218,5.45971089 Z" id="Path"></path>
                    <path d="M38.9194218,19.4597109 C38.9194218,20.9689068 38.3867724,22.2561429 37.3214576,23.3214576 C36.2561429,24.3867724 34.9689068,24.9194218 33.4597109,24.9194218 C31.950515,24.9194218 30.6632789,24.3867724 29.5979642,23.3214576 C28.5326494,22.2561429 28,20.9689068 28,19.4597109 C28,17.950515 28.5326494,16.6632789 29.5979642,15.5979642 C30.6632789,14.5326494 31.950515,14 33.4597109,14 C34.9689068,14 36.2561429,14.5326494 37.3214576,15.5979642 C38.3867724,16.6632789 38.9194218,17.950515 38.9194218,19.4597109 Z" id="Path"></path>
                    <path d="M38.9194218,5.45971089 C38.9194218,6.96890682 38.3867724,8.25614286 37.3214576,9.32145762 C36.2561429,10.3867724 34.9689068,10.9194218 33.4597109,10.9194218 C31.950515,10.9194218 30.6632789,10.3867724 29.5979642,9.32145762 C28.5326494,8.25614286 28,6.96890682 28,5.45971089 C28,3.95051497 28.5326494,2.66327893 29.5979642,1.59796416 C30.6632789,0.532649395 31.950515,2.95682768e-14 33.4597109,0 C34.9689068,2.95682768e-14 36.2561429,0.532649395 37.3214576,1.59796416 C38.3867724,2.66327893 38.9194218,3.95051497 38.9194218,5.45971089 Z" id="Path"></path>
                    <path d="M51.9194218,19.4597109 C51.9194218,20.9689068 51.3867724,22.2561429 50.3214576,23.3214576 C49.2561429,24.3867724 47.9689068,24.9194218 46.4597109,24.9194218 C44.950515,24.9194218 43.6632789,24.3867724 42.5979642,23.3214576 C41.5326494,22.2561429 41,20.9689068 41,19.4597109 C41,17.950515 41.5326494,16.6632789 42.5979642,15.5979642 C43.6632789,14.5326494 44.950515,14 46.4597109,14 C47.9689068,14 49.2561429,14.5326494 50.3214576,15.5979642 C51.3867724,16.6632789 51.9194218,17.950515 51.9194218,19.4597109 Z" id="Path"></path>
                    <path d="M65.9194218,19.4597109 C65.9194218,20.9689068 65.3867724,22.2561429 64.3214576,23.3214576 C63.2561429,24.3867724 61.9689068,24.9194218 60.4597109,24.9194218 C58.950515,24.9194218 57.6632789,24.3867724 56.5979642,23.3214576 C55.5326494,22.2561429 55,20.9689068 55,19.4597109 C55,17.950515 55.5326494,16.6632789 56.5979642,15.5979642 C57.6632789,14.5326494 58.950515,14 60.4597109,14 C61.9689068,14 63.2561429,14.5326494 64.3214576,15.5979642 C65.3867724,16.6632789 65.9194218,17.950515 65.9194218,19.4597109 Z" id="Path"></path>
                </g>
                <g id="f" transform="translate(261.085313, 0.000000)">
                    <path d="M23.9194218,73.4597109 C23.9194218,74.9689068 23.3867724,76.2561429 22.3214576,77.3214576 C21.2561429,78.3867724 19.9689068,78.9194218 18.4597109,78.9194218 C16.950515,78.9194218 15.6632789,78.3867724 14.5979642,77.3214576 C13.5326494,76.2561429 13,74.9689068 13,73.4597109 C13,71.950515 13.5326494,70.6632789 14.5979642,69.5979642 C15.6632789,68.5326494 16.950515,68 18.4597109,68 C19.9689068,68 21.2561429,68.5326494 22.3214576,69.5979642 C23.3867724,70.6632789 23.9194218,71.950515 23.9194218,73.4597109 Z" id="Path"></path>
                    <path d="M23.9194218,59.4597109 C23.9194218,60.9689068 23.3867724,62.2561429 22.3214576,63.3214576 C21.2561429,64.3867724 19.9689068,64.9194218 18.4597109,64.9194218 C16.950515,64.9194218 15.6632789,64.3867724 14.5979642,63.3214576 C13.5326494,62.2561429 13,60.9689068 13,59.4597109 C13,57.950515 13.5326494,56.6632789 14.5979642,55.5979642 C15.6632789,54.5326494 16.950515,54 18.4597109,54 C19.9689068,54 21.2561429,54.5326494 22.3214576,55.5979642 C23.3867724,56.6632789 23.9194218,57.950515 23.9194218,59.4597109 Z" id="Path"></path>
                    <path d="M37.9194218,73.4597109 C37.9194218,74.9689068 37.3867724,76.2561429 36.3214576,77.3214576 C35.2561429,78.3867724 33.9689068,78.9194218 32.4597109,78.9194218 C30.950515,78.9194218 29.6632789,78.3867724 28.5979642,77.3214576 C27.5326494,76.2561429 27,74.9689068 27,73.4597109 C27,71.950515 27.5326494,70.6632789 28.5979642,69.5979642 C29.6632789,68.5326494 30.950515,68 32.4597109,68 C33.9689068,68 35.2561429,68.5326494 36.3214576,69.5979642 C37.3867724,70.6632789 37.9194218,71.950515 37.9194218,73.4597109 Z" id="Path"></path>
                    <path d="M23.9194218,46.4597109 C23.9194218,47.9689068 23.3867724,49.2561429 22.3214576,50.3214576 C21.2561429,51.3867724 19.9689068,51.9194218 18.4597109,51.9194218 C16.950515,51.9194218 15.6632789,51.3867724 14.5979642,50.3214576 C13.5326494,49.2561429 13,47.9689068 13,46.4597109 C13,44.950515 13.5326494,43.6632789 14.5979642,42.5979642 C15.6632789,41.5326494 16.950515,41 18.4597109,41 C19.9689068,41 21.2561429,41.5326494 22.3214576,42.5979642 C23.3867724,43.6632789 23.9194218,44.950515 23.9194218,46.4597109 Z" id="Path"></path>
                    <path d="M37.9194218,59.4597109 C37.9194218,60.9689068 37.3867724,62.2561429 36.3214576,63.3214576 C35.2561429,64.3867724 33.9689068,64.9194218 32.4597109,64.9194218 C30.950515,64.9194218 29.6632789,64.3867724 28.5979642,63.3214576 C27.5326494,62.2561429 27,60.9689068 27,59.4597109 C27,57.950515 27.5326494,56.6632789 28.5979642,55.5979642 C29.6632789,54.5326494 30.950515,54 32.4597109,54 C33.9689068,54 35.2561429,54.5326494 36.3214576,55.5979642 C37.3867724,56.6632789 37.9194218,57.950515 37.9194218,59.4597109 Z" id="Path"></path>
                    <path d="M10.9194218,32.4597109 C10.9194218,33.9689068 10.3867724,35.2561429 9.32145762,36.3214576 C8.25614286,37.3867724 6.96890682,37.9194218 5.45971089,37.9194218 C3.95051497,37.9194218 2.66327893,37.3867724 1.59796416,36.3214576 C0.532649395,35.2561429 0,33.9689068 0,32.4597109 C0,30.950515 0.532649395,29.6632789 1.59796416,28.5979642 C2.66327893,27.5326494 3.95051497,27 5.45971089,27 C6.96890682,27 8.25614286,27.5326494 9.32145762,28.5979642 C10.3867724,29.6632789 10.9194218,30.950515 10.9194218,32.4597109 Z" id="Path"></path>
                    <path d="M23.9194218,32.4597109 C23.9194218,33.9689068 23.3867724,35.2561429 22.3214576,36.3214576 C21.2561429,37.3867724 19.9689068,37.9194218 18.4597109,37.9194218 C16.950515,37.9194218 15.6632789,37.3867724 14.5979642,36.3214576 C13.5326494,35.2561429 13,33.9689068 13,32.4597109 C13,30.950515 13.5326494,29.6632789 14.5979642,28.5979642 C15.6632789,27.5326494 16.950515,27 18.4597109,27 C19.9689068,27 21.2561429,27.5326494 22.3214576,28.5979642 C23.3867724,29.6632789 23.9194218,30.950515 23.9194218,32.4597109 Z" id="Path"></path>
                    <path d="M37.9194218,46.4597109 C37.9194218,47.9689068 37.3867724,49.2561429 36.3214576,50.3214576 C35.2561429,51.3867724 33.9689068,51.9194218 32.4597109,51.9194218 C30.950515,51.9194218 29.6632789,51.3867724 28.5979642,50.3214576 C27.5326494,49.2561429 27,47.9689068 27,46.4597109 C27,44.950515 27.5326494,43.6632789 28.5979642,42.5979642 C29.6632789,41.5326494 30.950515,41 32.4597109,41 C33.9689068,41 35.2561429,41.5326494 36.3214576,42.5979642 C37.3867724,43.6632789 37.9194218,44.950515 37.9194218,46.4597109 Z" id="Path"></path>
                    <path d="M23.9194218,19.4597109 C23.9194218,20.9689068 23.3867724,22.2561429 22.3214576,23.3214576 C21.2561429,24.3867724 19.9689068,24.9194218 18.4597109,24.9194218 C16.950515,24.9194218 15.6632789,24.3867724 14.5979642,23.3214576 C13.5326494,22.2561429 13,20.9689068 13,19.4597109 C13,17.950515 13.5326494,16.6632789 14.5979642,15.5979642 C15.6632789,14.5326494 16.950515,14 18.4597109,14 C19.9689068,14 21.2561429,14.5326494 22.3214576,15.5979642 C23.3867724,16.6632789 23.9194218,17.950515 23.9194218,19.4597109 Z" id="Path"></path>
                    <path d="M37.9194218,32.4597109 C37.9194218,33.9689068 37.3867724,35.2561429 36.3214576,36.3214576 C35.2561429,37.3867724 33.9689068,37.9194218 32.4597109,37.9194218 C30.950515,37.9194218 29.6632789,37.3867724 28.5979642,36.3214576 C27.5326494,35.2561429 27,33.9689068 27,32.4597109 C27,30.950515 27.5326494,29.6632789 28.5979642,28.5979642 C29.6632789,27.5326494 30.950515,27 32.4597109,27 C33.9689068,27 35.2561429,27.5326494 36.3214576,28.5979642 C37.3867724,29.6632789 37.9194218,30.950515 37.9194218,32.4597109 Z" id="Path"></path>
                    <path d="M51.9194218,32.4597109 C51.9194218,33.9689068 51.3867724,35.2561429 50.3214576,36.3214576 C49.2561429,37.3867724 47.9689068,37.9194218 46.4597109,37.9194218 C44.950515,37.9194218 43.6632789,37.3867724 42.5979642,36.3214576 C41.5326494,35.2561429 41,33.9689068 41,32.4597109 C41,30.950515 41.5326494,29.6632789 42.5979642,28.5979642 C43.6632789,27.5326494 44.950515,27 46.4597109,27 C47.9689068,27 49.2561429,27.5326494 50.3214576,28.5979642 C51.3867724,29.6632789 51.9194218,30.950515 51.9194218,32.4597109 Z" id="Path"></path>
                    <path d="M37.9194218,19.4597109 C37.9194218,20.9689068 37.3867724,22.2561429 36.3214576,23.3214576 C35.2561429,24.3867724 33.9689068,24.9194218 32.4597109,24.9194218 C30.950515,24.9194218 29.6632789,24.3867724 28.5979642,23.3214576 C27.5326494,22.2561429 27,20.9689068 27,19.4597109 C27,17.950515 27.5326494,16.6632789 28.5979642,15.5979642 C29.6632789,14.5326494 30.950515,14 32.4597109,14 C33.9689068,14 35.2561429,14.5326494 36.3214576,15.5979642 C37.3867724,16.6632789 37.9194218,17.950515 37.9194218,19.4597109 Z" id="Path"></path>
                    <path d="M37.9194218,5.45971089 C37.9194218,6.96890682 37.3867724,8.25614286 36.3214576,9.32145762 C35.2561429,10.3867724 33.9689068,10.9194218 32.4597109,10.9194218 C30.950515,10.9194218 29.6632789,10.3867724 28.5979642,9.32145762 C27.5326494,8.25614286 27,6.96890682 27,5.45971089 C27,3.95051497 27.5326494,2.66327893 28.5979642,1.59796416 C29.6632789,0.532649395 30.950515,2.95682768e-14 32.4597109,0 C33.9689068,2.95682768e-14 35.2561429,0.532649395 36.3214576,1.59796416 C37.3867724,2.66327893 37.9194218,3.95051497 37.9194218,5.45971089 Z" id="Path"></path>
                    <path d="M64.9194218,32.4597109 C64.9194218,33.9689068 64.3867724,35.2561429 63.3214576,36.3214576 C62.2561429,37.3867724 60.9689068,37.9194218 59.4597109,37.9194218 C57.950515,37.9194218 56.6632789,37.3867724 55.5979642,36.3214576 C54.5326494,35.2561429 54,33.9689068 54,32.4597109 C54,30.950515 54.5326494,29.6632789 55.5979642,28.5979642 C56.6632789,27.5326494 57.950515,27 59.4597109,27 C60.9689068,27 62.2561429,27.5326494 63.3214576,28.5979642 C64.3867724,29.6632789 64.9194218,30.950515 64.9194218,32.4597109 Z" id="Path"></path>
                    <path d="M51.9194218,5.45971089 C51.9194218,6.96890682 51.3867724,8.25614286 50.3214576,9.32145762 C49.2561429,10.3867724 47.9689068,10.9194218 46.4597109,10.9194218 C44.950515,10.9194218 43.6632789,10.3867724 42.5979642,9.32145762 C41.5326494,8.25614286 41,6.96890682 41,5.45971089 C41,3.95051497 41.5326494,2.66327893 42.5979642,1.59796416 C43.6632789,0.532649395 44.950515,2.95682768e-14 46.4597109,0 C47.9689068,2.95682768e-14 49.2561429,0.532649395 50.3214576,1.59796416 C51.3867724,2.66327893 51.9194218,3.95051497 51.9194218,5.45971089 Z" id="Path"></path>
                    <path d="M64.9194218,5.45971089 C64.9194218,6.96890682 64.3867724,8.25614286 63.3214576,9.32145762 C62.2561429,10.3867724 60.9689068,10.9194218 59.4597109,10.9194218 C57.950515,10.9194218 56.6632789,10.3867724 55.5979642,9.32145762 C54.5326494,8.25614286 54,6.96890682 54,5.45971089 C54,3.95051497 54.5326494,2.66327893 55.5979642,1.59796416 C56.6632789,0.532649395 57.950515,2.95682768e-14 59.4597109,0 C60.9689068,2.95682768e-14 62.2561429,0.532649395 63.3214576,1.59796416 C64.3867724,2.66327893 64.9194218,3.95051497 64.9194218,5.45971089 Z" id="Path"></path>
                    <path d="M78.9194218,5.45971089 C78.9194218,6.96890682 78.3867724,8.25614286 77.3214576,9.32145762 C76.2561429,10.3867724 74.9689068,10.9194218 73.4597109,10.9194218 C71.950515,10.9194218 70.6632789,10.3867724 69.5979642,9.32145762 C68.5326494,8.25614286 68,6.96890682 68,5.45971089 C68,3.95051497 68.5326494,2.66327893 69.5979642,1.59796416 C70.6632789,0.532649395 71.950515,2.95682768e-14 73.4597109,0 C74.9689068,2.95682768e-14 76.2561429,0.532649395 77.3214576,1.59796416 C78.3867724,2.66327893 78.9194218,3.95051497 78.9194218,5.45971089 Z" id="Path"></path>
                </g>
                <g id="a" transform="translate(157.051188, 13.484095)">
                    <path d="M23.9194218,59.4597109 C23.9194218,60.9689068 23.3867724,62.2561429 22.3214576,63.3214576 C21.2561429,64.3867724 19.9689068,64.9194218 18.4597109,64.9194218 C16.950515,64.9194218 15.6632789,64.3867724 14.5979642,63.3214576 C13.5326494,62.2561429 13,60.9689068 13,59.4597109 C13,57.950515 13.5326494,56.6632789 14.5979642,55.5979642 C15.6632789,54.5326494 16.950515,54 18.4597109,54 C19.9689068,54 21.2561429,54.5326494 22.3214576,55.5979642 C23.3867724,56.6632789 23.9194218,57.950515 23.9194218,59.4597109 Z" id="Path"></path>
                    <path d="M10.9194218,46.4597109 C10.9194218,47.9689068 10.3867724,49.2561429 9.32145762,50.3214576 C8.25614286,51.3867724 6.96890682,51.9194218 5.45971089,51.9194218 C3.95051497,51.9194218 2.66327893,51.3867724 1.59796416,50.3214576 C0.532649395,49.2561429 0,47.9689068 0,46.4597109 C0,44.950515 0.532649395,43.6632789 1.59796416,42.5979642 C2.66327893,41.5326494 3.95051497,41 5.45971089,41 C6.96890682,41 8.25614286,41.5326494 9.32145762,42.5979642 C10.3867724,43.6632789 10.9194218,44.950515 10.9194218,46.4597109 Z" id="Path"></path>
                    <path d="M23.9194218,46.4597109 C23.9194218,47.9689068 23.3867724,49.2561429 22.3214576,50.3214576 C21.2561429,51.3867724 19.9689068,51.9194218 18.4597109,51.9194218 C16.950515,51.9194218 15.6632789,51.3867724 14.5979642,50.3214576 C13.5326494,49.2561429 13,47.9689068 13,46.4597109 C13,44.950515 13.5326494,43.6632789 14.5979642,42.5979642 C15.6632789,41.5326494 16.950515,41 18.4597109,41 C19.9689068,41 21.2561429,41.5326494 22.3214576,42.5979642 C23.3867724,43.6632789 23.9194218,44.950515 23.9194218,46.4597109 Z" id="Path"></path>
                    <path d="M37.9194218,59.4597109 C37.9194218,60.9689068 37.3867724,62.2561429 36.3214576,63.3214576 C35.2561429,64.3867724 33.9689068,64.9194218 32.4597109,64.9194218 C30.950515,64.9194218 29.6632789,64.3867724 28.5979642,63.3214576 C27.5326494,62.2561429 27,60.9689068 27,59.4597109 C27,57.950515 27.5326494,56.6632789 28.5979642,55.5979642 C29.6632789,54.5326494 30.950515,54 32.4597109,54 C33.9689068,54 35.2561429,54.5326494 36.3214576,55.5979642 C37.3867724,56.6632789 37.9194218,57.950515 37.9194218,59.4597109 Z" id="Path"></path>
                    <path d="M23.9194218,32.4597109 C23.9194218,33.9689068 23.3867724,35.2561429 22.3214576,36.3214576 C21.2561429,37.3867724 19.9689068,37.9194218 18.4597109,37.9194218 C16.950515,37.9194218 15.6632789,37.3867724 14.5979642,36.3214576 C13.5326494,35.2561429 13,33.9689068 13,32.4597109 C13,30.950515 13.5326494,29.6632789 14.5979642,28.5979642 C15.6632789,27.5326494 16.950515,27 18.4597109,27 C19.9689068,27 21.2561429,27.5326494 22.3214576,28.5979642 C23.3867724,29.6632789 23.9194218,30.950515 23.9194218,32.4597109 Z" id="Path"></path>
                    <path d="M51.9194218,59.4597109 C51.9194218,60.9689068 51.3867724,62.2561429 50.3214576,63.3214576 C49.2561429,64.3867724 47.9689068,64.9194218 46.4597109,64.9194218 C44.950515,64.9194218 43.6632789,64.3867724 42.5979642,63.3214576 C41.5326494,62.2561429 41,60.9689068 41,59.4597109 C41,57.950515 41.5326494,56.6632789 42.5979642,55.5979642 C43.6632789,54.5326494 44.950515,54 46.4597109,54 C47.9689068,54 49.2561429,54.5326494 50.3214576,55.5979642 C51.3867724,56.6632789 51.9194218,57.950515 51.9194218,59.4597109 Z" id="Path"></path>
                    <path d="M64.9194218,59.4597109 C64.9194218,60.9689068 64.3867724,62.2561429 63.3214576,63.3214576 C62.2561429,64.3867724 60.9689068,64.9194218 59.4597109,64.9194218 C57.950515,64.9194218 56.6632789,64.3867724 55.5979642,63.3214576 C54.5326494,62.2561429 54,60.9689068 54,59.4597109 C54,57.950515 54.5326494,56.6632789 55.5979642,55.5979642 C56.6632789,54.5326494 57.950515,54 59.4597109,54 C60.9689068,54 62.2561429,54.5326494 63.3214576,55.5979642 C64.3867724,56.6632789 64.9194218,57.950515 64.9194218,59.4597109 Z" id="Path"></path>
                    <path d="M37.9194218,32.4597109 C37.9194218,33.9689068 37.3867724,35.2561429 36.3214576,36.3214576 C35.2561429,37.3867724 33.9689068,37.9194218 32.4597109,37.9194218 C30.950515,37.9194218 29.6632789,37.3867724 28.5979642,36.3214576 C27.5326494,35.2561429 27,33.9689068 27,32.4597109 C27,30.950515 27.5326494,29.6632789 28.5979642,28.5979642 C29.6632789,27.5326494 30.950515,27 32.4597109,27 C33.9689068,27 35.2561429,27.5326494 36.3214576,28.5979642 C37.3867724,29.6632789 37.9194218,30.950515 37.9194218,32.4597109 Z" id="Path"></path>
                    <path d="M78.9194218,59.4597109 C78.9194218,60.9689068 78.3867724,62.2561429 77.3214576,63.3214576 C76.2561429,64.3867724 74.9689068,64.9194218 73.4597109,64.9194218 C71.950515,64.9194218 70.6632789,64.3867724 69.5979642,63.3214576 C68.5326494,62.2561429 68,60.9689068 68,59.4597109 C68,57.950515 68.5326494,56.6632789 69.5979642,55.5979642 C70.6632789,54.5326494 71.950515,54 73.4597109,54 C74.9689068,54 76.2561429,54.5326494 77.3214576,55.5979642 C78.3867724,56.6632789 78.9194218,57.950515 78.9194218,59.4597109 Z" id="Path"></path>
                    <path d="M23.9194218,5.45971089 C23.9194218,6.96890682 23.3867724,8.25614286 22.3214576,9.32145762 C21.2561429,10.3867724 19.9689068,10.9194218 18.4597109,10.9194218 C16.950515,10.9194218 15.6632789,10.3867724 14.5979642,9.32145762 C13.5326494,8.25614286 13,6.96890682 13,5.45971089 C13,3.95051497 13.5326494,2.66327893 14.5979642,1.59796416 C15.6632789,0.532649395 16.950515,0 18.4597109,0 C19.9689068,0 21.2561429,0.532649395 22.3214576,1.59796416 C23.3867724,2.66327893 23.9194218,3.95051497 23.9194218,5.45971089 Z" id="Path"></path>
                    <path d="M51.9194218,32.4597109 C51.9194218,33.9689068 51.3867724,35.2561429 50.3214576,36.3214576 C49.2561429,37.3867724 47.9689068,37.9194218 46.4597109,37.9194218 C44.950515,37.9194218 43.6632789,37.3867724 42.5979642,36.3214576 C41.5326494,35.2561429 41,33.9689068 41,32.4597109 C41,30.950515 41.5326494,29.6632789 42.5979642,28.5979642 C43.6632789,27.5326494 44.950515,27 46.4597109,27 C47.9689068,27 49.2561429,27.5326494 50.3214576,28.5979642 C51.3867724,29.6632789 51.9194218,30.950515 51.9194218,32.4597109 Z" id="Path"></path>
                    <path d="M78.9194218,46.4597109 C78.9194218,47.9689068 78.3867724,49.2561429 77.3214576,50.3214576 C76.2561429,51.3867724 74.9689068,51.9194218 73.4597109,51.9194218 C71.950515,51.9194218 70.6632789,51.3867724 69.5979642,50.3214576 C68.5326494,49.2561429 68,47.9689068 68,46.4597109 C68,44.950515 68.5326494,43.6632789 69.5979642,42.5979642 C70.6632789,41.5326494 71.950515,41 73.4597109,41 C74.9689068,41 76.2561429,41.5326494 77.3214576,42.5979642 C78.3867724,43.6632789 78.9194218,44.950515 78.9194218,46.4597109 Z" id="Path"></path>
                    <path d="M64.9194218,32.4597109 C64.9194218,33.9689068 64.3867724,35.2561429 63.3214576,36.3214576 C62.2561429,37.3867724 60.9689068,37.9194218 59.4597109,37.9194218 C57.950515,37.9194218 56.6632789,37.3867724 55.5979642,36.3214576 C54.5326494,35.2561429 54,33.9689068 54,32.4597109 C54,30.950515 54.5326494,29.6632789 55.5979642,28.5979642 C56.6632789,27.5326494 57.950515,27 59.4597109,27 C60.9689068,27 62.2561429,27.5326494 63.3214576,28.5979642 C64.3867724,29.6632789 64.9194218,30.950515 64.9194218,32.4597109 Z" id="Path"></path>
                    <path d="M37.9194218,5.45971089 C37.9194218,6.96890682 37.3867724,8.25614286 36.3214576,9.32145762 C35.2561429,10.3867724 33.9689068,10.9194218 32.4597109,10.9194218 C30.950515,10.9194218 29.6632789,10.3867724 28.5979642,9.32145762 C27.5326494,8.25614286 27,6.96890682 27,5.45971089 C27,3.95051497 27.5326494,2.66327893 28.5979642,1.59796416 C29.6632789,0.532649395 30.950515,0 32.4597109,0 C33.9689068,0 35.2561429,0.532649395 36.3214576,1.59796416 C37.3867724,2.66327893 37.9194218,3.95051497 37.9194218,5.45971089 Z" id="Path"></path>
                    <path d="M78.9194218,32.4597109 C78.9194218,33.9689068 78.3867724,35.2561429 77.3214576,36.3214576 C76.2561429,37.3867724 74.9689068,37.9194218 73.4597109,37.9194218 C71.950515,37.9194218 70.6632789,37.3867724 69.5979642,36.3214576 C68.5326494,35.2561429 68,33.9689068 68,32.4597109 C68,30.950515 68.5326494,29.6632789 69.5979642,28.5979642 C70.6632789,27.5326494 71.950515,27 73.4597109,27 C74.9689068,27 76.2561429,27.5326494 77.3214576,28.5979642 C78.3867724,29.6632789 78.9194218,30.950515 78.9194218,32.4597109 Z" id="Path"></path>
                    <path d="M91.9194218,46.4597109 C91.9194218,47.9689068 91.3867724,49.2561429 90.3214576,50.3214576 C89.2561429,51.3867724 87.9689068,51.9194218 86.4597109,51.9194218 C84.950515,51.9194218 83.6632789,51.3867724 82.5979642,50.3214576 C81.5326494,49.2561429 81,47.9689068 81,46.4597109 C81,44.950515 81.5326494,43.6632789 82.5979642,42.5979642 C83.6632789,41.5326494 84.950515,41 86.4597109,41 C87.9689068,41 89.2561429,41.5326494 90.3214576,42.5979642 C91.3867724,43.6632789 91.9194218,44.950515 91.9194218,46.4597109 Z" id="Path"></path>
                    <path d="M51.9194218,5.45971089 C51.9194218,6.96890682 51.3867724,8.25614286 50.3214576,9.32145762 C49.2561429,10.3867724 47.9689068,10.9194218 46.4597109,10.9194218 C44.950515,10.9194218 43.6632789,10.3867724 42.5979642,9.32145762 C41.5326494,8.25614286 41,6.96890682 41,5.45971089 C41,3.95051497 41.5326494,2.66327893 42.5979642,1.59796416 C43.6632789,0.532649395 44.950515,0 46.4597109,0 C47.9689068,0 49.2561429,0.532649395 50.3214576,1.59796416 C51.3867724,2.66327893 51.9194218,3.95051497 51.9194218,5.45971089 Z" id="Path"></path>
                    <path d="M78.9194218,19.4597109 C78.9194218,20.9689068 78.3867724,22.2561429 77.3214576,23.3214576 C76.2561429,24.3867724 74.9689068,24.9194218 73.4597109,24.9194218 C71.950515,24.9194218 70.6632789,24.3867724 69.5979642,23.3214576 C68.5326494,22.2561429 68,20.9689068 68,19.4597109 C68,17.950515 68.5326494,16.6632789 69.5979642,15.5979642 C70.6632789,14.5326494 71.950515,14 73.4597109,14 C74.9689068,14 76.2561429,14.5326494 77.3214576,15.5979642 C78.3867724,16.6632789 78.9194218,17.950515 78.9194218,19.4597109 Z" id="Path"></path>
                    <path d="M91.9194218,32.4597109 C91.9194218,33.9689068 91.3867724,35.2561429 90.3214576,36.3214576 C89.2561429,37.3867724 87.9689068,37.9194218 86.4597109,37.9194218 C84.950515,37.9194218 83.6632789,37.3867724 82.5979642,36.3214576 C81.5326494,35.2561429 81,33.9689068 81,32.4597109 C81,30.950515 81.5326494,29.6632789 82.5979642,28.5979642 C83.6632789,27.5326494 84.950515,27 86.4597109,27 C87.9689068,27 89.2561429,27.5326494 90.3214576,28.5979642 C91.3867724,29.6632789 91.9194218,30.950515 91.9194218,32.4597109 Z" id="Path"></path>
                    <path d="M64.9194218,5.45971089 C64.9194218,6.96890682 64.3867724,8.25614286 63.3214576,9.32145762 C62.2561429,10.3867724 60.9689068,10.9194218 59.4597109,10.9194218 C57.950515,10.9194218 56.6632789,10.3867724 55.5979642,9.32145762 C54.5326494,8.25614286 54,6.96890682 54,5.45971089 C54,3.95051497 54.5326494,2.66327893 55.5979642,1.59796416 C56.6632789,0.532649395 57.950515,0 59.4597109,0 C60.9689068,0 62.2561429,0.532649395 63.3214576,1.59796416 C64.3867724,2.66327893 64.9194218,3.95051497 64.9194218,5.45971089 Z" id="Path"></path>
                    <path d="M78.9194218,5.45971089 C78.9194218,6.96890682 78.3867724,8.25614286 77.3214576,9.32145762 C76.2561429,10.3867724 74.9689068,10.9194218 73.4597109,10.9194218 C71.950515,10.9194218 70.6632789,10.3867724 69.5979642,9.32145762 C68.5326494,8.25614286 68,6.96890682 68,5.45971089 C68,3.95051497 68.5326494,2.66327893 69.5979642,1.59796416 C70.6632789,0.532649395 71.950515,0 73.4597109,0 C74.9689068,0 76.2561429,0.532649395 77.3214576,1.59796416 C78.3867724,2.66327893 78.9194218,3.95051497 78.9194218,5.45971089 Z" id="Path"></path>
                    <path d="M91.9194218,19.4597109 C91.9194218,20.9689068 91.3867724,22.2561429 90.3214576,23.3214576 C89.2561429,24.3867724 87.9689068,24.9194218 86.4597109,24.9194218 C84.950515,24.9194218 83.6632789,24.3867724 82.5979642,23.3214576 C81.5326494,22.2561429 81,20.9689068 81,19.4597109 C81,17.950515 81.5326494,16.6632789 82.5979642,15.5979642 C83.6632789,14.5326494 84.950515,14 86.4597109,14 C87.9689068,14 89.2561429,14.5326494 90.3214576,15.5979642 C91.3867724,16.6632789 91.9194218,17.950515 91.9194218,19.4597109 Z" id="Path"></path>
                </g>
                <g id="r" transform="translate(92.550030, 13.484095)">
                    <path d="M10.9194218,59.4597109 C10.9194218,60.9689068 10.3867724,62.2561429 9.32145762,63.3214576 C8.25614286,64.3867724 6.96890682,64.9194218 5.45971089,64.9194218 C3.95051497,64.9194218 2.66327893,64.3867724 1.59796416,63.3214576 C0.532649395,62.2561429 0,60.9689068 0,59.4597109 C0,57.950515 0.532649395,56.6632789 1.59796416,55.5979642 C2.66327893,54.5326494 3.95051497,54 5.45971089,54 C6.96890682,54 8.25614286,54.5326494 9.32145762,55.5979642 C10.3867724,56.6632789 10.9194218,57.950515 10.9194218,59.4597109 Z" id="Path"></path>
                    <path d="M10.9194218,46.4597109 C10.9194218,47.9689068 10.3867724,49.2561429 9.32145762,50.3214576 C8.25614286,51.3867724 6.96890682,51.9194218 5.45971089,51.9194218 C3.95051497,51.9194218 2.66327893,51.3867724 1.59796416,50.3214576 C0.532649395,49.2561429 0,47.9689068 0,46.4597109 C0,44.950515 0.532649395,43.6632789 1.59796416,42.5979642 C2.66327893,41.5326494 3.95051497,41 5.45971089,41 C6.96890682,41 8.25614286,41.5326494 9.32145762,42.5979642 C10.3867724,43.6632789 10.9194218,44.950515 10.9194218,46.4597109 Z" id="Path"></path>
                    <path d="M24.9194218,59.4597109 C24.9194218,60.9689068 24.3867724,62.2561429 23.3214576,63.3214576 C22.2561429,64.3867724 20.9689068,64.9194218 19.4597109,64.9194218 C17.950515,64.9194218 16.6632789,64.3867724 15.5979642,63.3214576 C14.5326494,62.2561429 14,60.9689068 14,59.4597109 C14,57.950515 14.5326494,56.6632789 15.5979642,55.5979642 C16.6632789,54.5326494 17.950515,54 19.4597109,54 C20.9689068,54 22.2561429,54.5326494 23.3214576,55.5979642 C24.3867724,56.6632789 24.9194218,57.950515 24.9194218,59.4597109 Z" id="Path"></path>
                    <path d="M10.9194218,32.4597109 C10.9194218,33.9689068 10.3867724,35.2561429 9.32145762,36.3214576 C8.25614286,37.3867724 6.96890682,37.9194218 5.45971089,37.9194218 C3.95051497,37.9194218 2.66327893,37.3867724 1.59796416,36.3214576 C0.532649395,35.2561429 0,33.9689068 0,32.4597109 C0,30.950515 0.532649395,29.6632789 1.59796416,28.5979642 C2.66327893,27.5326494 3.95051497,27 5.45971089,27 C6.96890682,27 8.25614286,27.5326494 9.32145762,28.5979642 C10.3867724,29.6632789 10.9194218,30.950515 10.9194218,32.4597109 Z" id="Path"></path>
                    <path d="M24.9194218,46.4597109 C24.9194218,47.9689068 24.3867724,49.2561429 23.3214576,50.3214576 C22.2561429,51.3867724 20.9689068,51.9194218 19.4597109,51.9194218 C17.950515,51.9194218 16.6632789,51.3867724 15.5979642,50.3214576 C14.5326494,49.2561429 14,47.9689068 14,46.4597109 C14,44.950515 14.5326494,43.6632789 15.5979642,42.5979642 C16.6632789,41.5326494 17.950515,41 19.4597109,41 C20.9689068,41 22.2561429,41.5326494 23.3214576,42.5979642 C24.3867724,43.6632789 24.9194218,44.950515 24.9194218,46.4597109 Z" id="Path"></path>
                    <path d="M10.9194218,19.4597109 C10.9194218,20.9689068 10.3867724,22.2561429 9.32145762,23.3214576 C8.25614286,24.3867724 6.96890682,24.9194218 5.45971089,24.9194218 C3.95051497,24.9194218 2.66327893,24.3867724 1.59796416,23.3214576 C0.532649395,22.2561429 0,20.9689068 0,19.4597109 C0,17.950515 0.532649395,16.6632789 1.59796416,15.5979642 C2.66327893,14.5326494 3.95051497,14 5.45971089,14 C6.96890682,14 8.25614286,14.5326494 9.32145762,15.5979642 C10.3867724,16.6632789 10.9194218,17.950515 10.9194218,19.4597109 Z" id="Path"></path>
                    <path d="M24.9194218,32.4597109 C24.9194218,33.9689068 24.3867724,35.2561429 23.3214576,36.3214576 C22.2561429,37.3867724 20.9689068,37.9194218 19.4597109,37.9194218 C17.950515,37.9194218 16.6632789,37.3867724 15.5979642,36.3214576 C14.5326494,35.2561429 14,33.9689068 14,32.4597109 C14,30.950515 14.5326494,29.6632789 15.5979642,28.5979642 C16.6632789,27.5326494 17.950515,27 19.4597109,27 C20.9689068,27 22.2561429,27.5326494 23.3214576,28.5979642 C24.3867724,29.6632789 24.9194218,30.950515 24.9194218,32.4597109 Z" id="Path"></path>
                    <path d="M24.9194218,19.4597109 C24.9194218,20.9689068 24.3867724,22.2561429 23.3214576,23.3214576 C22.2561429,24.3867724 20.9689068,24.9194218 19.4597109,24.9194218 C17.950515,24.9194218 16.6632789,24.3867724 15.5979642,23.3214576 C14.5326494,22.2561429 14,20.9689068 14,19.4597109 C14,17.950515 14.5326494,16.6632789 15.5979642,15.5979642 C16.6632789,14.5326494 17.950515,14 19.4597109,14 C20.9689068,14 22.2561429,14.5326494 23.3214576,15.5979642 C24.3867724,16.6632789 24.9194218,17.950515 24.9194218,19.4597109 Z" id="Path"></path>
                    <path d="M24.9194218,5.45971089 C24.9194218,6.96890682 24.3867724,8.25614286 23.3214576,9.32145762 C22.2561429,10.3867724 20.9689068,10.9194218 19.4597109,10.9194218 C17.950515,10.9194218 16.6632789,10.3867724 15.5979642,9.32145762 C14.5326494,8.25614286 14,6.96890682 14,5.45971089 C14,3.95051497 14.5326494,2.66327893 15.5979642,1.59796416 C16.6632789,0.532649395 17.950515,0 19.4597109,0 C20.9689068,0 22.2561429,0.532649395 23.3214576,1.59796416 C24.3867724,2.66327893 24.9194218,3.95051497 24.9194218,5.45971089 Z" id="Path"></path>
                    <path d="M37.9194218,5.45971089 C37.9194218,6.96890682 37.3867724,8.25614286 36.3214576,9.32145762 C35.2561429,10.3867724 33.9689068,10.9194218 32.4597109,10.9194218 C30.950515,10.9194218 29.6632789,10.3867724 28.5979642,9.32145762 C27.5326494,8.25614286 27,6.96890682 27,5.45971089 C27,3.95051497 27.5326494,2.66327893 28.5979642,1.59796416 C29.6632789,0.532649395 30.950515,0 32.4597109,0 C33.9689068,0 35.2561429,0.532649395 36.3214576,1.59796416 C37.3867724,2.66327893 37.9194218,3.95051497 37.9194218,5.45971089 Z" id="Path"></path>
                    <path d="M51.9194218,5.45971089 C51.9194218,6.96890682 51.3867724,8.25614286 50.3214576,9.32145762 C49.2561429,10.3867724 47.9689068,10.9194218 46.4597109,10.9194218 C44.950515,10.9194218 43.6632789,10.3867724 42.5979642,9.32145762 C41.5326494,8.25614286 41,6.96890682 41,5.45971089 C41,3.95051497 41.5326494,2.66327893 42.5979642,1.59796416 C43.6632789,0.532649395 44.950515,0 46.4597109,0 C47.9689068,0 49.2561429,0.532649395 50.3214576,1.59796416 C51.3867724,2.66327893 51.9194218,3.95051497 51.9194218,5.45971089 Z" id="Path"></path>
                    <path d="M64.9194218,5.45971089 C64.9194218,6.96890682 64.3867724,8.25614286 63.3214576,9.32145762 C62.2561429,10.3867724 60.9689068,10.9194218 59.4597109,10.9194218 C57.950515,10.9194218 56.6632789,10.3867724 55.5979642,9.32145762 C54.5326494,8.25614286 54,6.96890682 54,5.45971089 C54,3.95051497 54.5326494,2.66327893 55.5979642,1.59796416 C56.6632789,0.532649395 57.950515,0 59.4597109,0 C60.9689068,0 62.2561429,0.532649395 63.3214576,1.59796416 C64.3867724,2.66327893 64.9194218,3.95051497 64.9194218,5.45971089 Z" id="Path"></path>
                </g>
                <g id="c" transform="translate(0.000000, 13.484095)">
                    <path d="M24.9194218,59.4597109 C24.9194218,60.9689068 24.3867724,62.2561429 23.3214576,63.3214576 C22.2561429,64.3867724 20.9689068,64.9194218 19.4597109,64.9194218 C17.950515,64.9194218 16.6632789,64.3867724 15.5979642,63.3214576 C14.5326494,62.2561429 14,60.9689068 14,59.4597109 C14,57.950515 14.5326494,56.6632789 15.5979642,55.5979642 C16.6632789,54.5326494 17.950515,54 19.4597109,54 C20.9689068,54 22.2561429,54.5326494 23.3214576,55.5979642 C24.3867724,56.6632789 24.9194218,57.950515 24.9194218,59.4597109 Z" id="Path"></path>
                    <path d="M10.9194218,46.4597109 C10.9194218,47.9689068 10.3867724,49.2561429 9.32145762,50.3214576 C8.25614286,51.3867724 6.96890682,51.9194218 5.45971089,51.9194218 C3.95051497,51.9194218 2.66327893,51.3867724 1.59796416,50.3214576 C0.532649395,49.2561429 0,47.9689068 0,46.4597109 C0,44.950515 0.532649395,43.6632789 1.59796416,42.5979642 C2.66327893,41.5326494 3.95051497,41 5.45971089,41 C6.96890682,41 8.25614286,41.5326494 9.32145762,42.5979642 C10.3867724,43.6632789 10.9194218,44.950515 10.9194218,46.4597109 Z" id="Path"></path>
                    <path d="M24.9194218,46.4597109 C24.9194218,47.9689068 24.3867724,49.2561429 23.3214576,50.3214576 C22.2561429,51.3867724 20.9689068,51.9194218 19.4597109,51.9194218 C17.950515,51.9194218 16.6632789,51.3867724 15.5979642,50.3214576 C14.5326494,49.2561429 14,47.9689068 14,46.4597109 C14,44.950515 14.5326494,43.6632789 15.5979642,42.5979642 C16.6632789,41.5326494 17.950515,41 19.4597109,41 C20.9689068,41 22.2561429,41.5326494 23.3214576,42.5979642 C24.3867724,43.6632789 24.9194218,44.950515 24.9194218,46.4597109 Z" id="Path"></path>
                    <path d="M37.9194218,59.4597109 C37.9194218,60.9689068 37.3867724,62.2561429 36.3214576,63.3214576 C35.2561429,64.3867724 33.9689068,64.9194218 32.4597109,64.9194218 C30.950515,64.9194218 29.6632789,64.3867724 28.5979642,63.3214576 C27.5326494,62.2561429 27,60.9689068 27,59.4597109 C27,57.950515 27.5326494,56.6632789 28.5979642,55.5979642 C29.6632789,54.5326494 30.950515,54 32.4597109,54 C33.9689068,54 35.2561429,54.5326494 36.3214576,55.5979642 C37.3867724,56.6632789 37.9194218,57.950515 37.9194218,59.4597109 Z" id="Path"></path>
                    <path d="M10.9194218,32.4597109 C10.9194218,33.9689068 10.3867724,35.2561429 9.32145762,36.3214576 C8.25614286,37.3867724 6.96890682,37.9194218 5.45971089,37.9194218 C3.95051497,37.9194218 2.66327893,37.3867724 1.59796416,36.3214576 C0.532649395,35.2561429 0,33.9689068 0,32.4597109 C0,30.950515 0.532649395,29.6632789 1.59796416,28.5979642 C2.66327893,27.5326494 3.95051497,27 5.45971089,27 C6.96890682,27 8.25614286,27.5326494 9.32145762,28.5979642 C10.3867724,29.6632789 10.9194218,30.950515 10.9194218,32.4597109 Z" id="Path"></path>
                    <path d="M24.9194218,32.4597109 C24.9194218,33.9689068 24.3867724,35.2561429 23.3214576,36.3214576 C22.2561429,37.3867724 20.9689068,37.9194218 19.4597109,37.9194218 C17.950515,37.9194218 16.6632789,37.3867724 15.5979642,36.3214576 C14.5326494,35.2561429 14,33.9689068 14,32.4597109 C14,30.950515 14.5326494,29.6632789 15.5979642,28.5979642 C16.6632789,27.5326494 17.950515,27 19.4597109,27 C20.9689068,27 22.2561429,27.5326494 23.3214576,28.5979642 C24.3867724,29.6632789 24.9194218,30.950515 24.9194218,32.4597109 Z" id="Path"></path>
                    <path d="M51.9194218,59.4597109 C51.9194218,60.9689068 51.3867724,62.2561429 50.3214576,63.3214576 C49.2561429,64.3867724 47.9689068,64.9194218 46.4597109,64.9194218 C44.950515,64.9194218 43.6632789,64.3867724 42.5979642,63.3214576 C41.5326494,62.2561429 41,60.9689068 41,59.4597109 C41,57.950515 41.5326494,56.6632789 42.5979642,55.5979642 C43.6632789,54.5326494 44.950515,54 46.4597109,54 C47.9689068,54 49.2561429,54.5326494 50.3214576,55.5979642 C51.3867724,56.6632789 51.9194218,57.950515 51.9194218,59.4597109 Z" id="Path"></path>
                    <path d="M10.9194218,19.4597109 C10.9194218,20.9689068 10.3867724,22.2561429 9.32145762,23.3214576 C8.25614286,24.3867724 6.96890682,24.9194218 5.45971089,24.9194218 C3.95051497,24.9194218 2.66327893,24.3867724 1.59796416,23.3214576 C0.532649395,22.2561429 0,20.9689068 0,19.4597109 C0,17.950515 0.532649395,16.6632789 1.59796416,15.5979642 C2.66327893,14.5326494 3.95051497,14 5.45971089,14 C6.96890682,14 8.25614286,14.5326494 9.32145762,15.5979642 C10.3867724,16.6632789 10.9194218,17.950515 10.9194218,19.4597109 Z" id="Path"></path>
                    <path d="M24.9194218,19.4597109 C24.9194218,20.9689068 24.3867724,22.2561429 23.3214576,23.3214576 C22.2561429,24.3867724 20.9689068,24.9194218 19.4597109,24.9194218 C17.950515,24.9194218 16.6632789,24.3867724 15.5979642,23.3214576 C14.5326494,22.2561429 14,20.9689068 14,19.4597109 C14,17.950515 14.5326494,16.6632789 15.5979642,15.5979642 C16.6632789,14.5326494 17.950515,14 19.4597109,14 C20.9689068,14 22.2561429,14.5326494 23.3214576,15.5979642 C24.3867724,16.6632789 24.9194218,17.950515 24.9194218,19.4597109 Z" id="Path"></path>
                    <path d="M65.9194218,59.4597109 C65.9194218,60.9689068 65.3867724,62.2561429 64.3214576,63.3214576 C63.2561429,64.3867724 61.9689068,64.9194218 60.4597109,64.9194218 C58.950515,64.9194218 57.6632789,64.3867724 56.5979642,63.3214576 C55.5326494,62.2561429 55,60.9689068 55,59.4597109 C55,57.950515 55.5326494,56.6632789 56.5979642,55.5979642 C57.6632789,54.5326494 58.950515,54 60.4597109,54 C61.9689068,54 63.2561429,54.5326494 64.3214576,55.5979642 C65.3867724,56.6632789 65.9194218,57.950515 65.9194218,59.4597109 Z" id="Path"></path>
                    <path d="M78.9194218,59.4597109 C78.9194218,60.9689068 78.3867724,62.2561429 77.3214576,63.3214576 C76.2561429,64.3867724 74.9689068,64.9194218 73.4597109,64.9194218 C71.950515,64.9194218 70.6632789,64.3867724 69.5979642,63.3214576 C68.5326494,62.2561429 68,60.9689068 68,59.4597109 C68,57.950515 68.5326494,56.6632789 69.5979642,55.5979642 C70.6632789,54.5326494 71.950515,54 73.4597109,54 C74.9689068,54 76.2561429,54.5326494 77.3214576,55.5979642 C78.3867724,56.6632789 78.9194218,57.950515 78.9194218,59.4597109 Z" id="Path"></path>
                    <path d="M24.9194218,5.45971089 C24.9194218,6.96890682 24.3867724,8.25614286 23.3214576,9.32145762 C22.2561429,10.3867724 20.9689068,10.9194218 19.4597109,10.9194218 C17.950515,10.9194218 16.6632789,10.3867724 15.5979642,9.32145762 C14.5326494,8.25614286 14,6.96890682 14,5.45971089 C14,3.95051497 14.5326494,2.66327893 15.5979642,1.59796416 C16.6632789,0.532649395 17.950515,0 19.4597109,0 C20.9689068,0 22.2561429,0.532649395 23.3214576,1.59796416 C24.3867724,2.66327893 24.9194218,3.95051497 24.9194218,5.45971089 Z" id="Path"></path>
                    <path d="M37.9194218,5.45971089 C37.9194218,6.96890682 37.3867724,8.25614286 36.3214576,9.32145762 C35.2561429,10.3867724 33.9689068,10.9194218 32.4597109,10.9194218 C30.950515,10.9194218 29.6632789,10.3867724 28.5979642,9.32145762 C27.5326494,8.25614286 27,6.96890682 27,5.45971089 C27,3.95051497 27.5326494,2.66327893 28.5979642,1.59796416 C29.6632789,0.532649395 30.950515,0 32.4597109,0 C33.9689068,0 35.2561429,0.532649395 36.3214576,1.59796416 C37.3867724,2.66327893 37.9194218,3.95051497 37.9194218,5.45971089 Z" id="Path"></path>
                    <path d="M51.9194218,5.45971089 C51.9194218,6.96890682 51.3867724,8.25614286 50.3214576,9.32145762 C49.2561429,10.3867724 47.9689068,10.9194218 46.4597109,10.9194218 C44.950515,10.9194218 43.6632789,10.3867724 42.5979642,9.32145762 C41.5326494,8.25614286 41,6.96890682 41,5.45971089 C41,3.95051497 41.5326494,2.66327893 42.5979642,1.59796416 C43.6632789,0.532649395 44.950515,0 46.4597109,0 C47.9689068,0 49.2561429,0.532649395 50.3214576,1.59796416 C51.3867724,2.66327893 51.9194218,3.95051497 51.9194218,5.45971089 Z" id="Path"></path>
                    <path d="M65.9194218,5.45971089 C65.9194218,6.96890682 65.3867724,8.25614286 64.3214576,9.32145762 C63.2561429,10.3867724 61.9689068,10.9194218 60.4597109,10.9194218 C58.950515,10.9194218 57.6632789,10.3867724 56.5979642,9.32145762 C55.5326494,8.25614286 55,6.96890682 55,5.45971089 C55,3.95051497 55.5326494,2.66327893 56.5979642,1.59796416 C57.6632789,0.532649395 58.950515,0 60.4597109,0 C61.9689068,0 63.2561429,0.532649395 64.3214576,1.59796416 C65.3867724,2.66327893 65.9194218,3.95051497 65.9194218,5.45971089 Z" id="Path"></path>
                    <path d="M78.9194218,5.45971089 C78.9194218,6.96890682 78.3867724,8.25614286 77.3214576,9.32145762 C76.2561429,10.3867724 74.9689068,10.9194218 73.4597109,10.9194218 C71.950515,10.9194218 70.6632789,10.3867724 69.5979642,9.32145762 C68.5326494,8.25614286 68,6.96890682 68,5.45971089 C68,3.95051497 68.5326494,2.66327893 69.5979642,1.59796416 C70.6632789,0.532649395 71.950515,0 73.4597109,0 C74.9689068,0 76.2561429,0.532649395 77.3214576,1.59796416 C78.3867724,2.66327893 78.9194218,3.95051497 78.9194218,5.45971089 Z" id="Path"></path>
                </g>
            </g>
            <path d="M147.809075,158.993518 L40,236 L40,20 L148,97.1428571 L256,20 L256,81.7142857 L191.2,128 L256,174.285714 L256,236 L147.809075,158.993518 L147.809075,158.993518 Z M75,99 L75,158 L116,128 L75,99 Z" id="Mark" fill="#00966C"></path>
        </g>
        <g id="Craft-X-Mark-Tiny" transform="translate(908.000000, 0.000000)"></g>
    </g>
</svg>