<?xml version="1.0" encoding="UTF-8" standalone="no"?>
<svg width="1080px" height="285px" viewBox="0 0 1080 285" version="1.1" xmlns="http://www.w3.org/2000/svg" xmlns:xlink="http://www.w3.org/1999/xlink" style="background: #FFFFFF;">
    <!-- Generator: Sketch 42 (36781) - http://www.bohemiancoding.com/sketch -->
    <title>Craft X</title>
    <desc>Created with Sketch.</desc>
    <defs></defs>
    <g id="Page-1" stroke="none" stroke-width="1" fill="none" fill-rule="evenodd">
        <g id="Craft-X">
            <g id="Group">
                <g id="Type" transform="translate(390.000000, 91.000000)" fill="#565758">
                    <g id="x" transform="translate(566.532654, 17.781224)">
                        <path d="M14.3992375,78.40841 C14.3992375,80.3985584 13.6968427,82.0960126 12.292032,83.5008232 C10.8872213,84.9056339 9.18976723,85.6080287 7.19961876,85.6080287 C5.20947029,85.6080287 3.51201618,84.9056339 2.10720549,83.5008232 C0.702394806,82.0960126 -7.79822685e-14,80.3985584 0,78.40841 C-7.79822685e-14,76.4182615 0.702394806,74.7208074 2.10720549,73.3159967 C3.51201618,71.911186 5.20947029,71.2087912 7.19961876,71.2087912 C9.18976723,71.2087912 10.8872213,71.911186 12.292032,73.3159967 C13.6968427,74.7208074 14.3992375,76.4182615 14.3992375,78.40841 Z" id="Path"></path>
                        <path d="M32.860776,78.40841 C32.860776,80.3985584 32.1583812,82.0960126 30.7535705,83.5008232 C29.3487598,84.9056339 27.6513057,85.6080287 25.6611572,85.6080287 C23.6710088,85.6080287 21.9735546,84.9056339 20.568744,83.5008232 C19.1639333,82.0960126 18.4615385,80.3985584 18.4615385,78.40841 C18.4615385,76.4182615 19.1639333,74.7208074 20.568744,73.3159967 C21.9735546,71.911186 23.6710088,71.2087912 25.6611572,71.2087912 C27.6513057,71.2087912 29.3487598,71.911186 30.7535705,73.3159967 C32.1583812,74.7208074 32.860776,76.4182615 32.860776,78.40841 Z" id="Path"></path>
                        <path d="M32.860776,61.2655528 C32.860776,63.2557013 32.1583812,64.9531554 30.7535705,66.3579661 C29.3487598,67.7627768 27.6513057,68.4651716 25.6611572,68.4651716 C23.6710088,68.4651716 21.9735546,67.7627768 20.568744,66.3579661 C19.1639333,64.9531554 18.4615385,63.2557013 18.4615385,61.2655528 C18.4615385,59.2754044 19.1639333,57.5779502 20.568744,56.1731396 C21.9735546,54.7683289 23.6710088,54.0659341 25.6611572,54.0659341 C27.6513057,54.0659341 29.3487598,54.7683289 30.7535705,56.1731396 C32.1583812,57.5779502 32.860776,59.2754044 32.860776,61.2655528 Z" id="Path"></path>
                        <path d="M51.3223144,61.2655528 C51.3223144,63.2557013 50.6199196,64.9531554 49.215109,66.3579661 C47.8102983,67.7627768 46.1128442,68.4651716 44.1226957,68.4651716 C42.1325472,68.4651716 40.4350931,67.7627768 39.0302824,66.3579661 C37.6254717,64.9531554 36.9230769,63.2557013 36.9230769,61.2655528 C36.9230769,59.2754044 37.6254717,57.5779502 39.0302824,56.1731396 C40.4350931,54.7683289 42.1325472,54.0659341 44.1226957,54.0659341 C46.1128442,54.0659341 47.8102983,54.7683289 49.215109,56.1731396 C50.6199196,57.5779502 51.3223144,59.2754044 51.3223144,61.2655528 Z" id="Path"></path>
                        <path d="M32.860776,25.6611572 C32.860776,27.6513057 32.1583812,29.3487598 30.7535705,30.7535705 C29.3487598,32.1583812 27.6513057,32.860776 25.6611572,32.860776 C23.6710088,32.860776 21.9735546,32.1583812 20.568744,30.7535705 C19.1639333,29.3487598 18.4615385,27.6513057 18.4615385,25.6611572 C18.4615385,23.6710088 19.1639333,21.9735546 20.568744,20.568744 C21.9735546,19.1639333 23.6710088,18.4615385 25.6611572,18.4615385 C27.6513057,18.4615385 29.3487598,19.1639333 30.7535705,20.568744 C32.1583812,21.9735546 32.860776,23.6710088 32.860776,25.6611572 Z" id="Path"></path>
                        <path d="M51.3223144,42.8040144 C51.3223144,44.7941628 50.6199196,46.491617 49.215109,47.8964276 C47.8102983,49.3012383 46.1128442,50.0036331 44.1226957,50.0036331 C42.1325472,50.0036331 40.4350931,49.3012383 39.0302824,47.8964276 C37.6254717,46.491617 36.9230769,44.7941628 36.9230769,42.8040144 C36.9230769,40.8138659 37.6254717,39.1164118 39.0302824,37.7116011 C40.4350931,36.3067904 42.1325472,35.6043956 44.1226957,35.6043956 C46.1128442,35.6043956 47.8102983,36.3067904 49.215109,37.7116011 C50.6199196,39.1164118 51.3223144,40.8138659 51.3223144,42.8040144 Z" id="Path"></path>
                        <path d="M14.3992375,7.19961876 C14.3992375,9.18976723 13.6968427,10.8872213 12.292032,12.292032 C10.8872213,13.6968427 9.18976723,14.3992375 7.19961876,14.3992375 C5.20947029,14.3992375 3.51201618,13.6968427 2.10720549,12.292032 C0.702394806,10.8872213 -7.79822685e-14,9.18976723 0,7.19961876 C-7.79822685e-14,5.20947029 0.702394806,3.51201618 2.10720549,2.10720549 C3.51201618,0.702394806 5.20947029,0 7.19961876,0 C9.18976723,0 10.8872213,0.702394806 12.292032,2.10720549 C13.6968427,3.51201618 14.3992375,5.20947029 14.3992375,7.19961876 Z" id="Path"></path>
                        <path d="M104.069567,78.40841 C104.069567,80.3985584 103.367172,82.0960126 101.962362,83.5008232 C100.557551,84.9056339 98.8600969,85.6080287 96.8699484,85.6080287 C94.8798,85.6080287 93.1823458,84.9056339 91.7775352,83.5008232 C90.3727245,82.0960126 89.6703297,80.3985584 89.6703297,78.40841 C89.6703297,76.4182615 90.3727245,74.7208074 91.7775352,73.3159967 C93.1823458,71.911186 94.8798,71.2087912 96.8699484,71.2087912 C98.8600969,71.2087912 100.557551,71.911186 101.962362,73.3159967 C103.367172,74.7208074 104.069567,76.4182615 104.069567,78.40841 Z" id="Path"></path>
                        <path d="M32.860776,7.19961876 C32.860776,9.18976723 32.1583812,10.8872213 30.7535705,12.292032 C29.3487598,13.6968427 27.6513057,14.3992375 25.6611572,14.3992375 C23.6710088,14.3992375 21.9735546,13.6968427 20.568744,12.292032 C19.1639333,10.8872213 18.4615385,9.18976723 18.4615385,7.19961876 C18.4615385,5.20947029 19.1639333,3.51201618 20.568744,2.10720549 C21.9735546,0.702394806 23.6710088,0 25.6611572,0 C27.6513057,0 29.3487598,0.702394806 30.7535705,2.10720549 C32.1583812,3.51201618 32.860776,5.20947029 32.860776,7.19961876 Z" id="Path"></path>
                        <path d="M86.9267101,61.2655528 C86.9267101,63.2557013 86.2243152,64.9531554 84.8195046,66.3579661 C83.4146939,67.7627768 81.7172398,68.4651716 79.7270913,68.4651716 C77.7369428,68.4651716 76.0394887,67.7627768 74.634678,66.3579661 C73.2298673,64.9531554 72.5274725,63.2557013 72.5274725,61.2655528 C72.5274725,59.2754044 73.2298673,57.5779502 74.634678,56.1731396 C76.0394887,54.7683289 77.7369428,54.0659341 79.7270913,54.0659341 C81.7172398,54.0659341 83.4146939,54.7683289 84.8195046,56.1731396 C86.2243152,57.5779502 86.9267101,59.2754044 86.9267101,61.2655528 Z" id="Path"></path>
                        <path d="M68.4651716,42.8040144 C68.4651716,44.7941628 67.7627768,46.491617 66.3579661,47.8964276 C64.9531554,49.3012383 63.2557013,50.0036331 61.2655528,50.0036331 C59.2754044,50.0036331 57.5779502,49.3012383 56.1731396,47.8964276 C54.7683289,46.491617 54.0659341,44.7941628 54.0659341,42.8040144 C54.0659341,40.8138659 54.7683289,39.1164118 56.1731396,37.7116011 C57.5779502,36.3067904 59.2754044,35.6043956 61.2655528,35.6043956 C63.2557013,35.6043956 64.9531554,36.3067904 66.3579661,37.7116011 C67.7627768,39.1164118 68.4651716,40.8138659 68.4651716,42.8040144 Z" id="Path"></path>
                        <path d="M51.3223144,25.6611572 C51.3223144,27.6513057 50.6199196,29.3487598 49.215109,30.7535705 C47.8102983,32.1583812 46.1128442,32.860776 44.1226957,32.860776 C42.1325472,32.860776 40.4350931,32.1583812 39.0302824,30.7535705 C37.6254717,29.3487598 36.9230769,27.6513057 36.9230769,25.6611572 C36.9230769,23.6710088 37.6254717,21.9735546 39.0302824,20.568744 C40.4350931,19.1639333 42.1325472,18.4615385 44.1226957,18.4615385 C46.1128442,18.4615385 47.8102983,19.1639333 49.215109,20.568744 C50.6199196,21.9735546 51.3223144,23.6710088 51.3223144,25.6611572 Z" id="Path"></path>
                        <path d="M104.069567,61.2655528 C104.069567,63.2557013 103.367172,64.9531554 101.962362,66.3579661 C100.557551,67.7627768 98.8600969,68.4651716 96.8699484,68.4651716 C94.8798,68.4651716 93.1823458,67.7627768 91.7775352,66.3579661 C90.3727245,64.9531554 89.6703297,63.2557013 89.6703297,61.2655528 C89.6703297,59.2754044 90.3727245,57.5779502 91.7775352,56.1731396 C93.1823458,54.7683289 94.8798,54.0659341 96.8699484,54.0659341 C98.8600969,54.0659341 100.557551,54.7683289 101.962362,56.1731396 C103.367172,57.5779502 104.069567,59.2754044 104.069567,61.2655528 Z" id="Path"></path>
                        <path d="M122.531106,78.40841 C122.531106,80.3985584 121.828711,82.0960126 120.4239,83.5008232 C119.019089,84.9056339 117.321635,85.6080287 115.331487,85.6080287 C113.341338,85.6080287 111.643884,84.9056339 110.239074,83.5008232 C108.834263,82.0960126 108.131868,80.3985584 108.131868,78.40841 C108.131868,76.4182615 108.834263,74.7208074 110.239074,73.3159967 C111.643884,71.911186 113.341338,71.2087912 115.331487,71.2087912 C117.321635,71.2087912 119.019089,71.911186 120.4239,73.3159967 C121.828711,74.7208074 122.531106,76.4182615 122.531106,78.40841 Z" id="Path"></path>
                        <path d="M86.9267101,42.8040144 C86.9267101,44.7941628 86.2243152,46.491617 84.8195046,47.8964276 C83.4146939,49.3012383 81.7172398,50.0036331 79.7270913,50.0036331 C77.7369428,50.0036331 76.0394887,49.3012383 74.634678,47.8964276 C73.2298673,46.491617 72.5274725,44.7941628 72.5274725,42.8040144 C72.5274725,40.8138659 73.2298673,39.1164118 74.634678,37.7116011 C76.0394887,36.3067904 77.7369428,35.6043956 79.7270913,35.6043956 C81.7172398,35.6043956 83.4146939,36.3067904 84.8195046,37.7116011 C86.2243152,39.1164118 86.9267101,40.8138659 86.9267101,42.8040144 Z" id="Path"></path>
                        <path d="M86.9267101,25.6611572 C86.9267101,27.6513057 86.2243152,29.3487598 84.8195046,30.7535705 C83.4146939,32.1583812 81.7172398,32.860776 79.7270913,32.860776 C77.7369428,32.860776 76.0394887,32.1583812 74.634678,30.7535705 C73.2298673,29.3487598 72.5274725,27.6513057 72.5274725,25.6611572 C72.5274725,23.6710088 73.2298673,21.9735546 74.634678,20.568744 C76.0394887,19.1639333 77.7369428,18.4615385 79.7270913,18.4615385 C81.7172398,18.4615385 83.4146939,19.1639333 84.8195046,20.568744 C86.2243152,21.9735546 86.9267101,23.6710088 86.9267101,25.6611572 Z" id="Path"></path>
                        <path d="M104.069567,25.6611572 C104.069567,27.6513057 103.367172,29.3487598 101.962362,30.7535705 C100.557551,32.1583812 98.8600969,32.860776 96.8699484,32.860776 C94.8798,32.860776 93.1823458,32.1583812 91.7775352,30.7535705 C90.3727245,29.3487598 89.6703297,27.6513057 89.6703297,25.6611572 C89.6703297,23.6710088 90.3727245,21.9735546 91.7775352,20.568744 C93.1823458,19.1639333 94.8798,18.4615385 96.8699484,18.4615385 C98.8600969,18.4615385 100.557551,19.1639333 101.962362,20.568744 C103.367172,21.9735546 104.069567,23.6710088 104.069567,25.6611572 Z" id="Path"></path>
                        <path d="M104.069567,7.19961876 C104.069567,9.18976723 103.367172,10.8872213 101.962362,12.292032 C100.557551,13.6968427 98.8600969,14.3992375 96.8699484,14.3992375 C94.8798,14.3992375 93.1823458,13.6968427 91.7775352,12.292032 C90.3727245,10.8872213 89.6703297,9.18976723 89.6703297,7.19961876 C89.6703297,5.20947029 90.3727245,3.51201618 91.7775352,2.10720549 C93.1823458,0.702394806 94.8798,0 96.8699484,0 C98.8600969,0 100.557551,0.702394806 101.962362,2.10720549 C103.367172,3.51201618 104.069567,5.20947029 104.069567,7.19961876 Z" id="Path"></path>
                        <path d="M122.531106,7.19961876 C122.531106,9.18976723 121.828711,10.8872213 120.4239,12.292032 C119.019089,13.6968427 117.321635,14.3992375 115.331487,14.3992375 C113.341338,14.3992375 111.643884,13.6968427 110.239074,12.292032 C108.834263,10.8872213 108.131868,9.18976723 108.131868,7.19961876 C108.131868,5.20947029 108.834263,3.51201618 110.239074,2.10720549 C111.643884,0.702394806 113.341338,0 115.331487,0 C117.321635,0 119.019089,0.702394806 120.4239,2.10720549 C121.828711,3.51201618 122.531106,5.20947029 122.531106,7.19961876 Z" id="Path"></path>
                    </g>
                    <g id="t" transform="translate(459.855796, 0.000000)">
                        <path d="M51.3223144,96.8699484 C51.3223144,98.8600969 50.6199196,100.557551 49.215109,101.962362 C47.8102983,103.367172 46.1128442,104.069567 44.1226957,104.069567 C42.1325472,104.069567 40.4350931,103.367172 39.0302824,101.962362 C37.6254717,100.557551 36.9230769,98.8600969 36.9230769,96.8699484 C36.9230769,94.8798 37.6254717,93.1823458 39.0302824,91.7775352 C40.4350931,90.3727245 42.1325472,89.6703297 44.1226957,89.6703297 C46.1128442,89.6703297 47.8102983,90.3727245 49.215109,91.7775352 C50.6199196,93.1823458 51.3223144,94.8798 51.3223144,96.8699484 Z" id="Path"></path>
                        <path d="M32.860776,78.40841 C32.860776,80.3985584 32.1583812,82.0960126 30.7535705,83.5008232 C29.3487598,84.9056339 27.6513057,85.6080287 25.6611572,85.6080287 C23.6710088,85.6080287 21.9735546,84.9056339 20.568744,83.5008232 C19.1639333,82.0960126 18.4615385,80.3985584 18.4615385,78.40841 C18.4615385,76.4182615 19.1639333,74.7208074 20.568744,73.3159967 C21.9735546,71.911186 23.6710088,71.2087912 25.6611572,71.2087912 C27.6513057,71.2087912 29.3487598,71.911186 30.7535705,73.3159967 C32.1583812,74.7208074 32.860776,76.4182615 32.860776,78.40841 Z" id="Path"></path>
                        <path d="M68.4651716,96.8699484 C68.4651716,98.8600969 67.7627768,100.557551 66.3579661,101.962362 C64.9531554,103.367172 63.2557013,104.069567 61.2655528,104.069567 C59.2754044,104.069567 57.5779502,103.367172 56.1731396,101.962362 C54.7683289,100.557551 54.0659341,98.8600969 54.0659341,96.8699484 C54.0659341,94.8798 54.7683289,93.1823458 56.1731396,91.7775352 C57.5779502,90.3727245 59.2754044,89.6703297 61.2655528,89.6703297 C63.2557013,89.6703297 64.9531554,90.3727245 66.3579661,91.7775352 C67.7627768,93.1823458 68.4651716,94.8798 68.4651716,96.8699484 Z" id="Path"></path>
                        <path d="M51.3223144,78.40841 C51.3223144,80.3985584 50.6199196,82.0960126 49.215109,83.5008232 C47.8102983,84.9056339 46.1128442,85.6080287 44.1226957,85.6080287 C42.1325472,85.6080287 40.4350931,84.9056339 39.0302824,83.5008232 C37.6254717,82.0960126 36.9230769,80.3985584 36.9230769,78.40841 C36.9230769,76.4182615 37.6254717,74.7208074 39.0302824,73.3159967 C40.4350931,71.911186 42.1325472,71.2087912 44.1226957,71.2087912 C46.1128442,71.2087912 47.8102983,71.911186 49.215109,73.3159967 C50.6199196,74.7208074 51.3223144,76.4182615 51.3223144,78.40841 Z" id="Path"></path>
                        <path d="M32.860776,61.2655528 C32.860776,63.2557013 32.1583812,64.9531554 30.7535705,66.3579661 C29.3487598,67.7627768 27.6513057,68.4651716 25.6611572,68.4651716 C23.6710088,68.4651716 21.9735546,67.7627768 20.568744,66.3579661 C19.1639333,64.9531554 18.4615385,63.2557013 18.4615385,61.2655528 C18.4615385,59.2754044 19.1639333,57.5779502 20.568744,56.1731396 C21.9735546,54.7683289 23.6710088,54.0659341 25.6611572,54.0659341 C27.6513057,54.0659341 29.3487598,54.7683289 30.7535705,56.1731396 C32.1583812,57.5779502 32.860776,59.2754044 32.860776,61.2655528 Z" id="Path"></path>
                        <path d="M86.9267101,96.8699484 C86.9267101,98.8600969 86.2243152,100.557551 84.8195046,101.962362 C83.4146939,103.367172 81.7172398,104.069567 79.7270913,104.069567 C77.7369428,104.069567 76.0394887,103.367172 74.634678,101.962362 C73.2298673,100.557551 72.5274725,98.8600969 72.5274725,96.8699484 C72.5274725,94.8798 73.2298673,93.1823458 74.634678,91.7775352 C76.0394887,90.3727245 77.7369428,89.6703297 79.7270913,89.6703297 C81.7172398,89.6703297 83.4146939,90.3727245 84.8195046,91.7775352 C86.2243152,93.1823458 86.9267101,94.8798 86.9267101,96.8699484 Z" id="Path"></path>
                        <path d="M14.3992375,25.6611572 C14.3992375,27.6513057 13.6968427,29.3487598 12.292032,30.7535705 C10.8872213,32.1583812 9.18976723,32.860776 7.19961876,32.860776 C5.20947029,32.860776 3.51201618,32.1583812 2.10720549,30.7535705 C0.702394806,29.3487598 0,27.6513057 0,25.6611572 C0,23.6710088 0.702394806,21.9735546 2.10720549,20.568744 C3.51201618,19.1639333 5.20947029,18.4615385 7.19961876,18.4615385 C9.18976723,18.4615385 10.8872213,19.1639333 12.292032,20.568744 C13.6968427,21.9735546 14.3992375,23.6710088 14.3992375,25.6611572 Z" id="Path"></path>
                        <path d="M51.3223144,61.2655528 C51.3223144,63.2557013 50.6199196,64.9531554 49.215109,66.3579661 C47.8102983,67.7627768 46.1128442,68.4651716 44.1226957,68.4651716 C42.1325472,68.4651716 40.4350931,67.7627768 39.0302824,66.3579661 C37.6254717,64.9531554 36.9230769,63.2557013 36.9230769,61.2655528 C36.9230769,59.2754044 37.6254717,57.5779502 39.0302824,56.1731396 C40.4350931,54.7683289 42.1325472,54.0659341 44.1226957,54.0659341 C46.1128442,54.0659341 47.8102983,54.7683289 49.215109,56.1731396 C50.6199196,57.5779502 51.3223144,59.2754044 51.3223144,61.2655528 Z" id="Path"></path>
                        <path d="M32.860776,42.8040144 C32.860776,44.7941628 32.1583812,46.491617 30.7535705,47.8964276 C29.3487598,49.3012383 27.6513057,50.0036331 25.6611572,50.0036331 C23.6710088,50.0036331 21.9735546,49.3012383 20.568744,47.8964276 C19.1639333,46.491617 18.4615385,44.7941628 18.4615385,42.8040144 C18.4615385,40.8138659 19.1639333,39.1164118 20.568744,37.7116011 C21.9735546,36.3067904 23.6710088,35.6043956 25.6611572,35.6043956 C27.6513057,35.6043956 29.3487598,36.3067904 30.7535705,37.7116011 C32.1583812,39.1164118 32.860776,40.8138659 32.860776,42.8040144 Z" id="Path"></path>
                        <path d="M51.3223144,42.8040144 C51.3223144,44.7941628 50.6199196,46.491617 49.215109,47.8964276 C47.8102983,49.3012383 46.1128442,50.0036331 44.1226957,50.0036331 C42.1325472,50.0036331 40.4350931,49.3012383 39.0302824,47.8964276 C37.6254717,46.491617 36.9230769,44.7941628 36.9230769,42.8040144 C36.9230769,40.8138659 37.6254717,39.1164118 39.0302824,37.7116011 C40.4350931,36.3067904 42.1325472,35.6043956 44.1226957,35.6043956 C46.1128442,35.6043956 47.8102983,36.3067904 49.215109,37.7116011 C50.6199196,39.1164118 51.3223144,40.8138659 51.3223144,42.8040144 Z" id="Path"></path>
                        <path d="M32.860776,25.6611572 C32.860776,27.6513057 32.1583812,29.3487598 30.7535705,30.7535705 C29.3487598,32.1583812 27.6513057,32.860776 25.6611572,32.860776 C23.6710088,32.860776 21.9735546,32.1583812 20.568744,30.7535705 C19.1639333,29.3487598 18.4615385,27.6513057 18.4615385,25.6611572 C18.4615385,23.6710088 19.1639333,21.9735546 20.568744,20.568744 C21.9735546,19.1639333 23.6710088,18.4615385 25.6611572,18.4615385 C27.6513057,18.4615385 29.3487598,19.1639333 30.7535705,20.568744 C32.1583812,21.9735546 32.860776,23.6710088 32.860776,25.6611572 Z" id="Path"></path>
                        <path d="M32.860776,7.19961876 C32.860776,9.18976723 32.1583812,10.8872213 30.7535705,12.292032 C29.3487598,13.6968427 27.6513057,14.3992375 25.6611572,14.3992375 C23.6710088,14.3992375 21.9735546,13.6968427 20.568744,12.292032 C19.1639333,10.8872213 18.4615385,9.18976723 18.4615385,7.19961876 C18.4615385,5.20947029 19.1639333,3.51201618 20.568744,2.10720549 C21.9735546,0.702394806 23.6710088,3.89911342e-14 25.6611572,0 C27.6513057,3.89911342e-14 29.3487598,0.702394806 30.7535705,2.10720549 C32.1583812,3.51201618 32.860776,5.20947029 32.860776,7.19961876 Z" id="Path"></path>
                        <path d="M51.3223144,25.6611572 C51.3223144,27.6513057 50.6199196,29.3487598 49.215109,30.7535705 C47.8102983,32.1583812 46.1128442,32.860776 44.1226957,32.860776 C42.1325472,32.860776 40.4350931,32.1583812 39.0302824,30.7535705 C37.6254717,29.3487598 36.9230769,27.6513057 36.9230769,25.6611572 C36.9230769,23.6710088 37.6254717,21.9735546 39.0302824,20.568744 C40.4350931,19.1639333 42.1325472,18.4615385 44.1226957,18.4615385 C46.1128442,18.4615385 47.8102983,19.1639333 49.215109,20.568744 C50.6199196,21.9735546 51.3223144,23.6710088 51.3223144,25.6611572 Z" id="Path"></path>
                        <path d="M51.3223144,7.19961876 C51.3223144,9.18976723 50.6199196,10.8872213 49.215109,12.292032 C47.8102983,13.6968427 46.1128442,14.3992375 44.1226957,14.3992375 C42.1325472,14.3992375 40.4350931,13.6968427 39.0302824,12.292032 C37.6254717,10.8872213 36.9230769,9.18976723 36.9230769,7.19961876 C36.9230769,5.20947029 37.6254717,3.51201618 39.0302824,2.10720549 C40.4350931,0.702394806 42.1325472,3.89911342e-14 44.1226957,0 C46.1128442,3.89911342e-14 47.8102983,0.702394806 49.215109,2.10720549 C50.6199196,3.51201618 51.3223144,5.20947029 51.3223144,7.19961876 Z" id="Path"></path>
                        <path d="M68.4651716,25.6611572 C68.4651716,27.6513057 67.7627768,29.3487598 66.3579661,30.7535705 C64.9531554,32.1583812 63.2557013,32.860776 61.2655528,32.860776 C59.2754044,32.860776 57.5779502,32.1583812 56.1731396,30.7535705 C54.7683289,29.3487598 54.0659341,27.6513057 54.0659341,25.6611572 C54.0659341,23.6710088 54.7683289,21.9735546 56.1731396,20.568744 C57.5779502,19.1639333 59.2754044,18.4615385 61.2655528,18.4615385 C63.2557013,18.4615385 64.9531554,19.1639333 66.3579661,20.568744 C67.7627768,21.9735546 68.4651716,23.6710088 68.4651716,25.6611572 Z" id="Path"></path>
                        <path d="M86.9267101,25.6611572 C86.9267101,27.6513057 86.2243152,29.3487598 84.8195046,30.7535705 C83.4146939,32.1583812 81.7172398,32.860776 79.7270913,32.860776 C77.7369428,32.860776 76.0394887,32.1583812 74.634678,30.7535705 C73.2298673,29.3487598 72.5274725,27.6513057 72.5274725,25.6611572 C72.5274725,23.6710088 73.2298673,21.9735546 74.634678,20.568744 C76.0394887,19.1639333 77.7369428,18.4615385 79.7270913,18.4615385 C81.7172398,18.4615385 83.4146939,19.1639333 84.8195046,20.568744 C86.2243152,21.9735546 86.9267101,23.6710088 86.9267101,25.6611572 Z" id="Path"></path>
                    </g>
                    <g id="f" transform="translate(344.288325, 0.000000)">
                        <path d="M31.5420947,96.8699484 C31.5420947,98.8600969 30.8396999,100.557551 29.4348892,101.962362 C28.0300785,103.367172 26.3326244,104.069567 24.3424759,104.069567 C22.3523274,104.069567 20.6548733,103.367172 19.2500626,101.962362 C17.8452519,100.557551 17.1428571,98.8600969 17.1428571,96.8699484 C17.1428571,94.8798 17.8452519,93.1823458 19.2500626,91.7775352 C20.6548733,90.3727245 22.3523274,89.6703297 24.3424759,89.6703297 C26.3326244,89.6703297 28.0300785,90.3727245 29.4348892,91.7775352 C30.8396999,93.1823458 31.5420947,94.8798 31.5420947,96.8699484 Z" id="Path"></path>
                        <path d="M31.5420947,78.40841 C31.5420947,80.3985584 30.8396999,82.0960126 29.4348892,83.5008232 C28.0300785,84.9056339 26.3326244,85.6080287 24.3424759,85.6080287 C22.3523274,85.6080287 20.6548733,84.9056339 19.2500626,83.5008232 C17.8452519,82.0960126 17.1428571,80.3985584 17.1428571,78.40841 C17.1428571,76.4182615 17.8452519,74.7208074 19.2500626,73.3159967 C20.6548733,71.911186 22.3523274,71.2087912 24.3424759,71.2087912 C26.3326244,71.2087912 28.0300785,71.911186 29.4348892,73.3159967 C30.8396999,74.7208074 31.5420947,76.4182615 31.5420947,78.40841 Z" id="Path"></path>
                        <path d="M50.0036331,96.8699484 C50.0036331,98.8600969 49.3012383,100.557551 47.8964276,101.962362 C46.491617,103.367172 44.7941628,104.069567 42.8040144,104.069567 C40.8138659,104.069567 39.1164118,103.367172 37.7116011,101.962362 C36.3067904,100.557551 35.6043956,98.8600969 35.6043956,96.8699484 C35.6043956,94.8798 36.3067904,93.1823458 37.7116011,91.7775352 C39.1164118,90.3727245 40.8138659,89.6703297 42.8040144,89.6703297 C44.7941628,89.6703297 46.491617,90.3727245 47.8964276,91.7775352 C49.3012383,93.1823458 50.0036331,94.8798 50.0036331,96.8699484 Z" id="Path"></path>
                        <path d="M31.5420947,61.2655528 C31.5420947,63.2557013 30.8396999,64.9531554 29.4348892,66.3579661 C28.0300785,67.7627768 26.3326244,68.4651716 24.3424759,68.4651716 C22.3523274,68.4651716 20.6548733,67.7627768 19.2500626,66.3579661 C17.8452519,64.9531554 17.1428571,63.2557013 17.1428571,61.2655528 C17.1428571,59.2754044 17.8452519,57.5779502 19.2500626,56.1731396 C20.6548733,54.7683289 22.3523274,54.0659341 24.3424759,54.0659341 C26.3326244,54.0659341 28.0300785,54.7683289 29.4348892,56.1731396 C30.8396999,57.5779502 31.5420947,59.2754044 31.5420947,61.2655528 Z" id="Path"></path>
                        <path d="M50.0036331,78.40841 C50.0036331,80.3985584 49.3012383,82.0960126 47.8964276,83.5008232 C46.491617,84.9056339 44.7941628,85.6080287 42.8040144,85.6080287 C40.8138659,85.6080287 39.1164118,84.9056339 37.7116011,83.5008232 C36.3067904,82.0960126 35.6043956,80.3985584 35.6043956,78.40841 C35.6043956,76.4182615 36.3067904,74.7208074 37.7116011,73.3159967 C39.1164118,71.911186 40.8138659,71.2087912 42.8040144,71.2087912 C44.7941628,71.2087912 46.491617,71.911186 47.8964276,73.3159967 C49.3012383,74.7208074 50.0036331,76.4182615 50.0036331,78.40841 Z" id="Path"></path>
                        <path d="M14.3992375,42.8040144 C14.3992375,44.7941628 13.6968427,46.491617 12.292032,47.8964276 C10.8872213,49.3012383 9.18976723,50.0036331 7.19961876,50.0036331 C5.20947029,50.0036331 3.51201618,49.3012383 2.10720549,47.8964276 C0.702394806,46.491617 0,44.7941628 0,42.8040144 C0,40.8138659 0.702394806,39.1164118 2.10720549,37.7116011 C3.51201618,36.3067904 5.20947029,35.6043956 7.19961876,35.6043956 C9.18976723,35.6043956 10.8872213,36.3067904 12.292032,37.7116011 C13.6968427,39.1164118 14.3992375,40.8138659 14.3992375,42.8040144 Z" id="Path"></path>
                        <path d="M31.5420947,42.8040144 C31.5420947,44.7941628 30.8396999,46.491617 29.4348892,47.8964276 C28.0300785,49.3012383 26.3326244,50.0036331 24.3424759,50.0036331 C22.3523274,50.0036331 20.6548733,49.3012383 19.2500626,47.8964276 C17.8452519,46.491617 17.1428571,44.7941628 17.1428571,42.8040144 C17.1428571,40.8138659 17.8452519,39.1164118 19.2500626,37.7116011 C20.6548733,36.3067904 22.3523274,35.6043956 24.3424759,35.6043956 C26.3326244,35.6043956 28.0300785,36.3067904 29.4348892,37.7116011 C30.8396999,39.1164118 31.5420947,40.8138659 31.5420947,42.8040144 Z" id="Path"></path>
                        <path d="M50.0036331,61.2655528 C50.0036331,63.2557013 49.3012383,64.9531554 47.8964276,66.3579661 C46.491617,67.7627768 44.7941628,68.4651716 42.8040144,68.4651716 C40.8138659,68.4651716 39.1164118,67.7627768 37.7116011,66.3579661 C36.3067904,64.9531554 35.6043956,63.2557013 35.6043956,61.2655528 C35.6043956,59.2754044 36.3067904,57.5779502 37.7116011,56.1731396 C39.1164118,54.7683289 40.8138659,54.0659341 42.8040144,54.0659341 C44.7941628,54.0659341 46.491617,54.7683289 47.8964276,56.1731396 C49.3012383,57.5779502 50.0036331,59.2754044 50.0036331,61.2655528 Z" id="Path"></path>
                        <path d="M31.5420947,25.6611572 C31.5420947,27.6513057 30.8396999,29.3487598 29.4348892,30.7535705 C28.0300785,32.1583812 26.3326244,32.860776 24.3424759,32.860776 C22.3523274,32.860776 20.6548733,32.1583812 19.2500626,30.7535705 C17.8452519,29.3487598 17.1428571,27.6513057 17.1428571,25.6611572 C17.1428571,23.6710088 17.8452519,21.9735546 19.2500626,20.568744 C20.6548733,19.1639333 22.3523274,18.4615385 24.3424759,18.4615385 C26.3326244,18.4615385 28.0300785,19.1639333 29.4348892,20.568744 C30.8396999,21.9735546 31.5420947,23.6710088 31.5420947,25.6611572 Z" id="Path"></path>
                        <path d="M50.0036331,42.8040144 C50.0036331,44.7941628 49.3012383,46.491617 47.8964276,47.8964276 C46.491617,49.3012383 44.7941628,50.0036331 42.8040144,50.0036331 C40.8138659,50.0036331 39.1164118,49.3012383 37.7116011,47.8964276 C36.3067904,46.491617 35.6043956,44.7941628 35.6043956,42.8040144 C35.6043956,40.8138659 36.3067904,39.1164118 37.7116011,37.7116011 C39.1164118,36.3067904 40.8138659,35.6043956 42.8040144,35.6043956 C44.7941628,35.6043956 46.491617,36.3067904 47.8964276,37.7116011 C49.3012383,39.1164118 50.0036331,40.8138659 50.0036331,42.8040144 Z" id="Path"></path>
                        <path d="M68.4651716,42.8040144 C68.4651716,44.7941628 67.7627768,46.491617 66.3579661,47.8964276 C64.9531554,49.3012383 63.2557013,50.0036331 61.2655528,50.0036331 C59.2754044,50.0036331 57.5779502,49.3012383 56.1731396,47.8964276 C54.7683289,46.491617 54.0659341,44.7941628 54.0659341,42.8040144 C54.0659341,40.8138659 54.7683289,39.1164118 56.1731396,37.7116011 C57.5779502,36.3067904 59.2754044,35.6043956 61.2655528,35.6043956 C63.2557013,35.6043956 64.9531554,36.3067904 66.3579661,37.7116011 C67.7627768,39.1164118 68.4651716,40.8138659 68.4651716,42.8040144 Z" id="Path"></path>
                        <path d="M50.0036331,25.6611572 C50.0036331,27.6513057 49.3012383,29.3487598 47.8964276,30.7535705 C46.491617,32.1583812 44.7941628,32.860776 42.8040144,32.860776 C40.8138659,32.860776 39.1164118,32.1583812 37.7116011,30.7535705 C36.3067904,29.3487598 35.6043956,27.6513057 35.6043956,25.6611572 C35.6043956,23.6710088 36.3067904,21.9735546 37.7116011,20.568744 C39.1164118,19.1639333 40.8138659,18.4615385 42.8040144,18.4615385 C44.7941628,18.4615385 46.491617,19.1639333 47.8964276,20.568744 C49.3012383,21.9735546 50.0036331,23.6710088 50.0036331,25.6611572 Z" id="Path"></path>
                        <path d="M50.0036331,7.19961876 C50.0036331,9.18976723 49.3012383,10.8872213 47.8964276,12.292032 C46.491617,13.6968427 44.7941628,14.3992375 42.8040144,14.3992375 C40.8138659,14.3992375 39.1164118,13.6968427 37.7116011,12.292032 C36.3067904,10.8872213 35.6043956,9.18976723 35.6043956,7.19961876 C35.6043956,5.20947029 36.3067904,3.51201618 37.7116011,2.10720549 C39.1164118,0.702394806 40.8138659,3.89911342e-14 42.8040144,0 C44.7941628,3.89911342e-14 46.491617,0.702394806 47.8964276,2.10720549 C49.3012383,3.51201618 50.0036331,5.20947029 50.0036331,7.19961876 Z" id="Path"></path>
                        <path d="M85.6080287,42.8040144 C85.6080287,44.7941628 84.9056339,46.491617 83.5008232,47.8964276 C82.0960126,49.3012383 80.3985584,50.0036331 78.40841,50.0036331 C76.4182615,50.0036331 74.7208074,49.3012383 73.3159967,47.8964276 C71.911186,46.491617 71.2087912,44.7941628 71.2087912,42.8040144 C71.2087912,40.8138659 71.911186,39.1164118 73.3159967,37.7116011 C74.7208074,36.3067904 76.4182615,35.6043956 78.40841,35.6043956 C80.3985584,35.6043956 82.0960126,36.3067904 83.5008232,37.7116011 C84.9056339,39.1164118 85.6080287,40.8138659 85.6080287,42.8040144 Z" id="Path"></path>
                        <path d="M68.4651716,7.19961876 C68.4651716,9.18976723 67.7627768,10.8872213 66.3579661,12.292032 C64.9531554,13.6968427 63.2557013,14.3992375 61.2655528,14.3992375 C59.2754044,14.3992375 57.5779502,13.6968427 56.1731396,12.292032 C54.7683289,10.8872213 54.0659341,9.18976723 54.0659341,7.19961876 C54.0659341,5.20947029 54.7683289,3.51201618 56.1731396,2.10720549 C57.5779502,0.702394806 59.2754044,3.89911342e-14 61.2655528,0 C63.2557013,3.89911342e-14 64.9531554,0.702394806 66.3579661,2.10720549 C67.7627768,3.51201618 68.4651716,5.20947029 68.4651716,7.19961876 Z" id="Path"></path>
                        <path d="M85.6080287,7.19961876 C85.6080287,9.18976723 84.9056339,10.8872213 83.5008232,12.292032 C82.0960126,13.6968427 80.3985584,14.3992375 78.40841,14.3992375 C76.4182615,14.3992375 74.7208074,13.6968427 73.3159967,12.292032 C71.911186,10.8872213 71.2087912,9.18976723 71.2087912,7.19961876 C71.2087912,5.20947029 71.911186,3.51201618 73.3159967,2.10720549 C74.7208074,0.702394806 76.4182615,3.89911342e-14 78.40841,0 C80.3985584,3.89911342e-14 82.0960126,0.702394806 83.5008232,2.10720549 C84.9056339,3.51201618 85.6080287,5.20947029 85.6080287,7.19961876 Z" id="Path"></path>
                        <path d="M104.069567,7.19961876 C104.069567,9.18976723 103.367172,10.8872213 101.962362,12.292032 C100.557551,13.6968427 98.8600969,14.3992375 96.8699484,14.3992375 C94.8798,14.3992375 93.1823458,13.6968427 91.7775352,12.292032 C90.3727245,10.8872213 89.6703297,9.18976723 89.6703297,7.19961876 C89.6703297,5.20947029 90.3727245,3.51201618 91.7775352,2.10720549 C93.1823458,0.702394806 94.8798,3.89911342e-14 96.8699484,0 C98.8600969,3.89911342e-14 100.557551,0.702394806 101.962362,2.10720549 C103.367172,3.51201618 104.069567,5.20947029 104.069567,7.19961876 Z" id="Path"></path>
                    </g>
                    <g id="a" transform="translate(207.100468, 17.781224)">
                        <path d="M31.5420947,78.40841 C31.5420947,80.3985584 30.8396999,82.0960126 29.4348892,83.5008232 C28.0300785,84.9056339 26.3326244,85.6080287 24.3424759,85.6080287 C22.3523274,85.6080287 20.6548733,84.9056339 19.2500626,83.5008232 C17.8452519,82.0960126 17.1428571,80.3985584 17.1428571,78.40841 C17.1428571,76.4182615 17.8452519,74.7208074 19.2500626,73.3159967 C20.6548733,71.911186 22.3523274,71.2087912 24.3424759,71.2087912 C26.3326244,71.2087912 28.0300785,71.911186 29.4348892,73.3159967 C30.8396999,74.7208074 31.5420947,76.4182615 31.5420947,78.40841 Z" id="Path"></path>
                        <path d="M14.3992375,61.2655528 C14.3992375,63.2557013 13.6968427,64.9531554 12.292032,66.3579661 C10.8872213,67.7627768 9.18976723,68.4651716 7.19961876,68.4651716 C5.20947029,68.4651716 3.51201618,67.7627768 2.10720549,66.3579661 C0.702394806,64.9531554 0,63.2557013 0,61.2655528 C0,59.2754044 0.702394806,57.5779502 2.10720549,56.1731396 C3.51201618,54.7683289 5.20947029,54.0659341 7.19961876,54.0659341 C9.18976723,54.0659341 10.8872213,54.7683289 12.292032,56.1731396 C13.6968427,57.5779502 14.3992375,59.2754044 14.3992375,61.2655528 Z" id="Path"></path>
                        <path d="M31.5420947,61.2655528 C31.5420947,63.2557013 30.8396999,64.9531554 29.4348892,66.3579661 C28.0300785,67.7627768 26.3326244,68.4651716 24.3424759,68.4651716 C22.3523274,68.4651716 20.6548733,67.7627768 19.2500626,66.3579661 C17.8452519,64.9531554 17.1428571,63.2557013 17.1428571,61.2655528 C17.1428571,59.2754044 17.8452519,57.5779502 19.2500626,56.1731396 C20.6548733,54.7683289 22.3523274,54.0659341 24.3424759,54.0659341 C26.3326244,54.0659341 28.0300785,54.7683289 29.4348892,56.1731396 C30.8396999,57.5779502 31.5420947,59.2754044 31.5420947,61.2655528 Z" id="Path"></path>
                        <path d="M50.0036331,78.40841 C50.0036331,80.3985584 49.3012383,82.0960126 47.8964276,83.5008232 C46.491617,84.9056339 44.7941628,85.6080287 42.8040144,85.6080287 C40.8138659,85.6080287 39.1164118,84.9056339 37.7116011,83.5008232 C36.3067904,82.0960126 35.6043956,80.3985584 35.6043956,78.40841 C35.6043956,76.4182615 36.3067904,74.7208074 37.7116011,73.3159967 C39.1164118,71.911186 40.8138659,71.2087912 42.8040144,71.2087912 C44.7941628,71.2087912 46.491617,71.911186 47.8964276,73.3159967 C49.3012383,74.7208074 50.0036331,76.4182615 50.0036331,78.40841 Z" id="Path"></path>
                        <path d="M31.5420947,42.8040144 C31.5420947,44.7941628 30.8396999,46.491617 29.4348892,47.8964276 C28.0300785,49.3012383 26.3326244,50.0036331 24.3424759,50.0036331 C22.3523274,50.0036331 20.6548733,49.3012383 19.2500626,47.8964276 C17.8452519,46.491617 17.1428571,44.7941628 17.1428571,42.8040144 C17.1428571,40.8138659 17.8452519,39.1164118 19.2500626,37.7116011 C20.6548733,36.3067904 22.3523274,35.6043956 24.3424759,35.6043956 C26.3326244,35.6043956 28.0300785,36.3067904 29.4348892,37.7116011 C30.8396999,39.1164118 31.5420947,40.8138659 31.5420947,42.8040144 Z" id="Path"></path>
                        <path d="M68.4651716,78.40841 C68.4651716,80.3985584 67.7627768,82.0960126 66.3579661,83.5008232 C64.9531554,84.9056339 63.2557013,85.6080287 61.2655528,85.6080287 C59.2754044,85.6080287 57.5779502,84.9056339 56.1731396,83.5008232 C54.7683289,82.0960126 54.0659341,80.3985584 54.0659341,78.40841 C54.0659341,76.4182615 54.7683289,74.7208074 56.1731396,73.3159967 C57.5779502,71.911186 59.2754044,71.2087912 61.2655528,71.2087912 C63.2557013,71.2087912 64.9531554,71.911186 66.3579661,73.3159967 C67.7627768,74.7208074 68.4651716,76.4182615 68.4651716,78.40841 Z" id="Path"></path>
                        <path d="M85.6080287,78.40841 C85.6080287,80.3985584 84.9056339,82.0960126 83.5008232,83.5008232 C82.0960126,84.9056339 80.3985584,85.6080287 78.40841,85.6080287 C76.4182615,85.6080287 74.7208074,84.9056339 73.3159967,83.5008232 C71.911186,82.0960126 71.2087912,80.3985584 71.2087912,78.40841 C71.2087912,76.4182615 71.911186,74.7208074 73.3159967,73.3159967 C74.7208074,71.911186 76.4182615,71.2087912 78.40841,71.2087912 C80.3985584,71.2087912 82.0960126,71.911186 83.5008232,73.3159967 C84.9056339,74.7208074 85.6080287,76.4182615 85.6080287,78.40841 Z" id="Path"></path>
                        <path d="M50.0036331,42.8040144 C50.0036331,44.7941628 49.3012383,46.491617 47.8964276,47.8964276 C46.491617,49.3012383 44.7941628,50.0036331 42.8040144,50.0036331 C40.8138659,50.0036331 39.1164118,49.3012383 37.7116011,47.8964276 C36.3067904,46.491617 35.6043956,44.7941628 35.6043956,42.8040144 C35.6043956,40.8138659 36.3067904,39.1164118 37.7116011,37.7116011 C39.1164118,36.3067904 40.8138659,35.6043956 42.8040144,35.6043956 C44.7941628,35.6043956 46.491617,36.3067904 47.8964276,37.7116011 C49.3012383,39.1164118 50.0036331,40.8138659 50.0036331,42.8040144 Z" id="Path"></path>
                        <path d="M104.069567,78.40841 C104.069567,80.3985584 103.367172,82.0960126 101.962362,83.5008232 C100.557551,84.9056339 98.8600969,85.6080287 96.8699484,85.6080287 C94.8798,85.6080287 93.1823458,84.9056339 91.7775352,83.5008232 C90.3727245,82.0960126 89.6703297,80.3985584 89.6703297,78.40841 C89.6703297,76.4182615 90.3727245,74.7208074 91.7775352,73.3159967 C93.1823458,71.911186 94.8798,71.2087912 96.8699484,71.2087912 C98.8600969,71.2087912 100.557551,71.911186 101.962362,73.3159967 C103.367172,74.7208074 104.069567,76.4182615 104.069567,78.40841 Z" id="Path"></path>
                        <path d="M31.5420947,7.19961876 C31.5420947,9.18976723 30.8396999,10.8872213 29.4348892,12.292032 C28.0300785,13.6968427 26.3326244,14.3992375 24.3424759,14.3992375 C22.3523274,14.3992375 20.6548733,13.6968427 19.2500626,12.292032 C17.8452519,10.8872213 17.1428571,9.18976723 17.1428571,7.19961876 C17.1428571,5.20947029 17.8452519,3.51201618 19.2500626,2.10720549 C20.6548733,0.702394806 22.3523274,0 24.3424759,0 C26.3326244,0 28.0300785,0.702394806 29.4348892,2.10720549 C30.8396999,3.51201618 31.5420947,5.20947029 31.5420947,7.19961876 Z" id="Path"></path>
                        <path d="M68.4651716,42.8040144 C68.4651716,44.7941628 67.7627768,46.491617 66.3579661,47.8964276 C64.9531554,49.3012383 63.2557013,50.0036331 61.2655528,50.0036331 C59.2754044,50.0036331 57.5779502,49.3012383 56.1731396,47.8964276 C54.7683289,46.491617 54.0659341,44.7941628 54.0659341,42.8040144 C54.0659341,40.8138659 54.7683289,39.1164118 56.1731396,37.7116011 C57.5779502,36.3067904 59.2754044,35.6043956 61.2655528,35.6043956 C63.2557013,35.6043956 64.9531554,36.3067904 66.3579661,37.7116011 C67.7627768,39.1164118 68.4651716,40.8138659 68.4651716,42.8040144 Z" id="Path"></path>
                        <path d="M104.069567,61.2655528 C104.069567,63.2557013 103.367172,64.9531554 101.962362,66.3579661 C100.557551,67.7627768 98.8600969,68.4651716 96.8699484,68.4651716 C94.8798,68.4651716 93.1823458,67.7627768 91.7775352,66.3579661 C90.3727245,64.9531554 89.6703297,63.2557013 89.6703297,61.2655528 C89.6703297,59.2754044 90.3727245,57.5779502 91.7775352,56.1731396 C93.1823458,54.7683289 94.8798,54.0659341 96.8699484,54.0659341 C98.8600969,54.0659341 100.557551,54.7683289 101.962362,56.1731396 C103.367172,57.5779502 104.069567,59.2754044 104.069567,61.2655528 Z" id="Path"></path>
                        <path d="M85.6080287,42.8040144 C85.6080287,44.7941628 84.9056339,46.491617 83.5008232,47.8964276 C82.0960126,49.3012383 80.3985584,50.0036331 78.40841,50.0036331 C76.4182615,50.0036331 74.7208074,49.3012383 73.3159967,47.8964276 C71.911186,46.491617 71.2087912,44.7941628 71.2087912,42.8040144 C71.2087912,40.8138659 71.911186,39.1164118 73.3159967,37.7116011 C74.7208074,36.3067904 76.4182615,35.6043956 78.40841,35.6043956 C80.3985584,35.6043956 82.0960126,36.3067904 83.5008232,37.7116011 C84.9056339,39.1164118 85.6080287,40.8138659 85.6080287,42.8040144 Z" id="Path"></path>
                        <path d="M50.0036331,7.19961876 C50.0036331,9.18976723 49.3012383,10.8872213 47.8964276,12.292032 C46.491617,13.6968427 44.7941628,14.3992375 42.8040144,14.3992375 C40.8138659,14.3992375 39.1164118,13.6968427 37.7116011,12.292032 C36.3067904,10.8872213 35.6043956,9.18976723 35.6043956,7.19961876 C35.6043956,5.20947029 36.3067904,3.51201618 37.7116011,2.10720549 C39.1164118,0.702394806 40.8138659,0 42.8040144,0 C44.7941628,0 46.491617,0.702394806 47.8964276,2.10720549 C49.3012383,3.51201618 50.0036331,5.20947029 50.0036331,7.19961876 Z" id="Path"></path>
                        <path d="M104.069567,42.8040144 C104.069567,44.7941628 103.367172,46.491617 101.962362,47.8964276 C100.557551,49.3012383 98.8600969,50.0036331 96.8699484,50.0036331 C94.8798,50.0036331 93.1823458,49.3012383 91.7775352,47.8964276 C90.3727245,46.491617 89.6703297,44.7941628 89.6703297,42.8040144 C89.6703297,40.8138659 90.3727245,39.1164118 91.7775352,37.7116011 C93.1823458,36.3067904 94.8798,35.6043956 96.8699484,35.6043956 C98.8600969,35.6043956 100.557551,36.3067904 101.962362,37.7116011 C103.367172,39.1164118 104.069567,40.8138659 104.069567,42.8040144 Z" id="Path"></path>
                        <path d="M121.212424,61.2655528 C121.212424,63.2557013 120.51003,64.9531554 119.105219,66.3579661 C117.700408,67.7627768 116.002954,68.4651716 114.012806,68.4651716 C112.022657,68.4651716 110.325203,67.7627768 108.920392,66.3579661 C107.515582,64.9531554 106.813187,63.2557013 106.813187,61.2655528 C106.813187,59.2754044 107.515582,57.5779502 108.920392,56.1731396 C110.325203,54.7683289 112.022657,54.0659341 114.012806,54.0659341 C116.002954,54.0659341 117.700408,54.7683289 119.105219,56.1731396 C120.51003,57.5779502 121.212424,59.2754044 121.212424,61.2655528 Z" id="Path"></path>
                        <path d="M68.4651716,7.19961876 C68.4651716,9.18976723 67.7627768,10.8872213 66.3579661,12.292032 C64.9531554,13.6968427 63.2557013,14.3992375 61.2655528,14.3992375 C59.2754044,14.3992375 57.5779502,13.6968427 56.1731396,12.292032 C54.7683289,10.8872213 54.0659341,9.18976723 54.0659341,7.19961876 C54.0659341,5.20947029 54.7683289,3.51201618 56.1731396,2.10720549 C57.5779502,0.702394806 59.2754044,0 61.2655528,0 C63.2557013,0 64.9531554,0.702394806 66.3579661,2.10720549 C67.7627768,3.51201618 68.4651716,5.20947029 68.4651716,7.19961876 Z" id="Path"></path>
                        <path d="M104.069567,25.6611572 C104.069567,27.6513057 103.367172,29.3487598 101.962362,30.7535705 C100.557551,32.1583812 98.8600969,32.860776 96.8699484,32.860776 C94.8798,32.860776 93.1823458,32.1583812 91.7775352,30.7535705 C90.3727245,29.3487598 89.6703297,27.6513057 89.6703297,25.6611572 C89.6703297,23.6710088 90.3727245,21.9735546 91.7775352,20.568744 C93.1823458,19.1639333 94.8798,18.4615385 96.8699484,18.4615385 C98.8600969,18.4615385 100.557551,19.1639333 101.962362,20.568744 C103.367172,21.9735546 104.069567,23.6710088 104.069567,25.6611572 Z" id="Path"></path>
                        <path d="M121.212424,42.8040144 C121.212424,44.7941628 120.51003,46.491617 119.105219,47.8964276 C117.700408,49.3012383 116.002954,50.0036331 114.012806,50.0036331 C112.022657,50.0036331 110.325203,49.3012383 108.920392,47.8964276 C107.515582,46.491617 106.813187,44.7941628 106.813187,42.8040144 C106.813187,40.8138659 107.515582,39.1164118 108.920392,37.7116011 C110.325203,36.3067904 112.022657,35.6043956 114.012806,35.6043956 C116.002954,35.6043956 117.700408,36.3067904 119.105219,37.7116011 C120.51003,39.1164118 121.212424,40.8138659 121.212424,42.8040144 Z" id="Path"></path>
                        <path d="M85.6080287,7.19961876 C85.6080287,9.18976723 84.9056339,10.8872213 83.5008232,12.292032 C82.0960126,13.6968427 80.3985584,14.3992375 78.40841,14.3992375 C76.4182615,14.3992375 74.7208074,13.6968427 73.3159967,12.292032 C71.911186,10.8872213 71.2087912,9.18976723 71.2087912,7.19961876 C71.2087912,5.20947029 71.911186,3.51201618 73.3159967,2.10720549 C74.7208074,0.702394806 76.4182615,0 78.40841,0 C80.3985584,0 82.0960126,0.702394806 83.5008232,2.10720549 C84.9056339,3.51201618 85.6080287,5.20947029 85.6080287,7.19961876 Z" id="Path"></path>
                        <path d="M104.069567,7.19961876 C104.069567,9.18976723 103.367172,10.8872213 101.962362,12.292032 C100.557551,13.6968427 98.8600969,14.3992375 96.8699484,14.3992375 C94.8798,14.3992375 93.1823458,13.6968427 91.7775352,12.292032 C90.3727245,10.8872213 89.6703297,9.18976723 89.6703297,7.19961876 C89.6703297,5.20947029 90.3727245,3.51201618 91.7775352,2.10720549 C93.1823458,0.702394806 94.8798,0 96.8699484,0 C98.8600969,0 100.557551,0.702394806 101.962362,2.10720549 C103.367172,3.51201618 104.069567,5.20947029 104.069567,7.19961876 Z" id="Path"></path>
                        <path d="M121.212424,25.6611572 C121.212424,27.6513057 120.51003,29.3487598 119.105219,30.7535705 C117.700408,32.1583812 116.002954,32.860776 114.012806,32.860776 C112.022657,32.860776 110.325203,32.1583812 108.920392,30.7535705 C107.515582,29.3487598 106.813187,27.6513057 106.813187,25.6611572 C106.813187,23.6710088 107.515582,21.9735546 108.920392,20.568744 C110.325203,19.1639333 112.022657,18.4615385 114.012806,18.4615385 C116.002954,18.4615385 117.700408,19.1639333 119.105219,20.568744 C120.51003,21.9735546 121.212424,23.6710088 121.212424,25.6611572 Z" id="Path"></path>
                    </g>
                    <g id="r" transform="translate(122.043996, 17.781224)">
                        <path d="M14.3992375,78.40841 C14.3992375,80.3985584 13.6968427,82.0960126 12.292032,83.5008232 C10.8872213,84.9056339 9.18976723,85.6080287 7.19961876,85.6080287 C5.20947029,85.6080287 3.51201618,84.9056339 2.10720549,83.5008232 C0.702394806,82.0960126 0,80.3985584 0,78.40841 C0,76.4182615 0.702394806,74.7208074 2.10720549,73.3159967 C3.51201618,71.911186 5.20947029,71.2087912 7.19961876,71.2087912 C9.18976723,71.2087912 10.8872213,71.911186 12.292032,73.3159967 C13.6968427,74.7208074 14.3992375,76.4182615 14.3992375,78.40841 Z" id="Path"></path>
                        <path d="M14.3992375,61.2655528 C14.3992375,63.2557013 13.6968427,64.9531554 12.292032,66.3579661 C10.8872213,67.7627768 9.18976723,68.4651716 7.19961876,68.4651716 C5.20947029,68.4651716 3.51201618,67.7627768 2.10720549,66.3579661 C0.702394806,64.9531554 0,63.2557013 0,61.2655528 C0,59.2754044 0.702394806,57.5779502 2.10720549,56.1731396 C3.51201618,54.7683289 5.20947029,54.0659341 7.19961876,54.0659341 C9.18976723,54.0659341 10.8872213,54.7683289 12.292032,56.1731396 C13.6968427,57.5779502 14.3992375,59.2754044 14.3992375,61.2655528 Z" id="Path"></path>
                        <path d="M32.860776,78.40841 C32.860776,80.3985584 32.1583812,82.0960126 30.7535705,83.5008232 C29.3487598,84.9056339 27.6513057,85.6080287 25.6611572,85.6080287 C23.6710088,85.6080287 21.9735546,84.9056339 20.568744,83.5008232 C19.1639333,82.0960126 18.4615385,80.3985584 18.4615385,78.40841 C18.4615385,76.4182615 19.1639333,74.7208074 20.568744,73.3159967 C21.9735546,71.911186 23.6710088,71.2087912 25.6611572,71.2087912 C27.6513057,71.2087912 29.3487598,71.911186 30.7535705,73.3159967 C32.1583812,74.7208074 32.860776,76.4182615 32.860776,78.40841 Z" id="Path"></path>
                        <path d="M14.3992375,42.8040144 C14.3992375,44.7941628 13.6968427,46.491617 12.292032,47.8964276 C10.8872213,49.3012383 9.18976723,50.0036331 7.19961876,50.0036331 C5.20947029,50.0036331 3.51201618,49.3012383 2.10720549,47.8964276 C0.702394806,46.491617 0,44.7941628 0,42.8040144 C0,40.8138659 0.702394806,39.1164118 2.10720549,37.7116011 C3.51201618,36.3067904 5.20947029,35.6043956 7.19961876,35.6043956 C9.18976723,35.6043956 10.8872213,36.3067904 12.292032,37.7116011 C13.6968427,39.1164118 14.3992375,40.8138659 14.3992375,42.8040144 Z" id="Path"></path>
                        <path d="M32.860776,61.2655528 C32.860776,63.2557013 32.1583812,64.9531554 30.7535705,66.3579661 C29.3487598,67.7627768 27.6513057,68.4651716 25.6611572,68.4651716 C23.6710088,68.4651716 21.9735546,67.7627768 20.568744,66.3579661 C19.1639333,64.9531554 18.4615385,63.2557013 18.4615385,61.2655528 C18.4615385,59.2754044 19.1639333,57.5779502 20.568744,56.1731396 C21.9735546,54.7683289 23.6710088,54.0659341 25.6611572,54.0659341 C27.6513057,54.0659341 29.3487598,54.7683289 30.7535705,56.1731396 C32.1583812,57.5779502 32.860776,59.2754044 32.860776,61.2655528 Z" id="Path"></path>
                        <path d="M14.3992375,25.6611572 C14.3992375,27.6513057 13.6968427,29.3487598 12.292032,30.7535705 C10.8872213,32.1583812 9.18976723,32.860776 7.19961876,32.860776 C5.20947029,32.860776 3.51201618,32.1583812 2.10720549,30.7535705 C0.702394806,29.3487598 0,27.6513057 0,25.6611572 C0,23.6710088 0.702394806,21.9735546 2.10720549,20.568744 C3.51201618,19.1639333 5.20947029,18.4615385 7.19961876,18.4615385 C9.18976723,18.4615385 10.8872213,19.1639333 12.292032,20.568744 C13.6968427,21.9735546 14.3992375,23.6710088 14.3992375,25.6611572 Z" id="Path"></path>
                        <path d="M32.860776,42.8040144 C32.860776,44.7941628 32.1583812,46.491617 30.7535705,47.8964276 C29.3487598,49.3012383 27.6513057,50.0036331 25.6611572,50.0036331 C23.6710088,50.0036331 21.9735546,49.3012383 20.568744,47.8964276 C19.1639333,46.491617 18.4615385,44.7941628 18.4615385,42.8040144 C18.4615385,40.8138659 19.1639333,39.1164118 20.568744,37.7116011 C21.9735546,36.3067904 23.6710088,35.6043956 25.6611572,35.6043956 C27.6513057,35.6043956 29.3487598,36.3067904 30.7535705,37.7116011 C32.1583812,39.1164118 32.860776,40.8138659 32.860776,42.8040144 Z" id="Path"></path>
                        <path d="M32.860776,25.6611572 C32.860776,27.6513057 32.1583812,29.3487598 30.7535705,30.7535705 C29.3487598,32.1583812 27.6513057,32.860776 25.6611572,32.860776 C23.6710088,32.860776 21.9735546,32.1583812 20.568744,30.7535705 C19.1639333,29.3487598 18.4615385,27.6513057 18.4615385,25.6611572 C18.4615385,23.6710088 19.1639333,21.9735546 20.568744,20.568744 C21.9735546,19.1639333 23.6710088,18.4615385 25.6611572,18.4615385 C27.6513057,18.4615385 29.3487598,19.1639333 30.7535705,20.568744 C32.1583812,21.9735546 32.860776,23.6710088 32.860776,25.6611572 Z" id="Path"></path>
                        <path d="M32.860776,7.19961876 C32.860776,9.18976723 32.1583812,10.8872213 30.7535705,12.292032 C29.3487598,13.6968427 27.6513057,14.3992375 25.6611572,14.3992375 C23.6710088,14.3992375 21.9735546,13.6968427 20.568744,12.292032 C19.1639333,10.8872213 18.4615385,9.18976723 18.4615385,7.19961876 C18.4615385,5.20947029 19.1639333,3.51201618 20.568744,2.10720549 C21.9735546,0.702394806 23.6710088,0 25.6611572,0 C27.6513057,0 29.3487598,0.702394806 30.7535705,2.10720549 C32.1583812,3.51201618 32.860776,5.20947029 32.860776,7.19961876 Z" id="Path"></path>
                        <path d="M50.0036331,7.19961876 C50.0036331,9.18976723 49.3012383,10.8872213 47.8964276,12.292032 C46.491617,13.6968427 44.7941628,14.3992375 42.8040144,14.3992375 C40.8138659,14.3992375 39.1164118,13.6968427 37.7116011,12.292032 C36.3067904,10.8872213 35.6043956,9.18976723 35.6043956,7.19961876 C35.6043956,5.20947029 36.3067904,3.51201618 37.7116011,2.10720549 C39.1164118,0.702394806 40.8138659,0 42.8040144,0 C44.7941628,0 46.491617,0.702394806 47.8964276,2.10720549 C49.3012383,3.51201618 50.0036331,5.20947029 50.0036331,7.19961876 Z" id="Path"></path>
                        <path d="M68.4651716,7.19961876 C68.4651716,9.18976723 67.7627768,10.8872213 66.3579661,12.292032 C64.9531554,13.6968427 63.2557013,14.3992375 61.2655528,14.3992375 C59.2754044,14.3992375 57.5779502,13.6968427 56.1731396,12.292032 C54.7683289,10.8872213 54.0659341,9.18976723 54.0659341,7.19961876 C54.0659341,5.20947029 54.7683289,3.51201618 56.1731396,2.10720549 C57.5779502,0.702394806 59.2754044,0 61.2655528,0 C63.2557013,0 64.9531554,0.702394806 66.3579661,2.10720549 C67.7627768,3.51201618 68.4651716,5.20947029 68.4651716,7.19961876 Z" id="Path"></path>
                        <path d="M85.6080287,7.19961876 C85.6080287,9.18976723 84.9056339,10.8872213 83.5008232,12.292032 C82.0960126,13.6968427 80.3985584,14.3992375 78.40841,14.3992375 C76.4182615,14.3992375 74.7208074,13.6968427 73.3159967,12.292032 C71.911186,10.8872213 71.2087912,9.18976723 71.2087912,7.19961876 C71.2087912,5.20947029 71.911186,3.51201618 73.3159967,2.10720549 C74.7208074,0.702394806 76.4182615,0 78.40841,0 C80.3985584,0 82.0960126,0.702394806 83.5008232,2.10720549 C84.9056339,3.51201618 85.6080287,5.20947029 85.6080287,7.19961876 Z" id="Path"></path>
                    </g>
                    <g id="c" transform="translate(0.000000, 17.781224)">
                        <path d="M32.860776,78.40841 C32.860776,80.3985584 32.1583812,82.0960126 30.7535705,83.5008232 C29.3487598,84.9056339 27.6513057,85.6080287 25.6611572,85.6080287 C23.6710088,85.6080287 21.9735546,84.9056339 20.568744,83.5008232 C19.1639333,82.0960126 18.4615385,80.3985584 18.4615385,78.40841 C18.4615385,76.4182615 19.1639333,74.7208074 20.568744,73.3159967 C21.9735546,71.911186 23.6710088,71.2087912 25.6611572,71.2087912 C27.6513057,71.2087912 29.3487598,71.911186 30.7535705,73.3159967 C32.1583812,74.7208074 32.860776,76.4182615 32.860776,78.40841 Z" id="Path"></path>
                        <path d="M14.3992375,61.2655528 C14.3992375,63.2557013 13.6968427,64.9531554 12.292032,66.3579661 C10.8872213,67.7627768 9.18976723,68.4651716 7.19961876,68.4651716 C5.20947029,68.4651716 3.51201618,67.7627768 2.10720549,66.3579661 C0.702394806,64.9531554 0,63.2557013 0,61.2655528 C0,59.2754044 0.702394806,57.5779502 2.10720549,56.1731396 C3.51201618,54.7683289 5.20947029,54.0659341 7.19961876,54.0659341 C9.18976723,54.0659341 10.8872213,54.7683289 12.292032,56.1731396 C13.6968427,57.5779502 14.3992375,59.2754044 14.3992375,61.2655528 Z" id="Path"></path>
                        <path d="M32.860776,61.2655528 C32.860776,63.2557013 32.1583812,64.9531554 30.7535705,66.3579661 C29.3487598,67.7627768 27.6513057,68.4651716 25.6611572,68.4651716 C23.6710088,68.4651716 21.9735546,67.7627768 20.568744,66.3579661 C19.1639333,64.9531554 18.4615385,63.2557013 18.4615385,61.2655528 C18.4615385,59.2754044 19.1639333,57.5779502 20.568744,56.1731396 C21.9735546,54.7683289 23.6710088,54.0659341 25.6611572,54.0659341 C27.6513057,54.0659341 29.3487598,54.7683289 30.7535705,56.1731396 C32.1583812,57.5779502 32.860776,59.2754044 32.860776,61.2655528 Z" id="Path"></path>
                        <path d="M50.0036331,78.40841 C50.0036331,80.3985584 49.3012383,82.0960126 47.8964276,83.5008232 C46.491617,84.9056339 44.7941628,85.6080287 42.8040144,85.6080287 C40.8138659,85.6080287 39.1164118,84.9056339 37.7116011,83.5008232 C36.3067904,82.0960126 35.6043956,80.3985584 35.6043956,78.40841 C35.6043956,76.4182615 36.3067904,74.7208074 37.7116011,73.3159967 C39.1164118,71.911186 40.8138659,71.2087912 42.8040144,71.2087912 C44.7941628,71.2087912 46.491617,71.911186 47.8964276,73.3159967 C49.3012383,74.7208074 50.0036331,76.4182615 50.0036331,78.40841 Z" id="Path"></path>
                        <path d="M14.3992375,42.8040144 C14.3992375,44.7941628 13.6968427,46.491617 12.292032,47.8964276 C10.8872213,49.3012383 9.18976723,50.0036331 7.19961876,50.0036331 C5.20947029,50.0036331 3.51201618,49.3012383 2.10720549,47.8964276 C0.702394806,46.491617 0,44.7941628 0,42.8040144 C0,40.8138659 0.702394806,39.1164118 2.10720549,37.7116011 C3.51201618,36.3067904 5.20947029,35.6043956 7.19961876,35.6043956 C9.18976723,35.6043956 10.8872213,36.3067904 12.292032,37.7116011 C13.6968427,39.1164118 14.3992375,40.8138659 14.3992375,42.8040144 Z" id="Path"></path>
                        <path d="M32.860776,42.8040144 C32.860776,44.7941628 32.1583812,46.491617 30.7535705,47.8964276 C29.3487598,49.3012383 27.6513057,50.0036331 25.6611572,50.0036331 C23.6710088,50.0036331 21.9735546,49.3012383 20.568744,47.8964276 C19.1639333,46.491617 18.4615385,44.7941628 18.4615385,42.8040144 C18.4615385,40.8138659 19.1639333,39.1164118 20.568744,37.7116011 C21.9735546,36.3067904 23.6710088,35.6043956 25.6611572,35.6043956 C27.6513057,35.6043956 29.3487598,36.3067904 30.7535705,37.7116011 C32.1583812,39.1164118 32.860776,40.8138659 32.860776,42.8040144 Z" id="Path"></path>
                        <path d="M68.4651716,78.40841 C68.4651716,80.3985584 67.7627768,82.0960126 66.3579661,83.5008232 C64.9531554,84.9056339 63.2557013,85.6080287 61.2655528,85.6080287 C59.2754044,85.6080287 57.5779502,84.9056339 56.1731396,83.5008232 C54.7683289,82.0960126 54.0659341,80.3985584 54.0659341,78.40841 C54.0659341,76.4182615 54.7683289,74.7208074 56.1731396,73.3159967 C57.5779502,71.911186 59.2754044,71.2087912 61.2655528,71.2087912 C63.2557013,71.2087912 64.9531554,71.911186 66.3579661,73.3159967 C67.7627768,74.7208074 68.4651716,76.4182615 68.4651716,78.40841 Z" id="Path"></path>
                        <path d="M14.3992375,25.6611572 C14.3992375,27.6513057 13.6968427,29.3487598 12.292032,30.7535705 C10.8872213,32.1583812 9.18976723,32.860776 7.19961876,32.860776 C5.20947029,32.860776 3.51201618,32.1583812 2.10720549,30.7535705 C0.702394806,29.3487598 0,27.6513057 0,25.6611572 C0,23.6710088 0.702394806,21.9735546 2.10720549,20.568744 C3.51201618,19.1639333 5.20947029,18.4615385 7.19961876,18.4615385 C9.18976723,18.4615385 10.8872213,19.1639333 12.292032,20.568744 C13.6968427,21.9735546 14.3992375,23.6710088 14.3992375,25.6611572 Z" id="Path"></path>
                        <path d="M32.860776,25.6611572 C32.860776,27.6513057 32.1583812,29.3487598 30.7535705,30.7535705 C29.3487598,32.1583812 27.6513057,32.860776 25.6611572,32.860776 C23.6710088,32.860776 21.9735546,32.1583812 20.568744,30.7535705 C19.1639333,29.3487598 18.4615385,27.6513057 18.4615385,25.6611572 C18.4615385,23.6710088 19.1639333,21.9735546 20.568744,20.568744 C21.9735546,19.1639333 23.6710088,18.4615385 25.6611572,18.4615385 C27.6513057,18.4615385 29.3487598,19.1639333 30.7535705,20.568744 C32.1583812,21.9735546 32.860776,23.6710088 32.860776,25.6611572 Z" id="Path"></path>
                        <path d="M86.9267101,78.40841 C86.9267101,80.3985584 86.2243152,82.0960126 84.8195046,83.5008232 C83.4146939,84.9056339 81.7172398,85.6080287 79.7270913,85.6080287 C77.7369428,85.6080287 76.0394887,84.9056339 74.634678,83.5008232 C73.2298673,82.0960126 72.5274725,80.3985584 72.5274725,78.40841 C72.5274725,76.4182615 73.2298673,74.7208074 74.634678,73.3159967 C76.0394887,71.911186 77.7369428,71.2087912 79.7270913,71.2087912 C81.7172398,71.2087912 83.4146939,71.911186 84.8195046,73.3159967 C86.2243152,74.7208074 86.9267101,76.4182615 86.9267101,78.40841 Z" id="Path"></path>
                        <path d="M104.069567,78.40841 C104.069567,80.3985584 103.367172,82.0960126 101.962362,83.5008232 C100.557551,84.9056339 98.8600969,85.6080287 96.8699484,85.6080287 C94.8798,85.6080287 93.1823458,84.9056339 91.7775352,83.5008232 C90.3727245,82.0960126 89.6703297,80.3985584 89.6703297,78.40841 C89.6703297,76.4182615 90.3727245,74.7208074 91.7775352,73.3159967 C93.1823458,71.911186 94.8798,71.2087912 96.8699484,71.2087912 C98.8600969,71.2087912 100.557551,71.911186 101.962362,73.3159967 C103.367172,74.7208074 104.069567,76.4182615 104.069567,78.40841 Z" id="Path"></path>
                        <path d="M32.860776,7.19961876 C32.860776,9.18976723 32.1583812,10.8872213 30.7535705,12.292032 C29.3487598,13.6968427 27.6513057,14.3992375 25.6611572,14.3992375 C23.6710088,14.3992375 21.9735546,13.6968427 20.568744,12.292032 C19.1639333,10.8872213 18.4615385,9.18976723 18.4615385,7.19961876 C18.4615385,5.20947029 19.1639333,3.51201618 20.568744,2.10720549 C21.9735546,0.702394806 23.6710088,0 25.6611572,0 C27.6513057,0 29.3487598,0.702394806 30.7535705,2.10720549 C32.1583812,3.51201618 32.860776,5.20947029 32.860776,7.19961876 Z" id="Path"></path>
                        <path d="M50.0036331,7.19961876 C50.0036331,9.18976723 49.3012383,10.8872213 47.8964276,12.292032 C46.491617,13.6968427 44.7941628,14.3992375 42.8040144,14.3992375 C40.8138659,14.3992375 39.1164118,13.6968427 37.7116011,12.292032 C36.3067904,10.8872213 35.6043956,9.18976723 35.6043956,7.19961876 C35.6043956,5.20947029 36.3067904,3.51201618 37.7116011,2.10720549 C39.1164118,0.702394806 40.8138659,0 42.8040144,0 C44.7941628,0 46.491617,0.702394806 47.8964276,2.10720549 C49.3012383,3.51201618 50.0036331,5.20947029 50.0036331,7.19961876 Z" id="Path"></path>
                        <path d="M68.4651716,7.19961876 C68.4651716,9.18976723 67.7627768,10.8872213 66.3579661,12.292032 C64.9531554,13.6968427 63.2557013,14.3992375 61.2655528,14.3992375 C59.2754044,14.3992375 57.5779502,13.6968427 56.1731396,12.292032 C54.7683289,10.8872213 54.0659341,9.18976723 54.0659341,7.19961876 C54.0659341,5.20947029 54.7683289,3.51201618 56.1731396,2.10720549 C57.5779502,0.702394806 59.2754044,0 61.2655528,0 C63.2557013,0 64.9531554,0.702394806 66.3579661,2.10720549 C67.7627768,3.51201618 68.4651716,5.20947029 68.4651716,7.19961876 Z" id="Path"></path>
                        <path d="M86.9267101,7.19961876 C86.9267101,9.18976723 86.2243152,10.8872213 84.8195046,12.292032 C83.4146939,13.6968427 81.7172398,14.3992375 79.7270913,14.3992375 C77.7369428,14.3992375 76.0394887,13.6968427 74.634678,12.292032 C73.2298673,10.8872213 72.5274725,9.18976723 72.5274725,7.19961876 C72.5274725,5.20947029 73.2298673,3.51201618 74.634678,2.10720549 C76.0394887,0.702394806 77.7369428,0 79.7270913,0 C81.7172398,0 83.4146939,0.702394806 84.8195046,2.10720549 C86.2243152,3.51201618 86.9267101,5.20947029 86.9267101,7.19961876 Z" id="Path"></path>
                        <path d="M104.069567,7.19961876 C104.069567,9.18976723 103.367172,10.8872213 101.962362,12.292032 C100.557551,13.6968427 98.8600969,14.3992375 96.8699484,14.3992375 C94.8798,14.3992375 93.1823458,13.6968427 91.7775352,12.292032 C90.3727245,10.8872213 89.6703297,9.18976723 89.6703297,7.19961876 C89.6703297,5.20947029 90.3727245,3.51201618 91.7775352,2.10720549 C93.1823458,0.702394806 94.8798,0 96.8699484,0 C98.8600969,0 100.557551,0.702394806 101.962362,2.10720549 C103.367172,3.51201618 104.069567,5.20947029 104.069567,7.19961876 Z" id="Path"></path>
                    </g>
                </g>
                <path d="M142.165813,183.288156 L1.58115279e-14,284.835165 L0,0 L142.417582,101.726845 L284.835165,0 L284.835165,81.3814757 L199.384615,142.417582 L284.835165,203.453689 L284.835165,284.835165 L142.165813,183.288156 Z M46.1538462,104.175824 L46.1538462,181.978022 L100.21978,142.417582 L46.1538462,104.175824 Z" id="Mark" fill="#00966C"></path>
            </g>
        </g>
    </g>
</svg>