<?xml version="1.0" encoding="UTF-8" standalone="no"?>
<svg width="768px" height="256px" viewBox="0 0 768 256" version="1.1" xmlns="http://www.w3.org/2000/svg" xmlns:xlink="http://www.w3.org/1999/xlink">
    <!-- Generator: Sketch 42 (36781) - http://www.bohemiancoding.com/sketch -->
    <title>Craft X Logo Light</title>
    <desc>Created with Sketch.</desc>
    <defs></defs>
    <g id="Page-1" stroke="none" stroke-width="1" fill="none" fill-rule="evenodd">
        <g id="Craft-X-Logo-Light">
            <g id="Type" transform="translate(308.000000, 95.000000)" fill="#666768">
                <g id="x" transform="translate(342.896477, 9.987276)">
                    <path d="M9.65436683,48.7112743 C9.65436683,49.918631 9.22824731,50.9484198 8.37599549,51.8006717 C7.52374368,52.6529235 6.49395485,53.079043 5.28659811,53.079043 C4.07924137,53.079043 3.04945254,52.6529235 2.19720073,51.8006717 C1.34494891,50.9484198 0.918829394,49.918631 0.918829394,48.7112743 C0.918829394,47.5039175 1.34494891,46.4741287 2.19720073,45.6218769 C3.04945254,44.7696251 4.07924137,44.3435056 5.28659811,44.3435056 C6.49395485,44.3435056 7.52374368,44.7696251 8.37599549,45.6218769 C9.22824731,46.4741287 9.65436683,47.5039175 9.65436683,48.7112743 Z" id="Path"></path>
                    <path d="M20.5205231,48.7112743 C20.5205231,49.918631 20.0944036,50.9484198 19.2421518,51.8006717 C18.3899,52.6529235 17.3601112,53.079043 16.1527544,53.079043 C14.9453977,53.079043 13.9156089,52.6529235 13.063357,51.8006717 C12.2111052,50.9484198 11.7849857,49.918631 11.7849857,48.7112743 C11.7849857,47.5039175 12.2111052,46.4741287 13.063357,45.6218769 C13.9156089,44.7696251 14.9453977,44.3435056 16.1527544,44.3435056 C17.3601112,44.3435056 18.3899,44.7696251 19.2421518,45.6218769 C20.0944036,46.4741287 20.5205231,47.5039175 20.5205231,48.7112743 Z" id="Path"></path>
                    <path d="M20.5205231,37.845118 C20.5205231,39.0524747 20.0944036,40.0822635 19.2421518,40.9345153 C18.3899,41.7867672 17.3601112,42.2128867 16.1527544,42.2128867 C14.9453977,42.2128867 13.9156089,41.7867672 13.063357,40.9345153 C12.2111052,40.0822635 11.7849857,39.0524747 11.7849857,37.845118 C11.7849857,36.6377612 12.2111052,35.6079724 13.063357,34.7557206 C13.9156089,33.9034688 14.9453977,33.4773492 16.1527544,33.4773492 C17.3601112,33.4773492 18.3899,33.9034688 19.2421518,34.7557206 C20.0944036,35.6079724 20.5205231,36.6377612 20.5205231,37.845118 Z" id="Path"></path>
                    <path d="M31.3866795,37.845118 C31.3866795,39.0524747 30.9605599,40.0822635 30.1083081,40.9345153 C29.2560563,41.7867672 28.2262675,42.2128867 27.0189107,42.2128867 C25.811554,42.2128867 24.7817652,41.7867672 23.9295134,40.9345153 C23.0772615,40.0822635 22.651142,39.0524747 22.651142,37.845118 C22.651142,36.6377612 23.0772615,35.6079724 23.9295134,34.7557206 C24.7817652,33.9034688 25.811554,33.4773492 27.0189107,33.4773492 C28.2262675,33.4773492 29.2560563,33.9034688 30.1083081,34.7557206 C30.9605599,35.6079724 31.3866795,36.6377612 31.3866795,37.845118 Z" id="Path"></path>
                    <path d="M20.5205231,16.1128053 C20.5205231,17.3201621 20.0944036,18.3499509 19.2421518,19.2022027 C18.3899,20.0544545 17.3601112,20.480574 16.1527544,20.480574 C14.9453977,20.480574 13.9156089,20.0544545 13.063357,19.2022027 C12.2111052,18.3499509 11.7849857,17.3201621 11.7849857,16.1128053 C11.7849857,14.9054486 12.2111052,13.8756598 13.063357,13.0234079 C13.9156089,12.1711561 14.9453977,11.7450366 16.1527544,11.7450366 C17.3601112,11.7450366 18.3899,12.1711561 19.2421518,13.0234079 C20.0944036,13.8756598 20.5205231,14.9054486 20.5205231,16.1128053 Z" id="Path"></path>
                    <path d="M31.3866795,26.9789616 C31.3866795,28.1863184 30.9605599,29.2161072 30.1083081,30.068359 C29.2560563,30.9206108 28.2262675,31.3467304 27.0189107,31.3467304 C25.811554,31.3467304 24.7817652,30.9206108 23.9295134,30.068359 C23.0772615,29.2161072 22.651142,28.1863184 22.651142,26.9789616 C22.651142,25.7716049 23.0772615,24.7418161 23.9295134,23.8895643 C24.7817652,23.0373124 25.811554,22.6111929 27.0189107,22.6111929 C28.2262675,22.6111929 29.2560563,23.0373124 30.1083081,23.8895643 C30.9605599,24.7418161 31.3866795,25.7716049 31.3866795,26.9789616 Z" id="Path"></path>
                    <path d="M9.65436683,5.24664901 C9.65436683,6.45400574 9.22824731,7.48379457 8.37599549,8.33604639 C7.52374368,9.18829821 6.49395485,9.61441772 5.28659811,9.61441772 C4.07924137,9.61441772 3.04945254,9.18829821 2.19720073,8.33604639 C1.34494891,7.48379457 0.918829394,6.45400574 0.918829394,5.24664901 C0.918829394,4.03929227 1.34494891,3.00950344 2.19720073,2.15725162 C3.04945254,1.30499981 4.07924137,0.87888029 5.28659811,0.87888029 C6.49395485,0.87888029 7.52374368,1.30499981 8.37599549,2.15725162 C9.22824731,3.00950344 9.65436683,4.03929227 9.65436683,5.24664901 Z" id="Path"></path>
                    <path d="M63.9851484,48.7112743 C63.9851484,49.918631 63.5590289,50.9484198 62.7067771,51.8006717 C61.8545253,52.6529235 60.8247364,53.079043 59.6173797,53.079043 C58.410023,53.079043 57.3802341,52.6529235 56.5279823,51.8006717 C55.6757305,50.9484198 55.249611,49.918631 55.249611,48.7112743 C55.249611,47.5039175 55.6757305,46.4741287 56.5279823,45.6218769 C57.3802341,44.7696251 58.410023,44.3435056 59.6173797,44.3435056 C60.8247364,44.3435056 61.8545253,44.7696251 62.7067771,45.6218769 C63.5590289,46.4741287 63.9851484,47.5039175 63.9851484,48.7112743 Z" id="Path"></path>
                    <path d="M20.5205231,5.24664901 C20.5205231,6.45400574 20.0944036,7.48379457 19.2421518,8.33604639 C18.3899,9.18829821 17.3601112,9.61441772 16.1527544,9.61441772 C14.9453977,9.61441772 13.9156089,9.18829821 13.063357,8.33604639 C12.2111052,7.48379457 11.7849857,6.45400574 11.7849857,5.24664901 C11.7849857,4.03929227 12.2111052,3.00950344 13.063357,2.15725162 C13.9156089,1.30499981 14.9453977,0.87888029 16.1527544,0.87888029 C17.3601112,0.87888029 18.3899,1.30499981 19.2421518,2.15725162 C20.0944036,3.00950344 20.5205231,4.03929227 20.5205231,5.24664901 Z" id="Path"></path>
                    <path d="M53.1189921,37.845118 C53.1189921,39.0524747 52.6928726,40.0822635 51.8406208,40.9345153 C50.9883689,41.7867672 49.9585801,42.2128867 48.7512234,42.2128867 C47.5438666,42.2128867 46.5140778,41.7867672 45.661826,40.9345153 C44.8095742,40.0822635 44.3834547,39.0524747 44.3834547,37.845118 C44.3834547,36.6377612 44.8095742,35.6079724 45.661826,34.7557206 C46.5140778,33.9034688 47.5438666,33.4773492 48.7512234,33.4773492 C49.9585801,33.4773492 50.9883689,33.9034688 51.8406208,34.7557206 C52.6928726,35.6079724 53.1189921,36.6377612 53.1189921,37.845118 Z" id="Path"></path>
                    <path d="M42.2528358,26.9789616 C42.2528358,28.1863184 41.8267163,29.2161072 40.9744644,30.068359 C40.1222126,30.9206108 39.0924238,31.3467304 37.8850671,31.3467304 C36.6777103,31.3467304 35.6479215,30.9206108 34.7956697,30.068359 C33.9434179,29.2161072 33.5172983,28.1863184 33.5172983,26.9789616 C33.5172983,25.7716049 33.9434179,24.7418161 34.7956697,23.8895643 C35.6479215,23.0373124 36.6777103,22.6111929 37.8850671,22.6111929 C39.0924238,22.6111929 40.1222126,23.0373124 40.9744644,23.8895643 C41.8267163,24.7418161 42.2528358,25.7716049 42.2528358,26.9789616 Z" id="Path"></path>
                    <path d="M31.3866795,16.1128053 C31.3866795,17.3201621 30.9605599,18.3499509 30.1083081,19.2022027 C29.2560563,20.0544545 28.2262675,20.480574 27.0189107,20.480574 C25.811554,20.480574 24.7817652,20.0544545 23.9295134,19.2022027 C23.0772615,18.3499509 22.651142,17.3201621 22.651142,16.1128053 C22.651142,14.9054486 23.0772615,13.8756598 23.9295134,13.0234079 C24.7817652,12.1711561 25.811554,11.7450366 27.0189107,11.7450366 C28.2262675,11.7450366 29.2560563,12.1711561 30.1083081,13.0234079 C30.9605599,13.8756598 31.3866795,14.9054486 31.3866795,16.1128053 Z" id="Path"></path>
                    <path d="M63.9851484,37.845118 C63.9851484,39.0524747 63.5590289,40.0822635 62.7067771,40.9345153 C61.8545253,41.7867672 60.8247364,42.2128867 59.6173797,42.2128867 C58.410023,42.2128867 57.3802341,41.7867672 56.5279823,40.9345153 C55.6757305,40.0822635 55.249611,39.0524747 55.249611,37.845118 C55.249611,36.6377612 55.6757305,35.6079724 56.5279823,34.7557206 C57.3802341,33.9034688 58.410023,33.4773492 59.6173797,33.4773492 C60.8247364,33.4773492 61.8545253,33.9034688 62.7067771,34.7557206 C63.5590289,35.6079724 63.9851484,36.6377612 63.9851484,37.845118 Z" id="Path"></path>
                    <path d="M74.8513047,48.7112743 C74.8513047,49.918631 74.4251852,50.9484198 73.5729334,51.8006717 C72.7206816,52.6529235 71.6908928,53.079043 70.483536,53.079043 C69.2761793,53.079043 68.2463904,52.6529235 67.3941386,51.8006717 C66.5418868,50.9484198 66.1157673,49.918631 66.1157673,48.7112743 C66.1157673,47.5039175 66.5418868,46.4741287 67.3941386,45.6218769 C68.2463904,44.7696251 69.2761793,44.3435056 70.483536,44.3435056 C71.6908928,44.3435056 72.7206816,44.7696251 73.5729334,45.6218769 C74.4251852,46.4741287 74.8513047,47.5039175 74.8513047,48.7112743 Z" id="Path"></path>
                    <path d="M53.1189921,26.9789616 C53.1189921,28.1863184 52.6928726,29.2161072 51.8406208,30.068359 C50.9883689,30.9206108 49.9585801,31.3467304 48.7512234,31.3467304 C47.5438666,31.3467304 46.5140778,30.9206108 45.661826,30.068359 C44.8095742,29.2161072 44.3834547,28.1863184 44.3834547,26.9789616 C44.3834547,25.7716049 44.8095742,24.7418161 45.661826,23.8895643 C46.5140778,23.0373124 47.5438666,22.6111929 48.7512234,22.6111929 C49.9585801,22.6111929 50.9883689,23.0373124 51.8406208,23.8895643 C52.6928726,24.7418161 53.1189921,25.7716049 53.1189921,26.9789616 Z" id="Path"></path>
                    <path d="M53.1189921,16.1128053 C53.1189921,17.3201621 52.6928726,18.3499509 51.8406208,19.2022027 C50.9883689,20.0544545 49.9585801,20.480574 48.7512234,20.480574 C47.5438666,20.480574 46.5140778,20.0544545 45.661826,19.2022027 C44.8095742,18.3499509 44.3834547,17.3201621 44.3834547,16.1128053 C44.3834547,14.9054486 44.8095742,13.8756598 45.661826,13.0234079 C46.5140778,12.1711561 47.5438666,11.7450366 48.7512234,11.7450366 C49.9585801,11.7450366 50.9883689,12.1711561 51.8406208,13.0234079 C52.6928726,13.8756598 53.1189921,14.9054486 53.1189921,16.1128053 Z" id="Path"></path>
                    <path d="M63.9851484,16.1128053 C63.9851484,17.3201621 63.5590289,18.3499509 62.7067771,19.2022027 C61.8545253,20.0544545 60.8247364,20.480574 59.6173797,20.480574 C58.410023,20.480574 57.3802341,20.0544545 56.5279823,19.2022027 C55.6757305,18.3499509 55.249611,17.3201621 55.249611,16.1128053 C55.249611,14.9054486 55.6757305,13.8756598 56.5279823,13.0234079 C57.3802341,12.1711561 58.410023,11.7450366 59.6173797,11.7450366 C60.8247364,11.7450366 61.8545253,12.1711561 62.7067771,13.0234079 C63.5590289,13.8756598 63.9851484,14.9054486 63.9851484,16.1128053 Z" id="Path"></path>
                    <path d="M63.9851484,5.24664901 C63.9851484,6.45400574 63.5590289,7.48379457 62.7067771,8.33604639 C61.8545253,9.18829821 60.8247364,9.61441772 59.6173797,9.61441772 C58.410023,9.61441772 57.3802341,9.18829821 56.5279823,8.33604639 C55.6757305,7.48379457 55.249611,6.45400574 55.249611,5.24664901 C55.249611,4.03929227 55.6757305,3.00950344 56.5279823,2.15725162 C57.3802341,1.30499981 58.410023,0.87888029 59.6173797,0.87888029 C60.8247364,0.87888029 61.8545253,1.30499981 62.7067771,2.15725162 C63.5590289,3.00950344 63.9851484,4.03929227 63.9851484,5.24664901 Z" id="Path"></path>
                    <path d="M74.8513047,5.24664901 C74.8513047,6.45400574 74.4251852,7.48379457 73.5729334,8.33604639 C72.7206816,9.18829821 71.6908928,9.61441772 70.483536,9.61441772 C69.2761793,9.61441772 68.2463904,9.18829821 67.3941386,8.33604639 C66.5418868,7.48379457 66.1157673,6.45400574 66.1157673,5.24664901 C66.1157673,4.03929227 66.5418868,3.00950344 67.3941386,2.15725162 C68.2463904,1.30499981 69.2761793,0.87888029 70.483536,0.87888029 C71.6908928,0.87888029 72.7206816,1.30499981 73.5729334,2.15725162 C74.4251852,3.00950344 74.8513047,4.03929227 74.8513047,5.24664901 Z" id="Path"></path>
                </g>
                <g id="t" transform="translate(278.979183, 0.000000)">
                    <path d="M30.5731086,58.6985503 C30.5731086,59.905907 30.1469891,60.9356959 29.2947373,61.7879477 C28.4424855,62.6401995 27.4126966,63.066319 26.2053399,63.066319 C24.9979832,63.066319 23.9681943,62.6401995 23.1159425,61.7879477 C22.2636907,60.9356959 21.8375712,59.905907 21.8375712,58.6985503 C21.8375712,57.4911936 22.2636907,56.4614047 23.1159425,55.6091529 C23.9681943,54.7569011 24.9979832,54.3307816 26.2053399,54.3307816 C27.4126966,54.3307816 28.4424855,54.7569011 29.2947373,55.6091529 C30.1469891,56.4614047 30.5731086,57.4911936 30.5731086,58.6985503 Z" id="Path"></path>
                    <path d="M19.7069523,47.832394 C19.7069523,49.0397507 19.2808328,50.0695396 18.428581,50.9217914 C17.5763291,51.7740432 16.5465403,52.2001627 15.3391836,52.2001627 C14.1318268,52.2001627 13.102038,51.7740432 12.2497862,50.9217914 C11.3975344,50.0695396 10.9714149,49.0397507 10.9714149,47.832394 C10.9714149,46.6250372 11.3975344,45.5952484 12.2497862,44.7429966 C13.102038,43.8907448 14.1318268,43.4646253 15.3391836,43.4646253 C16.5465403,43.4646253 17.5763291,43.8907448 18.428581,44.7429966 C19.2808328,45.5952484 19.7069523,46.6250372 19.7069523,47.832394 Z" id="Path"></path>
                    <path d="M41.4392649,58.6985503 C41.4392649,59.905907 41.0131454,60.9356959 40.1608936,61.7879477 C39.3086418,62.6401995 38.278853,63.066319 37.0714962,63.066319 C35.8641395,63.066319 34.8343506,62.6401995 33.9820988,61.7879477 C33.129847,60.9356959 32.7037275,59.905907 32.7037275,58.6985503 C32.7037275,57.4911936 33.129847,56.4614047 33.9820988,55.6091529 C34.8343506,54.7569011 35.8641395,54.3307816 37.0714962,54.3307816 C38.278853,54.3307816 39.3086418,54.7569011 40.1608936,55.6091529 C41.0131454,56.4614047 41.4392649,57.4911936 41.4392649,58.6985503 Z" id="Path"></path>
                    <path d="M30.5731086,47.832394 C30.5731086,49.0397507 30.1469891,50.0695396 29.2947373,50.9217914 C28.4424855,51.7740432 27.4126966,52.2001627 26.2053399,52.2001627 C24.9979832,52.2001627 23.9681943,51.7740432 23.1159425,50.9217914 C22.2636907,50.0695396 21.8375712,49.0397507 21.8375712,47.832394 C21.8375712,46.6250372 22.2636907,45.5952484 23.1159425,44.7429966 C23.9681943,43.8907448 24.9979832,43.4646253 26.2053399,43.4646253 C27.4126966,43.4646253 28.4424855,43.8907448 29.2947373,44.7429966 C30.1469891,45.5952484 30.5731086,46.6250372 30.5731086,47.832394 Z" id="Path"></path>
                    <path d="M19.7069523,36.9662377 C19.7069523,38.1735944 19.2808328,39.2033832 18.428581,40.0556351 C17.5763291,40.9078869 16.5465403,41.3340064 15.3391836,41.3340064 C14.1318268,41.3340064 13.102038,40.9078869 12.2497862,40.0556351 C11.3975344,39.2033832 10.9714149,38.1735944 10.9714149,36.9662377 C10.9714149,35.7588809 11.3975344,34.7290921 12.2497862,33.8768403 C13.102038,33.0245885 14.1318268,32.598469 15.3391836,32.598469 C16.5465403,32.598469 17.5763291,33.0245885 18.428581,33.8768403 C19.2808328,34.7290921 19.7069523,35.7588809 19.7069523,36.9662377 Z" id="Path"></path>
                    <path d="M52.3054212,58.6985503 C52.3054212,59.905907 51.8793017,60.9356959 51.0270499,61.7879477 C50.1747981,62.6401995 49.1450093,63.066319 47.9376525,63.066319 C46.7302958,63.066319 45.700507,62.6401995 44.8482551,61.7879477 C43.9960033,60.9356959 43.5698838,59.905907 43.5698838,58.6985503 C43.5698838,57.4911936 43.9960033,56.4614047 44.8482551,55.6091529 C45.700507,54.7569011 46.7302958,54.3307816 47.9376525,54.3307816 C49.1450093,54.3307816 50.1747981,54.7569011 51.0270499,55.6091529 C51.8793017,56.4614047 52.3054212,57.4911936 52.3054212,58.6985503 Z" id="Path"></path>
                    <path d="M8.84079598,15.233925 C8.84079598,16.4412818 8.41467646,17.4710706 7.56242465,18.3233224 C6.71017283,19.1755742 5.680384,19.6016937 4.47302726,19.6016937 C3.26567052,19.6016937 2.23588169,19.1755742 1.38362988,18.3233224 C0.531378063,17.4710706 0.105258547,16.4412818 0.105258547,15.233925 C0.105258547,14.0265683 0.531378063,12.9967795 1.38362988,12.1445276 C2.23588169,11.2922758 3.26567052,10.8661563 4.47302726,10.8661563 C5.680384,10.8661563 6.71017283,11.2922758 7.56242465,12.1445276 C8.41467646,12.9967795 8.84079598,14.0265683 8.84079598,15.233925 Z" id="Path"></path>
                    <path d="M30.5731086,36.9662377 C30.5731086,38.1735944 30.1469891,39.2033832 29.2947373,40.0556351 C28.4424855,40.9078869 27.4126966,41.3340064 26.2053399,41.3340064 C24.9979832,41.3340064 23.9681943,40.9078869 23.1159425,40.0556351 C22.2636907,39.2033832 21.8375712,38.1735944 21.8375712,36.9662377 C21.8375712,35.7588809 22.2636907,34.7290921 23.1159425,33.8768403 C23.9681943,33.0245885 24.9979832,32.598469 26.2053399,32.598469 C27.4126966,32.598469 28.4424855,33.0245885 29.2947373,33.8768403 C30.1469891,34.7290921 30.5731086,35.7588809 30.5731086,36.9662377 Z" id="Path"></path>
                    <path d="M19.7069523,26.1000813 C19.7069523,27.3074381 19.2808328,28.3372269 18.428581,29.1894787 C17.5763291,30.0417305 16.5465403,30.4678501 15.3391836,30.4678501 C14.1318268,30.4678501 13.102038,30.0417305 12.2497862,29.1894787 C11.3975344,28.3372269 10.9714149,27.3074381 10.9714149,26.1000813 C10.9714149,24.8927246 11.3975344,23.8629358 12.2497862,23.010684 C13.102038,22.1584322 14.1318268,21.7323126 15.3391836,21.7323126 C16.5465403,21.7323126 17.5763291,22.1584322 18.428581,23.010684 C19.2808328,23.8629358 19.7069523,24.8927246 19.7069523,26.1000813 Z" id="Path"></path>
                    <path d="M30.5731086,26.1000813 C30.5731086,27.3074381 30.1469891,28.3372269 29.2947373,29.1894787 C28.4424855,30.0417305 27.4126966,30.4678501 26.2053399,30.4678501 C24.9979832,30.4678501 23.9681943,30.0417305 23.1159425,29.1894787 C22.2636907,28.3372269 21.8375712,27.3074381 21.8375712,26.1000813 C21.8375712,24.8927246 22.2636907,23.8629358 23.1159425,23.010684 C23.9681943,22.1584322 24.9979832,21.7323126 26.2053399,21.7323126 C27.4126966,21.7323126 28.4424855,22.1584322 29.2947373,23.010684 C30.1469891,23.8629358 30.5731086,24.8927246 30.5731086,26.1000813 Z" id="Path"></path>
                    <path d="M19.7069523,15.233925 C19.7069523,16.4412818 19.2808328,17.4710706 18.428581,18.3233224 C17.5763291,19.1755742 16.5465403,19.6016937 15.3391836,19.6016937 C14.1318268,19.6016937 13.102038,19.1755742 12.2497862,18.3233224 C11.3975344,17.4710706 10.9714149,16.4412818 10.9714149,15.233925 C10.9714149,14.0265683 11.3975344,12.9967795 12.2497862,12.1445276 C13.102038,11.2922758 14.1318268,10.8661563 15.3391836,10.8661563 C16.5465403,10.8661563 17.5763291,11.2922758 18.428581,12.1445276 C19.2808328,12.9967795 19.7069523,14.0265683 19.7069523,15.233925 Z" id="Path"></path>
                    <path d="M19.7069523,4.36776872 C19.7069523,5.57512545 19.2808328,6.60491428 18.428581,7.4571661 C17.5763291,8.30941792 16.5465403,8.73553743 15.3391836,8.73553743 C14.1318268,8.73553743 13.102038,8.30941792 12.2497862,7.4571661 C11.3975344,6.60491428 10.9714149,5.57512545 10.9714149,4.36776872 C10.9714149,3.16041198 11.3975344,2.13062315 12.2497862,1.27837133 C13.102038,0.426119516 14.1318268,5.20763309e-14 15.3391836,2.84217094e-14 C16.5465403,5.20763309e-14 17.5763291,0.426119516 18.428581,1.27837133 C19.2808328,2.13062315 19.7069523,3.16041198 19.7069523,4.36776872 Z" id="Path"></path>
                    <path d="M30.5731086,15.233925 C30.5731086,16.4412818 30.1469891,17.4710706 29.2947373,18.3233224 C28.4424855,19.1755742 27.4126966,19.6016937 26.2053399,19.6016937 C24.9979832,19.6016937 23.9681943,19.1755742 23.1159425,18.3233224 C22.2636907,17.4710706 21.8375712,16.4412818 21.8375712,15.233925 C21.8375712,14.0265683 22.2636907,12.9967795 23.1159425,12.1445276 C23.9681943,11.2922758 24.9979832,10.8661563 26.2053399,10.8661563 C27.4126966,10.8661563 28.4424855,11.2922758 29.2947373,12.1445276 C30.1469891,12.9967795 30.5731086,14.0265683 30.5731086,15.233925 Z" id="Path"></path>
                    <path d="M30.5731086,4.36776872 C30.5731086,5.57512545 30.1469891,6.60491428 29.2947373,7.4571661 C28.4424855,8.30941792 27.4126966,8.73553743 26.2053399,8.73553743 C24.9979832,8.73553743 23.9681943,8.30941792 23.1159425,7.4571661 C22.2636907,6.60491428 21.8375712,5.57512545 21.8375712,4.36776872 C21.8375712,3.16041198 22.2636907,2.13062315 23.1159425,1.27837133 C23.9681943,0.426119516 24.9979832,5.20763309e-14 26.2053399,2.84217094e-14 C27.4126966,5.20763309e-14 28.4424855,0.426119516 29.2947373,1.27837133 C30.1469891,2.13062315 30.5731086,3.16041198 30.5731086,4.36776872 Z" id="Path"></path>
                    <path d="M41.4392649,15.233925 C41.4392649,16.4412818 41.0131454,17.4710706 40.1608936,18.3233224 C39.3086418,19.1755742 38.278853,19.6016937 37.0714962,19.6016937 C35.8641395,19.6016937 34.8343506,19.1755742 33.9820988,18.3233224 C33.129847,17.4710706 32.7037275,16.4412818 32.7037275,15.233925 C32.7037275,14.0265683 33.129847,12.9967795 33.9820988,12.1445276 C34.8343506,11.2922758 35.8641395,10.8661563 37.0714962,10.8661563 C38.278853,10.8661563 39.3086418,11.2922758 40.1608936,12.1445276 C41.0131454,12.9967795 41.4392649,14.0265683 41.4392649,15.233925 Z" id="Path"></path>
                    <path d="M52.3054212,15.233925 C52.3054212,16.4412818 51.8793017,17.4710706 51.0270499,18.3233224 C50.1747981,19.1755742 49.1450093,19.6016937 47.9376525,19.6016937 C46.7302958,19.6016937 45.700507,19.1755742 44.8482551,18.3233224 C43.9960033,17.4710706 43.5698838,16.4412818 43.5698838,15.233925 C43.5698838,14.0265683 43.9960033,12.9967795 44.8482551,12.1445276 C45.700507,11.2922758 46.7302958,10.8661563 47.9376525,10.8661563 C49.1450093,10.8661563 50.1747981,11.2922758 51.0270499,12.1445276 C51.8793017,12.9967795 52.3054212,14.0265683 52.3054212,15.233925 Z" id="Path"></path>
                </g>
                <g id="f" transform="translate(208.068251, 0.000000)">
                    <path d="M20.0145012,58.6985503 C20.0145012,59.905907 19.5883816,60.9356959 18.7361298,61.7879477 C17.883878,62.6401995 16.8540892,63.066319 15.6467324,63.066319 C14.4393757,63.066319 13.4095869,62.6401995 12.5573351,61.7879477 C11.7050832,60.9356959 11.2789637,59.905907 11.2789637,58.6985503 C11.2789637,57.4911936 11.7050832,56.4614047 12.5573351,55.6091529 C13.4095869,54.7569011 14.4393757,54.3307816 15.6467324,54.3307816 C16.8540892,54.3307816 17.883878,54.7569011 18.7361298,55.6091529 C19.5883816,56.4614047 20.0145012,57.4911936 20.0145012,58.6985503 Z" id="Path"></path>
                    <path d="M20.0145012,47.832394 C20.0145012,49.0397507 19.5883816,50.0695396 18.7361298,50.9217914 C17.883878,51.7740432 16.8540892,52.2001627 15.6467324,52.2001627 C14.4393757,52.2001627 13.4095869,51.7740432 12.5573351,50.9217914 C11.7050832,50.0695396 11.2789637,49.0397507 11.2789637,47.832394 C11.2789637,46.6250372 11.7050832,45.5952484 12.5573351,44.7429966 C13.4095869,43.8907448 14.4393757,43.4646253 15.6467324,43.4646253 C16.8540892,43.4646253 17.883878,43.8907448 18.7361298,44.7429966 C19.5883816,45.5952484 20.0145012,46.6250372 20.0145012,47.832394 Z" id="Path"></path>
                    <path d="M30.8806575,58.6985503 C30.8806575,59.905907 30.454538,60.9356959 29.6022861,61.7879477 C28.7500343,62.6401995 27.7202455,63.066319 26.5128888,63.066319 C25.305532,63.066319 24.2757432,62.6401995 23.4234914,61.7879477 C22.5712396,60.9356959 22.14512,59.905907 22.14512,58.6985503 C22.14512,57.4911936 22.5712396,56.4614047 23.4234914,55.6091529 C24.2757432,54.7569011 25.305532,54.3307816 26.5128888,54.3307816 C27.7202455,54.3307816 28.7500343,54.7569011 29.6022861,55.6091529 C30.454538,56.4614047 30.8806575,57.4911936 30.8806575,58.6985503 Z" id="Path"></path>
                    <path d="M20.0145012,36.9662377 C20.0145012,38.1735944 19.5883816,39.2033832 18.7361298,40.0556351 C17.883878,40.9078869 16.8540892,41.3340064 15.6467324,41.3340064 C14.4393757,41.3340064 13.4095869,40.9078869 12.5573351,40.0556351 C11.7050832,39.2033832 11.2789637,38.1735944 11.2789637,36.9662377 C11.2789637,35.7588809 11.7050832,34.7290921 12.5573351,33.8768403 C13.4095869,33.0245885 14.4393757,32.598469 15.6467324,32.598469 C16.8540892,32.598469 17.883878,33.0245885 18.7361298,33.8768403 C19.5883816,34.7290921 20.0145012,35.7588809 20.0145012,36.9662377 Z" id="Path"></path>
                    <path d="M30.8806575,47.832394 C30.8806575,49.0397507 30.454538,50.0695396 29.6022861,50.9217914 C28.7500343,51.7740432 27.7202455,52.2001627 26.5128888,52.2001627 C25.305532,52.2001627 24.2757432,51.7740432 23.4234914,50.9217914 C22.5712396,50.0695396 22.14512,49.0397507 22.14512,47.832394 C22.14512,46.6250372 22.5712396,45.5952484 23.4234914,44.7429966 C24.2757432,43.8907448 25.305532,43.4646253 26.5128888,43.4646253 C27.7202455,43.4646253 28.7500343,43.8907448 29.6022861,44.7429966 C30.454538,45.5952484 30.8806575,46.6250372 30.8806575,47.832394 Z" id="Path"></path>
                    <path d="M9.14834484,26.1000813 C9.14834484,27.3074381 8.72222532,28.3372269 7.86997351,29.1894787 C7.01772169,30.0417305 5.98793286,30.4678501 4.78057612,30.4678501 C3.57321939,30.4678501 2.54343056,30.0417305 1.69117874,29.1894787 C0.838926925,28.3372269 0.412807409,27.3074381 0.412807409,26.1000813 C0.412807409,24.8927246 0.838926925,23.8629358 1.69117874,23.010684 C2.54343056,22.1584322 3.57321939,21.7323126 4.78057612,21.7323126 C5.98793286,21.7323126 7.01772169,22.1584322 7.86997351,23.010684 C8.72222532,23.8629358 9.14834484,24.8927246 9.14834484,26.1000813 Z" id="Path"></path>
                    <path d="M20.0145012,26.1000813 C20.0145012,27.3074381 19.5883816,28.3372269 18.7361298,29.1894787 C17.883878,30.0417305 16.8540892,30.4678501 15.6467324,30.4678501 C14.4393757,30.4678501 13.4095869,30.0417305 12.5573351,29.1894787 C11.7050832,28.3372269 11.2789637,27.3074381 11.2789637,26.1000813 C11.2789637,24.8927246 11.7050832,23.8629358 12.5573351,23.010684 C13.4095869,22.1584322 14.4393757,21.7323126 15.6467324,21.7323126 C16.8540892,21.7323126 17.883878,22.1584322 18.7361298,23.010684 C19.5883816,23.8629358 20.0145012,24.8927246 20.0145012,26.1000813 Z" id="Path"></path>
                    <path d="M30.8806575,36.9662377 C30.8806575,38.1735944 30.454538,39.2033832 29.6022861,40.0556351 C28.7500343,40.9078869 27.7202455,41.3340064 26.5128888,41.3340064 C25.305532,41.3340064 24.2757432,40.9078869 23.4234914,40.0556351 C22.5712396,39.2033832 22.14512,38.1735944 22.14512,36.9662377 C22.14512,35.7588809 22.5712396,34.7290921 23.4234914,33.8768403 C24.2757432,33.0245885 25.305532,32.598469 26.5128888,32.598469 C27.7202455,32.598469 28.7500343,33.0245885 29.6022861,33.8768403 C30.454538,34.7290921 30.8806575,35.7588809 30.8806575,36.9662377 Z" id="Path"></path>
                    <path d="M20.0145012,15.233925 C20.0145012,16.4412818 19.5883816,17.4710706 18.7361298,18.3233224 C17.883878,19.1755742 16.8540892,19.6016937 15.6467324,19.6016937 C14.4393757,19.6016937 13.4095869,19.1755742 12.5573351,18.3233224 C11.7050832,17.4710706 11.2789637,16.4412818 11.2789637,15.233925 C11.2789637,14.0265683 11.7050832,12.9967795 12.5573351,12.1445276 C13.4095869,11.2922758 14.4393757,10.8661563 15.6467324,10.8661563 C16.8540892,10.8661563 17.883878,11.2922758 18.7361298,12.1445276 C19.5883816,12.9967795 20.0145012,14.0265683 20.0145012,15.233925 Z" id="Path"></path>
                    <path d="M30.8806575,26.1000813 C30.8806575,27.3074381 30.454538,28.3372269 29.6022861,29.1894787 C28.7500343,30.0417305 27.7202455,30.4678501 26.5128888,30.4678501 C25.305532,30.4678501 24.2757432,30.0417305 23.4234914,29.1894787 C22.5712396,28.3372269 22.14512,27.3074381 22.14512,26.1000813 C22.14512,24.8927246 22.5712396,23.8629358 23.4234914,23.010684 C24.2757432,22.1584322 25.305532,21.7323126 26.5128888,21.7323126 C27.7202455,21.7323126 28.7500343,22.1584322 29.6022861,23.010684 C30.454538,23.8629358 30.8806575,24.8927246 30.8806575,26.1000813 Z" id="Path"></path>
                    <path d="M41.7468138,26.1000813 C41.7468138,27.3074381 41.3206943,28.3372269 40.4684425,29.1894787 C39.6161906,30.0417305 38.5864018,30.4678501 37.3790451,30.4678501 C36.1716883,30.4678501 35.1418995,30.0417305 34.2896477,29.1894787 C33.4373959,28.3372269 33.0112764,27.3074381 33.0112764,26.1000813 C33.0112764,24.8927246 33.4373959,23.8629358 34.2896477,23.010684 C35.1418995,22.1584322 36.1716883,21.7323126 37.3790451,21.7323126 C38.5864018,21.7323126 39.6161906,22.1584322 40.4684425,23.010684 C41.3206943,23.8629358 41.7468138,24.8927246 41.7468138,26.1000813 Z" id="Path"></path>
                    <path d="M30.8806575,15.233925 C30.8806575,16.4412818 30.454538,17.4710706 29.6022861,18.3233224 C28.7500343,19.1755742 27.7202455,19.6016937 26.5128888,19.6016937 C25.305532,19.6016937 24.2757432,19.1755742 23.4234914,18.3233224 C22.5712396,17.4710706 22.14512,16.4412818 22.14512,15.233925 C22.14512,14.0265683 22.5712396,12.9967795 23.4234914,12.1445276 C24.2757432,11.2922758 25.305532,10.8661563 26.5128888,10.8661563 C27.7202455,10.8661563 28.7500343,11.2922758 29.6022861,12.1445276 C30.454538,12.9967795 30.8806575,14.0265683 30.8806575,15.233925 Z" id="Path"></path>
                    <path d="M30.8806575,4.36776872 C30.8806575,5.57512545 30.454538,6.60491428 29.6022861,7.4571661 C28.7500343,8.30941792 27.7202455,8.73553743 26.5128888,8.73553743 C25.305532,8.73553743 24.2757432,8.30941792 23.4234914,7.4571661 C22.5712396,6.60491428 22.14512,5.57512545 22.14512,4.36776872 C22.14512,3.16041198 22.5712396,2.13062315 23.4234914,1.27837133 C24.2757432,0.426119516 25.305532,5.20763309e-14 26.5128888,2.84217094e-14 C27.7202455,5.20763309e-14 28.7500343,0.426119516 29.6022861,1.27837133 C30.454538,2.13062315 30.8806575,3.16041198 30.8806575,4.36776872 Z" id="Path"></path>
                    <path d="M52.6129701,26.1000813 C52.6129701,27.3074381 52.1868506,28.3372269 51.3345988,29.1894787 C50.482347,30.0417305 49.4525581,30.4678501 48.2452014,30.4678501 C47.0378447,30.4678501 46.0080558,30.0417305 45.155804,29.1894787 C44.3035522,28.3372269 43.8774327,27.3074381 43.8774327,26.1000813 C43.8774327,24.8927246 44.3035522,23.8629358 45.155804,23.010684 C46.0080558,22.1584322 47.0378447,21.7323126 48.2452014,21.7323126 C49.4525581,21.7323126 50.482347,22.1584322 51.3345988,23.010684 C52.1868506,23.8629358 52.6129701,24.8927246 52.6129701,26.1000813 Z" id="Path"></path>
                    <path d="M41.7468138,4.36776872 C41.7468138,5.57512545 41.3206943,6.60491428 40.4684425,7.4571661 C39.6161906,8.30941792 38.5864018,8.73553743 37.3790451,8.73553743 C36.1716883,8.73553743 35.1418995,8.30941792 34.2896477,7.4571661 C33.4373959,6.60491428 33.0112764,5.57512545 33.0112764,4.36776872 C33.0112764,3.16041198 33.4373959,2.13062315 34.2896477,1.27837133 C35.1418995,0.426119516 36.1716883,5.20763309e-14 37.3790451,2.84217094e-14 C38.5864018,5.20763309e-14 39.6161906,0.426119516 40.4684425,1.27837133 C41.3206943,2.13062315 41.7468138,3.16041198 41.7468138,4.36776872 Z" id="Path"></path>
                    <path d="M52.6129701,4.36776872 C52.6129701,5.57512545 52.1868506,6.60491428 51.3345988,7.4571661 C50.482347,8.30941792 49.4525581,8.73553743 48.2452014,8.73553743 C47.0378447,8.73553743 46.0080558,8.30941792 45.155804,7.4571661 C44.3035522,6.60491428 43.8774327,5.57512545 43.8774327,4.36776872 C43.8774327,3.16041198 44.3035522,2.13062315 45.155804,1.27837133 C46.0080558,0.426119516 47.0378447,5.20763309e-14 48.2452014,2.84217094e-14 C49.4525581,5.20763309e-14 50.482347,0.426119516 51.3345988,1.27837133 C52.1868506,2.13062315 52.6129701,3.16041198 52.6129701,4.36776872 Z" id="Path"></path>
                    <path d="M63.4791264,4.36776872 C63.4791264,5.57512545 63.0530069,6.60491428 62.2007551,7.4571661 C61.3485033,8.30941792 60.3187144,8.73553743 59.1113577,8.73553743 C57.904001,8.73553743 56.8742121,8.30941792 56.0219603,7.4571661 C55.1697085,6.60491428 54.743589,5.57512545 54.743589,4.36776872 C54.743589,3.16041198 55.1697085,2.13062315 56.0219603,1.27837133 C56.8742121,0.426119516 57.904001,5.20763309e-14 59.1113577,2.84217094e-14 C60.3187144,5.20763309e-14 61.3485033,0.426119516 62.2007551,1.27837133 C63.0530069,2.13062315 63.4791264,3.16041198 63.4791264,4.36776872 Z" id="Path"></path>
                </g>
                <g id="a" transform="translate(124.840950, 9.987276)">
                    <path d="M20.1077157,48.7112743 C20.1077157,49.918631 19.6815962,50.9484198 18.8293444,51.8006717 C17.9770926,52.6529235 16.9473038,53.079043 15.739947,53.079043 C14.5325903,53.079043 13.5028014,52.6529235 12.6505496,51.8006717 C11.7982978,50.9484198 11.3721783,49.918631 11.3721783,48.7112743 C11.3721783,47.5039175 11.7982978,46.4741287 12.6505496,45.6218769 C13.5028014,44.7696251 14.5325903,44.3435056 15.739947,44.3435056 C16.9473038,44.3435056 17.9770926,44.7696251 18.8293444,45.6218769 C19.6815962,46.4741287 20.1077157,47.5039175 20.1077157,48.7112743 Z" id="Path"></path>
                    <path d="M9.24155942,37.845118 C9.24155942,39.0524747 8.8154399,40.0822635 7.96318809,40.9345153 C7.11093627,41.7867672 6.08114744,42.2128867 4.8737907,42.2128867 C3.66643396,42.2128867 2.63664513,41.7867672 1.78439332,40.9345153 C0.932141501,40.0822635 0.506021985,39.0524747 0.506021985,37.845118 C0.506021985,36.6377612 0.932141501,35.6079724 1.78439332,34.7557206 C2.63664513,33.9034688 3.66643396,33.4773492 4.8737907,33.4773492 C6.08114744,33.4773492 7.11093627,33.9034688 7.96318809,34.7557206 C8.8154399,35.6079724 9.24155942,36.6377612 9.24155942,37.845118 Z" id="Path"></path>
                    <path d="M20.1077157,37.845118 C20.1077157,39.0524747 19.6815962,40.0822635 18.8293444,40.9345153 C17.9770926,41.7867672 16.9473038,42.2128867 15.739947,42.2128867 C14.5325903,42.2128867 13.5028014,41.7867672 12.6505496,40.9345153 C11.7982978,40.0822635 11.3721783,39.0524747 11.3721783,37.845118 C11.3721783,36.6377612 11.7982978,35.6079724 12.6505496,34.7557206 C13.5028014,33.9034688 14.5325903,33.4773492 15.739947,33.4773492 C16.9473038,33.4773492 17.9770926,33.9034688 18.8293444,34.7557206 C19.6815962,35.6079724 20.1077157,36.6377612 20.1077157,37.845118 Z" id="Path"></path>
                    <path d="M30.9738721,48.7112743 C30.9738721,49.918631 30.5477525,50.9484198 29.6955007,51.8006717 C28.8432489,52.6529235 27.8134601,53.079043 26.6061033,53.079043 C25.3987466,53.079043 24.3689578,52.6529235 23.516706,51.8006717 C22.6644541,50.9484198 22.2383346,49.918631 22.2383346,48.7112743 C22.2383346,47.5039175 22.6644541,46.4741287 23.516706,45.6218769 C24.3689578,44.7696251 25.3987466,44.3435056 26.6061033,44.3435056 C27.8134601,44.3435056 28.8432489,44.7696251 29.6955007,45.6218769 C30.5477525,46.4741287 30.9738721,47.5039175 30.9738721,48.7112743 Z" id="Path"></path>
                    <path d="M20.1077157,26.9789616 C20.1077157,28.1863184 19.6815962,29.2161072 18.8293444,30.068359 C17.9770926,30.9206108 16.9473038,31.3467304 15.739947,31.3467304 C14.5325903,31.3467304 13.5028014,30.9206108 12.6505496,30.068359 C11.7982978,29.2161072 11.3721783,28.1863184 11.3721783,26.9789616 C11.3721783,25.7716049 11.7982978,24.7418161 12.6505496,23.8895643 C13.5028014,23.0373124 14.5325903,22.6111929 15.739947,22.6111929 C16.9473038,22.6111929 17.9770926,23.0373124 18.8293444,23.8895643 C19.6815962,24.7418161 20.1077157,25.7716049 20.1077157,26.9789616 Z" id="Path"></path>
                    <path d="M41.8400284,48.7112743 C41.8400284,49.918631 41.4139089,50.9484198 40.561657,51.8006717 C39.7094052,52.6529235 38.6796164,53.079043 37.4722597,53.079043 C36.2649029,53.079043 35.2351141,52.6529235 34.3828623,51.8006717 C33.5306105,50.9484198 33.1044909,49.918631 33.1044909,48.7112743 C33.1044909,47.5039175 33.5306105,46.4741287 34.3828623,45.6218769 C35.2351141,44.7696251 36.2649029,44.3435056 37.4722597,44.3435056 C38.6796164,44.3435056 39.7094052,44.7696251 40.561657,45.6218769 C41.4139089,46.4741287 41.8400284,47.5039175 41.8400284,48.7112743 Z" id="Path"></path>
                    <path d="M52.7061847,48.7112743 C52.7061847,49.918631 52.2800652,50.9484198 51.4278134,51.8006717 C50.5755615,52.6529235 49.5457727,53.079043 48.338416,53.079043 C47.1310592,53.079043 46.1012704,52.6529235 45.2490186,51.8006717 C44.3967668,50.9484198 43.9706473,49.918631 43.9706473,48.7112743 C43.9706473,47.5039175 44.3967668,46.4741287 45.2490186,45.6218769 C46.1012704,44.7696251 47.1310592,44.3435056 48.338416,44.3435056 C49.5457727,44.3435056 50.5755615,44.7696251 51.4278134,45.6218769 C52.2800652,46.4741287 52.7061847,47.5039175 52.7061847,48.7112743 Z" id="Path"></path>
                    <path d="M30.9738721,26.9789616 C30.9738721,28.1863184 30.5477525,29.2161072 29.6955007,30.068359 C28.8432489,30.9206108 27.8134601,31.3467304 26.6061033,31.3467304 C25.3987466,31.3467304 24.3689578,30.9206108 23.516706,30.068359 C22.6644541,29.2161072 22.2383346,28.1863184 22.2383346,26.9789616 C22.2383346,25.7716049 22.6644541,24.7418161 23.516706,23.8895643 C24.3689578,23.0373124 25.3987466,22.6111929 26.6061033,22.6111929 C27.8134601,22.6111929 28.8432489,23.0373124 29.6955007,23.8895643 C30.5477525,24.7418161 30.9738721,25.7716049 30.9738721,26.9789616 Z" id="Path"></path>
                    <path d="M63.572341,48.7112743 C63.572341,49.918631 63.1462215,50.9484198 62.2939697,51.8006717 C61.4417179,52.6529235 60.411929,53.079043 59.2045723,53.079043 C57.9972155,53.079043 56.9674267,52.6529235 56.1151749,51.8006717 C55.2629231,50.9484198 54.8368036,49.918631 54.8368036,48.7112743 C54.8368036,47.5039175 55.2629231,46.4741287 56.1151749,45.6218769 C56.9674267,44.7696251 57.9972155,44.3435056 59.2045723,44.3435056 C60.411929,44.3435056 61.4417179,44.7696251 62.2939697,45.6218769 C63.1462215,46.4741287 63.572341,47.5039175 63.572341,48.7112743 Z" id="Path"></path>
                    <path d="M20.1077157,5.24664901 C20.1077157,6.45400574 19.6815962,7.48379457 18.8293444,8.33604639 C17.9770926,9.18829821 16.9473038,9.61441772 15.739947,9.61441772 C14.5325903,9.61441772 13.5028014,9.18829821 12.6505496,8.33604639 C11.7982978,7.48379457 11.3721783,6.45400574 11.3721783,5.24664901 C11.3721783,4.03929227 11.7982978,3.00950344 12.6505496,2.15725162 C13.5028014,1.30499981 14.5325903,0.87888029 15.739947,0.87888029 C16.9473038,0.87888029 17.9770926,1.30499981 18.8293444,2.15725162 C19.6815962,3.00950344 20.1077157,4.03929227 20.1077157,5.24664901 Z" id="Path"></path>
                    <path d="M41.8400284,26.9789616 C41.8400284,28.1863184 41.4139089,29.2161072 40.561657,30.068359 C39.7094052,30.9206108 38.6796164,31.3467304 37.4722597,31.3467304 C36.2649029,31.3467304 35.2351141,30.9206108 34.3828623,30.068359 C33.5306105,29.2161072 33.1044909,28.1863184 33.1044909,26.9789616 C33.1044909,25.7716049 33.5306105,24.7418161 34.3828623,23.8895643 C35.2351141,23.0373124 36.2649029,22.6111929 37.4722597,22.6111929 C38.6796164,22.6111929 39.7094052,23.0373124 40.561657,23.8895643 C41.4139089,24.7418161 41.8400284,25.7716049 41.8400284,26.9789616 Z" id="Path"></path>
                    <path d="M63.572341,37.845118 C63.572341,39.0524747 63.1462215,40.0822635 62.2939697,40.9345153 C61.4417179,41.7867672 60.411929,42.2128867 59.2045723,42.2128867 C57.9972155,42.2128867 56.9674267,41.7867672 56.1151749,40.9345153 C55.2629231,40.0822635 54.8368036,39.0524747 54.8368036,37.845118 C54.8368036,36.6377612 55.2629231,35.6079724 56.1151749,34.7557206 C56.9674267,33.9034688 57.9972155,33.4773492 59.2045723,33.4773492 C60.411929,33.4773492 61.4417179,33.9034688 62.2939697,34.7557206 C63.1462215,35.6079724 63.572341,36.6377612 63.572341,37.845118 Z" id="Path"></path>
                    <path d="M52.7061847,26.9789616 C52.7061847,28.1863184 52.2800652,29.2161072 51.4278134,30.068359 C50.5755615,30.9206108 49.5457727,31.3467304 48.338416,31.3467304 C47.1310592,31.3467304 46.1012704,30.9206108 45.2490186,30.068359 C44.3967668,29.2161072 43.9706473,28.1863184 43.9706473,26.9789616 C43.9706473,25.7716049 44.3967668,24.7418161 45.2490186,23.8895643 C46.1012704,23.0373124 47.1310592,22.6111929 48.338416,22.6111929 C49.5457727,22.6111929 50.5755615,23.0373124 51.4278134,23.8895643 C52.2800652,24.7418161 52.7061847,25.7716049 52.7061847,26.9789616 Z" id="Path"></path>
                    <path d="M30.9738721,5.24664901 C30.9738721,6.45400574 30.5477525,7.48379457 29.6955007,8.33604639 C28.8432489,9.18829821 27.8134601,9.61441772 26.6061033,9.61441772 C25.3987466,9.61441772 24.3689578,9.18829821 23.516706,8.33604639 C22.6644541,7.48379457 22.2383346,6.45400574 22.2383346,5.24664901 C22.2383346,4.03929227 22.6644541,3.00950344 23.516706,2.15725162 C24.3689578,1.30499981 25.3987466,0.87888029 26.6061033,0.87888029 C27.8134601,0.87888029 28.8432489,1.30499981 29.6955007,2.15725162 C30.5477525,3.00950344 30.9738721,4.03929227 30.9738721,5.24664901 Z" id="Path"></path>
                    <path d="M63.572341,26.9789616 C63.572341,28.1863184 63.1462215,29.2161072 62.2939697,30.068359 C61.4417179,30.9206108 60.411929,31.3467304 59.2045723,31.3467304 C57.9972155,31.3467304 56.9674267,30.9206108 56.1151749,30.068359 C55.2629231,29.2161072 54.8368036,28.1863184 54.8368036,26.9789616 C54.8368036,25.7716049 55.2629231,24.7418161 56.1151749,23.8895643 C56.9674267,23.0373124 57.9972155,22.6111929 59.2045723,22.6111929 C60.411929,22.6111929 61.4417179,23.0373124 62.2939697,23.8895643 C63.1462215,24.7418161 63.572341,25.7716049 63.572341,26.9789616 Z" id="Path"></path>
                    <path d="M74.4384973,37.845118 C74.4384973,39.0524747 74.0123778,40.0822635 73.160126,40.9345153 C72.3078742,41.7867672 71.2780853,42.2128867 70.0707286,42.2128867 C68.8633719,42.2128867 67.833583,41.7867672 66.9813312,40.9345153 C66.1290794,40.0822635 65.7029599,39.0524747 65.7029599,37.845118 C65.7029599,36.6377612 66.1290794,35.6079724 66.9813312,34.7557206 C67.833583,33.9034688 68.8633719,33.4773492 70.0707286,33.4773492 C71.2780853,33.4773492 72.3078742,33.9034688 73.160126,34.7557206 C74.0123778,35.6079724 74.4384973,36.6377612 74.4384973,37.845118 Z" id="Path"></path>
                    <path d="M41.8400284,5.24664901 C41.8400284,6.45400574 41.4139089,7.48379457 40.561657,8.33604639 C39.7094052,9.18829821 38.6796164,9.61441772 37.4722597,9.61441772 C36.2649029,9.61441772 35.2351141,9.18829821 34.3828623,8.33604639 C33.5306105,7.48379457 33.1044909,6.45400574 33.1044909,5.24664901 C33.1044909,4.03929227 33.5306105,3.00950344 34.3828623,2.15725162 C35.2351141,1.30499981 36.2649029,0.87888029 37.4722597,0.87888029 C38.6796164,0.87888029 39.7094052,1.30499981 40.561657,2.15725162 C41.4139089,3.00950344 41.8400284,4.03929227 41.8400284,5.24664901 Z" id="Path"></path>
                    <path d="M63.572341,16.1128053 C63.572341,17.3201621 63.1462215,18.3499509 62.2939697,19.2022027 C61.4417179,20.0544545 60.411929,20.480574 59.2045723,20.480574 C57.9972155,20.480574 56.9674267,20.0544545 56.1151749,19.2022027 C55.2629231,18.3499509 54.8368036,17.3201621 54.8368036,16.1128053 C54.8368036,14.9054486 55.2629231,13.8756598 56.1151749,13.0234079 C56.9674267,12.1711561 57.9972155,11.7450366 59.2045723,11.7450366 C60.411929,11.7450366 61.4417179,12.1711561 62.2939697,13.0234079 C63.1462215,13.8756598 63.572341,14.9054486 63.572341,16.1128053 Z" id="Path"></path>
                    <path d="M74.4384973,26.9789616 C74.4384973,28.1863184 74.0123778,29.2161072 73.160126,30.068359 C72.3078742,30.9206108 71.2780853,31.3467304 70.0707286,31.3467304 C68.8633719,31.3467304 67.833583,30.9206108 66.9813312,30.068359 C66.1290794,29.2161072 65.7029599,28.1863184 65.7029599,26.9789616 C65.7029599,25.7716049 66.1290794,24.7418161 66.9813312,23.8895643 C67.833583,23.0373124 68.8633719,22.6111929 70.0707286,22.6111929 C71.2780853,22.6111929 72.3078742,23.0373124 73.160126,23.8895643 C74.0123778,24.7418161 74.4384973,25.7716049 74.4384973,26.9789616 Z" id="Path"></path>
                    <path d="M52.7061847,5.24664901 C52.7061847,6.45400574 52.2800652,7.48379457 51.4278134,8.33604639 C50.5755615,9.18829821 49.5457727,9.61441772 48.338416,9.61441772 C47.1310592,9.61441772 46.1012704,9.18829821 45.2490186,8.33604639 C44.3967668,7.48379457 43.9706473,6.45400574 43.9706473,5.24664901 C43.9706473,4.03929227 44.3967668,3.00950344 45.2490186,2.15725162 C46.1012704,1.30499981 47.1310592,0.87888029 48.338416,0.87888029 C49.5457727,0.87888029 50.5755615,1.30499981 51.4278134,2.15725162 C52.2800652,3.00950344 52.7061847,4.03929227 52.7061847,5.24664901 Z" id="Path"></path>
                    <path d="M63.572341,5.24664901 C63.572341,6.45400574 63.1462215,7.48379457 62.2939697,8.33604639 C61.4417179,9.18829821 60.411929,9.61441772 59.2045723,9.61441772 C57.9972155,9.61441772 56.9674267,9.18829821 56.1151749,8.33604639 C55.2629231,7.48379457 54.8368036,6.45400574 54.8368036,5.24664901 C54.8368036,4.03929227 55.2629231,3.00950344 56.1151749,2.15725162 C56.9674267,1.30499981 57.9972155,0.87888029 59.2045723,0.87888029 C60.411929,0.87888029 61.4417179,1.30499981 62.2939697,2.15725162 C63.1462215,3.00950344 63.572341,4.03929227 63.572341,5.24664901 Z" id="Path"></path>
                    <path d="M74.4384973,16.1128053 C74.4384973,17.3201621 74.0123778,18.3499509 73.160126,19.2022027 C72.3078742,20.0544545 71.2780853,20.480574 70.0707286,20.480574 C68.8633719,20.480574 67.833583,20.0544545 66.9813312,19.2022027 C66.1290794,18.3499509 65.7029599,17.3201621 65.7029599,16.1128053 C65.7029599,14.9054486 66.1290794,13.8756598 66.9813312,13.0234079 C67.833583,12.1711561 68.8633719,11.7450366 70.0707286,11.7450366 C71.2780853,11.7450366 72.3078742,12.1711561 73.160126,13.0234079 C74.0123778,13.8756598 74.4384973,14.9054486 74.4384973,16.1128053 Z" id="Path"></path>
                </g>
                <g id="r" transform="translate(73.240024, 9.987276)">
                    <path d="M9.42798857,48.7112743 C9.42798857,49.918631 9.00186905,50.9484198 8.14961724,51.8006717 C7.29736542,52.6529235 6.26757659,53.079043 5.06021985,53.079043 C3.85286311,53.079043 2.82307428,52.6529235 1.97082247,51.8006717 C1.11857065,50.9484198 0.692451138,49.918631 0.692451138,48.7112743 C0.692451138,47.5039175 1.11857065,46.4741287 1.97082247,45.6218769 C2.82307428,44.7696251 3.85286311,44.3435056 5.06021985,44.3435056 C6.26757659,44.3435056 7.29736542,44.7696251 8.14961724,45.6218769 C9.00186905,46.4741287 9.42798857,47.5039175 9.42798857,48.7112743 Z" id="Path"></path>
                    <path d="M9.42798857,37.845118 C9.42798857,39.0524747 9.00186905,40.0822635 8.14961724,40.9345153 C7.29736542,41.7867672 6.26757659,42.2128867 5.06021985,42.2128867 C3.85286311,42.2128867 2.82307428,41.7867672 1.97082247,40.9345153 C1.11857065,40.0822635 0.692451138,39.0524747 0.692451138,37.845118 C0.692451138,36.6377612 1.11857065,35.6079724 1.97082247,34.7557206 C2.82307428,33.9034688 3.85286311,33.4773492 5.06021985,33.4773492 C6.26757659,33.4773492 7.29736542,33.9034688 8.14961724,34.7557206 C9.00186905,35.6079724 9.42798857,36.6377612 9.42798857,37.845118 Z" id="Path"></path>
                    <path d="M20.2941449,48.7112743 C20.2941449,49.918631 19.8680254,50.9484198 19.0157736,51.8006717 C18.1635217,52.6529235 17.1337329,53.079043 15.9263762,53.079043 C14.7190194,53.079043 13.6892306,52.6529235 12.8369788,51.8006717 C11.984727,50.9484198 11.5586075,49.918631 11.5586075,48.7112743 C11.5586075,47.5039175 11.984727,46.4741287 12.8369788,45.6218769 C13.6892306,44.7696251 14.7190194,44.3435056 15.9263762,44.3435056 C17.1337329,44.3435056 18.1635217,44.7696251 19.0157736,45.6218769 C19.8680254,46.4741287 20.2941449,47.5039175 20.2941449,48.7112743 Z" id="Path"></path>
                    <path d="M9.42798857,26.9789616 C9.42798857,28.1863184 9.00186905,29.2161072 8.14961724,30.068359 C7.29736542,30.9206108 6.26757659,31.3467304 5.06021985,31.3467304 C3.85286311,31.3467304 2.82307428,30.9206108 1.97082247,30.068359 C1.11857065,29.2161072 0.692451138,28.1863184 0.692451138,26.9789616 C0.692451138,25.7716049 1.11857065,24.7418161 1.97082247,23.8895643 C2.82307428,23.0373124 3.85286311,22.6111929 5.06021985,22.6111929 C6.26757659,22.6111929 7.29736542,23.0373124 8.14961724,23.8895643 C9.00186905,24.7418161 9.42798857,25.7716049 9.42798857,26.9789616 Z" id="Path"></path>
                    <path d="M20.2941449,37.845118 C20.2941449,39.0524747 19.8680254,40.0822635 19.0157736,40.9345153 C18.1635217,41.7867672 17.1337329,42.2128867 15.9263762,42.2128867 C14.7190194,42.2128867 13.6892306,41.7867672 12.8369788,40.9345153 C11.984727,40.0822635 11.5586075,39.0524747 11.5586075,37.845118 C11.5586075,36.6377612 11.984727,35.6079724 12.8369788,34.7557206 C13.6892306,33.9034688 14.7190194,33.4773492 15.9263762,33.4773492 C17.1337329,33.4773492 18.1635217,33.9034688 19.0157736,34.7557206 C19.8680254,35.6079724 20.2941449,36.6377612 20.2941449,37.845118 Z" id="Path"></path>
                    <path d="M9.42798857,16.1128053 C9.42798857,17.3201621 9.00186905,18.3499509 8.14961724,19.2022027 C7.29736542,20.0544545 6.26757659,20.480574 5.06021985,20.480574 C3.85286311,20.480574 2.82307428,20.0544545 1.97082247,19.2022027 C1.11857065,18.3499509 0.692451138,17.3201621 0.692451138,16.1128053 C0.692451138,14.9054486 1.11857065,13.8756598 1.97082247,13.0234079 C2.82307428,12.1711561 3.85286311,11.7450366 5.06021985,11.7450366 C6.26757659,11.7450366 7.29736542,12.1711561 8.14961724,13.0234079 C9.00186905,13.8756598 9.42798857,14.9054486 9.42798857,16.1128053 Z" id="Path"></path>
                    <path d="M20.2941449,26.9789616 C20.2941449,28.1863184 19.8680254,29.2161072 19.0157736,30.068359 C18.1635217,30.9206108 17.1337329,31.3467304 15.9263762,31.3467304 C14.7190194,31.3467304 13.6892306,30.9206108 12.8369788,30.068359 C11.984727,29.2161072 11.5586075,28.1863184 11.5586075,26.9789616 C11.5586075,25.7716049 11.984727,24.7418161 12.8369788,23.8895643 C13.6892306,23.0373124 14.7190194,22.6111929 15.9263762,22.6111929 C17.1337329,22.6111929 18.1635217,23.0373124 19.0157736,23.8895643 C19.8680254,24.7418161 20.2941449,25.7716049 20.2941449,26.9789616 Z" id="Path"></path>
                    <path d="M20.2941449,16.1128053 C20.2941449,17.3201621 19.8680254,18.3499509 19.0157736,19.2022027 C18.1635217,20.0544545 17.1337329,20.480574 15.9263762,20.480574 C14.7190194,20.480574 13.6892306,20.0544545 12.8369788,19.2022027 C11.984727,18.3499509 11.5586075,17.3201621 11.5586075,16.1128053 C11.5586075,14.9054486 11.984727,13.8756598 12.8369788,13.0234079 C13.6892306,12.1711561 14.7190194,11.7450366 15.9263762,11.7450366 C17.1337329,11.7450366 18.1635217,12.1711561 19.0157736,13.0234079 C19.8680254,13.8756598 20.2941449,14.9054486 20.2941449,16.1128053 Z" id="Path"></path>
                    <path d="M20.2941449,5.24664901 C20.2941449,6.45400574 19.8680254,7.48379457 19.0157736,8.33604639 C18.1635217,9.18829821 17.1337329,9.61441772 15.9263762,9.61441772 C14.7190194,9.61441772 13.6892306,9.18829821 12.8369788,8.33604639 C11.984727,7.48379457 11.5586075,6.45400574 11.5586075,5.24664901 C11.5586075,4.03929227 11.984727,3.00950344 12.8369788,2.15725162 C13.6892306,1.30499981 14.7190194,0.87888029 15.9263762,0.87888029 C17.1337329,0.87888029 18.1635217,1.30499981 19.0157736,2.15725162 C19.8680254,3.00950344 20.2941449,4.03929227 20.2941449,5.24664901 Z" id="Path"></path>
                    <path d="M31.1603012,5.24664901 C31.1603012,6.45400574 30.7341817,7.48379457 29.8819299,8.33604639 C29.0296781,9.18829821 27.9998892,9.61441772 26.7925325,9.61441772 C25.5851757,9.61441772 24.5553869,9.18829821 23.7031351,8.33604639 C22.8508833,7.48379457 22.4247638,6.45400574 22.4247638,5.24664901 C22.4247638,4.03929227 22.8508833,3.00950344 23.7031351,2.15725162 C24.5553869,1.30499981 25.5851757,0.87888029 26.7925325,0.87888029 C27.9998892,0.87888029 29.0296781,1.30499981 29.8819299,2.15725162 C30.7341817,3.00950344 31.1603012,4.03929227 31.1603012,5.24664901 Z" id="Path"></path>
                    <path d="M42.0264575,5.24664901 C42.0264575,6.45400574 41.600338,7.48379457 40.7480862,8.33604639 C39.8958344,9.18829821 38.8660455,9.61441772 37.6586888,9.61441772 C36.4513321,9.61441772 35.4215432,9.18829821 34.5692914,8.33604639 C33.7170396,7.48379457 33.2909201,6.45400574 33.2909201,5.24664901 C33.2909201,4.03929227 33.7170396,3.00950344 34.5692914,2.15725162 C35.4215432,1.30499981 36.4513321,0.87888029 37.6586888,0.87888029 C38.8660455,0.87888029 39.8958344,1.30499981 40.7480862,2.15725162 C41.600338,3.00950344 42.0264575,4.03929227 42.0264575,5.24664901 Z" id="Path"></path>
                    <path d="M52.8926138,5.24664901 C52.8926138,6.45400574 52.4664943,7.48379457 51.6142425,8.33604639 C50.7619907,9.18829821 49.7322019,9.61441772 48.5248451,9.61441772 C47.3174884,9.61441772 46.2876996,9.18829821 45.4354477,8.33604639 C44.5831959,7.48379457 44.1570764,6.45400574 44.1570764,5.24664901 C44.1570764,4.03929227 44.5831959,3.00950344 45.4354477,2.15725162 C46.2876996,1.30499981 47.3174884,0.87888029 48.5248451,0.87888029 C49.7322019,0.87888029 50.7619907,1.30499981 51.6142425,2.15725162 C52.4664943,3.00950344 52.8926138,4.03929227 52.8926138,5.24664901 Z" id="Path"></path>
                </g>
                <g id="c" transform="translate(0.000000, 9.987276)">
                    <path d="M19.6016937,48.7112743 C19.6016937,49.918631 19.1755742,50.9484198 18.3233224,51.8006717 C17.4710706,52.6529235 16.4412818,53.079043 15.233925,53.079043 C14.0265683,53.079043 12.9967795,52.6529235 12.1445276,51.8006717 C11.2922758,50.9484198 10.8661563,49.918631 10.8661563,48.7112743 C10.8661563,47.5039175 11.2922758,46.4741287 12.1445276,45.6218769 C12.9967795,44.7696251 14.0265683,44.3435056 15.233925,44.3435056 C16.4412818,44.3435056 17.4710706,44.7696251 18.3233224,45.6218769 C19.1755742,46.4741287 19.6016937,47.5039175 19.6016937,48.7112743 Z" id="Path"></path>
                    <path d="M8.73553743,37.845118 C8.73553743,39.0524747 8.30941792,40.0822635 7.4571661,40.9345153 C6.60491428,41.7867672 5.57512545,42.2128867 4.36776872,42.2128867 C3.16041198,42.2128867 2.13062315,41.7867672 1.27837133,40.9345153 C0.426119516,40.0822635 0,39.0524747 0,37.845118 C0,36.6377612 0.426119516,35.6079724 1.27837133,34.7557206 C2.13062315,33.9034688 3.16041198,33.4773492 4.36776872,33.4773492 C5.57512545,33.4773492 6.60491428,33.9034688 7.4571661,34.7557206 C8.30941792,35.6079724 8.73553743,36.6377612 8.73553743,37.845118 Z" id="Path"></path>
                    <path d="M19.6016937,37.845118 C19.6016937,39.0524747 19.1755742,40.0822635 18.3233224,40.9345153 C17.4710706,41.7867672 16.4412818,42.2128867 15.233925,42.2128867 C14.0265683,42.2128867 12.9967795,41.7867672 12.1445276,40.9345153 C11.2922758,40.0822635 10.8661563,39.0524747 10.8661563,37.845118 C10.8661563,36.6377612 11.2922758,35.6079724 12.1445276,34.7557206 C12.9967795,33.9034688 14.0265683,33.4773492 15.233925,33.4773492 C16.4412818,33.4773492 17.4710706,33.9034688 18.3233224,34.7557206 C19.1755742,35.6079724 19.6016937,36.6377612 19.6016937,37.845118 Z" id="Path"></path>
                    <path d="M30.4678501,48.7112743 C30.4678501,49.918631 30.0417305,50.9484198 29.1894787,51.8006717 C28.3372269,52.6529235 27.3074381,53.079043 26.1000813,53.079043 C24.8927246,53.079043 23.8629358,52.6529235 23.010684,51.8006717 C22.1584322,50.9484198 21.7323126,49.918631 21.7323126,48.7112743 C21.7323126,47.5039175 22.1584322,46.4741287 23.010684,45.6218769 C23.8629358,44.7696251 24.8927246,44.3435056 26.1000813,44.3435056 C27.3074381,44.3435056 28.3372269,44.7696251 29.1894787,45.6218769 C30.0417305,46.4741287 30.4678501,47.5039175 30.4678501,48.7112743 Z" id="Path"></path>
                    <path d="M8.73553743,26.9789616 C8.73553743,28.1863184 8.30941792,29.2161072 7.4571661,30.068359 C6.60491428,30.9206108 5.57512545,31.3467304 4.36776872,31.3467304 C3.16041198,31.3467304 2.13062315,30.9206108 1.27837133,30.068359 C0.426119516,29.2161072 0,28.1863184 0,26.9789616 C0,25.7716049 0.426119516,24.7418161 1.27837133,23.8895643 C2.13062315,23.0373124 3.16041198,22.6111929 4.36776872,22.6111929 C5.57512545,22.6111929 6.60491428,23.0373124 7.4571661,23.8895643 C8.30941792,24.7418161 8.73553743,25.7716049 8.73553743,26.9789616 Z" id="Path"></path>
                    <path d="M19.6016937,26.9789616 C19.6016937,28.1863184 19.1755742,29.2161072 18.3233224,30.068359 C17.4710706,30.9206108 16.4412818,31.3467304 15.233925,31.3467304 C14.0265683,31.3467304 12.9967795,30.9206108 12.1445276,30.068359 C11.2922758,29.2161072 10.8661563,28.1863184 10.8661563,26.9789616 C10.8661563,25.7716049 11.2922758,24.7418161 12.1445276,23.8895643 C12.9967795,23.0373124 14.0265683,22.6111929 15.233925,22.6111929 C16.4412818,22.6111929 17.4710706,23.0373124 18.3233224,23.8895643 C19.1755742,24.7418161 19.6016937,25.7716049 19.6016937,26.9789616 Z" id="Path"></path>
                    <path d="M41.3340064,48.7112743 C41.3340064,49.918631 40.9078869,50.9484198 40.0556351,51.8006717 C39.2033832,52.6529235 38.1735944,53.079043 36.9662377,53.079043 C35.7588809,53.079043 34.7290921,52.6529235 33.8768403,51.8006717 C33.0245885,50.9484198 32.598469,49.918631 32.598469,48.7112743 C32.598469,47.5039175 33.0245885,46.4741287 33.8768403,45.6218769 C34.7290921,44.7696251 35.7588809,44.3435056 36.9662377,44.3435056 C38.1735944,44.3435056 39.2033832,44.7696251 40.0556351,45.6218769 C40.9078869,46.4741287 41.3340064,47.5039175 41.3340064,48.7112743 Z" id="Path"></path>
                    <path d="M8.73553743,16.1128053 C8.73553743,17.3201621 8.30941792,18.3499509 7.4571661,19.2022027 C6.60491428,20.0544545 5.57512545,20.480574 4.36776872,20.480574 C3.16041198,20.480574 2.13062315,20.0544545 1.27837133,19.2022027 C0.426119516,18.3499509 0,17.3201621 0,16.1128053 C0,14.9054486 0.426119516,13.8756598 1.27837133,13.0234079 C2.13062315,12.1711561 3.16041198,11.7450366 4.36776872,11.7450366 C5.57512545,11.7450366 6.60491428,12.1711561 7.4571661,13.0234079 C8.30941792,13.8756598 8.73553743,14.9054486 8.73553743,16.1128053 Z" id="Path"></path>
                    <path d="M19.6016937,16.1128053 C19.6016937,17.3201621 19.1755742,18.3499509 18.3233224,19.2022027 C17.4710706,20.0544545 16.4412818,20.480574 15.233925,20.480574 C14.0265683,20.480574 12.9967795,20.0544545 12.1445276,19.2022027 C11.2922758,18.3499509 10.8661563,17.3201621 10.8661563,16.1128053 C10.8661563,14.9054486 11.2922758,13.8756598 12.1445276,13.0234079 C12.9967795,12.1711561 14.0265683,11.7450366 15.233925,11.7450366 C16.4412818,11.7450366 17.4710706,12.1711561 18.3233224,13.0234079 C19.1755742,13.8756598 19.6016937,14.9054486 19.6016937,16.1128053 Z" id="Path"></path>
                    <path d="M52.2001627,48.7112743 C52.2001627,49.918631 51.7740432,50.9484198 50.9217914,51.8006717 C50.0695396,52.6529235 49.0397507,53.079043 47.832394,53.079043 C46.6250372,53.079043 45.5952484,52.6529235 44.7429966,51.8006717 C43.8907448,50.9484198 43.4646253,49.918631 43.4646253,48.7112743 C43.4646253,47.5039175 43.8907448,46.4741287 44.7429966,45.6218769 C45.5952484,44.7696251 46.6250372,44.3435056 47.832394,44.3435056 C49.0397507,44.3435056 50.0695396,44.7696251 50.9217914,45.6218769 C51.7740432,46.4741287 52.2001627,47.5039175 52.2001627,48.7112743 Z" id="Path"></path>
                    <path d="M63.066319,48.7104945 C63.066319,49.9178513 62.6401995,50.9476401 61.7879477,51.7998919 C60.9356959,52.6521437 59.905907,53.0782632 58.6985503,53.0782632 C57.4911936,53.0782632 56.4614047,52.6521437 55.6091529,51.7998919 C54.7569011,50.9476401 54.3307816,49.9178513 54.3307816,48.7104945 C54.3307816,47.5031378 54.7569011,46.473349 55.6091529,45.6210971 C56.4614047,44.7688453 57.4911936,44.3427258 58.6985503,44.3427258 C59.905907,44.3427258 60.9356959,44.7688453 61.7879477,45.6210971 C62.6401995,46.473349 63.066319,47.5031378 63.066319,48.7104945 Z" id="Path"></path>
                    <path d="M19.6016937,5.24664901 C19.6016937,6.45400574 19.1755742,7.48379457 18.3233224,8.33604639 C17.4710706,9.18829821 16.4412818,9.61441772 15.233925,9.61441772 C14.0265683,9.61441772 12.9967795,9.18829821 12.1445276,8.33604639 C11.2922758,7.48379457 10.8661563,6.45400574 10.8661563,5.24664901 C10.8661563,4.03929227 11.2922758,3.00950344 12.1445276,2.15725162 C12.9967795,1.30499981 14.0265683,0.87888029 15.233925,0.87888029 C16.4412818,0.87888029 17.4710706,1.30499981 18.3233224,2.15725162 C19.1755742,3.00950344 19.6016937,4.03929227 19.6016937,5.24664901 Z" id="Path"></path>
                    <path d="M30.4678501,5.24664901 C30.4678501,6.45400574 30.0417305,7.48379457 29.1894787,8.33604639 C28.3372269,9.18829821 27.3074381,9.61441772 26.1000813,9.61441772 C24.8927246,9.61441772 23.8629358,9.18829821 23.010684,8.33604639 C22.1584322,7.48379457 21.7323126,6.45400574 21.7323126,5.24664901 C21.7323126,4.03929227 22.1584322,3.00950344 23.010684,2.15725162 C23.8629358,1.30499981 24.8927246,0.87888029 26.1000813,0.87888029 C27.3074381,0.87888029 28.3372269,1.30499981 29.1894787,2.15725162 C30.0417305,3.00950344 30.4678501,4.03929227 30.4678501,5.24664901 Z" id="Path"></path>
                    <path d="M41.3340064,5.24664901 C41.3340064,6.45400574 40.9078869,7.48379457 40.0556351,8.33604639 C39.2033832,9.18829821 38.1735944,9.61441772 36.9662377,9.61441772 C35.7588809,9.61441772 34.7290921,9.18829821 33.8768403,8.33604639 C33.0245885,7.48379457 32.598469,6.45400574 32.598469,5.24664901 C32.598469,4.03929227 33.0245885,3.00950344 33.8768403,2.15725162 C34.7290921,1.30499981 35.7588809,0.87888029 36.9662377,0.87888029 C38.1735944,0.87888029 39.2033832,1.30499981 40.0556351,2.15725162 C40.9078869,3.00950344 41.3340064,4.03929227 41.3340064,5.24664901 Z" id="Path"></path>
                    <path d="M52.2001627,5.24664901 C52.2001627,6.45400574 51.7740432,7.48379457 50.9217914,8.33604639 C50.0695396,9.18829821 49.0397507,9.61441772 47.832394,9.61441772 C46.6250372,9.61441772 45.5952484,9.18829821 44.7429966,8.33604639 C43.8907448,7.48379457 43.4646253,6.45400574 43.4646253,5.24664901 C43.4646253,4.03929227 43.8907448,3.00950344 44.7429966,2.15725162 C45.5952484,1.30499981 46.6250372,0.87888029 47.832394,0.87888029 C49.0397507,0.87888029 50.0695396,1.30499981 50.9217914,2.15725162 C51.7740432,3.00950344 52.2001627,4.03929227 52.2001627,5.24664901 Z" id="Path"></path>
                    <path d="M63.066319,5.25049544 C63.066319,6.45785217 62.6401995,7.487641 61.7879477,8.33989282 C60.9356959,9.19214464 59.905907,9.61826415 58.6985503,9.61826415 C57.4911936,9.61826415 56.4614047,9.19214464 55.6091529,8.33989282 C54.7569011,7.487641 54.3307816,6.45785217 54.3307816,5.25049544 C54.3307816,4.0431387 54.7569011,3.01334987 55.6091529,2.16109805 C56.4614047,1.30884624 57.4911936,0.88272672 58.6985503,0.88272672 C59.905907,0.88272672 60.9356959,1.30884624 61.7879477,2.16109805 C62.6401995,3.01334987 63.066319,4.0431387 63.066319,5.25049544 Z" id="Path"></path>
                </g>
            </g>
            <path d="M147.809075,158.993518 L40,236 L40,20 L148,97.1428571 L256,20 L256,81.7142857 L191.2,128 L256,174.285714 L256,236 L147.809075,158.993518 L147.809075,158.993518 Z M75,99 L75,158 L116,128 L75,99 Z" id="Mark" fill="#00966C"></path>
        </g>
    </g>
</svg>