<?xml version="1.0" encoding="UTF-8"?>
<svg width="512px" height="512px" viewBox="0 0 512 512" version="1.1" xmlns="http://www.w3.org/2000/svg" xmlns:xlink="http://www.w3.org/1999/xlink">
    <!-- Generator: Sketch 43 (38999) - http://www.bohemiancoding.com/sketch -->
    <title>developer-spotlight</title>
    <desc>Created with Sketch.</desc>
    <defs></defs>
    <g id="Page-1" stroke="none" stroke-width="1" fill="none" fill-rule="evenodd" stroke-linecap="round" stroke-linejoin="round">
        <g id="developer-spotlight" stroke="#FFFFFF" stroke-width="10">
            <g transform="translate(27.000000, 16.000000)">
                <g id="Group" transform="translate(0.000000, 33.000000)">
                    <path d="M105.7,385.2 L17.3,180.5" id="Shape"></path>
                    <path d="M54.7,164.1 L151.2,385.2" id="Shape"></path>
                    <polyline id="Shape" points="53.8 161.4 266.7 35.7 245.9 0.5 28.8 128.7"></polyline>
                    <circle id="Oval" cx="27.3" cy="155.9" r="26.6"></circle>
                </g>
                <path d="M128.7,418.2 C89.2,418.2 57.2,445.9 57.2,480 L200.2,480 C200.2,445.8 168.2,418.2 128.7,418.2 Z" id="Shape"></path>
                <path d="M391.8,135.8 C400.4,150.4 395.5,169.2 380.9,177.7 C366.3,186.2 347.5,181.4 339,166.8" id="Shape"></path>
                <path d="M290.7,69.5 L266.5,28.3 C263.7,23.6 265.3,17.4 270,14.7 L292.6,1.5 C297.3,-1.3 303.4,0.3 306.2,5 L331.1,46.4 C378,31.6 431.3,50.6 457.3,94.8 L271,203.9 C244.4,158.6 252.6,103 290.7,69.5 Z" id="Shape"></path>
                <path d="M312.8,17 L227.6,67" id="Shape"></path>
                <path d="M286,60.2 L324.5,37.6" id="Shape"></path>
            </g>
        </g>
    </g>
</svg>