<?xml version="1.0" encoding="UTF-8"?>
<svg width="512px" height="512px" viewBox="0 0 512 512" version="1.1" xmlns="http://www.w3.org/2000/svg" xmlns:xlink="http://www.w3.org/1999/xlink">
    <!-- Generator: Sketch 43 (38999) - http://www.bohemiancoding.com/sketch -->
    <title>open-source</title>
    <desc>Created with Sketch.</desc>
    <defs></defs>
    <g id="Page-1" stroke="none" stroke-width="1" fill="none" fill-rule="evenodd">
        <g id="open-source" fill-rule="nonzero" fill="#FFFFFF">
            <g transform="translate(16.000000, 16.000000)" id="Shape">
                <path d="M239.928542,0.00101374462 C107.737494,0.00101374462 0.190821039,107.48125 0.190821039,239.590638 C0.190821039,371.700025 107.737494,479.180262 239.928542,479.180262 C372.11959,479.180262 479.666263,371.700025 479.666263,239.590638 C479.666263,107.48125 372.11959,0.00101374462 239.928542,0.00101374462 Z M239.928542,468.75743 C113.489239,468.75743 10.620095,365.951833 10.620095,239.590638 C10.620095,113.229442 113.489239,10.4238451 239.928542,10.4238451 C366.367845,10.4238451 469.236989,113.229442 469.236989,239.590638 C469.236989,365.951833 366.367845,468.75743 239.928542,468.75743 Z"></path>
                <path d="M351.881584,128.551004 C350.416271,125.945296 347.652513,124.319335 344.674955,124.319335 C344.508087,124.319335 344.033555,124.34018 343.866687,124.361026 C308.720033,127.769292 292.022766,139.062429 284.471971,146.957724 C255.812326,140.120347 224.044758,140.120347 195.385113,146.957724 C187.849962,139.057218 171.152695,127.769292 135.985183,124.355814 C135.823529,124.34018 135.364641,124.319335 135.202987,124.319335 C132.199357,124.319335 129.430384,125.945296 127.959857,128.577061 C126.525831,131.182769 114.563454,154.274552 123.845508,185.782771 C108.050373,202.438455 99.7173827,221.934361 99.7173827,242.347477 C99.7173827,269.128942 101.323491,297.109032 120.51857,319.028247 C141.632635,343.136256 180.690266,354.856729 239.923327,354.856729 C299.151174,354.856729 338.219235,343.136256 359.338515,319.028247 C378.528379,297.109032 380.129272,269.128942 380.129272,242.347477 C380.129272,221.939573 371.796282,202.448878 356.001147,185.782771 C365.298845,154.279763 353.336467,131.182769 351.881584,128.551004 Z M175.09496,325.302791 C158.423766,314.921651 150.315005,297.129878 150.315005,270.921669 C150.315005,240.278545 163.283808,237.740585 177.733567,237.740585 C185.894474,237.740585 195.275606,239.064285 205.214704,240.460944 C216.535681,242.055637 228.237326,243.702445 239.928542,243.702445 C251.630188,243.702445 263.326618,242.055637 274.642381,240.460944 C284.576264,239.059073 293.957396,237.740585 302.123518,237.740585 C316.573277,237.740585 329.536864,240.278545 329.536864,270.921669 C329.536864,297.13509 321.433318,314.921651 304.762124,325.302791 C290.588741,334.130929 269.990924,338.242736 239.928542,338.242736 C209.871375,338.242736 189.273558,334.130929 175.09496,325.302791 Z M369.710428,242.347477 C369.710428,267.148604 368.302476,292.965957 351.500915,312.164812 C340.821339,324.349102 324.650749,333.020898 302.603264,338.284428 C305.32009,337.023265 307.875262,335.647451 310.284424,334.146564 C330.256484,321.706914 339.966138,301.028017 339.966138,270.921669 C339.966138,232.27381 319.743776,227.317754 302.123518,227.317754 C293.232561,227.317754 283.496834,228.688356 273.187497,230.142341 C262.231545,231.68492 250.905353,233.279613 239.928542,233.279613 C228.962161,233.279613 217.630754,231.68492 206.669587,230.142341 C196.36025,228.688356 186.624523,227.317754 177.733567,227.317754 C160.113308,227.317754 139.885731,232.27381 139.885731,270.921669 C139.885731,301.022806 149.595386,321.706914 169.577874,334.146564 C171.981822,335.647451 174.536994,337.023265 177.259035,338.284428 C155.21155,333.020898 139.04096,324.349102 128.366598,312.164812 C111.549394,292.965957 110.146657,267.148604 110.146657,242.347477 C110.146657,223.831317 118.198056,206.034332 133.430011,190.889958 C134.837963,189.493299 135.322924,187.424367 134.702382,185.548257 C126.11909,159.809075 134.045338,139.974427 136.4545,134.877663 C172.044398,138.624671 185.378225,150.876709 189.482144,156.025587 C190.764945,157.635915 192.871658,158.344667 194.863649,157.823526 C223.695377,150.397259 256.146063,150.397259 284.98822,157.823526 C286.980212,158.334245 289.08171,157.630703 290.364511,156.025587 C294.484074,150.871497 307.859618,138.577768 343.397369,134.86724 C345.811746,139.969216 353.73278,159.809075 345.154702,185.548257 C344.528946,187.424367 345.019121,189.493299 346.421859,190.889958 C361.659028,206.044755 369.710428,223.836528 369.710428,242.347477 Z"></path>
                <path d="M186.045698,254.260773 C175.230541,254.260773 166.76197,265.29334 166.76197,279.374585 C166.76197,293.45583 175.230541,304.488397 186.045698,304.488397 C196.860855,304.488397 205.33464,293.45583 205.33464,279.374585 C205.33464,265.29334 196.860855,254.260773 186.045698,254.260773 Z M186.045698,294.065566 C181.243017,294.065566 177.191244,287.337628 177.191244,279.374585 C177.191244,271.411542 181.243017,264.683604 186.045698,264.683604 C190.848379,264.683604 194.905366,271.411542 194.905366,279.374585 C194.905366,287.337628 190.848379,294.065566 186.045698,294.065566 Z"></path>
                <path d="M293.811386,254.260773 C282.996229,254.260773 274.527659,265.29334 274.527659,279.374585 C274.527659,293.45583 282.996229,304.488397 293.811386,304.488397 C304.626543,304.488397 313.100328,293.45583 313.100328,279.374585 C313.100328,265.29334 304.626543,254.260773 293.811386,254.260773 Z M293.811386,294.065566 C289.008706,294.065566 284.956933,287.337628 284.956933,279.374585 C284.956933,271.411542 289.008706,264.683604 293.811386,264.683604 C298.614067,264.683604 302.671054,271.411542 302.671054,279.374585 C302.671054,287.337628 298.614067,294.065566 293.811386,294.065566 Z"></path>
            </g>
        </g>
    </g>
</svg>