<?xml version="1.0" encoding="UTF-8"?>
<svg width="512px" height="512px" viewBox="0 0 512 512" version="1.1" xmlns="http://www.w3.org/2000/svg" xmlns:xlink="http://www.w3.org/1999/xlink">
    <!-- Generator: Sketch 43 (38999) - http://www.bohemiancoding.com/sketch -->
    <title>weekly-hangouts</title>
    <desc>Created with Sketch.</desc>
    <defs></defs>
    <g id="Page-1" stroke="none" stroke-width="1" fill="none" fill-rule="evenodd" stroke-linecap="round" stroke-linejoin="round">
        <g id="weekly-hangouts" stroke="#FFFFFF" stroke-width="12">
            <g transform="translate(54.000000, 12.000000)">
                <path d="M404.115721,202.497288 C404.310648,92.482821 316.273912,2.62328561 206.277104,0.56242484 C96.2802958,-1.49843593 4.93928536,85.0003423 1.01302918,194.9449 C-2.91322701,304.889458 82.0250251,397.683218 191.888646,403.473635 L191.888646,488.363327 C316.962705,455.094534 404.041772,341.893263 404.115721,212.471826 L404.115721,212.471826 C403.691266,209.925136 404.115721,206.105099 404.115721,202.497288 Z" id="_Path_"></path>
                <path d="M106.997817,149.44123 L106.997817,213.108499 L138.831878,213.108499 L138.831878,255.553345 C158.068137,250.597229 171.294156,232.962774 170.665939,213.108499 L170.665939,149.44123 L106.997817,149.44123 Z" id="_Path_2"></path>
                <path d="M234.334061,149.44123 L234.334061,213.108499 L266.168122,213.108499 L266.168122,255.553345 C285.404382,250.597229 298.6304,232.962774 298.002183,213.108499 L298.002183,149.44123 L234.334061,149.44123 Z" id="_Path_3"></path>
            </g>
        </g>
    </g>
</svg>