<svg version="1" xmlns="http://www.w3.org/2000/svg" width="21.333" height="21.333" viewBox="0 0 16.000000 16.000000"><path d="M0 7.994v8.012l.238-.175.418-.312c.238-.188.225-.175.781-.581.257-.188.5-.363.532-.394.093-.075.537-.4 1.593-1.182l1.97-1.456c.55-.406 1.318-.975 1.7-1.262.387-.288.73-.519.768-.519.056 0 2.119 1.5 2.3 1.669.05.043.144.112.213.15.068.037.168.106.225.156.056.044.7.519 1.418 1.05.725.531 1.344.994 1.375 1.025.038.025.331.244.656.481.326.244.638.469.688.513.05.037.325.243.613.45L16 16v-4.163l-1.325-.975A744.866 744.866 0 0 1 12.156 9a52.78 52.78 0 0 0-1.281-.938c-.081-.05-.081-.068-.006-.118.081-.05 1.55-1.132 2.431-1.788.231-.175.931-.694 1.563-1.156L16 4.162V0l-.731.544a924.92 924.92 0 0 0-3.363 2.487C9.37 4.92 8.05 5.875 7.994 5.875c-.031 0-.544-.363-1.138-.8C6.263 4.631 4.531 3.35 3 2.219A228.712 228.712 0 0 1 .112.075C.006-.013 0 .369 0 7.994zm4.15-1.056C4.888 7.505 5.494 7.98 5.494 8c0 .019-.281.244-.625.5s-.675.513-.731.563c-.132.124-1.37 1.062-1.4 1.062-.013 0-.02-.956-.02-2.125s.02-2.119.045-2.113c.018.013.643.482 1.387 1.05z"/></svg>