<?xml version="1.0" encoding="UTF-8"?>
<svg width="256px" height="256px" viewBox="0 0 256 256" version="1.1" xmlns="http://www.w3.org/2000/svg" xmlns:xlink="http://www.w3.org/1999/xlink">
    <!-- Generator: Sketch 44.1 (41455) - http://www.bohemiancoding.com/sketch -->
    <title>cloudflare</title>
    <desc>Created with Sketch.</desc>
    <defs></defs>
    <g id="Technologies" stroke="none" stroke-width="1" fill="none" fill-rule="evenodd">
        <g id="cloudflare" fill-rule="nonzero">
            <g id="group" transform="translate(1.852618, 70.000000)">
                <polygon id="Shape" fill="#FFFFFF" points="231.8737 68.6209799 200.082771 50.3912163 194.599021 48.019865 64.5452198 48.9091217 64.5452198 114.936436 231.8737 114.936436"></polygon>
                <path d="M173.997906,108.859848 C175.554105,103.524308 174.961267,98.6333955 172.367602,95.0022638 C169.99625,91.6675509 165.994595,89.7408279 161.177788,89.5185137 L69.954865,88.3328381 C69.3620272,88.3328381 68.8432941,88.0364191 68.5468752,87.5917908 C68.2504563,87.1471624 68.1763515,86.5543245 68.324561,85.9614867 C68.6209799,85.0722299 69.5102367,84.4052874 70.4735982,84.3311826 L162.511673,83.145507 C173.405068,82.6267739 185.261825,73.808311 189.41169,62.9890204 L194.673126,49.2796454 C194.89544,48.6868076 194.969544,48.0939697 194.821335,47.5011319 C188.892957,20.6752196 164.957129,0.666942569 136.352703,0.666942569 C109.971419,0.666942569 87.5917908,17.7110305 79.5884799,41.3504393 C74.4011488,37.4969933 67.8058279,35.4220609 60.6917738,36.0890035 C48.019865,37.3487839 37.867517,47.5011319 36.6077366,60.1730407 C36.3113177,63.4336488 36.5336319,66.6201522 37.2746792,69.5843414 C16.5994595,70.1771792 0.0741047299,87.0730577 0.0741047299,107.896487 C0.0741047299,109.749105 0.22231419,111.601723 0.44462838,113.454342 C0.592837839,114.343598 1.33388514,115.010541 2.2231419,115.010541 L170.589088,115.010541 C171.55245,115.010541 172.441707,114.343598 172.738125,113.380237 L173.997906,108.859848 Z" id="Shape" fill="#F38020"></path>
                <path d="M203.04696,50.2430069 C202.231808,50.2430069 201.342551,50.2430069 200.527399,50.3171116 C199.934561,50.3171116 199.415828,50.76174 199.193514,51.3545778 L195.636487,63.7300677 C194.080288,69.0656083 194.673126,73.9565205 197.266791,77.5876522 C199.638142,80.9223651 203.639798,82.8490881 208.456605,83.0714022 L227.872045,84.2570779 C228.464882,84.2570779 228.983615,84.5534968 229.280034,84.9981252 C229.576453,85.4427536 229.650558,86.1096962 229.502349,86.6284293 C229.20593,87.517686 228.316673,88.1846286 227.353311,88.2587333 L207.12272,89.444409 C196.15522,89.9631421 184.372568,98.781605 180.222703,109.600896 L178.740609,113.380237 C178.44419,114.121284 178.962923,114.862331 179.778075,114.862331 L249.288311,114.862331 C250.103463,114.862331 250.844511,114.343598 251.066825,113.528446 C252.252501,109.230372 252.919443,104.709983 252.919443,100.041385 C252.919443,72.6226353 230.539815,50.2430069 203.04696,50.2430069" id="Shape" fill="#FAAE40"></path>
            </g>
        </g>
    </g>
</svg>