<?xml version="1.0" encoding="UTF-8"?>
<svg width="256px" height="256px" viewBox="0 0 256 256" version="1.1" xmlns="http://www.w3.org/2000/svg" xmlns:xlink="http://www.w3.org/1999/xlink">
    <!-- Generator: Sketch 44.1 (41455) - http://www.bohemiancoding.com/sketch -->
    <title>craftcms</title>
    <desc>Created with Sketch.</desc>
    <defs></defs>
    <g id="Technologies" stroke="none" stroke-width="1" fill="none" fill-rule="evenodd">
        <g id="craftcms" fill-rule="nonzero" fill="#D95947">
            <g id="group" transform="translate(0.000000, 60.000000)">
                <path d="M237.969199,27.4017324 L237.899635,27.4017324 L222.800686,39.2447102 L221.66729,45.2120101 L206.027093,45.2120101 L210.598008,21.2121646 C211.675413,12.1585643 225.462811,14.8987376 227.517517,15.4128382 L229.719836,3.84811944 C204.925934,-5.68225398 197.687805,21.2121646 197.687805,21.2121646 L193.118587,45.2120101 L193.038842,45.2120101 L177.510628,57.3892381 L190.800892,57.3892381 L176.193987,134.039434 L189.105887,134.039434 L203.704309,57.3892381 L219.344505,57.3892381 L213.628317,87.3937109 C209.993982,109.238745 231.87295,106.846396 238.856574,105.443224 L241.04023,94.002364 C224.336201,97.7741318 226.53852,87.3937109 226.53852,87.3937109 L232.256405,57.3892381 L252.165503,57.3892381 L254.484894,45.2120101 L234.575796,45.2120101 L237.969199,27.4017324 L237.969199,27.4017324 Z" id="Shape"></path>
                <path d="M135.600399,45.5038427 L133.267435,58.4174393 C164.817603,44.6673688 159.501836,68.6231 159.501836,68.6231 L158.85709,72.2251977 C158.85709,72.2251977 140.359648,62.7304551 127.41042,73.3026033 C127.41042,73.3026033 119.826164,78.3587744 119.826164,88.4728132 C119.826164,98.5885487 129.096942,104.024781 129.096942,104.024781 C129.096942,104.024781 143.040436,111.381679 153.958712,99.6235367 L152.754054,105.0954 L164.965216,105.0954 L172.639397,68.6926648 C178.3997,32.7734899 135.600399,45.5038427 135.600399,45.5038427 L135.600399,45.5038427 Z M155.886165,88.8511776 C142.451681,102.636879 133.847707,93.6087292 133.847707,93.6087292 C128.02293,87.9383521 134.460216,82.1152719 134.460216,82.1152719 C143.347539,73.9931609 156.946603,82.9178118 156.946603,82.9178118 L155.886165,88.8511776 L155.886165,88.8511776 Z" id="Shape"></path>
                <path d="M124.666854,45.2493375 C114.708911,45.354533 105.660401,50.9095343 105.660401,50.9095343 L106.817552,45.4597285 L94.8659851,45.4597285 L83.9612834,105.209079 L96.1741422,105.209079 L103.566671,65.8998938 C109.031748,54.7966779 122.53919,58.2477692 122.53919,58.2477692 L124.666854,45.2493375 L124.666854,45.2493375 Z" id="Shape"></path>
                <path d="M78.0720318,19.6444122 C78.6896312,20.1110052 79.2749933,20.6047454 79.8501751,21.1086658 L89.1175598,13.8366023 L89.4059991,13.4599345 C87.9875565,12.0262216 86.4639184,10.670557 84.8113309,9.42348121 C63.5448719,-6.63071022 31.4042517,0.0899251898 13.030669,24.4375945 C-5.34121693,48.7801737 -2.99467849,81.5248197 18.2768707,97.5807079 C35.6443092,110.689425 60.2515739,108.609269 78.6998114,94.1567638 L78.6811477,94.1194364 L69.8582989,87.1985902 C56.1879733,95.9908984 39.2277432,96.6237681 26.9571965,87.3631703 C10.6196559,75.0298456 8.816062,49.876243 22.92753,31.1751969 C37.0440881,12.4741509 61.7327945,7.3127843 78.0720318,19.6444122 L78.0720318,19.6444122 Z" id="Shape"></path>
            </g>
        </g>
    </g>
</svg>