<?xml version="1.0" encoding="UTF-8"?>
<svg width="256px" height="256px" viewBox="0 0 256 256" version="1.1" xmlns="http://www.w3.org/2000/svg" xmlns:xlink="http://www.w3.org/1999/xlink">
    <!-- Generator: Sketch 44.1 (41455) - http://www.bohemiancoding.com/sketch -->
    <title>forge</title>
    <desc>Created with Sketch.</desc>
    <defs></defs>
    <g id="Technologies" stroke="none" stroke-width="1" fill="none" fill-rule="evenodd">
        <g id="forge" fill-rule="nonzero" fill="#4A4A4A">
            <g id="group" transform="translate(0.000000, 105.000000)">
                <path d="M91.5287651,0.372476125 C96.3709557,0.372476125 98.6058123,1.2415872 99.9715582,2.97980923 C101.958098,5.58714234 103.075526,10.8018087 99.8473993,23.5901568 C96.6192734,36.3785049 93.0186698,41.4690124 89.666385,44.2005042 C87.4315273,45.9387263 84.7000355,46.8078374 79.857846,46.8078374 L64.3380058,46.8078374 C59.4958158,46.8078374 57.1368002,45.9387263 55.895213,44.2005042 C53.9086734,41.5931711 52.7912449,36.3785049 56.1435304,23.5901568 C59.371657,10.8018087 63.0964186,5.71130117 66.4487041,2.97980923 C68.6835611,1.2415872 71.4150529,0.372476125 76.2572424,0.372476125 L91.5287651,0.372476125 Z M68.9318785,35.5093938 C69.1801959,35.88187 69.8009894,36.0060287 71.7875294,36.0060287 L77.7471472,36.0060287 C79.7336872,36.0060287 80.478639,35.88187 80.9752743,35.5093938 C81.5960684,35.012759 82.7134967,33.7711718 85.1966708,23.5901568 C87.8040038,13.4091418 87.3073685,12.1675546 86.9348932,11.6709196 C86.6865756,11.2984435 86.0657814,11.1742848 84.0792426,11.1742848 L78.2437825,11.1742848 C76.2572424,11.1742848 75.5122906,11.2984435 75.0156553,11.6709196 C74.3948624,12.1675546 73.2774341,13.4091418 70.7942588,23.5901568 C68.0627674,33.8953305 68.5594024,35.012759 68.9318785,35.5093938 Z M129.148858,31.7846322 C128.652222,31.1638387 128.155588,30.9155212 125.175779,30.9155212 L119.340319,30.9155212 C118.719526,30.9155212 118.098731,31.4121561 117.974573,32.0329497 L114.622288,45.6904089 C114.498129,46.3112025 113.877335,46.8078374 113.256542,46.8078374 L101.213145,46.8078374 C100.592352,46.8078374 100.219876,46.3112025 100.344035,45.6904089 L111.394161,1.48990462 C111.51832,0.869111075 112.139113,0.372476125 112.759907,0.372476125 L141.068094,0.372476125 C145.661967,0.372476125 148.145141,0.993269783 149.510887,2.73149182 C151.000792,4.84219009 151.497427,7.07704708 149.883364,13.5333005 C147.772666,22.2244109 144.544539,24.7075853 138.957397,25.8250137 L138.957397,25.9491725 C143.302952,27.0666009 145.661967,28.5565056 144.172063,35.2610764 C143.302952,39.1099967 142.682158,42.958917 142.309681,45.5662502 C142.185524,46.1870438 141.56473,46.8078374 140.943935,46.8078374 L128.652222,46.8078374 C128.155588,46.8078374 127.658953,46.4353612 127.783112,45.8145676 C128.155588,42.958917 128.652222,40.1032665 129.397175,36.5026636 C129.89381,33.1503782 129.645493,32.5295846 129.148858,31.7846322 L129.148858,31.7846322 Z M128.279747,20.8586649 C130.88708,20.8586649 131.632032,20.7345062 132.128667,20.36203 C132.997778,19.7412365 133.618572,18.623808 134.239365,15.8923162 C134.860159,13.1608242 134.736,12.1675546 134.239365,11.5467609 C133.866889,11.1742848 133.246095,11.0501261 130.638762,11.0501261 L124.182509,11.0501261 C123.561715,11.0501261 122.940922,11.5467609 122.816763,12.1675546 L120.954382,19.8653952 C120.830223,20.4861887 121.2027,20.9828237 121.823493,20.9828237 L128.279747,20.9828237 L128.279747,20.8586649 Z M188.993361,0 C193.959709,0 196.567042,0.620793541 198.056947,2.35901569 C199.795169,4.46971397 200.415962,7.69784062 199.050217,14.8990464 C198.926058,15.5198399 198.305265,16.0164749 197.684471,16.0164749 L186.13771,16.0164749 C185.516916,16.0164749 185.14444,15.5198399 185.268599,15.0232051 C185.765234,12.1675546 185.14444,11.7950783 184.771964,11.2984435 C184.523647,10.9259674 184.027012,10.8018087 181.916314,10.8018087 L175.956695,10.8018087 C173.845997,10.8018087 173.225203,10.9259674 172.728568,11.2984435 C171.983616,11.919237 170.61787,14.0299353 168.383014,23.4659981 C166.148156,32.9020607 166.520632,35.1369177 166.893109,35.7577113 C167.141425,36.1301875 167.762219,36.2543462 169.872917,36.2543462 L176.205013,36.2543462 C178.067394,36.2543462 178.812346,36.1301875 179.308981,35.7577113 C179.929774,35.2610764 181.171361,34.0194892 181.916314,30.6672038 L182.040473,30.2947276 L173.101044,30.2947276 C172.480251,30.2947276 172.107775,29.7980928 172.231934,29.1772991 L173.970155,21.7277759 C174.094314,21.1069824 174.715108,20.6103474 175.335902,20.6103474 L196.81536,20.6103474 C197.436153,20.6103474 197.808629,21.1069824 197.684471,21.7277759 L196.567042,26.3216486 C193.959709,37.6200921 190.855741,41.5931711 187.627615,44.2005042 C185.268599,46.1870438 181.916314,46.9319961 177.570758,46.9319961 L162.050918,46.9319961 C157.208729,46.9319961 154.849712,46.062885 153.483966,44.2005042 C151.373269,41.4690124 150.25584,36.3785049 153.359807,23.4659981 C156.463776,10.5534911 160.064379,5.33882492 163.416664,2.73149182 C165.651522,0.869111075 168.383014,0 173.225203,0 L188.993361,0 L188.993361,0 Z M237.415261,46.9319961 L200.291804,46.9319961 C199.671011,46.9319961 199.298534,46.4353612 199.422693,45.8145676 L209.852025,1.11742849 C209.976184,0.496634833 210.596978,0 211.217771,0 L254.425006,0 C255.169959,0 255.542434,0.744952367 255.0458,1.48990462 C253.183419,4.46971397 245.982213,10.8018087 237.911896,10.8018087 L222.888691,10.8018087 C222.267897,10.8018087 221.647104,11.2984435 221.522945,11.919237 L220.405517,16.8855858 C220.281358,17.5063795 220.653835,18.0030143 221.274628,18.0030143 L241.512498,18.0030143 C242.133293,18.0030143 242.505769,18.4996493 242.38161,19.1204428 L240.643388,26.9424422 C240.519229,27.5632358 239.898436,28.0598706 239.277642,28.0598706 L219.039771,28.0598706 C218.418977,28.0598706 217.798184,28.5565056 217.674025,29.1772991 L216.308279,34.8886003 C216.18412,35.5093938 216.556597,36.0060287 217.17739,36.0060287 L239.898436,36.0060287 C240.519229,36.0060287 240.891706,36.5026636 240.767547,37.1234572 L238.781007,45.6904089 C238.656849,46.4353612 238.036055,46.9319961 237.415261,46.9319961 L237.415261,46.9319961 Z M58.9991809,0.372476125 L8.09410583,0.372476125 C7.47331218,0.372476125 6.85251863,0.869111075 6.72835993,1.48990462 L5.48677273,5.95961858 C5.36261402,6.45625342 5.61093143,6.82872954 5.98340756,7.07704708 C7.96994713,7.69784062 18.647597,7.94615803 17.0335337,13.9057766 L16.6610575,15.5198399 L12.3155023,31.7846322 L11.9430261,33.3986956 C10.3289628,39.3583142 4.61766165,39.6066316 2.25864596,40.2274252 C1.76201113,40.3515839 1.38953488,40.8482188 1.26537618,41.3448537 L0.0237889761,45.8145676 C-0.100369732,46.4353612 0.27210651,46.9319961 0.892900051,46.9319961 L21.6274062,46.9319961 C22.2481999,46.9319961 22.8689934,46.4353612 22.9931522,45.8145676 L26.7179138,31.4121561 C26.8420725,30.7913625 27.4628661,30.2947276 28.0836597,30.2947276 L41.3686427,30.2947276 C41.9894364,30.2947276 42.6102299,29.7980928 42.7343886,29.1772991 L44.7209282,21.4794585 C44.8450869,20.8586649 44.4726108,20.36203 43.8518171,20.36203 L30.5668341,20.36203 C29.9460405,20.36203 29.5735644,19.8653952 29.6977231,19.2446015 L31.5601038,12.2917133 C31.6842625,11.6709196 32.3050562,11.1742848 32.9258497,11.1742848 L52.9154036,11.1742848 C53.5361973,11.1742848 54.1569908,10.6776498 54.2811495,10.0568563 L59.6199746,1.61406332 C59.868292,0.869111075 59.6199746,0.372476125 58.9991809,0.372476125 Z" id="Shape"></path>
            </g>
        </g>
    </g>
</svg>