<?xml version="1.0" encoding="UTF-8"?>
<svg width="256px" height="256px" viewBox="0 0 256 256" version="1.1" xmlns="http://www.w3.org/2000/svg" xmlns:xlink="http://www.w3.org/1999/xlink">
    <!-- Generator: Sketch 44.1 (41455) - http://www.bohemiancoding.com/sketch -->
    <title>gulp</title>
    <desc>Created with Sketch.</desc>
    <defs></defs>
    <g id="Technologies" stroke="none" stroke-width="1" fill="none" fill-rule="evenodd">
        <g id="gulp" fill-rule="nonzero">
            <g id="group" transform="translate(70.000000, 0.000000)">
                <path d="M89.2291166,248.197428 L91.6837314,207.296226 L98.4613993,195.726473 C98.4613993,195.726473 83.035364,202.036919 57.2096678,202.036919 C31.3835194,202.036919 16.1913216,195.843166 16.1913216,195.843166 L23.7871943,208.464057 L26.4742898,248.197428 C26.4742898,252.457159 40.5221767,255.909993 57.8519293,255.909993 C75.1807774,255.909993 89.2291166,252.457159 89.2291166,248.197428" id="Shape" fill="#D34A47"></path>
                <path d="M81.4862473,57.194742 L86.6383604,36.8300777 L115.169696,6.80842403 L107.649809,0.403448763 L77.4436184,32.384 L71.4615406,56.7144028 C67.1271802,56.5678587 62.6037597,56.4896113 57.9500777,56.4896113 C26.1373286,56.4896113 0.347816254,60.1152226 0.347816254,64.586629 C0.347816254,69.0584876 26.1373286,72.6836466 57.9500777,72.6836466 C89.7623746,72.6836466 115.551435,69.0584876 115.551435,64.586629 C115.551435,61.2939081 101.564608,58.4598163 81.4862473,57.194742" id="Shape" fill="#D34A47"></path>
                <path d="M78.4893286,68.5994064 C78.4893286,68.5994064 77.3735124,68.8495265 74.0911943,68.8635477 C70.8079717,68.8771166 68.4768339,68.8422898 67.5482686,67.9964947 C67.2986007,67.7694417 67.1620071,67.3185018 67.163364,67.0132014 C67.1660777,66.432 67.5785724,66.0896113 68.1041413,65.8752226 L68.6012155,66.6549823 C68.3850177,66.7296113 68.2615406,66.8178092 68.2610883,66.9118869 C68.2592792,67.3533286 71.6180353,67.6554629 74.1870813,67.6228975 C76.7565795,67.5912367 79.8611449,67.3795618 79.8638587,66.9444523 C79.8638587,66.8128339 79.6291166,66.6889046 79.2206926,66.5912085 L79.7155053,65.8168763 C80.3812862,66.023576 80.9624876,66.4229541 80.9611307,67.1140636 C80.9547986,68.2891307 79.4595053,68.467788 78.4893286,68.5994064" id="Shape" fill="#FFFFFF"></path>
                <path d="M115.113611,6.86767491 C115.830954,6.03906714 114.742276,3.91960424 112.682064,2.13438869 C110.620947,0.350077739 108.368509,-0.425159011 107.649809,0.403448763 C106.932014,1.23205654 108.021145,3.35151943 110.082261,5.13583039 C112.142473,6.92059364 114.395816,7.69673498 115.113611,6.86767491" id="Shape" fill="#D34A47"></path>
                <path d="M87.8568481,148.292297 C87.1806643,141.786459 102.087011,132.364212 98.2614841,132.06253 C90.0260636,132.533371 85.9273498,141.71364 81.7838587,151.328565 C80.2654982,154.85241 75.0699647,169.878615 71.6623604,168.028721 C68.2556608,166.179731 76.0790389,153.823435 78.2717739,146.485371 C75.7416254,148.340693 66.4627562,155.549852 64.0714629,148.798417 C60.2269399,152.063548 52.0118728,153.832481 52.938629,145.255576 C50.8933428,148.878473 46.3029823,153.936509 40.7931025,151.834686 C33.557258,149.075223 44.985894,126.025724 47.8276749,127.18858 C50.6699081,128.350982 47.2541625,133.601696 46.3595194,135.64065 C44.3920283,140.127887 42.1192367,145.768933 43.6375972,146.923647 C46.2387562,148.901993 53.3172014,139.439491 53.4746007,139.231435 C54.7984735,137.482403 58.5701767,126.039746 61.6100636,127.353668 C64.6499505,128.66759 54.0277597,143.775661 57.9993781,146.773936 C58.8003958,147.37911 62.0777385,146.400792 64.0714629,144.243788 C65.3614134,142.848452 64.9177102,139.757908 69.2176961,129.503435 C73.517682,119.249413 77.3499929,106.479265 80.2989682,107.452155 C83.2479435,108.424594 80.8173004,114.978827 79.7593781,117.422134 C74.7949682,128.889668 66.2103746,147.835025 70.2588834,146.400792 C74.3073922,144.967011 76.4155477,144.882883 80.3799293,140.243675 C84.344311,135.604466 84.161583,127.962912 86.8039011,128.125286 C89.4471237,128.288113 89.0034205,130.738205 88.3625159,132.603929 C90.9632226,129.627816 100.690318,123.359887 103.038643,129.567661 C105.820269,136.917032 89.1219223,147.53289 93.2853145,146.991491 C97.3446784,146.463661 103.921074,142.298459 106.728933,138.511378 L114.457781,69.0268269 C114.457781,69.0268269 106.680537,75.4630106 57.2019788,75.4630106 C7.7229682,75.4630106 0.750360424,69.1607067 0.750360424,69.1607067 L7.33037456,132.583576 C10.8230106,122.657018 19.1167774,102.578657 32.1899647,103.25258 C38.1367633,103.559237 46.075477,115.010035 39.2751943,115.398106 C36.3967774,115.561837 36.1045936,109.682431 32.6960848,108.818996 C30.2364947,108.195731 26.8121555,110.195336 24.5990671,112.361837 C20.1855548,116.681272 10.6932014,133.723364 11.9474205,142.21976 C13.5453852,153.051816 26.8949258,138.455746 29.1536961,134.12229 C30.744424,131.069739 31.8190813,122.025611 35.2981484,122.97453 C38.7776678,123.923449 34.9946572,133.257046 32.4726502,141.509201 C29.6394629,150.775406 28.1500495,160.549993 24.5990671,159.425583 C21.0476325,158.302078 26.8325088,146.339731 26.6230954,144.243788 C23.2851449,147.323477 17.1357173,155.12017 9.26846643,151.261173 L13.3549682,190.646276 C13.3549682,190.646276 24.2159717,199.227703 56.9337668,199.227703 C89.6515618,199.227703 100.914657,190.780155 100.914657,190.780155 L105.988975,145.162855 C101.837343,149.205484 88.6981201,156.384339 87.8568481,148.292297" id="Shape" fill="#D34A47"></path>
            </g>
        </g>
    </g>
</svg>