<?xml version="1.0" encoding="UTF-8"?>
<svg width="256px" height="256px" viewBox="0 0 256 256" version="1.1" xmlns="http://www.w3.org/2000/svg" xmlns:xlink="http://www.w3.org/1999/xlink">
    <!-- Generator: Sketch 43.2 (39069) - http://www.bohemiancoding.com/sketch -->
    <title>vultr</title>
    <desc>Created with Sketch.</desc>
    <defs></defs>
    <g id="Page-1" stroke="none" stroke-width="1" fill="none" fill-rule="evenodd">
        <g id="vultr" fill-rule="nonzero">
            <g id="group" transform="translate(0.000000, 12.000000)">
                <path d="M148.753452,202.453488 L225.439842,11.1121751 C228.280079,4.31805746 232.382643,1 237.905325,1 C243.428008,1 247.530572,2.42202462 250.055227,5.26607387 C252.579882,8.11012312 254,11.1121751 254,14.4302326 C254,17.74829 253.684418,20.1183311 253.053254,21.5403557 L172.579882,216.98974 C168.003945,226.943912 161.218935,232 152.382643,232 L145.282051,232 C136.287968,232 129.66075,227.101915 125.084813,216.98974 L94,141.622435 L124.453649,141.622435 L148.753452,202.453488 Z" id="Shape" fill="#2B2A29"></path>
                <path d="M72.4019746,12.0939691 L72.4019746,12.0939691 C69.7165021,5.59607293 63.3977433,1 55.9732017,1 L55.6572638,1 L55.6572638,1 L15.3751763,1 L15.3751763,1 L15.3751763,1 C7.31875882,1 1,7.49789621 1,15.4221599 C1,23.3464236 7.47672779,30.002805 15.3751763,30.002805 L15.3751763,30.002805 L47.6008463,30.002805 L64.0296192,70.0995792 L81.7221439,114 L113,114 L72.4019746,12.0939691 Z" id="Shape" fill="#1E88E5"></path>
            </g>
        </g>
    </g>
</svg>