<?xml version="1.0" encoding="UTF-8"?>
<svg width="256px" height="256px" viewBox="0 0 256 256" version="1.1" xmlns="http://www.w3.org/2000/svg" xmlns:xlink="http://www.w3.org/1999/xlink">
    <!-- Generator: Sketch 44.1 (41455) - http://www.bohemiancoding.com/sketch -->
    <title>vultr</title>
    <desc>Created with Sketch.</desc>
    <defs></defs>
    <g id="Technologies" stroke="none" stroke-width="1" fill="none" fill-rule="evenodd">
        <g id="vultr" fill-rule="nonzero">
            <g id="group" transform="translate(38.000000, 46.000000)">
                <path d="M105.122427,143.328494 L159.682638,7.19452831 C161.703387,2.3607046 164.622246,0 168.551479,0 C172.480712,0 175.399571,1.01173054 177.195792,3.03519163 C178.992013,5.05865272 180.002388,7.19452831 180.002388,9.55523291 C180.002388,11.9159375 179.77786,13.6021551 179.328805,14.6138856 L122.074262,153.670628 C118.818612,160.752742 113.991268,164.350006 107.704495,164.350006 L102.652623,164.350006 C96.2535863,164.350006 91.5385063,160.865156 88.2828559,153.670628 L66.1668856,100.048909 L87.8338007,100.048909 L105.122427,143.328494 Z" id="Shape" fill="#2B2A29"></path>
                <path d="M50.8004977,7.89304717 L50.8004977,7.89304717 C48.8898595,3.26997669 44.3942402,0 39.1118876,0 L38.8871066,0 L38.8871066,0 L10.2275338,0 L10.2275338,0 L10.2275338,0 C4.49561926,0 0,4.62307049 0,10.2609613 C0,15.8988522 4.60800975,20.6346805 10.2275338,20.6346805 L10.2275338,20.6346805 L33.1551921,20.6346805 L44.8438022,49.1624081 L57.4315361,80.3963233 L79.6848514,80.3963233 L50.8004977,7.89304717 Z" id="Shape" fill="#1E88E5"></path>
            </g>
        </g>
    </g>
</svg>