<?xml version="1.0" encoding="UTF-8"?>
<svg width="256px" height="256px" viewBox="0 0 256 256" version="1.1" xmlns="http://www.w3.org/2000/svg" xmlns:xlink="http://www.w3.org/1999/xlink">
    <!-- Generator: Sketch 44.1 (41455) - http://www.bohemiancoding.com/sketch -->
    <title>yarn</title>
    <desc>Created with Sketch.</desc>
    <defs></defs>
    <g id="Technologies" stroke="none" stroke-width="1" fill="none" fill-rule="evenodd">
        <g id="yarn" fill-rule="nonzero">
            <g id="group" transform="translate(30.000000, 30.000000)">
                <path d="M98,0 C152.108108,0 196,43.8918919 196,98 C196,152.108108 152.108108,196 98,196 C43.8918919,196 0,152.108108 0,98 C0,43.8918919 43.8918919,0 98,0 Z" id="Shape" fill="#2C8EBB"></path>
                <path d="M164.67027,127.702703 C163.989189,122.32973 159.448649,118.621622 153.621622,118.697297 C144.918919,118.810811 137.616216,123.313514 132.772973,126.302703 C130.881081,127.475676 129.254054,128.345946 127.854054,128.989189 C128.156757,124.6 127.891892,118.848649 125.621622,112.52973 C122.859459,104.962162 119.151351,100.308108 116.502703,97.6216216 C119.567568,93.1567568 123.767568,86.6486486 125.735135,76.5837838 C127.437838,67.9945946 126.908108,54.6378378 123.010811,47.1459459 C122.216216,45.6324324 120.891892,44.5351351 119.227027,44.0810811 C118.545946,43.8918919 117.259459,43.5135135 114.724324,44.2324324 C110.902703,36.3243243 109.578378,35.4918919 108.556757,34.8108108 C106.437838,33.4486486 103.940541,33.1459459 101.594595,34.0162162 C98.4540541,35.1513514 95.7675676,38.1783784 93.2324324,43.5513514 C92.8540541,44.3459459 92.5135135,45.1027027 92.2108108,45.8594595 C87.4054054,46.2 79.8378378,47.9405405 73.4432432,54.8648649 C72.6486486,55.7351351 71.0972973,56.3783784 69.4702703,56.9837838 L69.5081081,56.9837838 C66.1783784,58.1567568 64.6648649,60.8810811 62.8108108,65.8 C60.2378378,72.6864865 62.8864865,79.4594595 65.4972973,83.8486486 C61.9405405,87.027027 57.2108108,92.0972973 54.7135135,98.0378378 C51.6108108,105.378378 51.2702703,112.567568 51.3837838,116.464865 C48.7351351,119.264865 44.6486486,124.524324 44.1945946,130.427027 C43.5891892,138.675676 46.5783784,144.275676 47.9027027,146.318919 C48.2810811,146.924324 48.6972973,147.416216 49.1513514,147.908108 C49,148.92973 48.9621622,150.027027 49.1891892,151.162162 C49.6810811,153.810811 51.3459459,155.967568 53.8810811,157.32973 C58.8756757,159.978378 65.8378378,161.113514 71.2108108,158.427027 C73.1405405,160.47027 76.6594595,162.437838 83.0540541,162.437838 L83.4324324,162.437838 C85.0594595,162.437838 105.718919,161.340541 111.735135,159.864865 C114.421622,159.221622 116.275676,158.086486 117.486486,157.064865 C121.345946,155.854054 132.016216,152.221622 142.081081,145.713514 C149.194595,141.097297 151.654054,140.113514 156.951351,138.827027 C162.097297,137.578378 165.313514,132.886486 164.67027,127.702703 L164.67027,127.702703 Z M155.664865,133.264865 C149.610811,134.702703 146.545946,136.027027 139.054054,140.908108 C127.362162,148.475676 114.572973,151.994595 114.572973,151.994595 C114.572973,151.994595 113.513514,153.583784 110.448649,154.302703 C105.151351,155.589189 85.2108108,156.686486 83.3945946,156.724324 C78.5135135,156.762162 75.5243243,155.475676 74.6918919,153.47027 C72.1567568,147.416216 78.3243243,144.767568 78.3243243,144.767568 C78.3243243,144.767568 76.9621622,143.935135 76.1675676,143.178378 C75.4486486,142.459459 74.6918919,141.021622 74.4648649,141.551351 C73.5189189,143.859459 73.027027,149.497297 70.4918919,152.032432 C67.0108108,155.551351 60.427027,154.378378 56.5297297,152.335135 C52.2540541,150.064865 56.8324324,144.72973 56.8324324,144.72973 C56.8324324,144.72973 54.5243243,146.091892 52.6702703,143.291892 C51.0054054,140.718919 49.4540541,136.32973 49.8702703,130.918919 C50.3243243,124.751351 57.2108108,118.772973 57.2108108,118.772973 C57.2108108,118.772973 56,109.654054 59.972973,100.308108 C63.5675676,91.7945946 73.2540541,84.9459459 73.2540541,84.9459459 C73.2540541,84.9459459 65.1189189,75.9405405 68.1459459,67.8432432 C70.1135135,62.5459459 70.9081081,62.5837838 71.5513514,62.3567568 C73.8216216,61.4864865 76.0162162,60.5405405 77.6432432,58.7621622 C85.7783784,49.9837838 96.1459459,51.6486486 96.1459459,51.6486486 C96.1459459,51.6486486 101.064865,36.7027027 105.605405,39.6162162 C107.005405,40.5243243 112.037838,51.7243243 112.037838,51.7243243 C112.037838,51.7243243 117.410811,48.5837838 118.016216,49.7567568 C121.27027,56.0756757 121.648649,68.1459459 120.210811,75.4864865 C117.789189,87.5945946 111.735135,94.1027027 109.313514,98.1891892 C108.745946,99.1351351 115.821622,102.124324 120.286486,114.497297 C124.410811,125.810811 120.740541,135.308108 121.383784,136.367568 C121.497297,136.556757 121.535135,136.632432 121.535135,136.632432 C121.535135,136.632432 126.264865,137.010811 135.762162,131.145946 C140.832432,128.005405 146.848649,124.486486 153.697297,124.410811 C160.318919,124.297297 160.659459,132.054054 155.664865,133.264865 L155.664865,133.264865 Z" id="Shape" fill="#FFFFFF"></path>
            </g>
        </g>
    </g>
</svg>