<?xml version="1.0" standalone="no"?>
<!DOCTYPE svg PUBLIC "-//W3C//DTD SVG 20010904//EN"
 "http://www.w3.org/TR/2001/REC-SVG-20010904/DTD/svg10.dtd">
<svg version="1.0" xmlns="http://www.w3.org/2000/svg"
 width="16.000000pt" height="16.000000pt" viewBox="0 0 16.000000 16.000000"
 preserveAspectRatio="xMidYMid meet">
<metadata>
Created by potrace 1.11, written by Peter Selinger 2001-2013
</metadata>
<g transform="translate(0.000000,16.000000) scale(0.003125,-0.003125)"
fill="#000000" stroke="none">
<path d="M200 2558 c0 -2248 1 -2360 18 -2346 17 15 2306 1648 2329 1661 7 5
467 -316 1160 -809 631 -449 1163 -828 1181 -841 l32 -24 0 674 0 675 -702
502 c-387 276 -703 505 -703 510 0 5 316 234 703 510 l702 501 0 674 0 674
-1175 -839 c-647 -462 -1180 -840 -1185 -840 -5 0 -538 378 -1185 840 l-1175
839 0 -2361z m1318 258 c182 -126 332 -232 332 -236 0 -4 -192 -148 -427 -320
-236 -172 -436 -320 -445 -328 -17 -14 -18 16 -18 627 l0 641 113 -77 c62 -43
262 -181 445 -307z"/>
</g>
</svg>
