<?xml version="1.0" standalone="no"?>
<!DOCTYPE svg PUBLIC "-//W3C//DTD SVG 20010904//EN"
 "http://www.w3.org/TR/2001/REC-SVG-20010904/DTD/svg10.dtd">
<svg version="1.0" xmlns="http://www.w3.org/2000/svg"
 width="16.000000pt" height="16.000000pt" viewBox="0 0 16.000000 16.000000"
 preserveAspectRatio="xMidYMid meet">
<metadata>
Created by potrace 1.11, written by Peter Selinger 2001-2013
</metadata>
<g transform="translate(0.000000,16.000000) scale(0.003125,-0.003125)"
fill="#000000" stroke="none">
<path d="M0 2559 l0 -2560 33 23 c17 12 37 26 42 31 6 5 285 204 620 443 336
240 619 442 630 450 11 8 200 143 420 300 220 157 411 294 425 304 85 63 380
270 386 270 6 0 145 -97 379 -266 50 -36 106 -76 125 -88 19 -13 121 -85 225
-159 105 -75 287 -205 405 -289 118 -84 220 -156 225 -161 6 -4 55 -39 110
-78 55 -38 108 -76 117 -84 9 -7 29 -22 45 -32 21 -14 555 -393 658 -467 147
-107 261 -186 267 -186 5 0 8 327 8 728 l-1 727 -246 175 c-135 96 -265 189
-289 205 -94 66 -581 414 -664 475 -49 36 -144 103 -210 150 -65 47 -119 87
-119 90 0 3 139 104 309 225 170 121 320 228 332 237 13 10 115 83 228 163
113 80 212 151 220 158 9 7 38 28 65 46 28 19 52 37 55 40 3 4 13 11 22 16 9
6 80 55 157 110 l141 100 0 732 0 733 -73 -52 c-39 -29 -206 -148 -370 -265
-164 -116 -308 -220 -321 -230 -13 -10 -32 -24 -42 -31 -19 -13 -1189 -846
-1234 -879 -14 -10 -136 -98 -272 -195 l-248 -177 -497 355 c-274 195 -507
362 -518 370 -11 8 -92 66 -180 128 -88 63 -171 123 -185 133 -36 26 -729 521
-972 694 l-208 148 0 -2560z m1060 332 c36 -25 70 -49 75 -54 6 -5 96 -69 200
-143 105 -75 188 -139 186 -142 -5 -8 -77 -62 -103 -77 -9 -5 -109 -76 -222
-157 -114 -82 -210 -148 -214 -148 -4 0 -7 175 -7 389 0 257 3 387 10 383 6
-3 39 -27 75 -51z"/>
</g>
</svg>
